<svg width="100" height="100" viewBox="0 0 100 100" fill="none" xmlns="http://www.w3.org/2000/svg">
<path fill-rule="evenodd" clip-rule="evenodd" d="M61.3051 86.7583C61.7162 86.4974 62.1649 86.2996 62.6313 86.16C80.7756 80.7317 94 63.9102 94 44C94 19.6995 74.3005 0 50 0C25.6995 0 6 19.6995 6 44C6 61.3112 15.9972 76.2874 30.5331 83.4703C30.5496 83.4784 30.5428 83.5033 30.5246 83.5019C30.5128 83.501 30.5039 83.5123 30.5074 83.5235L34.5422 96.3004C35.5309 99.4311 39.2173 100.776 41.9893 99.0164L61.3051 86.7583Z" fill="#AF2D2D"/>
<path d="M64.1069 34.8545C65.2977 33.6637 65.2977 31.733 64.1069 30.5421L63.4579 29.8931C62.267 28.7023 60.3363 28.7023 59.1455 29.8931L50 39.0386L40.8545 29.8931C39.6637 28.7023 37.733 28.7023 36.5421 29.8931L35.8931 30.5421C34.7023 31.733 34.7023 33.6637 35.8931 34.8545L45.0386 44L35.8931 53.1455C34.7023 54.3363 34.7023 56.267 35.8931 57.4579L36.5421 58.1069C37.733 59.2977 39.6637 59.2977 40.8545 58.1069L50 48.9614L59.1455 58.1069C60.3363 59.2977 62.267 59.2977 63.4579 58.1069L64.1069 57.4579C65.2977 56.267 65.2977 54.3363 64.1069 53.1455L54.9614 44L64.1069 34.8545Z" fill="white"/>
</svg>
