<svg width="126" height="104" viewBox="0 0 126 104" fill="none" xmlns="http://www.w3.org/2000/svg">
<circle cx="51.626" cy="45.1356" r="8.17411" fill="#AF2D2D"/>
<circle cx="108.134" cy="31.9857" r="17.7698" fill="#AF2D2D"/>
<path fill-rule="evenodd" clip-rule="evenodd" d="M49.9595 60.2283C49.8015 59.4374 49.2229 58.7965 48.4521 58.5588C47.5866 58.2919 46.6459 58.5834 46.083 59.2931L42.8478 63.3714C40.6321 66.1646 37.0794 67.4853 33.5281 67.1686C24.8246 66.3926 15.8407 67.0885 6.90429 69.4471C-34.428 80.3563 -59.0907 122.706 -48.1816 164.039C-37.2724 205.371 5.07766 230.034 46.4099 219.124C87.7422 208.215 112.405 165.865 101.496 124.533C95.2402 100.832 78.6462 82.6121 57.8341 73.4377C54.368 71.9098 51.6947 68.9156 50.9527 65.2011L49.9595 60.2283Z" fill="#AF2D2D"/>
<circle cx="24.0176" cy="5.44312" r="4.17847" transform="rotate(-22.0902 24.0176 5.44312)" fill="#AF2D2D"/>
</svg>
