<svg width="100" height="100" viewBox="0 0 100 100" fill="none" xmlns="http://www.w3.org/2000/svg">
<path fill-rule="evenodd" clip-rule="evenodd" d="M50 88C74.3005 88 94 68.3005 94 44C94 19.6995 74.3005 0 50 0C25.6995 0 6 19.6995 6 44C6 57.6828 12.2456 69.9069 22.0415 77.9769C22.0571 77.9898 22.0432 78.0148 22.024 78.0082C22.0122 78.0042 22 78.0129 22 78.0254V91.8802C22 95.6042 25.9252 98.0213 29.2507 96.345L44.8684 88.4723C45.6977 88.0542 46.6267 87.8824 47.554 87.9332C48.3637 87.9775 49.1792 88 50 88Z" fill="#004440"/>
<path fill-rule="evenodd" clip-rule="evenodd" d="M66.6253 30.4142C67.9378 31.4205 68.1883 33.2992 67.1853 34.6143L49.63 57.6316C49.0213 58.4298 48.0986 58.9258 47.0986 58.9923C46.0986 59.0589 45.1186 58.6895 44.41 57.979L33.113 46.6522C31.9451 45.4813 31.9451 43.5861 33.113 42.4152L33.7926 41.7337C34.9648 40.5584 36.8686 40.5584 38.0408 41.7337L46.5188 50.234L61.6526 30.3915C62.6592 29.0717 64.5462 28.8201 65.8634 29.83L66.6253 30.4142Z" fill="white"/>
</svg>
