<svg width="121" height="88" viewBox="0 0 121 88" fill="none" xmlns="http://www.w3.org/2000/svg">
<path d="M114.887 11.9369C118.747 21.4464 114.167 32.2841 104.657 36.1436C103.608 36.5693 102.543 36.8924 101.473 37.1174C95.5177 38.3698 88.8672 40.0731 85.6807 45.2575C81.9604 51.3105 83.9937 59.171 89.4872 63.6767C100.441 72.6603 109.304 84.5011 114.81 98.6423C131.904 142.542 110.174 191.987 66.2743 209.08C22.3748 226.174 -27.07 204.444 -44.1638 160.544C-61.2575 116.645 -39.5272 67.2001 4.37225 50.1063C23.5467 42.6401 43.779 42.5806 61.9114 48.54C68.4791 50.6986 75.9669 48.6533 79.5869 42.7636L80.933 40.5735C83.6023 36.2304 82.3676 30.637 80.4505 25.9134C76.591 16.404 81.1712 5.56627 90.6806 1.70677C100.19 -2.15273 111.028 2.42746 114.887 11.9369Z" fill="#004440"/>
</svg>
