<svg width="88" height="97" viewBox="0 0 88 97" fill="none" xmlns="http://www.w3.org/2000/svg">
<path fill-rule="evenodd" clip-rule="evenodd" d="M44 88C68.3005 88 88 68.3005 88 44C88 19.6995 68.3005 0 44 0C19.6995 0 0 19.6995 0 44C0 57.6828 6.24559 69.9069 16.0415 77.9769C16.0571 77.9898 16.0432 78.0148 16.024 78.0082C16.0122 78.0042 16 78.0129 16 78.0254V91.8802C16 95.6042 19.9252 98.0213 23.2507 96.345L38.8684 88.4723C39.6977 88.0542 40.6267 87.8824 41.554 87.9332C42.3637 87.9775 43.1792 88 44 88Z" fill="#004440"/>
</svg>
