<svg width="85" height="65" viewBox="0 0 85 65" fill="none" xmlns="http://www.w3.org/2000/svg">
<path d="M85 26L5 26L5 18C5 13.5817 8.58172 9.99999 13 9.99999L77 10C81.4183 10 85 13.5817 85 18L85 26Z" fill="#FF8686"/>
<path d="M8 23H76" stroke="black" stroke-width="2" stroke-linecap="round" stroke-linejoin="round"/>
<path d="M10 6C5.02944 6 1 10.0294 1 15V55C1 59.9706 5.02944 64 10 64H74C78.9706 64 83 59.9706 83 55V15C83 10.0294 78.9706 6 74 6H10Z" stroke="black" stroke-width="2"/>
<circle cx="66" cy="36" r="3" stroke="black" stroke-width="2"/>
<circle cx="66" cy="50" r="3" stroke="black" stroke-width="2"/>
<circle cx="50" cy="36" r="3" stroke="black" stroke-width="2"/>
<circle cx="50" cy="50" r="3" stroke="black" stroke-width="2"/>
<circle cx="34" cy="36" r="3" stroke="black" stroke-width="2"/>
<circle cx="34" cy="50" r="3" stroke="black" stroke-width="2"/>
<circle cx="18" cy="36" r="3" stroke="black" stroke-width="2"/>
<circle cx="18" cy="50" r="3" stroke="black" stroke-width="2"/>
<rect x="62" y="1" width="4" height="10" rx="2" stroke="black" stroke-width="2"/>
<rect x="18" y="1" width="4" height="10" rx="2" stroke="black" stroke-width="2"/>
</svg>
