<svg width="64" height="22" viewBox="0 0 64 22" fill="none" xmlns="http://www.w3.org/2000/svg">
<rect width="64" height="22" rx="11" fill="#D9F7BE"/>
<path d="M13.664 12.808L12.314 9.31C12.274 9.206 12.232 9.086 12.188 8.95C12.144 8.81 12.102 8.662 12.062 8.506C11.978 8.83 11.892 9.1 11.804 9.316L10.454 12.808H13.664ZM16.088 16H15.188C15.084 16 15 15.974 14.936 15.922C14.872 15.87 14.824 15.804 14.792 15.724L13.988 13.648H10.13L9.326 15.724C9.302 15.796 9.256 15.86 9.188 15.916C9.12 15.972 9.036 16 8.936 16H8.036L11.474 7.402H12.65L16.088 16ZM21.6946 9.922L19.2166 16H18.2566L15.7786 9.922H16.6486C16.7366 9.922 16.8086 9.944 16.8646 9.988C16.9206 10.032 16.9586 10.084 16.9786 10.144L18.5206 14.056C18.5686 14.204 18.6106 14.348 18.6466 14.488C18.6826 14.628 18.7166 14.768 18.7486 14.908C18.7806 14.768 18.8146 14.628 18.8506 14.488C18.8866 14.348 18.9306 14.204 18.9826 14.056L20.5426 10.144C20.5666 10.08 20.6066 10.028 20.6626 9.988C20.7186 9.944 20.7846 9.922 20.8606 9.922H21.6946ZM25.8392 13.264C25.3472 13.28 24.9272 13.32 24.5792 13.384C24.2352 13.444 23.9532 13.524 23.7332 13.624C23.5172 13.724 23.3592 13.842 23.2592 13.978C23.1632 14.114 23.1152 14.266 23.1152 14.434C23.1152 14.594 23.1412 14.732 23.1932 14.848C23.2452 14.964 23.3152 15.06 23.4032 15.136C23.4952 15.208 23.6012 15.262 23.7212 15.298C23.8452 15.33 23.9772 15.346 24.1172 15.346C24.3052 15.346 24.4772 15.328 24.6332 15.292C24.7892 15.252 24.9352 15.196 25.0712 15.124C25.2112 15.052 25.3432 14.966 25.4672 14.866C25.5952 14.766 25.7192 14.652 25.8392 14.524V13.264ZM22.3892 10.78C22.7252 10.456 23.0872 10.214 23.4752 10.054C23.8632 9.894 24.2932 9.814 24.7652 9.814C25.1052 9.814 25.4072 9.87 25.6712 9.982C25.9352 10.094 26.1572 10.25 26.3372 10.45C26.5172 10.65 26.6532 10.892 26.7452 11.176C26.8372 11.46 26.8832 11.772 26.8832 12.112V16H26.4092C26.3052 16 26.2252 15.984 26.1692 15.952C26.1132 15.916 26.0692 15.848 26.0372 15.748L25.9172 15.172C25.7572 15.32 25.6012 15.452 25.4492 15.568C25.2972 15.68 25.1372 15.776 24.9692 15.856C24.8012 15.932 24.6212 15.99 24.4292 16.03C24.2412 16.074 24.0312 16.096 23.7992 16.096C23.5632 16.096 23.3412 16.064 23.1332 16C22.9252 15.932 22.7432 15.832 22.5872 15.7C22.4352 15.568 22.3132 15.402 22.2212 15.202C22.1332 14.998 22.0892 14.758 22.0892 14.482C22.0892 14.242 22.1552 14.012 22.2872 13.792C22.4192 13.568 22.6332 13.37 22.9292 13.198C23.2252 13.026 23.6112 12.886 24.0872 12.778C24.5632 12.666 25.1472 12.602 25.8392 12.586V12.112C25.8392 11.64 25.7372 11.284 25.5332 11.044C25.3292 10.8 25.0312 10.678 24.6392 10.678C24.3752 10.678 24.1532 10.712 23.9732 10.78C23.7972 10.844 23.6432 10.918 23.5112 11.002C23.3832 11.082 23.2712 11.156 23.1752 11.224C23.0832 11.288 22.9912 11.32 22.8992 11.32C22.8272 11.32 22.7652 11.302 22.7132 11.266C22.6612 11.226 22.6172 11.178 22.5812 11.122L22.3892 10.78ZM29.6381 9.922V16H28.5701V9.922H29.6381ZM29.8661 8.014C29.8661 8.118 29.8441 8.216 29.8001 8.308C29.7601 8.396 29.7041 8.476 29.6321 8.548C29.5641 8.616 29.4821 8.67 29.3861 8.71C29.2941 8.75 29.1961 8.77 29.0921 8.77C28.9881 8.77 28.8901 8.75 28.7981 8.71C28.7101 8.67 28.6321 8.616 28.5641 8.548C28.4961 8.476 28.4421 8.396 28.4021 8.308C28.3621 8.216 28.3421 8.118 28.3421 8.014C28.3421 7.91 28.3621 7.812 28.4021 7.72C28.4421 7.624 28.4961 7.542 28.5641 7.474C28.6321 7.402 28.7101 7.346 28.7981 7.306C28.8901 7.266 28.9881 7.246 29.0921 7.246C29.1961 7.246 29.2941 7.266 29.3861 7.306C29.4821 7.346 29.5641 7.402 29.6321 7.474C29.7041 7.542 29.7601 7.624 29.8001 7.72C29.8441 7.812 29.8661 7.91 29.8661 8.014ZM32.4969 7.162V16H31.4289V7.162H32.4969ZM37.5228 13.264C37.0308 13.28 36.6108 13.32 36.2628 13.384C35.9188 13.444 35.6368 13.524 35.4168 13.624C35.2008 13.724 35.0428 13.842 34.9428 13.978C34.8468 14.114 34.7988 14.266 34.7988 14.434C34.7988 14.594 34.8248 14.732 34.8768 14.848C34.9288 14.964 34.9988 15.06 35.0868 15.136C35.1788 15.208 35.2848 15.262 35.4048 15.298C35.5288 15.33 35.6608 15.346 35.8008 15.346C35.9888 15.346 36.1608 15.328 36.3168 15.292C36.4728 15.252 36.6188 15.196 36.7548 15.124C36.8948 15.052 37.0268 14.966 37.1508 14.866C37.2788 14.766 37.4028 14.652 37.5228 14.524V13.264ZM34.0728 10.78C34.4088 10.456 34.7708 10.214 35.1588 10.054C35.5468 9.894 35.9768 9.814 36.4488 9.814C36.7888 9.814 37.0908 9.87 37.3548 9.982C37.6188 10.094 37.8408 10.25 38.0208 10.45C38.2008 10.65 38.3368 10.892 38.4288 11.176C38.5208 11.46 38.5668 11.772 38.5668 12.112V16H38.0928C37.9888 16 37.9088 15.984 37.8528 15.952C37.7968 15.916 37.7528 15.848 37.7208 15.748L37.6008 15.172C37.4408 15.32 37.2848 15.452 37.1328 15.568C36.9808 15.68 36.8208 15.776 36.6528 15.856C36.4848 15.932 36.3048 15.99 36.1128 16.03C35.9248 16.074 35.7148 16.096 35.4828 16.096C35.2468 16.096 35.0248 16.064 34.8168 16C34.6088 15.932 34.4268 15.832 34.2708 15.7C34.1188 15.568 33.9968 15.402 33.9048 15.202C33.8168 14.998 33.7728 14.758 33.7728 14.482C33.7728 14.242 33.8388 14.012 33.9708 13.792C34.1028 13.568 34.3168 13.37 34.6128 13.198C34.9088 13.026 35.2948 12.886 35.7708 12.778C36.2468 12.666 36.8308 12.602 37.5228 12.586V12.112C37.5228 11.64 37.4208 11.284 37.2168 11.044C37.0128 10.8 36.7148 10.678 36.3228 10.678C36.0588 10.678 35.8368 10.712 35.6568 10.78C35.4808 10.844 35.3268 10.918 35.1948 11.002C35.0668 11.082 34.9548 11.156 34.8588 11.224C34.7668 11.288 34.6748 11.32 34.5828 11.32C34.5108 11.32 34.4488 11.302 34.3968 11.266C34.3448 11.226 34.3008 11.178 34.2648 11.122L34.0728 10.78ZM41.2677 14.536C41.4637 14.8 41.6777 14.986 41.9097 15.094C42.1457 15.202 42.4037 15.256 42.6837 15.256C43.2557 15.256 43.6937 15.054 43.9977 14.65C44.3017 14.246 44.4537 13.644 44.4537 12.844C44.4537 12.1 44.3177 11.554 44.0457 11.206C43.7777 10.854 43.3937 10.678 42.8937 10.678C42.5457 10.678 42.2417 10.758 41.9817 10.918C41.7257 11.078 41.4877 11.304 41.2677 11.596V14.536ZM41.2677 10.798C41.5237 10.502 41.8117 10.266 42.1317 10.09C42.4557 9.914 42.8277 9.826 43.2477 9.826C43.6037 9.826 43.9237 9.894 44.2077 10.03C44.4957 10.166 44.7397 10.364 44.9397 10.624C45.1397 10.88 45.2917 11.192 45.3957 11.56C45.5037 11.928 45.5577 12.342 45.5577 12.802C45.5577 13.294 45.4977 13.742 45.3777 14.146C45.2577 14.55 45.0837 14.896 44.8557 15.184C44.6317 15.468 44.3577 15.69 44.0337 15.85C43.7097 16.006 43.3457 16.084 42.9417 16.084C42.5417 16.084 42.2037 16.01 41.9277 15.862C41.6557 15.71 41.4177 15.496 41.2137 15.22L41.1597 15.772C41.1277 15.924 41.0357 16 40.8837 16H40.1937V7.162H41.2677V10.798ZM48.0125 7.162V16H46.9445V7.162H48.0125ZM53.8124 12.298C53.8124 12.05 53.7764 11.824 53.7044 11.62C53.6364 11.412 53.5344 11.234 53.3984 11.086C53.2664 10.934 53.1044 10.818 52.9124 10.738C52.7204 10.654 52.5024 10.612 52.2584 10.612C51.7464 10.612 51.3404 10.762 51.0404 11.062C50.7444 11.358 50.5604 11.77 50.4884 12.298H53.8124ZM54.6764 15.148C54.5444 15.308 54.3864 15.448 54.2024 15.568C54.0184 15.684 53.8204 15.78 53.6084 15.856C53.4004 15.932 53.1844 15.988 52.9604 16.024C52.7364 16.064 52.5144 16.084 52.2944 16.084C51.8744 16.084 51.4864 16.014 51.1304 15.874C50.7784 15.73 50.4724 15.522 50.2124 15.25C49.9564 14.974 49.7564 14.634 49.6124 14.23C49.4684 13.826 49.3964 13.362 49.3964 12.838C49.3964 12.414 49.4604 12.018 49.5884 11.65C49.7204 11.282 49.9084 10.964 50.1524 10.696C50.3964 10.424 50.6944 10.212 51.0464 10.06C51.3984 9.904 51.7944 9.826 52.2344 9.826C52.5984 9.826 52.9344 9.888 53.2424 10.012C53.5544 10.132 53.8224 10.308 54.0464 10.54C54.2744 10.768 54.4524 11.052 54.5804 11.392C54.7084 11.728 54.7724 12.112 54.7724 12.544C54.7724 12.712 54.7544 12.824 54.7184 12.88C54.6824 12.936 54.6144 12.964 54.5144 12.964H50.4524C50.4644 13.348 50.5164 13.682 50.6084 13.966C50.7044 14.25 50.8364 14.488 51.0044 14.68C51.1724 14.868 51.3724 15.01 51.6044 15.106C51.8364 15.198 52.0964 15.244 52.3844 15.244C52.6524 15.244 52.8824 15.214 53.0744 15.154C53.2704 15.09 53.4384 15.022 53.5784 14.95C53.7184 14.878 53.8344 14.812 53.9264 14.752C54.0224 14.688 54.1044 14.656 54.1724 14.656C54.2604 14.656 54.3284 14.69 54.3764 14.758L54.6764 15.148Z" fill="#0A5C1F"/>
</svg>
