<svg width="24" height="24" viewBox="0 0 24 24" fill="none" xmlns="http://www.w3.org/2000/svg">
<path fill-rule="evenodd" clip-rule="evenodd" d="M6.30003 5.67C5.99003 5.54 5.29003 6.18 4.59003 6.89L2.84003 5.18C3.06003 4.91 3.36003 4.61 3.72003 4.25C3.97003 4 5.12003 3 6.44003 3C7.31003 3 8.95003 3.69 8.95003 5.86C8.95003 7.22 8.43003 8 7.65003 9.14C7.20003 9.8 6.15003 11.57 5.80003 12.66C5.44003 13.75 5.71003 14.58 6.16003 14.58C6.57224 14.58 6.98445 14.0838 7.23809 13.7784C7.24903 13.7652 7.25968 13.7524 7.27003 13.74C7.50003 13.5 8.98003 11.75 9.56003 11.02C10.32 10.09 12.25 8.18 14.5 8.18C17.44 8.18 18.38 10.73 18.53 12.38H21V14.88H18.54C18.14 19.65 15.48 20.98 13.85 20.98C12.08 20.98 10.64 19.59 10.64 17.89C10.64 16.19 12.24 13.16 16.02 12.52C16.0129 12.4697 16.0062 12.4184 15.9994 12.3665C15.9007 11.6139 15.7849 10.73 14.26 10.73C13.01 10.73 11.39 12.68 10.18 14.17L10.1674 14.1856C9.06332 15.5483 8.18595 16.6312 7.12003 16.94C6.22003 17.21 5.23003 17.04 4.48003 16.48C3.62003 15.84 3.14003 14.78 3.14003 13.5C3.14003 11.3926 5.11932 8.48891 5.79574 7.49658C5.89607 7.34939 5.96774 7.24425 6.00003 7.19C6.30003 6.7 6.80003 5.87 6.30003 5.67ZM13.14 17.83C13.14 18.29 13.57 18.55 13.88 18.55C14.58 18.55 15.71 17.76 16.01 15.07C13.87 15.63 13.14 17.23 13.14 17.83Z" fill="#E4A5EE"/>
</svg>
