<svg width="142" height="103" viewBox="0 0 142 103" fill="none" xmlns="http://www.w3.org/2000/svg">
<g clip-path="url(#clip0)">
<mask id="mask0" mask-type="alpha" maskUnits="userSpaceOnUse" x="1" y="2" width="138" height="99">
<path d="M3.37784 40.5224C-15.5441 -22.0852 84.472 9.77762 91.2298 12.5726C97.9876 15.3676 168.269 32.6965 125.019 68.4723C70.9563 113.192 27.0303 118.782 3.37784 40.5224Z" fill="#69D9C8"/>
</mask>
<g mask="url(#mask0)">
<rect x="-3.99976" y="-5.99994" width="146" height="109" fill="#69D9C8"/>
</g>
<path d="M111 44L31 44L31 36C31 31.5817 34.5817 28 39 28L103 28C107.418 28 111 31.5817 111 36L111 44Z" fill="#FF8686"/>
<path d="M34 41H102" stroke="black" stroke-width="2" stroke-linecap="round" stroke-linejoin="round"/>
<path d="M36 24C31.0294 24 27 28.0294 27 33V73C27 77.9706 31.0294 82 36 82H100C104.971 82 109 77.9706 109 73V33C109 28.0294 104.971 24 100 24H36Z" stroke="black" stroke-width="2"/>
<circle cx="92" cy="54" r="3" stroke="black" stroke-width="2"/>
<circle cx="92" cy="68" r="3" stroke="black" stroke-width="2"/>
<circle cx="76" cy="54" r="3" stroke="black" stroke-width="2"/>
<circle cx="76" cy="68" r="3" stroke="black" stroke-width="2"/>
<circle cx="60" cy="54" r="3" stroke="black" stroke-width="2"/>
<circle cx="60" cy="68" r="3" stroke="black" stroke-width="2"/>
<circle cx="44" cy="54" r="3" stroke="black" stroke-width="2"/>
<circle cx="44" cy="68" r="3" stroke="black" stroke-width="2"/>
<rect x="88" y="19" width="4" height="10" rx="2" stroke="black" stroke-width="2"/>
<rect x="44" y="19" width="4" height="10" rx="2" stroke="black" stroke-width="2"/>
</g>
<defs>
<clipPath id="clip0">
<rect width="142" height="103" fill="white"/>
</clipPath>
</defs>
</svg>
