<svg width="18" height="19" viewBox="0 0 18 19" fill="none" xmlns="http://www.w3.org/2000/svg">
<path d="M8.40335 1.2517e-05L2.96589 0H0.571857C0.162828 0.364502 0 0.0910735 0 0.654683V3.29437C0 3.82741 0.208929 4.35127 0.571857 4.72837L5.88532 10.2493L5.88532 17.9808C5.88532 18.3345 6.06188 18.6616 6.35124 18.8482C6.50818 18.9491 6.6867 19 6.8662 19C7.01628 19 7.16636 18.9643 7.30466 18.893L11.2282 16.8546C11.5607 16.6814 11.7706 16.3287 11.7706 15.9425L11.7706 10.2493L13.8408 8.50001L16.4081 11.4135L17.7953 9.97212L8.40335 1.2517e-05ZM12.1422 6.98096L10.0963 9.10678C9.91186 9.29737 9.80886 9.55624 9.80886 9.82735L9.80886 15.3126L7.84709 16.3318V9.82735C7.84709 9.55625 7.7441 9.29737 7.55969 9.10678L1.96177 3.29437L1.97726 2.00001H6.8662L12.1422 6.98096Z" fill="white"/>
<path d="M17.0191 8.70228e-06H10.9655L12.9273 2.03838H16.0392L16.0412 3.65175L15.2606 4.4628L16.6476 5.90393L17.4282 5.09288C17.7911 4.71578 18 4.19192 18 3.65888V1.01919C18 0.455585 17.5616 8.70228e-06 17.0191 8.70228e-06Z" fill="white"/>
</svg>
