<svg width="19" height="22" viewBox="0 0 19 22" fill="none" xmlns="http://www.w3.org/2000/svg">
<path d="M5.41421 0L4 1.41421L5.1716 2.58582L1 2.58582C0.447 2.58582 0 3.02797 0 3.57497V6.13193C0 6.65717 0.211 7.16064 0.586 7.53158L6.70711 13.5863C6.89464 13.7718 7 14.0234 7 14.2857L7 20.5954C7 21.3307 7.78231 21.809 8.44721 21.4801L10.4472 20.491C10.786 20.3234 11 19.9809 11 19.6062V14.2857C11 14.0234 11.1054 13.7718 11.2929 13.5863L13.7458 11.16L16.7279 14.1421L18.1421 12.7279L5.41421 0Z" fill="#2E3A59"/>
<path d="M17.414 7.53158L16.5896 8.34701L10.8284 2.58582L17 2.58582C17.553 2.58582 18 3.02797 18 3.57497V6.13193C18 6.65717 17.789 7.16064 17.414 7.53158Z" fill="#2E3A59"/>
</svg>
