<svg width="1599" height="159" viewBox="0 0 1599 159" fill="none" xmlns="http://www.w3.org/2000/svg">
<path d="M144.306 82.2264C100.946 82.6264 29.4379 89.393 -0.896296 92.7263L-29 321L1597 312.726L1597 87.7265L1436.41 80.2265L1348.75 80.2265C1296.78 83.8932 1180.8 89.0265 1132.62 80.2265C1072.4 69.2265 1037.6 84.2265 1012.18 75.2265C991.834 68.0265 910.913 57.8932 872.995 53.7265L838.2 56.7264C786.007 47.2263 680.284 49.2265 650.842 47.2265C627.288 45.6266 567.869 52.8931 541.104 56.7264C464.822 50.2264 427.351 57.7264 404.6 60.7264C381.849 63.7264 389.21 58.7264 353.746 60.7264C318.281 62.7264 198.506 81.7264 144.306 82.2264Z" fill="#FFBAB4"/>
<path fill-rule="evenodd" clip-rule="evenodd" d="M60.2765 62.2772C60.1872 62.2738 60.0571 62.302 60.0137 62.2592C59.8278 62.0743 59.886 61.9301 60.16 61.8985C60.2244 61.8906 60.3471 61.9785 60.3633 62.0405C60.3818 62.1093 60.3099 62.1972 60.2765 62.2772ZM222.121 50.8508C222.282 50.764 222.443 50.6074 222.606 50.6051C222.896 50.6006 222.949 50.7719 222.745 50.9692C222.678 51.0345 222.549 51.1269 222.495 51.1055C222.357 51.0514 222.244 50.941 222.121 50.8508ZM236.944 49.6888C237.423 48.3543 238.228 48.2709 239.348 48.2551C238.88 49.2323 238.427 49.8274 236.944 49.6888ZM203.43 51.6341C203.357 51.5654 203.269 51.5045 203.217 51.4256C203.178 51.3681 203.186 51.2847 203.172 51.2126L203.399 51.6567C204.351 51.7096 204.942 50.125 206.443 51.2701C205.443 52.3848 204.532 52.4603 203.43 51.6341ZM143.93 52.8457C143.487 53.2582 143.046 53.6708 142.603 54.0833C142.818 54.4135 143.092 54.7629 142.597 55.0627C142.481 55.1337 142.234 55.0267 142.047 55.0007C142.247 54.6874 142.448 54.3741 142.65 54.0607C142.228 53.9593 141.531 53.8579 141.729 53.4082C142.15 52.4558 143.049 52.4704 143.968 52.8807L144.05 52.7714L143.93 52.8457ZM119.611 55.34C121.676 57.1636 126.404 57.2358 128.352 55.3513C129.739 54.0112 131.068 52.9663 133.162 54.1081L133.116 54.0664C134.533 54.5803 136.065 52.8345 137.462 54.2681C137.148 55.1078 135.276 54.3887 135.553 55.8416C136.722 56.8819 138.031 54.9275 139.199 55.952C139.437 55.9531 139.674 55.9542 139.912 55.9554L139.874 55.9204C139.807 55.97 139.73 56.0692 139.674 56.0602C139.522 56.0365 139.378 55.9678 139.232 55.9159C137.974 56.6406 136.262 56.8176 135.53 58.214C136.231 58.932 136.948 58.6333 137.557 58.5533C140.534 58.1645 143.527 57.3293 146.334 59.1056C150.831 57.0396 156.018 58.9309 160.641 56.8841C163.342 55.6883 166.559 55.0965 169.583 54.9568C173.226 54.7877 177.158 55.1078 180.505 54.462C184.89 53.6167 189.708 54.9331 193.708 52.3882C194.653 51.7874 195.682 52.3814 196.661 52.2529C196.829 52.2191 196.854 51.7615 197.152 52.1176L196.636 52.2236C196.389 54.1633 193.405 53.1839 193.012 55.2284C194.466 55.8111 196.572 55.9295 197.272 55.0965C198.184 54.01 198.834 52.7635 200.444 51.8877C200.862 52.7714 199.537 53.8398 200.749 54.5341C201.856 55.1675 202.71 54.4879 203.595 54.1678C208.329 52.4524 213.405 53.2673 218.298 52.3273C216.465 53.1174 214.911 54.1577 213.029 54.9106C213.981 55.5293 214.948 55.6916 215.74 55.5293C220.225 54.6096 225.097 55.1912 229.177 52.697C229.881 52.2653 230.688 52.2202 231.45 52.4535C233.532 53.0903 235.183 52.5685 237.136 51.6262C239.033 50.7099 241.56 50.9759 243.781 50.6761C247.663 50.1531 251.399 48.6135 255.434 49.0204C255.645 49.0407 255.885 48.9686 256.087 48.8885C257.656 48.2596 258.815 46.7065 260.973 47.3286C261.401 47.4526 262.177 46.5374 262.668 45.345C260.347 46.5419 258.169 45.2424 256.124 46.1227L256.155 46.0922C255.834 47.1765 254.9 46.8925 254.049 46.9274C252.429 46.9939 250.877 47.3918 249.37 47.9305C249.206 47.9857 249.193 48.4715 248.87 48.0737C249.049 48.0399 249.227 48.0049 249.405 47.97C249.389 47.7547 249.372 47.5394 249.358 47.323L249.381 47.3444C247.767 46.7719 246.389 47.7952 244.878 47.8899C243.633 47.9677 241.956 50.152 241.272 47.0379C241.082 46.1745 238.701 47.1742 237.271 46.9601C236.191 46.7978 234.373 46.6716 234.922 48.7927C235.14 49.6347 234.21 50.0077 233.426 50.1396C232.671 50.2692 232.288 49.9615 232.145 49.1602C231.715 46.7471 229.028 48.9235 227.79 47.5033C227.351 46.9995 226.913 48.5977 226.388 49.1737C226.732 49.4814 227.353 49.6189 227.196 50.232C227.181 50.2895 227.004 50.3706 226.94 50.3492C226.286 50.1283 226.586 49.5535 226.42 49.1489C225.025 49.2143 224.063 49.0813 222.653 48.1458C221.087 47.1089 217.961 47.4132 215.367 48.4941C216.037 49.2763 217.044 50.1768 215.526 51.0244C214.55 51.5699 213.847 51.5 213.531 50.3853L213.555 50.4112C212.924 49.9942 212.292 49.5772 211.632 49.1421C210.438 49.3191 210.807 51.0841 209.436 51.0751C208.284 50.3188 209.846 49.5456 209.26 48.7431C209.033 48.6654 208.701 48.4309 208.432 48.4805C206.052 48.9167 203.519 48.4366 201.237 49.6133C200.49 49.9987 199.278 50.4676 198.675 49.1669L198.697 49.1861C194.624 49.3845 190.561 50.374 186.471 49.3146C186.266 49.2616 185.972 49.2413 185.814 49.336C182.455 51.3276 178.59 49.1996 175.524 50.0494C170.747 51.3749 165.757 48.7364 161.307 51.3625C160.738 51.6984 159.994 51.4437 159.418 51.0368C158.837 50.6276 158.047 50.445 157.508 50.7663C155.014 52.2506 151.985 51.8978 149.35 52.8457C148.911 53.478 148.108 53.8917 147.983 54.7145L148.02 54.6807C147.502 54.4597 146.917 54.0957 147.108 53.5986C147.483 52.6214 148.549 52.9584 149.375 52.875C149.272 52.3724 149.162 51.6082 148.591 51.6544C143.816 52.0388 138.847 49.4318 134.226 52.3836C134.009 52.5223 133.494 52.538 133.299 52.4005C130.74 50.5826 128.994 51.6905 127.39 53.646C126.567 54.648 125.445 54.6209 124.397 53.9582C123.436 53.3507 122.56 52.9404 121.299 53.3112C115.373 55.0616 109.189 54.8824 103.078 55.287C101.571 55.3862 100.004 55.7288 98.6714 56.5415C98.5102 56.6125 98.478 57.069 98.1631 56.6824C98.3366 56.6395 98.5102 56.5956 98.6838 56.5527C97.7739 55.58 96.8641 54.7866 95.9555 56.5527L95.9791 56.5313C92.4588 56.7951 89.0054 57.868 85.2124 57.3507C83.7386 58.0258 86.4086 59.9453 84.0423 60.6982C83.5836 58.5477 82.1842 57.5852 79.746 58.4068L79.772 58.3831C78.2424 60.058 77.5929 57.6054 76.3819 57.7858L76.4017 57.7666C76.3236 57.8072 76.2418 57.8883 76.1687 57.8827C76.0001 57.8658 75.8353 57.8072 75.6692 57.7655L75.689 57.7847C73.7045 57.4589 74.1891 59.5395 73.0996 60.0704C70.1929 57.965 68.8789 57.9312 65.5544 60.0027C64.952 60.3781 64.6843 60.7782 63.9902 60.0681C63.2155 59.2758 62.3366 60.0568 61.5123 60.2439L61.5321 60.2237C61.4553 60.271 61.3722 60.3645 61.3028 60.3566C61.1318 60.3364 60.9669 60.2699 60.7996 60.2214L60.8195 60.2406C58.8027 59.4324 56.8368 60.3871 54.8424 60.422C49.9486 60.5043 45.0512 60.6982 40.2157 61.4995C38.1308 61.8455 35.9901 61.7058 33.9028 61.805C31.8897 61.9008 30.3973 62.4057 28.6347 63.1293C27.4534 63.6151 25.4652 62.985 23.8414 63.1744C20.9049 63.5159 17.7044 62.6063 15.115 64.6745C14.9167 64.8334 14.4804 64.8954 14.2201 64.8177C9.32882 63.3581 4.71894 65.2414 1.30698e-06 65.7836L0.0334789 65.752C4.15744 68.6081 8.53551 69.2156 13.6957 68.1212C18.1891 67.1676 22.9935 67.3344 27.6282 67.2555C30.939 67.1992 34.2139 66.8081 37.1652 65.991C41.899 64.6813 46.6936 64.9281 51.4349 64.3882C55.5923 63.916 59.7324 63.251 63.9679 63.18C65.7305 63.1507 67.4436 62.4914 69.1132 63.4967C69.2037 63.5508 69.3661 63.6297 69.4194 63.5959C71.9431 62.0236 75.2055 64.2699 77.7069 62.1814C79.2675 60.8763 81.2756 61.9627 83.068 61.9165C87.8898 61.7914 92.5926 60.9754 97.314 60.2214C97.314 60.2214 97.2868 60.2485 97.288 60.2485C97.5297 60.0309 97.7715 59.8134 98.0119 59.5959L97.9896 59.6207C101.307 59.9148 104.361 59.0098 107.364 57.9041C108.446 57.5051 109.501 57.4905 110.657 57.6832C113.649 58.1825 116.305 56.5911 119.202 56.3792C119.38 56.3656 119.501 55.6804 119.647 55.3073L119.611 55.34Z" fill="#7C6063"/>
<path fill-rule="evenodd" clip-rule="evenodd" d="M1287.52 52.7235C1287.61 52.7201 1287.74 52.7483 1287.78 52.7055C1287.97 52.5206 1287.91 52.3763 1287.64 52.3448C1287.57 52.3369 1287.45 52.4248 1287.43 52.4868C1287.42 52.5556 1287.49 52.6435 1287.52 52.7235ZM1125.68 41.2971C1125.52 41.2103 1125.35 41.0536 1125.19 41.0514C1124.9 41.0469 1124.85 41.2182 1125.05 41.4154C1125.12 41.4808 1125.25 41.5732 1125.3 41.5518C1125.44 41.4977 1125.55 41.3872 1125.68 41.2971ZM1110.85 40.135C1110.37 38.8006 1109.57 38.7172 1108.45 38.7014C1108.92 39.6786 1109.37 40.2737 1110.85 40.135ZM1144.37 42.0804C1144.44 42.0117 1144.53 41.9508 1144.58 41.8719C1144.62 41.8144 1144.61 41.731 1144.63 41.6589L1144.4 42.1029C1143.45 42.1559 1142.86 40.5712 1141.35 41.7164C1142.35 42.8311 1143.27 42.9066 1144.37 42.0804ZM1203.87 43.292C1204.31 43.7045 1204.75 44.1171 1205.19 44.5296C1204.98 44.8598 1204.71 45.2092 1205.2 45.509C1205.32 45.58 1205.56 45.4729 1205.75 45.447C1205.55 45.1337 1205.35 44.8203 1205.15 44.507C1205.57 44.4056 1206.27 44.3042 1206.07 43.8545C1205.65 42.9021 1204.75 42.9167 1203.83 43.327L1203.75 43.2176L1203.87 43.292ZM1228.19 45.7863C1226.12 47.6099 1221.39 47.682 1219.45 45.7976C1218.06 44.4574 1216.73 43.4126 1214.64 44.5543L1214.68 44.5127C1213.26 45.0266 1211.73 43.2808 1210.34 44.7144C1210.65 45.5541 1212.52 44.835 1212.24 46.2878C1211.08 47.3281 1209.77 45.3738 1208.6 46.3983C1208.36 46.3994 1208.12 46.4005 1207.89 46.4016L1207.92 46.3667C1207.99 46.4163 1208.07 46.5155 1208.12 46.5065C1208.28 46.4828 1208.42 46.414 1208.57 46.3622C1209.82 47.0869 1211.54 47.2639 1212.27 48.6603C1211.57 49.3783 1210.85 49.0796 1210.24 48.9996C1207.26 48.6107 1204.27 47.7756 1201.46 49.5519C1196.97 47.4859 1191.78 49.3772 1187.16 47.3304C1184.46 46.1345 1181.24 45.5428 1178.21 45.4031C1174.57 45.234 1170.64 45.5541 1167.29 44.9083C1162.91 44.063 1158.09 45.3794 1154.09 42.8344C1153.14 42.2337 1152.12 42.8276 1151.14 42.6992C1150.97 42.6653 1150.94 42.2078 1150.65 42.5639L1151.16 42.6699C1151.41 44.6096 1154.39 43.6302 1154.79 45.6747C1153.33 46.2574 1151.23 46.3757 1150.53 45.5428C1149.61 44.4563 1148.96 43.2098 1147.35 42.334C1146.94 43.2176 1148.26 44.2861 1147.05 44.9804C1145.94 45.6138 1145.09 44.9342 1144.2 44.6141C1139.47 42.8987 1134.39 43.7135 1129.5 42.7736C1131.33 43.5636 1132.89 44.6039 1134.77 45.3568C1133.82 45.9756 1132.85 46.1379 1132.06 45.9756C1127.57 45.0559 1122.7 45.6375 1118.62 43.1432C1117.92 42.7116 1117.11 42.6665 1116.35 42.8998C1114.27 43.5366 1112.61 43.0147 1110.66 42.0725C1108.76 41.1562 1106.24 41.4222 1104.02 41.1224C1100.13 40.5994 1096.4 39.0598 1092.36 39.4667C1092.15 39.487 1091.91 39.4148 1091.71 39.3348C1090.14 38.7059 1088.98 37.1528 1086.82 37.7749C1086.4 37.8989 1085.62 36.9837 1085.13 35.7912C1087.45 36.9882 1089.63 35.6887 1091.67 36.5689L1091.64 36.5385C1091.96 37.6228 1092.9 37.3388 1093.75 37.3737C1095.37 37.4402 1096.92 37.838 1098.43 38.3768C1098.59 38.432 1098.6 38.9178 1098.93 38.5199C1098.75 38.4861 1098.57 38.4512 1098.39 38.4162C1098.41 38.201 1098.42 37.9857 1098.44 37.7693L1098.42 37.7907C1100.03 37.2182 1101.41 38.2415 1102.92 38.3362C1104.16 38.414 1105.84 40.5983 1106.53 37.4841C1106.71 36.6208 1109.1 37.6205 1110.53 37.4064C1111.61 37.2441 1113.42 37.1179 1112.88 39.239C1112.66 40.081 1113.59 40.454 1114.37 40.5859C1115.13 40.7155 1115.51 40.4078 1115.65 39.6064C1116.08 37.1934 1118.77 39.3698 1120.01 37.9496C1120.45 37.4458 1120.88 39.044 1121.41 39.62C1121.07 39.9277 1120.44 40.0652 1120.6 40.6783C1120.62 40.7358 1120.79 40.8169 1120.86 40.7955C1121.51 40.5746 1121.21 39.9998 1121.38 39.5952C1122.77 39.6605 1123.73 39.5276 1125.14 38.5921C1126.71 37.5552 1129.84 37.8595 1132.43 38.9403C1131.76 39.7225 1130.75 40.6231 1132.27 41.4706C1133.25 42.0162 1133.95 41.9463 1134.27 40.8316L1134.24 40.8575C1134.87 40.4405 1135.51 40.0235 1136.17 39.5884C1137.36 39.7654 1136.99 41.5304 1138.36 41.5214C1139.51 40.7651 1137.95 39.9919 1138.54 39.1894C1138.76 39.1117 1139.1 38.8772 1139.37 38.9268C1141.75 39.363 1144.28 38.8829 1146.56 40.0595C1147.31 40.445 1148.52 40.9139 1149.12 39.6132L1149.1 39.6324C1153.17 39.8308 1157.24 40.8203 1161.33 39.7609C1161.53 39.7079 1161.82 39.6876 1161.98 39.7823C1165.34 41.7738 1169.21 39.6459 1172.27 40.4957C1177.05 41.8212 1182.04 39.1827 1186.49 41.8088C1187.06 42.1447 1187.8 41.8899 1188.38 41.4831C1188.96 41.0739 1189.75 40.8913 1190.29 41.2125C1192.78 42.6969 1195.81 42.3441 1198.45 43.292C1198.89 43.9243 1199.69 44.338 1199.81 45.1607L1199.78 45.1269C1200.3 44.906 1200.88 44.542 1200.69 44.0449C1200.31 43.0677 1199.25 43.4047 1198.42 43.3213C1198.53 42.8186 1198.64 42.0545 1199.21 42.1007C1203.98 42.485 1208.95 39.8781 1213.57 42.8299C1213.79 42.9685 1214.3 42.9843 1214.5 42.8468C1217.06 41.0288 1218.8 42.1368 1220.41 44.0923C1221.23 45.0942 1222.35 45.0672 1223.4 44.4044C1224.36 43.7969 1225.24 43.3867 1226.5 43.7575C1232.42 45.5079 1238.61 45.3287 1244.72 45.7333C1246.23 45.8325 1247.79 46.1751 1249.13 46.9878C1249.29 47.0588 1249.32 47.5152 1249.63 47.1286C1249.46 47.0858 1249.29 47.0418 1249.11 46.999C1250.02 46.0263 1250.93 45.2329 1251.84 46.999L1251.82 46.9776C1255.34 47.2413 1258.79 48.3143 1262.58 47.797C1264.06 48.4721 1261.39 50.3915 1263.76 51.1444C1264.21 48.994 1265.61 48.0314 1268.05 48.8531L1268.03 48.8294C1269.55 50.5043 1270.2 48.0517 1271.42 48.232L1271.4 48.2129C1271.47 48.2534 1271.56 48.3346 1271.63 48.329C1271.8 48.3121 1271.96 48.2535 1272.13 48.2118L1272.11 48.2309C1274.09 47.9052 1273.61 49.9858 1274.7 50.5166C1277.6 48.4112 1278.92 48.3774 1282.24 50.449C1282.85 50.8243 1283.11 51.2245 1283.81 50.5144C1284.58 49.7221 1285.46 50.5031 1286.29 50.6902L1286.27 50.6699C1286.34 50.7173 1286.43 50.8108 1286.49 50.8029C1286.67 50.7826 1286.83 50.7161 1287 50.6677L1286.98 50.6868C1288.99 49.8787 1290.96 50.8334 1292.96 50.8683C1297.85 50.9506 1302.75 51.1444 1307.58 51.9458C1309.67 52.2918 1311.81 52.152 1313.89 52.2512C1315.91 52.347 1317.4 52.852 1319.16 53.5756C1320.34 54.0614 1322.33 53.4313 1323.96 53.6206C1326.89 53.9621 1330.09 53.0526 1332.68 55.1208C1332.88 55.2797 1333.32 55.3417 1333.58 55.2639C1338.47 53.8044 1343.08 55.6877 1347.8 56.2298L1347.76 56.1983C1343.64 59.0543 1339.26 59.6618 1334.1 58.5674C1329.61 57.6139 1324.8 57.7807 1320.17 57.7018C1316.86 57.6455 1313.58 57.2544 1310.63 56.4373C1305.9 55.1276 1301.1 55.3744 1296.36 54.8345C1292.21 54.3623 1288.07 53.6973 1283.83 53.6263C1282.07 53.597 1280.35 52.9376 1278.68 53.943C1278.59 53.9971 1278.43 54.076 1278.38 54.0422C1275.85 52.4699 1272.59 54.7162 1270.09 52.6277C1268.53 51.3225 1266.52 52.409 1264.73 52.3628C1259.91 52.2377 1255.2 51.4217 1250.48 50.6677C1250.48 50.6677 1250.51 50.6947 1250.51 50.6947C1250.27 50.4772 1250.03 50.2597 1249.79 50.0422L1249.81 50.0669C1246.49 50.3611 1243.44 49.4561 1240.43 48.3504C1239.35 47.9514 1238.3 47.9368 1237.14 48.1295C1234.15 48.6288 1231.49 47.0373 1228.6 46.8254C1228.42 46.8119 1228.3 46.1267 1228.15 45.7536L1228.19 45.7863Z" fill="#7C6063"/>
<path fill-rule="evenodd" clip-rule="evenodd" d="M1395.82 56.6585C1395.73 56.6497 1395.6 56.6701 1395.56 56.6248C1395.39 56.4292 1395.46 56.2887 1395.73 56.2736C1395.8 56.2696 1395.91 56.3646 1395.93 56.4275C1395.94 56.4972 1395.86 56.5806 1395.82 56.6585ZM1558.14 54.9197C1558.31 54.8427 1558.48 54.696 1558.64 54.7035C1558.93 54.7163 1558.97 54.8904 1558.76 55.075C1558.69 55.1362 1558.55 55.2208 1558.5 55.1962C1558.36 55.1339 1558.26 55.017 1558.14 54.9197ZM1573.02 54.6451C1573.59 53.3422 1574.4 53.307 1575.52 53.3581C1574.98 54.3052 1574.49 54.872 1573.02 54.6451ZM1539.44 54.5854C1539.37 54.5124 1539.28 54.4464 1539.24 54.3646C1539.2 54.3049 1539.22 54.2221 1539.21 54.1494L1539.4 54.606C1540.35 54.7157 1541.05 53.1697 1542.47 54.402C1541.39 55.4546 1540.48 55.4755 1539.44 54.5854ZM1479.98 52.2419C1479.5 52.6271 1479.03 53.0124 1478.56 53.3976C1478.75 53.7399 1479 54.1049 1478.49 54.3745C1478.37 54.4384 1478.13 54.3168 1477.94 54.2798C1478.16 53.9791 1478.39 53.6785 1478.61 53.3779C1478.2 53.2514 1477.51 53.1086 1477.74 52.6717C1478.23 51.7465 1479.13 51.8148 1480.01 52.279L1480.1 52.1748L1479.98 52.2419ZM1455.53 53.2788C1457.46 55.2218 1462.17 55.576 1464.25 53.8119C1465.73 52.5575 1467.13 51.5943 1469.14 52.8586L1469.1 52.8142C1470.47 53.4117 1472.13 51.7611 1473.42 53.275C1473.05 54.0942 1471.23 53.2649 1471.4 54.7311C1472.49 55.8389 1473.94 53.9669 1475.03 55.059C1475.27 55.0743 1475.51 55.0896 1475.74 55.1049L1475.71 55.0678C1475.64 55.1132 1475.55 55.2077 1475.5 55.1953C1475.35 55.1626 1475.21 55.0854 1475.07 55.0249C1473.76 55.673 1472.04 55.7473 1471.21 57.0971C1471.85 57.8553 1472.59 57.6001 1473.21 57.5566C1476.2 57.3464 1479.25 56.6917 1481.92 58.6318C1486.56 56.8388 1491.6 59.0356 1496.36 57.2693C1499.14 56.2373 1502.39 55.8389 1505.42 55.88C1509.07 55.9288 1512.97 56.483 1516.36 56.0384C1520.79 55.4567 1525.51 57.058 1529.68 54.7573C1530.67 54.2143 1531.65 54.8684 1532.64 54.7986C1532.81 54.775 1532.86 54.3198 1533.14 54.693L1532.61 54.7679C1532.23 56.6887 1529.32 55.5332 1528.78 57.5499C1530.19 58.2181 1532.28 58.4619 1533.04 57.6726C1534.03 56.6429 1534.77 55.4379 1536.44 54.6601C1536.79 55.5668 1535.39 56.5539 1536.55 57.319C1537.61 58.0172 1538.51 57.39 1539.42 57.1234C1544.26 55.6943 1549.27 56.8105 1554.22 56.1647C1552.34 56.8437 1550.71 57.7889 1548.78 58.4278C1549.68 59.1021 1550.64 59.3218 1551.44 59.2071C1555.98 58.5572 1560.8 59.4284 1565.05 57.1831C1565.78 56.7944 1566.59 56.7976 1567.34 57.0759C1569.37 57.8357 1571.05 57.4135 1573.07 56.5899C1575.03 55.7888 1577.53 56.2051 1579.77 56.0386C1583.68 55.7485 1587.52 54.4353 1591.52 55.0822C1591.72 55.115 1591.97 55.0574 1592.18 54.9896C1593.79 54.4557 1595.06 52.9752 1597.17 53.7248C1597.58 53.8741 1598.42 53.0072 1599 51.8466C1596.6 52.9024 1594.52 51.4757 1592.41 52.2319L1592.45 52.2034C1592.05 53.2661 1591.14 52.927 1590.29 52.911C1588.66 52.8807 1587.09 53.185 1585.54 53.6326C1585.38 53.6779 1585.33 54.1619 1585.04 53.7456C1585.22 53.7225 1585.4 53.6983 1585.58 53.674C1585.58 53.4583 1585.57 53.2425 1585.58 53.0257L1585.6 53.0484C1584.03 52.3808 1582.58 53.3196 1581.06 53.3239C1579.82 53.3272 1577.99 55.4067 1577.53 52.2584C1577.4 51.3856 1574.95 52.241 1573.54 51.9419C1572.48 51.7155 1570.67 51.481 1571.06 53.6303C1571.22 54.4835 1570.27 54.8002 1569.47 54.885C1568.71 54.9692 1568.35 54.6393 1568.27 53.8312C1568.01 51.3976 1565.17 53.4089 1564.04 51.9179C1563.64 51.389 1563.09 52.9576 1562.52 53.5009C1562.84 53.8285 1563.45 54.0028 1563.25 54.6052C1563.23 54.6617 1563.05 54.7321 1562.99 54.7069C1562.35 54.4474 1562.69 53.8918 1562.56 53.4781C1561.16 53.4601 1560.21 53.2699 1558.87 52.2523C1557.38 51.1241 1554.24 51.2411 1551.57 52.1648C1552.19 52.9853 1553.13 53.944 1551.55 54.6991C1550.54 55.1852 1549.84 55.0735 1549.61 53.9423L1549.63 53.9696C1549.03 53.5158 1548.43 53.062 1547.8 52.5885C1546.6 52.6938 1546.84 54.477 1545.47 54.3861C1544.37 53.5627 1545.99 52.8844 1545.46 52.0487C1545.24 51.9575 1544.93 51.7038 1544.65 51.7372C1542.25 52.0303 1539.76 51.4001 1537.39 52.4379C1536.62 52.7779 1535.38 53.1734 1534.87 51.8396L1534.89 51.8601C1530.81 51.8148 1526.69 52.5596 1522.68 51.2582C1522.48 51.1932 1522.19 51.1554 1522.02 51.2404C1518.53 53.0271 1514.82 50.673 1511.7 51.338C1506.84 52.3753 1502.05 49.4446 1497.42 51.7993C1496.83 52.1005 1496.11 51.8019 1495.56 51.3615C1495.01 50.9186 1494.24 50.6892 1493.67 50.9775C1491.08 52.3098 1488.08 51.777 1485.38 52.5655C1484.9 53.1702 1484.07 53.535 1483.89 54.3486L1483.93 54.317C1483.42 54.0657 1482.87 53.6675 1483.09 53.1829C1483.54 52.2302 1484.58 52.6301 1485.41 52.5962C1485.34 52.0885 1485.29 51.3194 1484.71 51.3315C1479.92 51.4298 1475.15 48.5318 1470.33 51.2014C1470.1 51.3268 1469.59 51.3118 1469.4 51.1629C1466.98 49.1961 1465.16 50.1974 1463.41 52.0529C1462.52 53.0036 1461.4 52.9096 1460.41 52.1857C1459.49 51.5221 1458.65 51.0605 1457.36 51.3552C1451.32 52.748 1445.16 52.1999 1439.04 52.2388C1437.53 52.2478 1435.94 52.4962 1434.55 53.2275C1434.38 53.2887 1434.32 53.7423 1434.03 53.3377C1434.21 53.3053 1434.38 53.2718 1434.56 53.2394C1433.72 52.2145 1432.87 51.3685 1431.84 53.0765L1431.86 53.0566C1428.33 53.1096 1424.81 53.9741 1421.06 53.2314C1419.54 53.8171 1422.07 55.8918 1419.65 56.5018C1419.35 54.3285 1418.02 53.2845 1415.53 53.9588L1415.56 53.9368C1413.91 55.5167 1413.44 53.0306 1412.22 53.1383L1412.24 53.1203C1412.16 53.1562 1412.07 53.2323 1412 53.2223C1411.83 53.1954 1411.67 53.127 1411.51 53.0755L1411.53 53.0958C1409.57 52.6523 1409.9 54.7573 1408.78 55.222C1406.03 52.9476 1404.72 52.8354 1401.25 54.704C1400.63 55.0426 1400.33 55.4258 1399.69 54.6759C1398.97 53.839 1398.04 54.5659 1397.2 54.7033L1397.22 54.6843C1397.14 54.727 1397.05 54.8153 1396.99 54.8033C1396.82 54.7729 1396.66 54.6967 1396.49 54.6383L1396.51 54.6586C1394.56 53.7318 1392.53 54.567 1390.53 54.4828C1385.65 54.2727 1380.74 54.1738 1375.86 54.6847C1373.76 54.9055 1371.63 54.6382 1369.54 54.6126C1367.52 54.588 1366 55.0027 1364.19 55.6195C1362.97 56.0337 1361.04 55.2863 1359.4 55.3783C1356.45 55.5437 1353.32 54.4451 1350.59 56.3542C1350.38 56.5009 1349.94 56.5368 1349.68 56.4436C1344.91 54.6952 1340.17 56.2992 1335.42 56.5584L1335.46 56.5289C1339.37 59.625 1343.69 60.4926 1348.92 59.7087C1353.47 59.0255 1358.25 59.4788 1362.89 59.6768C1366.19 59.8182 1369.49 59.6235 1372.49 58.9843C1377.31 57.9601 1382.08 58.4927 1386.85 58.237C1391.03 58.014 1395.21 57.5977 1399.44 57.7797C1401.2 57.8557 1402.96 57.3 1404.55 58.4029C1404.64 58.4623 1404.79 58.5507 1404.85 58.5202C1407.48 57.102 1410.58 59.5382 1413.22 57.6036C1414.87 56.3944 1416.8 57.5984 1418.59 57.6593C1423.41 57.8224 1428.16 57.2889 1432.93 56.8184C1432.93 56.8184 1432.9 56.8438 1432.9 56.8439C1433.16 56.6412 1433.41 56.4386 1433.67 56.2359L1433.65 56.2593C1436.93 56.7509 1440.05 56.0301 1443.12 55.1062C1444.23 54.7727 1445.29 54.821 1446.43 55.0823C1449.38 55.7592 1452.14 54.3298 1455.05 54.2913C1455.23 54.2885 1455.4 53.6119 1455.57 53.2483L1455.53 53.2788Z" fill="#7C6063"/>
<path fill-rule="evenodd" clip-rule="evenodd" d="M377.977 27.833L377.845 27.6662L378.05 27.6346L377.977 27.833ZM358.865 29.4481C358.777 29.3151 358.689 29.1821 358.601 29.0502C358.771 28.9815 358.96 28.8372 359.105 28.8665C359.226 28.8913 359.297 29.1213 359.39 29.2588C359.216 29.3219 359.041 29.385 358.865 29.4481ZM451.173 22.9414C450.993 22.8794 450.712 22.8626 450.652 22.7487C450.485 22.4275 450.733 22.2167 451.054 22.1581C451.218 22.1288 451.53 22.2122 451.578 22.3182C451.725 22.6337 451.482 22.8242 451.173 22.9414ZM388.07 24.3683C387.605 24.3852 387.017 24.9882 386.51 24.1519C387.043 23.8814 387.516 23.7507 388.07 24.3683ZM390.359 23.7473C390.465 23.1263 390.52 22.5808 391.371 22.4737C391.468 22.4613 391.731 22.7442 391.705 22.8445C391.567 23.3551 391.294 23.7811 390.359 23.7473ZM381.149 24.2601C382.212 23.4441 383.226 23.3607 384.912 23.6493C383.396 24.1824 382.52 24.9341 381.149 24.2601ZM457.39 21.217C457.265 22.4376 457.061 23.2683 455.758 23.7146C455.256 22.281 456.14 21.8211 457.39 21.217ZM400.593 23.4543C400.514 23.3821 400.417 23.3201 400.363 23.2356C400.323 23.1736 400.339 23.0823 400.331 23.0046C400.407 23.1612 400.486 23.319 400.562 23.4768C401.56 23.5715 402.444 23.7732 402.349 24.986C400.714 25.3579 400.872 24.2083 400.593 23.4543ZM374.93 24.6524C374.528 24.6738 374.036 24.9161 373.848 24.3717C373.808 24.2556 374.008 23.9434 374.127 23.9299C374.733 23.8578 374.773 24.3221 374.893 24.6929C375.473 24.5814 375.969 23.8792 376.673 24.4765C376.264 24.9927 376.349 25.9936 375.246 25.7422C375.053 25.6983 375.032 25.0322 374.93 24.6524ZM356.684 28.968L356.567 28.906L356.645 29.004L356.752 29.0739L356.684 28.968ZM422.201 26.5414C424.662 27.0598 426.904 28.7099 429.653 27.7327L429.624 27.7597C429.283 27.115 429.289 26.5628 430.171 26.3238C430.873 26.1345 431.245 26.5132 431.314 27.0733C431.437 28.064 431.726 28.8767 433.02 28.9725L432.99 29.0074C432.937 28.6062 432.669 28.0393 432.865 27.8296C435.253 25.2756 439.24 23.807 441.871 24.7324C444.822 25.7682 445.584 24.2872 447.091 23.3787C448.51 23.9547 446.572 24.8902 447.814 25.6059C448.957 25.9778 449.871 24.3244 451.275 24.6997C451.505 24.4912 451.736 24.2827 451.966 24.0742C452.353 23.4137 452.787 22.7848 453.774 23.1759C454.088 23.301 454.267 23.6549 454.031 23.9445C453.399 24.7234 452.655 24.3401 451.935 24.046C451.706 24.2556 451.477 24.4653 451.247 24.6749C451.64 25.0322 452.114 25.7479 452.412 25.6915C454.792 25.2441 457.092 24.4112 459.567 25.5427C460.032 25.7546 460.613 24.8857 460.638 24.2229C460.689 22.7746 458.989 24.1452 458.566 22.8975C461.01 22.3914 462.791 20.4742 465.86 21.0975C468.189 21.5709 470.63 20.5779 473.007 20.2252C476.497 19.7089 479.995 18.3452 483.866 20.1542C485.712 21.0164 488.839 21.6667 491.147 19.7833C491.374 19.5759 491.602 19.3674 491.829 19.1601C492.203 18.7464 492.651 18.5458 493.191 18.8749C493.285 18.9324 493.319 19.275 493.241 19.3325C492.708 19.7304 492.279 19.2728 491.808 19.1398C491.578 19.346 491.349 19.5523 491.12 19.7586C492.786 21.0761 494.494 22.0803 496.57 20.3694L496.535 20.401C497.938 19.3381 497.288 17.971 497.201 16.6861L497.231 16.7131C495.523 16.0978 493.826 15.5669 492.48 17.3139L492.496 17.297C489.114 16.277 485.813 16.9104 482.382 17.2857C479.197 17.6351 476.109 18.5762 472.88 18.5605L472.917 18.5255C472.228 19.2187 471.537 20.1113 470.843 18.5278L470.875 18.5571C465.782 19.1973 460.682 18.796 455.497 19.9795C449.438 21.3624 443.101 22.6394 436.654 22.1243C435.563 22.0364 434.459 21.8482 433.657 22.973C433.038 23.8397 431.922 23.7191 430.925 23.4847C427.184 22.6044 427.185 22.5977 424.266 25.1122C423.447 22.8254 421.692 22.7374 419.454 23.1319C417.976 23.3934 416.355 23.0034 414.8 22.8907C412.886 22.7532 411.065 22.8423 409.171 23.4261C407.319 23.9975 405.242 24.1666 403.572 22.6405C403.195 22.2945 402.641 21.9992 402.122 21.9102C399.574 21.4751 397.143 20.8597 394.671 20.064C392.21 19.2716 388.988 19.7349 386.076 20.1237C380.605 20.8529 375.126 21.6374 369.817 22.9482C366.774 23.6988 363.064 23.2255 360.689 26.1852C360.323 24.2184 358.941 23.8961 357.253 24.3131C356.266 24.5566 355.299 24.8947 355.995 26.2517C356.394 27.0339 356.202 27.115 354.629 27.1263C354.383 27.3585 354.325 27.8217 353.777 27.6955C353.824 27.1725 354.347 27.3078 354.656 27.1534C353.693 25.616 352.626 24.9961 350.569 25.9823C349.178 26.6507 347.251 26.175 345.828 27.1579L345.869 27.1139C345.666 27.7068 345.63 28.2275 346.512 28.3526L346.482 28.3819C346.733 28.3808 346.984 28.3808 347.236 28.3796L347.209 28.3548C352.693 27.7755 356.877 31.2413 361.819 32.6321C361.954 31.3698 360.773 31.6527 360.497 30.8457C361.405 30.4174 362.52 30.0658 361.792 28.5667C361.307 27.5681 362.005 26.1942 363.521 27.1173C365.565 28.3605 367.635 27.3743 369.656 27.691C370.62 27.842 371.63 26.7228 372.437 28.525C372.916 29.5935 374.48 28.108 376.005 27.1849C375.091 29.332 376.341 29.7468 377.706 29.8832C378.445 29.9576 379.939 30.8773 379.632 28.9669C379.558 29.0322 379.495 29.1122 379.41 29.1585C379.346 29.1934 379.256 29.1855 379.178 29.1956C379.34 29.1314 379.503 29.0672 379.665 29.0029C379.748 27.2356 381.754 26.077 384.162 26.7454C386.91 27.5095 389.658 26.6789 392.464 27.0925C394.575 27.4047 393.289 25.2238 393.128 24.0832L392.986 23.9197L393.169 24.0449C393.897 23.7901 394.599 23.4114 395.782 23.7169C394.496 25.6419 394.589 27.3191 397.201 28.1993C397.508 28.303 398.05 28.5859 398.054 28.5791C399.825 25.5473 403.967 28.1475 406.035 25.7941C406.663 25.0795 407.076 25.4075 408.034 25.8381C409.58 26.5335 411.741 26.3362 413.599 26.157C415.437 25.9789 417.032 26.3238 418.682 26.9291C419.891 27.372 421.25 27.9615 422.237 26.5008C422.088 26.3971 421.646 26.6845 421.771 26.2134C421.915 26.3227 422.059 26.432 422.201 26.5414Z" fill="#7C6063"/>
<path fill-rule="evenodd" clip-rule="evenodd" d="M318.792 35.7512C322.645 33.9275 326.974 33.5421 331.087 33.4406C334.485 33.3561 338.12 32.7137 341.502 34.0493C342.179 34.3164 342.789 34.0921 343.308 33.5973C344.293 32.6584 345.097 33.2175 345.865 33.9039L345.84 33.8825C348.339 33.8768 350.682 35.4063 353.273 34.5148L353.252 34.5497C352.725 31.3127 351.318 29.896 347.974 30.5305C345.809 30.9408 344.978 30.1146 343.866 29.0473C343.586 29.1205 343.308 29.2006 343.023 29.2569C342.998 29.2614 342.936 29.1047 342.89 29.0225C343.178 28.9796 343.465 28.9368 343.753 28.8929C344.043 27.892 344.8 27.3499 345.869 27.1132L345.828 27.1583C344.336 25.3549 343.092 26.6421 342.073 27.5663C341.404 28.1738 341.168 29.1746 340.628 30.2093C337.102 29.0428 333.281 29.3673 329.886 29.8576C326.712 30.3141 323.428 31.3093 320.178 31.6452C316.51 32.0261 313.315 34.0121 309.401 33.6491C307.325 33.4564 304.492 33.4632 303.83 36.4015C303.765 36.69 303.019 37.1533 302.826 37.0721C300.379 36.0386 297.315 37.9512 295.144 35.7343L295.169 35.7557C291.613 35.4931 288.055 35.0941 284.7 36.7464C282.537 37.8115 280.323 38.7943 277.746 38.6963C277.427 38.6839 276.975 38.7605 276.795 38.9566C274.533 41.4159 271.376 40.4477 268.557 40.814C266.66 41.062 264.811 41.541 263.403 42.8721C262.831 43.4142 262.298 43.9947 262.957 44.7329C263.494 45.3359 264.323 45.6887 265.053 45.2063C266.986 43.9271 269.612 44.1322 271.422 42.6478C271.946 42.2161 272.549 42.0268 273.261 42.0076C276.599 41.9197 277.286 41.727 280.416 40.0916C280.953 42.632 282.617 42.0369 284.347 41.2592L284.318 41.2919C284.953 40.1863 286.306 39.3894 285.468 37.7844C287.291 38.1609 287.219 39.2553 287.656 40.2911C292.105 38.2432 296.804 39.164 301.342 38.6929C302.336 38.5903 303.574 38.8755 304.241 38.2172C307.283 35.2136 311.069 36.0972 314.755 36.3485L314.926 36.2189L314.766 36.3598C316.991 36.7182 317.088 34.7334 318.073 33.71C318.754 34.3412 318.072 35.2417 318.834 35.7162L318.792 35.7512Z" fill="#7C6063"/>
<path fill-rule="evenodd" clip-rule="evenodd" d="M555.878 14.7961C555.631 14.6564 555.411 14.6 555.329 14.4715C555.161 14.2089 555.171 13.9091 555.571 13.8336C555.727 13.8043 556.078 13.9598 556.077 14.0286C556.074 14.2754 555.959 14.5211 555.878 14.7961ZM559.391 14.2484L560.049 12.995L560.083 13.0255C557.858 12.1046 555.442 12.7257 553.143 12.3188C551.401 12.01 551.53 14.0917 550.248 14.4693C549.57 13.9576 550.405 13.3016 549.961 12.755C549.596 12.3064 549.224 11.9739 548.599 12.0753C548.079 12.161 547.987 12.4732 547.99 12.9702C548 14.6214 546.843 14.4557 545.822 13.864C543.133 12.3075 541.332 12.3425 538.421 14.2089C538.215 14.4355 538.643 14.9235 538.033 14.9798C538.172 14.7307 538.31 14.4817 538.449 14.2326C537.781 13.1754 536.877 12.968 535.737 13.6093L535.762 13.6318C534.765 12.9781 534.185 13.4853 533.694 14.2438L533.722 14.2179C528.932 12.7877 524.07 14.0376 519.246 13.9779C518.438 13.9677 517.614 14.9517 516.797 15.4757L516.837 15.4307C516.834 15.6561 516.833 15.8815 516.832 16.108L516.819 16.0799C519.525 15.9435 522.232 15.6606 524.938 16.0889C525.018 15.6493 524.788 15.1016 525.465 14.8491C525.72 15.4363 525.409 15.7891 524.918 16.0742C524.933 16.2737 524.948 16.4743 524.964 16.6738C528.868 15.7023 532.7 17.5902 536.646 16.9274C537.463 16.7899 536.559 17.5733 536.435 17.9305L536.41 17.908C537.039 18.1323 537.853 18.4975 538.329 18.1188C540.639 16.2749 543.489 17.4617 546.043 16.9894C548.116 16.6073 550.516 17.385 552.766 17.5913C554.8 17.7784 556.429 17.2509 558.214 16.9252C560.026 16.595 559.309 15.2301 559.422 14.2168C559.308 14.0917 558.874 14.3205 559.012 13.9136C559.138 14.0252 559.265 14.1368 559.391 14.2484Z" fill="#7C6063"/>
<path fill-rule="evenodd" clip-rule="evenodd" d="M330.292 36.9615C329.843 37.7494 329.26 38.1427 328.196 37.6536C328.753 36.6369 329.614 37.0585 330.309 36.9762L330.426 36.8635L330.292 36.9615ZM338.399 42.4899C340.174 43.9856 342.373 43.7207 344.511 43.7015L344.48 43.7275C344.086 41.7257 341.98 41.098 340.515 40.9278C337.408 40.5648 334.601 39.7218 331.896 38.0785C334.308 37.7832 336.712 37.3955 339.154 38.4279C341.912 39.5933 344.766 40.4138 347.877 40.0284L347.848 40.0734C347.953 39.3972 348.844 38.9261 348.387 37.9128C345.084 38.2926 342.308 37.1216 339.302 35.7003C336.444 34.3512 332.734 35.2585 329.403 35.5065C328.301 35.5888 327.225 36.0249 326.107 35.5617C325.438 35.2844 324.795 35.2619 324.366 35.9381C323.97 36.5592 324.182 37.161 324.624 37.6389C325.614 38.7097 326.13 40.5322 328.454 39.5978C328.984 39.3837 329.955 39.44 330.385 39.7545C332.753 41.4834 335.687 41.7404 338.422 42.5102L338.514 42.3986L338.399 42.4899Z" fill="#7C6063"/>
<path fill-rule="evenodd" clip-rule="evenodd" d="M516.798 15.4759C516.761 14.9811 516.828 14.1324 516.326 14.1493C514.347 14.2147 512.14 13.4652 510.165 15.4128C511.892 15.8016 513.668 15.4624 514.785 16.6819L514.765 16.7033L515.496 16.7033L515.476 16.683C515.924 16.4824 516.371 16.2806 516.82 16.08L516.833 16.1082C516.602 15.8805 516.628 15.6551 516.837 15.4308L516.798 15.4759Z" fill="#7C6063"/>
<path fill-rule="evenodd" clip-rule="evenodd" d="M501.239 17.0324C502.465 17.6388 503.772 17.9273 505.343 17.6557C505.446 16.1307 504.498 15.5052 503.213 15.3361C502.082 15.1874 501.27 15.6754 501.239 17.0324Z" fill="#7C6063"/>
<path fill-rule="evenodd" clip-rule="evenodd" d="M472.864 27.16C473.141 26.3383 473.417 25.5178 473.766 24.4843C472.32 24.5857 471.151 24.9283 469.835 25.5054C470.525 26.8083 472.09 26.4026 472.887 27.1352L472.864 27.16Z" fill="#7C6063"/>
<path fill-rule="evenodd" clip-rule="evenodd" d="M507.387 21.573C508.929 24.0616 511.566 21.6835 513.4 22.8692C511.649 21.2315 509.361 22.0892 507.357 21.6181L507.387 21.573Z" fill="#7C6063"/>
<path fill-rule="evenodd" clip-rule="evenodd" d="M464.111 25.2865C464.867 25.4815 465.437 26.5387 466.352 25.8444C466.815 25.4927 466.516 24.9168 466.045 24.6012C465.016 23.9148 464.498 24.4637 464.136 25.3113L464.111 25.2865Z" fill="#7C6063"/>
<path fill-rule="evenodd" clip-rule="evenodd" d="M480.455 22.5739C481.688 23.3933 482.551 23.6672 483.653 22.7294C482.667 22.1129 481.751 22.273 480.455 22.5739Z" fill="#7C6063"/>
<path fill-rule="evenodd" clip-rule="evenodd" d="M497.948 21.2275C497.868 21.7223 498.145 21.9792 498.654 21.9454C499.208 21.9082 499.749 21.7178 499.844 21.1463C499.897 20.8308 499.586 20.6166 499.227 20.5828C498.644 20.5253 498.148 20.6425 497.948 21.2275Z" fill="#7C6063"/>
<path fill-rule="evenodd" clip-rule="evenodd" d="M508.122 16.6179C508.584 16.4849 508.896 16.1862 508.965 15.7726C509.049 15.271 508.708 15.031 508.188 15.1448C507.703 15.253 507.492 15.6193 507.511 16.0611C507.527 16.3925 507.684 16.6438 508.122 16.6179Z" fill="#7C6063"/>
<path fill-rule="evenodd" clip-rule="evenodd" d="M511.385 19.7825C510.767 19.4184 510.141 19.1614 509.3 19.5931C510.065 20.2558 510.765 19.5784 511.41 19.7577L511.385 19.7825Z" fill="#7C6063"/>
<path fill-rule="evenodd" clip-rule="evenodd" d="M502.659 21.5756C502.848 22.0016 502.916 22.5347 503.617 22.5178C503.69 22.5167 503.829 22.3893 503.82 22.3375C503.711 21.7221 503.118 21.7356 502.634 21.6071L502.659 21.5756Z" fill="#7C6063"/>
<path fill-rule="evenodd" clip-rule="evenodd" d="M497.2 16.6865L497.229 16.7124L497.2 16.6865Z" fill="#7C6063"/>
<path fill-rule="evenodd" clip-rule="evenodd" d="M510.043 17.3015L510.07 17.3252L510.043 17.3015Z" fill="#7C6063"/>
<path fill-rule="evenodd" clip-rule="evenodd" d="M974.566 20.5643L974.698 20.3975L974.493 20.3659L974.566 20.5643ZM993.678 22.1794C993.766 22.0464 993.854 21.9134 993.942 21.7816C993.772 21.7128 993.583 21.5685 993.438 21.5978C993.317 21.6226 993.246 21.8526 993.153 21.9901C993.327 22.0532 993.502 22.1163 993.678 22.1794ZM901.37 15.6728C901.55 15.6108 901.831 15.5939 901.891 15.48C902.058 15.1588 901.81 14.948 901.489 14.8894C901.325 14.8601 901.013 14.9435 900.965 15.0495C900.818 15.3651 901.061 15.5555 901.37 15.6728ZM964.473 17.0997C964.937 17.1166 965.526 17.7195 966.033 16.8832C965.5 16.6127 965.027 16.482 964.473 17.0997ZM962.184 16.4786C962.078 15.8576 962.023 15.3121 961.172 15.205C961.075 15.1926 960.812 15.4755 960.838 15.5758C960.976 16.0864 961.249 16.5124 962.184 16.4786ZM971.394 16.9914C970.331 16.1754 969.317 16.092 967.631 16.3806C969.147 16.9137 970.023 17.6654 971.394 16.9914ZM895.152 13.9483C895.278 15.1689 895.482 15.9996 896.785 16.4459C897.287 15.0123 896.403 14.5524 895.152 13.9483ZM951.95 16.1856C952.029 16.1134 952.126 16.0515 952.18 15.9669C952.22 15.9049 952.204 15.8136 952.212 15.7359C952.135 15.8925 952.057 16.0503 951.981 16.2081C950.983 16.3028 950.099 16.5046 950.194 17.7173C951.829 18.0892 951.671 16.9396 951.95 16.1856ZM977.613 17.3837C978.015 17.4051 978.507 17.6474 978.695 17.103C978.735 16.9869 978.535 16.6747 978.416 16.6612C977.81 16.5891 977.77 17.0534 977.65 17.4242C977.07 17.3127 976.574 16.6105 975.87 17.2078C976.279 17.724 976.194 18.7249 977.297 18.4736C977.49 18.4296 977.511 17.7635 977.613 17.3837ZM995.859 21.6993L995.976 21.6373L995.898 21.7353L995.791 21.8052L995.859 21.6993ZM930.342 19.2727C927.881 19.7911 925.639 21.4412 922.89 20.464L922.919 20.4911C923.26 19.8464 923.254 19.2941 922.372 19.0551C921.67 18.8658 921.298 19.2445 921.229 19.8046C921.106 20.7954 920.817 21.608 919.523 21.7038L919.553 21.7387C919.606 21.3375 919.874 20.7706 919.678 20.5609C917.289 18.007 913.303 16.5384 910.671 17.4637C907.721 18.4995 906.959 17.0185 905.452 16.1101C904.032 16.686 905.971 17.6215 904.729 18.3372C903.586 18.7091 902.671 17.0557 901.268 17.431C901.038 17.2225 900.807 17.014 900.577 16.8055C900.19 16.145 899.756 15.5161 898.769 15.9072C898.455 16.0323 898.276 16.3862 898.512 16.6759C899.144 17.4547 899.887 17.0715 900.608 16.7773C900.837 16.9869 901.066 17.1966 901.296 17.4062C900.903 17.7635 900.429 18.4792 900.13 18.4228C897.75 17.9754 895.451 17.1425 892.976 18.2741C892.511 18.486 891.93 17.617 891.905 16.9543C891.854 15.506 893.553 16.8765 893.977 15.6288C891.533 15.1227 889.752 13.2056 886.683 13.8288C884.354 14.3022 881.913 13.3092 879.535 12.9565C876.046 12.4403 872.548 11.0765 868.677 12.8855C866.831 13.7477 863.704 14.398 861.396 12.5147C861.169 12.3073 860.941 12.0988 860.714 11.8914C860.34 11.4777 859.892 11.2771 859.352 11.6062C859.258 11.6637 859.224 12.0063 859.302 12.0638C859.835 12.4617 860.264 12.0041 860.735 11.8711C860.964 12.0773 861.194 12.2836 861.423 12.4899C859.757 13.8074 858.049 14.8117 855.973 13.1007L856.008 13.1323C854.604 12.0695 855.255 10.7023 855.342 9.41742L855.312 9.44447C857.02 8.82908 858.717 8.29823 860.063 10.0452L860.047 10.0283C863.429 9.0083 866.73 9.64172 870.161 10.017C873.346 10.3664 876.434 11.3076 879.663 11.2918L879.626 11.2568C880.315 11.95 881.005 12.8426 881.7 11.2591L881.667 11.2884C886.761 11.9286 891.861 11.5273 897.046 12.7108C903.105 14.0937 909.442 15.3707 915.889 14.8556C916.98 14.7677 918.084 14.5795 918.886 15.7043C919.504 16.571 920.621 16.4505 921.618 16.216C925.359 15.3358 925.358 15.329 928.277 17.8435C929.096 15.5567 930.851 15.4688 933.089 15.8632C934.567 16.1247 936.187 15.7347 937.743 15.622C939.657 15.4845 941.478 15.5736 943.372 16.1574C945.224 16.7288 947.301 16.8979 948.971 15.3718C949.348 15.0258 949.902 14.7305 950.421 14.6415C952.968 14.2064 955.4 13.591 957.872 12.7953C960.333 12.003 963.555 12.4662 966.467 12.855C971.938 13.5843 977.417 14.3687 982.726 15.6795C985.769 16.4302 989.479 15.9568 991.854 18.9165C992.22 16.9497 993.602 16.6274 995.29 17.0444C996.277 17.2879 997.244 17.626 996.548 18.983C996.149 19.7652 996.341 19.8463 997.914 19.8576C998.16 20.0898 998.218 20.553 998.766 20.4268C998.719 19.9038 998.196 20.0391 997.887 19.8847C998.85 18.3473 999.917 17.7274 1001.97 18.7136C1003.36 19.382 1005.29 18.9064 1006.72 19.8892L1006.67 19.8452C1006.88 20.4381 1006.91 20.9588 1006.03 21.0839L1006.06 21.1132C1005.81 21.1121 1005.56 21.1121 1005.31 21.1109L1005.33 21.0862C999.85 20.5068 995.666 23.9726 990.724 25.3634C990.589 24.1011 991.77 24.384 992.046 23.577C991.138 23.1487 990.023 22.7971 990.751 21.298C991.236 20.2994 990.538 18.9255 989.022 19.8486C986.978 21.0918 984.908 20.1056 982.887 20.4223C981.923 20.5733 980.913 19.4541 980.106 21.2563C979.627 22.3248 978.063 20.8393 976.538 19.9162C977.452 22.0633 976.202 22.4781 974.836 22.6145C974.098 22.6889 972.604 23.6086 972.911 21.6982C972.985 21.7635 973.048 21.8436 973.133 21.8898C973.197 21.9247 973.287 21.9168 973.365 21.9269C973.203 21.8627 973.04 21.7985 972.878 21.7342C972.795 19.967 970.789 18.8083 968.381 19.4767C965.633 20.2408 962.885 19.4102 960.078 19.8238C957.967 20.136 959.254 17.9551 959.415 16.8145L959.557 16.6511L959.374 16.7762C958.646 16.5215 957.944 16.1428 956.761 16.4482C958.047 18.3733 957.954 20.0504 955.342 20.9306C955.035 21.0343 954.493 21.3172 954.489 21.3104C952.718 18.2786 948.575 20.8788 946.508 18.5254C945.879 17.8108 945.467 18.1388 944.509 18.5694C942.963 19.2648 940.802 19.0675 938.944 18.8883C937.106 18.7102 935.511 19.0551 933.861 19.6604C932.652 20.1033 931.293 20.6928 930.306 19.2321C930.455 19.1284 930.897 19.4158 930.772 18.9447C930.628 19.054 930.484 19.1633 930.342 19.2727Z" fill="#7C6063"/>
<path fill-rule="evenodd" clip-rule="evenodd" d="M1033.75 28.4824C1029.9 26.6588 1025.57 26.2733 1021.46 26.1719C1018.06 26.0873 1014.42 25.4449 1011.04 26.7805C1010.36 27.0476 1009.75 26.8233 1009.24 26.3285C1008.25 25.3897 1007.45 25.9487 1006.68 26.6351L1006.7 26.6137C1004.2 26.608 1001.86 28.1375 999.27 27.246L999.291 27.2809C999.818 24.0439 1001.23 22.6272 1004.57 23.2617C1006.73 23.672 1007.57 22.8458 1008.68 21.7785C1008.96 21.8517 1009.24 21.9318 1009.52 21.9881C1009.54 21.9926 1009.61 21.8359 1009.65 21.7537C1009.37 21.7108 1009.08 21.668 1008.79 21.6241C1008.5 20.6232 1007.74 20.0811 1006.67 19.8444L1006.72 19.8895C1008.21 18.0861 1009.45 19.3733 1010.47 20.2975C1011.14 20.905 1011.37 21.9058 1011.91 22.9405C1015.44 21.774 1019.26 22.0986 1022.66 22.5888C1025.83 23.0453 1029.11 24.0405 1032.36 24.3764C1036.03 24.7574 1039.23 26.7433 1043.14 26.3804C1045.22 26.1876 1048.05 26.1944 1048.71 29.1327C1048.78 29.4212 1049.52 29.8845 1049.72 29.8033C1052.16 28.7698 1055.23 30.6825 1057.4 28.4655L1057.37 28.4869C1060.93 28.2243 1064.49 27.8253 1067.84 29.4776C1070.01 30.5427 1072.22 31.5255 1074.8 31.4275C1075.12 31.4151 1075.57 31.4917 1075.75 31.6878C1078.01 34.1471 1081.17 33.179 1083.99 33.5453C1085.88 33.7932 1087.73 34.2722 1089.14 35.6033C1089.71 36.1455 1090.25 36.7259 1089.59 37.4641C1089.05 38.0671 1088.22 38.4199 1087.49 37.9375C1085.56 36.6583 1082.93 36.8634 1081.12 35.379C1080.6 34.9474 1079.99 34.758 1079.28 34.7388C1075.94 34.6509 1075.26 34.4582 1072.13 32.8228C1071.59 35.3633 1069.93 34.7682 1068.2 33.9905L1068.22 34.0231C1067.59 32.9175 1066.24 32.1206 1067.07 30.5157C1065.25 30.8921 1065.32 31.9865 1064.89 33.0223C1060.44 30.9744 1055.74 31.8952 1051.2 31.4241C1050.21 31.3215 1048.97 31.6067 1048.3 30.9485C1045.26 27.9448 1041.47 28.8284 1037.79 29.0797L1037.62 28.9501L1037.78 29.091C1035.55 29.4494 1035.46 27.4646 1034.47 26.4412C1033.79 27.0724 1034.47 27.9729 1033.71 28.4474L1033.75 28.4824Z" fill="#7C6063"/>
<path fill-rule="evenodd" clip-rule="evenodd" d="M796.664 7.52744C796.912 7.38768 797.131 7.33134 797.213 7.20285C797.382 6.94024 797.372 6.64042 796.972 6.56491C796.815 6.5356 796.465 6.69114 796.466 6.7599C796.468 7.00673 796.584 7.25243 796.664 7.52744ZM793.151 6.97969L792.493 5.72637L792.46 5.75679C794.685 4.83596 797.1 5.45699 799.4 5.05011C801.141 4.74129 801.012 6.82302 802.294 7.20059C802.972 6.6889 802.138 6.03292 802.582 5.48629C802.946 5.03771 803.318 4.70522 803.944 4.80666C804.463 4.89232 804.555 5.20452 804.553 5.70157C804.543 7.35275 805.699 7.18707 806.721 6.59535C809.409 5.03884 811.21 5.07378 814.122 6.94024C814.328 7.16678 813.9 7.6548 814.51 7.71115C814.371 7.46207 814.232 7.21299 814.093 6.9639C814.761 5.90669 815.665 5.69932 816.805 6.34063L816.781 6.36316C817.777 5.70945 818.357 6.21664 818.848 6.97516L818.821 6.94925C823.611 5.51898 828.472 6.76892 833.296 6.70918C834.105 6.69904 834.929 7.68298 835.746 8.20707L835.706 8.162C835.708 8.38741 835.71 8.61283 835.711 8.83937L835.723 8.8112C833.017 8.67482 830.31 8.39192 827.604 8.82021C827.525 8.38065 827.754 7.83288 827.078 7.58041C826.822 8.16762 827.133 8.52041 827.624 8.80556C827.609 9.00505 827.594 9.20567 827.578 9.40517C823.675 8.43362 819.842 10.3215 815.897 9.65877C815.08 9.52126 815.984 10.3046 816.108 10.6619L816.132 10.6393C815.504 10.8636 814.69 11.2288 814.214 10.8501C811.903 9.00618 809.053 10.193 806.5 9.72075C804.426 9.33867 802.026 10.1164 799.777 10.3226C797.743 10.5097 796.114 9.98224 794.329 9.65651C792.517 9.32628 793.233 7.96138 793.12 6.94813C793.234 6.82302 793.668 7.05181 793.531 6.64493C793.404 6.75651 793.278 6.86811 793.151 6.97969Z" fill="#7C6063"/>
<path fill-rule="evenodd" clip-rule="evenodd" d="M1022.25 29.6929C1022.7 30.4807 1023.28 30.8741 1024.35 30.3849C1023.79 29.3683 1022.93 29.7898 1022.23 29.7075L1022.12 29.5948L1022.25 29.6929ZM1014.14 35.2212C1012.37 36.7169 1010.17 36.452 1008.03 36.4328L1008.06 36.4588C1008.46 34.4571 1010.56 33.8293 1012.03 33.6591C1015.13 33.2962 1017.94 32.4531 1020.65 30.8098C1018.23 30.5145 1015.83 30.1268 1013.39 31.1592C1010.63 32.3246 1007.78 33.1451 1004.67 32.7597L1004.7 32.8048C1004.59 32.1285 1003.7 31.6574 1004.16 30.6441C1007.46 31.024 1010.23 29.8529 1013.24 28.4317C1016.1 27.0825 1019.81 27.9898 1023.14 28.2378C1024.24 28.3201 1025.32 28.7563 1026.44 28.293C1027.1 28.0158 1027.75 27.9932 1028.18 28.6695C1028.57 29.2905 1028.36 29.8924 1027.92 30.3702C1026.93 31.441 1026.41 33.2635 1024.09 32.3291C1023.56 32.115 1022.59 32.1713 1022.16 32.4858C1019.79 34.2147 1016.86 34.4717 1014.12 35.2415L1014.03 35.1299L1014.14 35.2212Z" fill="#7C6063"/>
<path fill-rule="evenodd" clip-rule="evenodd" d="M835.745 8.20737C835.782 7.71258 835.715 6.86388 836.217 6.88078C838.196 6.94616 840.403 6.19665 842.378 8.14425C840.651 8.5331 838.875 8.19383 837.758 9.41334L837.778 9.43477L837.047 9.43477L837.066 9.41447C836.619 9.21385 836.171 9.0121 835.723 8.81148L835.71 8.83967C835.941 8.612 835.915 8.38656 835.705 8.16227L835.745 8.20737Z" fill="#7C6063"/>
<path fill-rule="evenodd" clip-rule="evenodd" d="M851.304 9.76385C850.078 10.3702 848.771 10.6588 847.2 10.3871C847.097 8.86217 848.045 8.23664 849.33 8.06758C850.461 7.9188 851.273 8.40684 851.304 9.76385Z" fill="#7C6063"/>
<path fill-rule="evenodd" clip-rule="evenodd" d="M879.679 19.8913C879.402 19.0696 879.126 18.2491 878.777 17.2156C880.223 17.317 881.392 17.6597 882.708 18.2367C882.018 19.5396 880.453 19.1339 879.656 19.8665L879.679 19.8913Z" fill="#7C6063"/>
<path fill-rule="evenodd" clip-rule="evenodd" d="M845.155 14.3043C843.613 16.7929 840.977 14.4148 839.142 15.6005C840.894 13.9628 843.182 14.8205 845.185 14.3494L845.155 14.3043Z" fill="#7C6063"/>
<path fill-rule="evenodd" clip-rule="evenodd" d="M888.432 18.0178C887.676 18.2128 887.105 19.27 886.191 18.5757C885.727 18.2241 886.027 17.6481 886.498 17.3325C887.527 16.6461 888.045 17.195 888.407 18.0426L888.432 18.0178Z" fill="#7C6063"/>
<path fill-rule="evenodd" clip-rule="evenodd" d="M872.088 15.3052C870.855 16.1246 869.992 16.3985 868.89 15.4608C869.875 14.8442 870.791 15.0043 872.088 15.3052Z" fill="#7C6063"/>
<path fill-rule="evenodd" clip-rule="evenodd" d="M854.595 13.9588C854.675 14.4536 854.398 14.7106 853.889 14.6768C853.335 14.6396 852.794 14.4491 852.699 13.8777C852.646 13.5621 852.957 13.3479 853.316 13.3141C853.899 13.2566 854.395 13.3739 854.595 13.9588Z" fill="#7C6063"/>
<path fill-rule="evenodd" clip-rule="evenodd" d="M844.421 9.34922C843.958 9.21622 843.647 8.91755 843.578 8.5039C843.493 8.00235 843.834 7.76229 844.355 7.87613C844.839 7.98433 845.05 8.35063 845.032 8.79245C845.015 9.12382 844.858 9.37514 844.421 9.34922Z" fill="#7C6063"/>
<path fill-rule="evenodd" clip-rule="evenodd" d="M841.157 12.5138C841.776 12.1497 842.402 11.8928 843.242 12.3244C842.477 12.9871 841.777 12.3098 841.132 12.489L841.157 12.5138Z" fill="#7C6063"/>
<path fill-rule="evenodd" clip-rule="evenodd" d="M849.884 14.307C849.695 14.733 849.627 15.2662 848.926 15.2493C848.853 15.2481 848.714 15.1208 848.722 15.0689C848.832 14.4535 849.425 14.4671 849.909 14.3386L849.884 14.307Z" fill="#7C6063"/>
<path fill-rule="evenodd" clip-rule="evenodd" d="M855.342 9.41785L855.313 9.44374L855.342 9.41785Z" fill="#7C6063"/>
<path fill-rule="evenodd" clip-rule="evenodd" d="M842.499 10.033L842.473 10.0566L842.499 10.033Z" fill="#7C6063"/>
<path fill-rule="evenodd" clip-rule="evenodd" d="M685.699 5.82226C685.627 5.97216 685.596 6.18292 685.469 6.25393C685.361 6.31479 685.145 6.21786 684.976 6.19081C685.045 6.03865 685.074 5.82565 685.2 5.75352C685.308 5.69153 685.528 5.79183 685.699 5.82226ZM772.783 3.03609C772.919 2.90084 773.039 2.6743 773.198 2.6495C773.581 2.58864 773.846 2.77461 773.689 3.14993C773.634 3.28067 773.339 3.40241 773.164 3.39226C773.029 3.38325 772.909 3.16346 772.783 3.03609ZM700.481 5.43116C700.261 5.65657 700.028 5.87186 699.662 5.69941C699.609 5.67462 699.621 5.53373 699.604 5.44694C699.907 5.45145 700.211 5.45595 700.516 5.46046L700.481 5.43116ZM709.939 4.81239L709.868 4.92511L709.973 4.84507L710.058 4.75378L709.939 4.81239ZM639.676 15.8702C642.859 15.9717 645.603 14.3701 648.692 13.9159C651.07 13.5653 653.671 14.0365 655.889 12.8034L655.914 12.8372C655.683 12.6107 655.708 12.3864 655.919 12.1633L655.865 12.2151C656.023 12.055 656.206 12.0212 656.416 12.1148C656.51 12.1824 656.594 12.2579 656.667 12.3458L656.687 12.6051L656.561 12.8418L656.584 12.8068C657.249 13.8945 658.156 14.4118 659.336 14.0094C660.454 13.0074 657.317 12.5284 659.288 11.6008L659.26 11.576C659.765 12.285 660.571 12.1621 661.319 12.1892L661.29 12.2095L662.663 10.9449L662.623 10.9832C663.096 10.5346 663.568 10.4647 664.04 10.9798L664.003 10.9584C664.883 10.9911 665.797 10.6372 666.639 11.0474C671.616 13.4707 677.164 14.3735 682.401 16.0742C685.106 16.9522 688.025 17.8539 690.383 19.5829L690.348 19.5536C692.018 19.0734 693.471 19.6956 694.82 20.4226C696.096 21.1089 697.265 20.7595 697.617 19.7857C697.939 18.8908 698.973 17.5958 697.09 16.6953C694.709 15.5558 692.398 14.3352 689.671 14.0218C689.669 14.2416 689.665 14.4625 689.663 14.6834C690.157 14.7093 690.781 14.4614 690.946 15.1748C690.96 15.2402 690.858 15.38 690.779 15.4047C690.022 15.6369 689.863 15.141 689.704 14.6541C689.704 14.4512 689.705 14.2495 689.706 14.0477C688.644 13.7547 687.707 14.662 686.313 13.3963C684.817 12.0381 681.806 12.1306 679.471 11.5456C677.643 11.088 675.921 10.414 674.108 10.0477C673.913 8.89921 675.119 9.02995 675.518 8.50248L675.495 8.52502C678.477 9.8764 681.699 10.4614 684.947 10.9607L684.926 10.9809C685.004 10.9347 685.089 10.8457 685.161 10.8524C685.33 10.8693 685.494 10.9325 685.661 10.9776L685.642 10.9573C686.788 9.70507 687.912 10.3092 689.034 10.9911C689.224 10.5064 688.754 9.70621 689.98 9.6059C690.092 10.361 689.537 10.6597 689.002 10.9663C689.36 11.9266 690.01 11.8871 690.798 11.407C691.812 10.7905 692.796 10.1255 693.855 9.5811C695.703 8.63322 697.456 7.98739 699.724 9.05474C701.554 9.91471 703.801 9.86174 705.919 9.71973L705.888 9.74678C706.579 8.43711 706.927 9.41541 707.393 9.91584C708.129 10.7071 708.372 12.0911 709.913 11.9739C713.426 11.7023 715.867 13.9147 718.749 15.0734C720.307 15.7012 721.763 16.3425 723.5 15.8702L723.334 15.7541L723.466 15.9007C723.536 14.6981 723.166 13.7761 722.223 13.6127C719.14 13.0784 716.388 12.3154 714.542 9.61266C713.877 8.63998 711.563 9.2114 710.167 7.61207C714.24 8.14856 717.863 7.95809 721.487 7.87017L721.437 7.90173C721.943 6.55486 722.658 5.67348 724.309 6.80846C725.079 7.33706 725.991 7.22999 726.87 7.26042L726.835 7.29311C726.284 6.66645 725.971 5.58896 727.202 5.98908C731.058 7.24127 734.617 6.22576 738.213 5.31507C739.74 4.92848 740.467 5.79633 741.404 6.49738C742.053 6.98315 742.121 6.96513 743.103 6.02063C743.596 5.545 744.1 5.60474 744.595 5.8527C745.878 6.49852 747.176 6.40609 748.503 6.0319L748.46 6.0691C748.571 5.32409 748.698 4.62868 749.869 4.94877C752.384 5.63742 754.864 5.49653 757.487 5.22941C759.475 5.02766 761.521 5.7783 763.676 5.013C764.842 4.59823 765.457 5.54612 764.692 6.68447L764.722 6.6563C768.327 5.06824 771.92 7.35284 775.521 6.67997C775.89 6.28436 776.288 6.03076 776.795 6.50414C776.853 6.55824 776.884 6.72393 776.842 6.76563C776.333 7.26493 775.927 6.79832 775.489 6.63039C775.358 7.40244 775.795 7.75409 776.581 7.84876C777.436 7.95245 778.03 8.33678 778.237 9.1325L778.212 9.10997C779.076 8.87667 780.049 8.65238 780.217 7.73042C780.36 6.94935 779.468 6.87496 778.88 6.64729L778.917 6.6811C779.135 6.26521 779.355 5.8493 779.573 5.43341L779.558 5.44469C779.8 5.44694 780.041 5.44918 780.283 5.45257L780.258 5.42778C781.673 6.14348 783.129 6.36889 784.78 6.18855C786.644 5.98455 788.555 5.83127 790.378 6.66982C792.655 7.71576 794.483 6.56952 796.196 5.40073C797.39 4.58585 797.036 3.49708 795.746 3.51286C792.31 3.55456 788.819 3.13077 785.443 4.06061C785.217 4.1226 785.116 4.56555 784.957 4.83155L784.986 4.80563C783.537 4.32549 784.54 2.72276 783.248 1.97663C782.379 2.0961 781.305 2.24263 780.231 2.39028L780.27 2.35533C780.127 2.51199 779.893 2.82082 779.854 2.80279C775.115 0.455064 769.939 1.45817 764.943 1.26544C762.818 1.18429 760.693 1.29701 758.594 0.879984C758.053 0.772911 757.239 0.566644 756.962 0.803332C754.874 2.59878 752.686 1.53933 750.512 1.12794C750.337 1.14485 750.278 1.57201 750.007 1.2429C750.186 1.21585 750.364 1.18992 750.543 1.16287C750.446 1.11215 750.328 0.99833 750.254 1.01862C746.362 2.06794 742.317 0.103417 738.457 1.49875C736.913 2.05666 735.176 1.74897 733.866 1.48749C731.294 0.972408 729.177 0.284872 726.703 2.02735C725.596 2.80842 723.573 1.80082 721.814 1.92705C718.553 2.15923 715.217 2.64275 711.78 2.30124C706.478 1.77489 701.009 1.49875 696.091 4.66136C694.584 5.63065 691.929 5.63178 689.925 5.34663C685.857 4.76618 681.939 5.40524 678.043 6.03641C675.086 6.51655 671.945 5.30718 669.213 6.76789C667.529 7.66843 665.297 6.6101 663.895 8.33003C663.186 9.19902 662.457 7.92315 661.495 7.9919C658.798 8.18576 656.35 9.20239 653.831 9.81327C651.513 10.3757 648.711 9.5191 646.719 11.7834C645.865 12.755 644.931 11.2165 644.391 10.3453L644.423 10.3734C643.73 10.5639 643.037 10.7533 642.344 10.9426C642.385 11.2199 642.426 11.4971 642.467 11.7755C642.369 11.771 642.214 11.8003 642.187 11.7586C641.976 11.443 642.182 11.2018 642.395 10.9697C640.533 10.0894 639.652 11.9829 638.168 12.2027C633.432 12.9026 628.704 13.642 623.969 14.3464C623.223 14.4569 622.26 14.2224 622.294 15.3383C622.323 16.2253 623.006 16.693 623.86 16.5995C625.482 16.4203 626.955 17.0717 628.517 17.1112C630.322 17.1551 632.09 17.278 633.925 18.5944C632.822 16.7381 634.605 16.0675 634.83 14.3836C635.982 16.1453 637.337 16.6017 639.012 15.8748L638.994 15.895C639.14 15.4397 638.972 14.5718 639.631 14.68C640.52 14.8266 639.745 15.4735 639.697 15.9041L639.676 15.8702Z" fill="#7C6063"/>
<path fill-rule="evenodd" clip-rule="evenodd" d="M589.123 16.3329C589.078 16.4186 589.056 16.5392 588.98 16.5786C588.923 16.6091 588.8 16.5392 588.706 16.5144C588.751 16.4288 588.773 16.307 588.846 16.2687C588.906 16.2383 589.028 16.3081 589.123 16.3329ZM595.654 19.0718C595.574 19.0481 595.494 19.0233 595.415 18.9985C595.474 18.8689 595.526 18.7359 595.603 18.6153C595.612 18.6018 595.758 18.6604 595.84 18.6852C595.778 18.8148 595.716 18.9433 595.654 19.0718ZM597.087 17.7441C597.229 17.85 597.633 17.5818 597.545 18.0123C597.403 17.912 597.259 17.8117 597.116 17.7125C596.965 17.6122 596.493 17.8917 596.671 17.4014C596.81 17.5153 596.948 17.6302 597.087 17.7441ZM602.489 17.1275L602.653 17.22L602.528 17.0903L602.489 17.1275ZM588.298 18.9421C590.013 19.6455 591.452 21.2876 593.677 20.236C591.825 20.1639 591.738 18.9613 591.723 17.7136L591.584 17.6201L591.687 17.7452C591.917 17.7418 592.147 17.7396 592.376 17.7362C592.873 17.4645 593.317 16.963 594.021 17.4172C593.539 17.9819 592.888 17.584 592.345 17.7001C592.226 18.7979 592.945 19.491 593.767 20.1357C594.536 20.7692 595.418 21.0115 596.44 20.7827L596.416 20.8052C598.873 20.502 601.328 20.4682 603.3 18.5713C604.002 17.8962 604.63 18.7156 603.889 19.579L603.856 19.5497C604.462 19.7954 605.299 20.28 605.703 19.7311C607.201 17.6978 609.209 18.3414 611.318 18.3899C613.596 18.4428 616.15 18.9016 618.076 17.1061L618.05 17.1298C619.051 16.7015 620.19 16.449 620.836 15.2104C618.23 13.6121 615.395 14.7595 612.891 14.9973C605.325 15.7187 597.872 15.1281 590.381 14.4101C587.634 14.1475 584.928 15.3231 582.133 14.9196C581.706 14.8565 581.29 14.7381 580.868 14.6457L580.898 14.6739C580.664 14.2557 580.428 13.8364 580.194 13.4183L580.22 13.442C578.199 14.223 576.001 14.0382 574.009 13.7846C569.535 13.2154 565.059 14.0438 560.618 13.4386L560.649 13.4104C560.448 13.5716 560.247 13.7316 560.045 13.8928C559.967 14.0123 559.894 14.1351 559.825 14.2602C561.031 15.748 563.22 15.4764 564.682 16.5043L564.629 16.4727C565.549 16.0534 566.589 15.5891 567.533 15.9554C570.839 17.2357 574.471 16.2608 577.784 17.3C578.596 17.5547 579.569 16.9889 580.022 17.1952C582.663 18.3989 585.912 17.1332 588.338 18.9782L588.298 18.9421Z" fill="#7C6063"/>
</svg>
