<svg width="1599" height="207" viewBox="0 0 1599 207" fill="none" xmlns="http://www.w3.org/2000/svg">
<path d="M170.215 95.2264C127.629 95.6264 57.3956 102.393 27.6025 105.726L0 334L1597 325.726V100.726L1439.27 93.2265H1353.18C1302.14 96.8932 1188.22 102.026 1140.9 93.2265C1081.75 82.2265 1047.58 97.2265 1022.61 88.2265C1002.63 81.0265 923.149 70.8932 885.908 66.7266L851.733 69.7264C800.472 60.2263 696.634 62.2265 667.717 60.2265C644.583 58.6266 586.224 65.8931 559.936 69.7264C485.015 63.2264 448.212 70.7264 425.867 73.7264C403.522 76.7264 410.751 71.7264 375.919 73.7264C341.088 75.7264 223.449 94.7264 170.215 95.2264Z" fill="#FAEBFF"/>
<ellipse opacity="0.05" cx="389.622" cy="144" rx="201.285" ry="45" fill="black"/>
<path fill-rule="evenodd" clip-rule="evenodd" d="M71.1607 62.5124C71.072 62.509 70.9428 62.5372 70.8998 62.4944C70.7151 62.3096 70.773 62.1653 71.045 62.1337C71.109 62.1258 71.2308 62.2138 71.2468 62.2758C71.2653 62.3445 71.1939 62.4324 71.1607 62.5124ZM231.861 51.086C232.021 50.9992 232.181 50.8426 232.342 50.8403C232.63 50.8358 232.683 51.0071 232.48 51.2044C232.413 51.2697 232.285 51.3622 232.232 51.3408C232.094 51.2867 231.982 51.1762 231.861 51.086ZM246.578 49.924C247.054 48.5895 247.853 48.5061 248.966 48.4903C248.501 49.4675 248.051 50.0626 246.578 49.924ZM213.302 51.8694C213.229 51.8006 213.142 51.7397 213.09 51.6608C213.052 51.6034 213.059 51.52 213.046 51.4478L213.271 51.8919C214.216 51.9449 214.803 50.3602 216.294 51.5053C215.3 52.62 214.396 52.6955 213.302 51.8694ZM154.222 53.081C153.783 53.4935 153.344 53.906 152.905 54.3185C153.118 54.6488 153.39 54.9981 152.899 55.2979C152.783 55.369 152.538 55.2619 152.352 55.236C152.552 54.9226 152.751 54.6093 152.952 54.296C152.532 54.1945 151.84 54.0931 152.037 53.6434C152.455 52.691 153.348 52.7056 154.26 53.1159L154.341 53.0066L154.222 53.081ZM130.075 55.5752C132.126 57.3988 136.82 57.471 138.755 55.5865C140.132 54.2464 141.451 53.2015 143.53 54.3433L143.485 54.3016C144.891 54.8156 146.413 53.0697 147.8 54.5034C147.488 55.343 145.63 54.624 145.904 56.0768C147.065 57.1171 148.365 55.1627 149.525 56.1872C149.762 56.1883 149.997 56.1895 150.233 56.1906L150.195 56.1556C150.128 56.2052 150.052 56.3044 149.997 56.2954C149.845 56.2718 149.703 56.203 149.557 56.1511C148.308 56.8759 146.608 57.0528 145.882 58.4493C146.578 59.1672 147.29 58.8685 147.895 58.7885C150.851 58.3997 153.822 57.5645 156.61 59.3408C161.075 57.2749 166.224 59.1661 170.815 57.1193C173.497 55.9235 176.691 55.3318 179.694 55.192C183.311 55.0229 187.215 55.343 190.538 54.6972C194.893 53.8519 199.677 55.1683 203.649 52.6234C204.586 52.0226 205.608 52.6166 206.58 52.4881C206.748 52.4543 206.772 51.9967 207.068 52.3529L206.556 52.4588C206.311 54.3985 203.347 53.4191 202.957 55.4636C204.401 56.0463 206.492 56.1647 207.187 55.3318C208.093 54.2452 208.738 52.9987 210.337 52.123C210.751 53.0066 209.436 54.0751 210.639 54.7693C211.739 55.4028 212.587 54.7231 213.465 54.403C218.166 52.6876 223.206 53.5025 228.065 52.5625C226.244 53.3526 224.701 54.3929 222.833 55.1458C223.778 55.7645 224.738 55.9269 225.524 55.7646C229.977 54.8449 234.816 55.4264 238.866 52.9322C239.565 52.5005 240.366 52.4554 241.123 52.6887C243.191 53.3255 244.83 52.8037 246.769 51.8614C248.653 50.9451 251.162 51.2111 253.367 50.9113C257.222 50.3884 260.931 48.8488 264.938 49.2556C265.147 49.2759 265.386 49.2038 265.586 49.1238C267.144 48.4949 268.295 46.9417 270.438 47.5639C270.863 47.6879 271.633 46.7726 272.12 45.5802C269.816 46.7772 267.654 45.4776 265.623 46.3579L265.654 46.3274C265.335 47.4117 264.407 47.1277 263.563 47.1626C261.954 47.2291 260.413 47.627 258.917 48.1657C258.754 48.221 258.741 48.7068 258.421 48.3089C258.598 48.2751 258.775 48.2401 258.951 48.2052C258.935 47.9899 258.919 47.7746 258.904 47.5582L258.928 47.5797C257.325 47.0071 255.957 48.0305 254.456 48.1251C253.221 48.2029 251.555 50.3872 250.876 47.2731C250.688 46.4097 248.323 47.4095 246.903 47.1953C245.831 47.033 244.025 46.9068 244.571 49.028C244.787 49.8699 243.864 50.2429 243.085 50.3748C242.336 50.5044 241.955 50.1968 241.814 49.3954C241.387 46.9823 238.718 49.1587 237.489 47.7386C237.053 47.2348 236.619 48.833 236.097 49.4089C236.439 49.7166 237.056 49.8541 236.899 50.4672C236.885 50.5247 236.708 50.6059 236.646 50.5845C235.996 50.3636 236.294 49.7887 236.129 49.3841C234.744 49.4495 233.789 49.3165 232.388 48.381C230.834 47.3441 227.73 47.6484 225.154 48.7293C225.82 49.5115 226.819 50.412 225.312 51.2596C224.343 51.8051 223.645 51.7352 223.331 50.6205L223.355 50.6464C222.728 50.2294 222.1 49.8124 221.446 49.3774C220.26 49.5543 220.626 51.3193 219.265 51.3103C218.121 50.554 219.672 49.7809 219.09 48.9784C218.865 48.9006 218.535 48.6662 218.268 48.7158C215.905 49.1519 213.39 48.6718 211.124 49.8485C210.382 50.234 209.179 50.7028 208.58 49.4022L208.603 49.4213C204.558 49.6197 200.524 50.6093 196.462 49.5498C196.259 49.4968 195.967 49.4766 195.81 49.5712C192.474 51.5628 188.637 49.4348 185.593 50.2847C180.85 51.6101 175.895 48.9716 171.476 51.5977C170.911 51.9336 170.173 51.6789 169.6 51.272C169.024 50.8629 168.239 50.6803 167.704 51.0015C165.228 52.4859 162.221 52.1331 159.604 53.081C159.168 53.7133 158.371 54.1269 158.247 54.9497L158.284 54.9159C157.769 54.695 157.188 54.3309 157.378 53.8338C157.751 52.8567 158.809 53.1937 159.629 53.1103C159.527 52.6076 159.417 51.8434 158.851 51.8897C154.109 52.274 149.176 49.667 144.587 52.6188C144.372 52.7575 143.86 52.7733 143.667 52.6358C141.125 50.8178 139.392 51.9257 137.8 53.8812C136.983 54.8832 135.869 54.8561 134.827 54.1934C133.874 53.5859 133.003 53.1757 131.752 53.5465C125.867 55.2968 119.727 55.1176 113.659 55.5222C112.163 55.6214 110.607 55.9641 109.284 56.7767C109.124 56.8477 109.092 57.3042 108.779 56.9176C108.952 56.8748 109.124 56.8308 109.296 56.7879C108.393 55.8153 107.489 55.0218 106.587 56.7879L106.611 56.7666C103.115 57.0303 99.6863 58.1033 95.9202 57.5859C94.4568 58.2611 97.1079 60.1805 94.7583 60.9334C94.3029 58.7829 92.9134 57.8204 90.4925 58.642L90.5183 58.6184C88.9995 60.2932 88.3546 57.8406 87.1522 58.021L87.1718 58.0018C87.0943 58.0424 87.0131 58.1236 86.9405 58.1179C86.7731 58.101 86.6094 58.0424 86.4445 58.0007L86.4641 58.0199C84.4937 57.6941 84.9749 59.7747 83.8931 60.3056C81.0069 58.2002 79.7022 58.1664 76.4013 60.238C75.8031 60.6133 75.5373 61.0134 74.8481 60.3034C74.0789 59.511 73.2062 60.2921 72.3877 60.4791L72.4074 60.4589C72.3311 60.5062 72.2487 60.5998 72.1797 60.5919C72.0099 60.5716 71.8462 60.5051 71.68 60.4566L71.6998 60.4758C69.6973 59.6677 67.7453 60.6223 65.765 60.6573C60.9059 60.7395 56.0431 60.9334 51.2418 61.7347C49.1716 62.0808 47.0461 61.941 44.9735 62.0402C42.9747 62.136 41.4929 62.6409 39.7427 63.3645C38.5698 63.8503 36.5956 63.2202 34.9833 63.4096C32.0676 63.7511 28.8897 62.8415 26.3186 64.9097C26.1217 65.0686 25.6885 65.1307 25.43 65.0529C20.5734 63.5933 15.9961 65.4767 11.3105 66.0188L11.3438 65.9872C15.4386 68.8433 19.7857 69.4508 24.9094 68.3564C29.371 67.4029 34.1414 67.5697 38.7433 67.4908C42.0307 67.4344 45.2824 67.0433 48.2129 66.2262C52.9132 64.9165 57.6739 65.1633 62.3816 64.6234C66.5096 64.1512 70.6204 63.4862 74.8259 63.4152C76.5761 63.3859 78.277 62.7266 79.9349 63.7319C80.0247 63.786 80.186 63.8649 80.2389 63.8311C82.7448 62.2589 85.9841 64.5051 88.4678 62.4166C90.0174 61.1115 92.0112 62.198 93.7909 62.1518C98.5787 62.0266 103.248 61.2106 107.936 60.4566C107.936 60.4566 107.909 60.4837 107.91 60.4837C108.15 60.2662 108.39 60.0486 108.629 59.8311L108.607 59.8559C111.901 60.1501 114.933 59.245 117.915 58.1393C118.99 57.7403 120.037 57.7257 121.184 57.9184C124.155 58.4177 126.793 56.8263 129.669 56.6144C129.846 56.6009 129.966 55.9156 130.111 55.5425L130.075 55.5752Z" fill="#7C6063"/>
<path fill-rule="evenodd" clip-rule="evenodd" d="M1289.72 52.9587C1289.81 52.9553 1289.94 52.9835 1289.98 52.9407C1290.17 52.7558 1290.11 52.6116 1289.84 52.58C1289.78 52.5721 1289.65 52.66 1289.64 52.722C1289.62 52.7908 1289.69 52.8787 1289.72 52.9587ZM1129.02 41.5323C1128.86 41.4455 1128.7 41.2889 1128.54 41.2866C1128.25 41.2821 1128.2 41.4534 1128.4 41.6507C1128.47 41.716 1128.6 41.8085 1128.65 41.787C1128.79 41.7329 1128.9 41.6225 1129.02 41.5323ZM1114.31 40.3703C1113.83 39.0358 1113.03 38.9524 1111.92 38.9366C1112.38 39.9138 1112.83 40.5089 1114.31 40.3703ZM1147.58 42.3156C1147.66 42.2469 1147.74 42.186 1147.79 42.1071C1147.83 42.0497 1147.83 41.9663 1147.84 41.8941L1147.61 42.3382C1146.67 42.3911 1146.08 40.8065 1144.59 41.9516C1145.58 43.0663 1146.49 43.1418 1147.58 42.3156ZM1206.66 43.5272C1207.1 43.9398 1207.54 44.3523 1207.98 44.7648C1207.77 45.095 1207.49 45.4444 1207.99 45.7442C1208.1 45.8152 1208.35 45.7082 1208.53 45.6822C1208.33 45.3689 1208.13 45.0556 1207.93 44.7422C1208.35 44.6408 1209.04 44.5394 1208.85 44.0897C1208.43 43.1373 1207.54 43.1519 1206.62 43.5622L1206.54 43.4529L1206.66 43.5272ZM1230.81 46.0215C1228.76 47.8451 1224.06 47.9173 1222.13 46.0328C1220.75 44.6927 1219.43 43.6478 1217.35 44.7896L1217.4 44.7479C1215.99 45.2618 1214.47 43.516 1213.08 44.9496C1213.4 45.7893 1215.25 45.0702 1214.98 46.5231C1213.82 47.5634 1212.52 45.609 1211.36 46.6335C1211.12 46.6346 1210.89 46.6357 1210.65 46.6369L1210.69 46.6019C1210.76 46.6515 1210.83 46.7507 1210.89 46.7417C1211.04 46.718 1211.18 46.6493 1211.33 46.5974C1212.58 47.3221 1214.28 47.4991 1215 48.8956C1214.31 49.6135 1213.59 49.3148 1212.99 49.2348C1210.03 48.846 1207.06 48.0108 1204.27 49.7871C1199.81 47.7211 1194.66 49.6124 1190.07 47.5656C1187.39 46.3698 1184.19 45.778 1181.19 45.6383C1177.57 45.4692 1173.67 45.7893 1170.35 45.1435C1165.99 44.2982 1161.21 45.6146 1157.24 43.0697C1156.3 42.4689 1155.28 43.0629 1154.3 42.9344C1154.14 42.9006 1154.11 42.443 1153.82 42.7991L1154.33 42.9051C1154.57 44.8448 1157.54 43.8654 1157.93 45.9099C1156.48 46.4926 1154.39 46.611 1153.7 45.778C1152.79 44.6915 1152.15 43.445 1150.55 42.5692C1150.13 43.4529 1151.45 44.5213 1150.25 45.2156C1149.15 45.8491 1148.3 45.1694 1147.42 44.8493C1142.72 43.1339 1137.68 43.9488 1132.82 43.0088C1134.64 43.7989 1136.18 44.8392 1138.05 45.5921C1137.11 46.2108 1136.15 46.3731 1135.36 46.2108C1130.91 45.2911 1126.07 45.8727 1122.02 43.3785C1121.32 42.9468 1120.52 42.9017 1119.76 43.135C1117.69 43.7718 1116.05 43.25 1114.12 42.3077C1112.23 41.3914 1109.72 41.6574 1107.52 41.3576C1103.66 40.8346 1099.95 39.295 1095.95 39.7019C1095.74 39.7222 1095.5 39.6501 1095.3 39.5701C1093.74 38.9411 1092.59 37.388 1090.45 38.0102C1090.02 38.1341 1089.25 37.2189 1088.76 36.0265C1091.07 37.2234 1093.23 35.9239 1095.26 36.8042L1095.23 36.7737C1095.55 37.858 1096.48 37.574 1097.32 37.6089C1098.93 37.6754 1100.47 38.0733 1101.97 38.612C1102.13 38.6672 1102.14 39.153 1102.46 38.7552C1102.29 38.7214 1102.11 38.6864 1101.93 38.6515C1101.95 38.4362 1101.97 38.2209 1101.98 38.0045L1101.96 38.0259C1103.56 37.4534 1104.93 38.4768 1106.43 38.5714C1107.66 38.6492 1109.33 40.8335 1110.01 37.7194C1110.2 36.856 1112.56 37.8558 1113.98 37.6416C1115.05 37.4793 1116.86 37.3531 1116.31 39.4743C1116.1 40.3162 1117.02 40.6892 1117.8 40.8211C1118.55 40.9507 1118.93 40.643 1119.07 39.8417C1119.5 37.4286 1122.17 39.605 1123.4 38.1849C1123.83 37.6811 1124.27 39.2793 1124.79 39.8552C1124.45 40.1629 1123.83 40.3004 1123.99 40.9135C1124 40.971 1124.18 41.0522 1124.24 41.0307C1124.89 40.8098 1124.59 40.235 1124.76 39.8304C1126.14 39.8958 1127.1 39.7628 1128.5 38.8273C1130.05 37.7904 1133.15 38.0947 1135.73 39.1756C1135.06 39.9578 1134.07 40.8583 1135.57 41.7059C1136.54 42.2514 1137.24 42.1815 1137.55 41.0668L1137.53 41.0927C1138.16 40.6757 1138.78 40.2587 1139.44 39.8237C1140.62 40.0006 1140.26 41.7656 1141.62 41.7566C1142.76 41.0003 1141.21 40.2271 1141.79 39.4247C1142.02 39.3469 1142.35 39.1125 1142.62 39.162C1144.98 39.5982 1147.49 39.1181 1149.76 40.2948C1150.5 40.6802 1151.71 41.1491 1152.3 39.8485L1152.28 39.8676C1156.33 40.066 1160.36 41.0555 1164.42 39.9961C1164.63 39.9431 1164.92 39.9228 1165.07 40.0175C1168.41 42.0091 1172.25 39.8811 1175.29 40.731C1180.03 42.0564 1184.99 39.4179 1189.41 42.044C1189.97 42.3799 1190.71 42.1252 1191.28 41.7183C1191.86 41.3092 1192.65 41.1265 1193.18 41.4478C1195.66 42.9321 1198.66 42.5794 1201.28 43.5272C1201.72 44.1595 1202.51 44.5732 1202.64 45.396L1202.6 45.3622C1203.12 45.1413 1203.7 44.7772 1203.51 44.2801C1203.13 43.3029 1202.08 43.6399 1201.26 43.5565C1201.36 43.0539 1201.47 42.2897 1202.03 42.3359C1206.78 42.7203 1211.71 40.1133 1216.3 43.0651C1216.51 43.2038 1217.02 43.2196 1217.22 43.0821C1219.76 41.2641 1221.49 42.372 1223.08 44.3275C1223.9 45.3295 1225.02 45.3024 1226.06 44.6397C1227.01 44.0322 1227.88 43.6219 1229.13 43.9928C1235.02 45.7431 1241.16 45.5639 1247.23 45.9685C1248.72 46.0677 1250.28 46.4104 1251.6 47.223C1251.76 47.294 1251.79 47.7505 1252.11 47.3639C1251.93 47.321 1251.76 47.2771 1251.59 47.2342C1252.49 46.2616 1253.4 45.4681 1254.3 47.2342L1254.27 47.2128C1257.77 47.4766 1261.2 48.5495 1264.96 48.0322C1266.43 48.7073 1263.78 50.6268 1266.13 51.3797C1266.58 49.2292 1267.97 48.2667 1270.39 49.0883L1270.37 49.0646C1271.89 50.7395 1272.53 48.2869 1273.73 48.4673L1273.71 48.4481C1273.79 48.4887 1273.87 48.5699 1273.94 48.5642C1274.11 48.5473 1274.28 48.4887 1274.44 48.447L1274.42 48.4662C1276.39 48.1404 1275.91 50.221 1276.99 50.7519C1279.88 48.6465 1281.18 48.6127 1284.48 50.6842C1285.08 51.0596 1285.35 51.4597 1286.04 50.7496C1286.81 49.9573 1287.68 50.7383 1288.5 50.9254L1288.48 50.9052C1288.55 50.9525 1288.64 51.046 1288.7 51.0381C1288.87 51.0179 1289.04 50.9514 1289.2 50.9029L1289.18 50.9221C1291.19 50.1139 1293.14 51.0686 1295.12 51.1035C1299.98 51.1858 1304.84 51.3797 1309.64 52.181C1311.71 52.527 1313.84 52.3873 1315.91 52.4865C1317.91 52.5823 1319.39 53.0872 1321.14 53.8108C1322.31 54.2966 1324.29 53.6665 1325.9 53.8559C1328.82 54.1974 1331.99 53.2878 1334.57 55.356C1334.76 55.5149 1335.2 55.5769 1335.45 55.4992C1340.31 54.0396 1344.89 55.9229 1349.57 56.4651L1349.54 56.4335C1345.45 59.2896 1341.1 59.8971 1335.98 58.8027C1331.51 57.8491 1326.74 58.0159 1322.14 57.937C1318.85 57.8807 1315.6 57.4896 1312.67 56.6725C1307.97 55.3628 1303.21 55.6096 1298.5 55.0697C1294.37 54.5975 1290.26 53.9325 1286.06 53.8615C1284.31 53.8322 1282.61 53.1729 1280.95 54.1782C1280.86 54.2323 1280.7 54.3112 1280.65 54.2774C1278.14 52.7051 1274.9 54.9514 1272.42 52.8629C1270.87 51.5578 1268.87 52.6442 1267.09 52.598C1262.31 52.4729 1257.64 51.6569 1252.95 50.9029C1252.95 50.9029 1252.98 50.93 1252.97 50.93C1252.73 50.7124 1252.49 50.4949 1252.26 50.2774L1252.28 50.3022C1248.98 50.5963 1245.95 49.6913 1242.97 48.5856C1241.89 48.1866 1240.85 48.172 1239.7 48.3647C1236.73 48.864 1234.09 47.2726 1231.22 47.0607C1231.04 47.0471 1230.92 46.3619 1230.77 45.9888L1230.81 46.0215Z" fill="#7C6063"/>
<path fill-rule="evenodd" clip-rule="evenodd" d="M1397.26 56.8936C1397.17 56.8849 1397.04 56.9052 1397 56.8599C1396.83 56.6644 1396.9 56.5239 1397.17 56.5087C1397.24 56.5047 1397.35 56.5998 1397.36 56.6626C1397.38 56.7323 1397.3 56.8157 1397.26 56.8936ZM1558.43 55.1548C1558.6 55.0778 1558.77 54.9311 1558.93 54.9386C1559.22 54.9514 1559.26 55.1255 1559.04 55.3101C1558.97 55.3714 1558.84 55.4559 1558.78 55.4313C1558.65 55.3691 1558.55 55.2521 1558.43 55.1548ZM1573.2 54.8802C1573.77 53.5773 1574.58 53.5421 1575.69 53.5933C1575.15 54.5404 1574.66 55.1072 1573.2 54.8802ZM1539.86 54.8205C1539.79 54.7475 1539.71 54.6815 1539.66 54.5997C1539.63 54.54 1539.64 54.4573 1539.63 54.3845L1539.82 54.8411C1540.76 54.9508 1541.46 53.4049 1542.87 54.6371C1541.8 55.6897 1540.89 55.7106 1539.86 54.8205ZM1480.82 52.477C1480.35 52.8622 1479.88 53.2475 1479.42 53.6327C1479.6 53.975 1479.85 54.34 1479.34 54.6096C1479.22 54.6735 1478.98 54.552 1478.8 54.5149C1479.02 54.2142 1479.24 53.9136 1479.46 53.613C1479.05 53.4865 1478.37 53.3437 1478.6 52.9068C1479.08 51.9816 1479.97 52.0499 1480.85 52.5141L1480.94 52.4099L1480.82 52.477ZM1456.54 53.5139C1458.46 55.4569 1463.14 55.8111 1465.2 54.0471C1466.68 52.7927 1468.07 51.8294 1470.06 53.0937L1470.02 53.0493C1471.38 53.6468 1473.03 51.9962 1474.31 53.5101C1473.94 54.3293 1472.13 53.5 1472.3 54.9662C1473.39 56.074 1474.82 54.202 1475.91 55.2941C1476.14 55.3095 1476.38 55.3247 1476.61 55.34L1476.58 55.3029C1476.51 55.3484 1476.43 55.4428 1476.37 55.4304C1476.22 55.3977 1476.08 55.3205 1475.94 55.26C1474.64 55.9081 1472.94 55.9824 1472.11 57.3322C1472.75 58.0904 1473.49 57.8353 1474.1 57.7917C1477.07 57.5815 1480.1 56.9268 1482.75 58.8669C1487.36 57.0739 1492.36 59.2707 1497.09 57.5044C1499.85 56.4724 1503.08 56.074 1506.08 56.1151C1509.71 56.1639 1513.58 56.7181 1516.94 56.2735C1521.35 55.6918 1526.03 57.2931 1530.17 54.9924C1531.15 54.4494 1532.13 55.1035 1533.11 55.0337C1533.28 55.0101 1533.33 54.5549 1533.6 54.9281L1533.08 55.003C1532.7 56.9238 1529.81 55.7683 1529.28 57.785C1530.68 58.4532 1532.75 58.697 1533.51 57.9077C1534.49 56.878 1535.22 55.673 1536.88 54.8953C1537.23 55.8019 1535.84 56.789 1536.99 57.5541C1538.04 58.2523 1538.94 57.6251 1539.84 57.3585C1544.65 55.9294 1549.62 57.0456 1554.54 56.3998C1552.67 57.0788 1551.05 58.024 1549.13 58.6629C1550.03 59.3372 1550.98 59.5569 1551.77 59.4422C1556.28 58.7923 1561.07 59.6635 1565.29 57.4182C1566.02 57.0295 1566.82 57.0327 1567.56 57.311C1569.58 58.0708 1571.25 57.6486 1573.25 56.825C1575.2 56.024 1577.68 56.4402 1579.9 56.2737C1583.79 55.9836 1587.6 54.6704 1591.57 55.3173C1591.78 55.3501 1592.02 55.2925 1592.23 55.2247C1593.83 54.6909 1595.09 53.2103 1597.18 53.9599C1597.59 54.1092 1598.43 53.2423 1599 52.0817C1596.62 53.1375 1594.55 51.7108 1592.46 52.467L1592.49 52.4385C1592.1 53.5012 1591.19 53.1621 1590.35 53.1462C1588.74 53.1158 1587.17 53.4201 1585.64 53.8677C1585.47 53.913 1585.42 54.397 1585.13 53.9807C1585.31 53.9576 1585.49 53.9334 1585.67 53.9091C1585.67 53.6934 1585.67 53.4776 1585.67 53.2608L1585.69 53.2836C1584.13 52.6159 1582.7 53.5547 1581.19 53.559C1579.95 53.5623 1578.13 55.6418 1577.68 52.4935C1577.55 51.6207 1575.12 52.4761 1573.72 52.177C1572.66 51.9506 1570.87 51.7161 1571.26 53.8655C1571.42 54.7186 1570.47 55.0353 1569.68 55.1201C1568.93 55.2043 1568.57 54.8744 1568.49 54.0663C1568.23 51.6327 1565.41 53.644 1564.29 52.153C1563.89 51.6241 1563.34 53.1927 1562.78 53.736C1563.1 54.0636 1563.7 54.2379 1563.5 54.8403C1563.49 54.8968 1563.3 54.9672 1563.24 54.942C1562.61 54.6825 1562.95 54.1269 1562.81 53.7132C1561.43 53.6952 1560.48 53.5051 1559.15 52.4874C1557.68 51.3592 1554.56 51.4762 1551.91 52.3999C1552.52 53.2204 1553.45 54.1791 1551.88 54.9342C1550.88 55.4203 1550.19 55.3086 1549.95 54.1774L1549.98 54.2047C1549.38 53.7509 1548.78 53.2971 1548.16 52.8236C1546.97 52.9289 1547.21 54.7121 1545.85 54.6212C1544.76 53.7978 1546.36 53.1196 1545.84 52.2838C1545.62 52.1926 1545.31 51.9389 1545.04 51.9723C1542.65 52.2655 1540.17 51.6352 1537.83 52.6731C1537.06 53.0131 1535.83 53.4085 1535.32 52.0747L1535.34 52.0952C1531.29 52.0499 1527.2 52.7948 1523.22 51.4934C1523.02 51.4283 1522.73 51.3905 1522.57 51.4755C1519.1 53.2622 1515.42 50.9081 1512.32 51.5731C1507.49 52.6105 1502.74 49.6797 1498.14 52.0345C1497.55 52.3356 1496.84 52.0371 1496.29 51.5966C1495.75 51.1538 1494.98 50.9243 1494.42 51.2127C1491.84 52.5449 1488.87 52.0121 1486.19 52.8006C1485.71 53.4053 1484.88 53.7702 1484.7 54.5837L1484.74 54.5522C1484.24 54.3008 1483.69 53.9026 1483.91 53.418C1484.36 52.4653 1485.39 52.8653 1486.21 52.8313C1486.15 52.3236 1486.09 51.5545 1485.52 51.5666C1480.76 51.6649 1476.03 48.767 1471.24 51.4365C1471.01 51.5619 1470.5 51.5469 1470.32 51.3981C1467.91 49.4312 1466.1 50.4325 1464.37 52.288C1463.49 53.2387 1462.38 53.1447 1461.39 52.4208C1460.48 51.7573 1459.64 51.2956 1458.36 51.5903C1452.37 52.9831 1446.25 52.435 1440.17 52.4739C1438.67 52.4829 1437.09 52.7313 1435.71 53.4626C1435.55 53.5238 1435.48 53.9774 1435.2 53.5728C1435.37 53.5404 1435.55 53.5069 1435.72 53.4746C1434.89 52.4497 1434.05 51.6036 1433.02 53.3117L1433.05 53.2917C1429.54 53.3447 1426.04 54.2092 1422.32 53.4665C1420.81 54.0522 1423.32 56.1269 1420.92 56.7369C1420.62 54.5636 1419.3 53.5196 1416.83 54.1939L1416.85 54.1719C1415.22 55.7518 1414.75 53.2657 1413.54 53.3734L1413.56 53.3554C1413.48 53.3913 1413.39 53.4674 1413.32 53.4574C1413.15 53.4305 1413 53.3621 1412.83 53.3106L1412.85 53.3309C1410.91 52.8874 1411.24 54.9924 1410.12 55.4571C1407.39 53.1827 1406.09 53.0705 1402.65 54.9391C1402.03 55.2777 1401.73 55.661 1401.1 54.911C1400.39 54.0741 1399.46 54.801 1398.63 54.9385L1398.65 54.9194C1398.57 54.9621 1398.48 55.0504 1398.41 55.0384C1398.25 55.008 1398.09 54.9318 1397.93 54.8734L1397.94 54.8937C1396 53.9669 1393.99 54.8022 1392.01 54.7179C1387.15 54.5079 1382.29 54.4089 1377.44 54.9198C1375.35 55.1406 1373.24 54.8733 1371.16 54.8477C1369.16 54.8231 1367.65 55.2378 1365.85 55.8546C1364.64 56.2688 1362.72 55.5214 1361.1 55.6134C1358.16 55.7789 1355.06 54.6802 1352.34 56.5893C1352.13 56.736 1351.7 56.7719 1351.45 56.6787C1346.7 54.9303 1342 56.5343 1337.29 56.7935L1337.32 56.7641C1341.2 59.8602 1345.5 60.7277 1350.69 59.9438C1355.21 59.2606 1359.96 59.7139 1364.56 59.9119C1367.84 60.0533 1371.11 59.8586 1374.1 59.2195C1378.88 58.1952 1383.61 58.7278 1388.35 58.4721C1392.5 58.2491 1396.65 57.8328 1400.85 58.0148C1402.6 58.0908 1404.35 57.5352 1405.93 58.638C1406.01 58.6974 1406.17 58.7859 1406.22 58.7553C1408.84 57.3371 1411.91 59.7733 1414.54 57.8387C1416.18 56.6295 1418.09 57.8335 1419.87 57.8944C1424.65 58.0575 1429.37 57.524 1434.1 57.0535C1434.1 57.0535 1434.07 57.0789 1434.08 57.079C1434.33 56.8764 1434.59 56.6737 1434.84 56.471L1434.82 56.4944C1438.08 56.986 1441.17 56.2653 1444.23 55.3413C1445.33 55.0078 1446.37 55.0561 1447.5 55.3174C1450.43 55.9943 1453.18 54.5649 1456.07 54.5264C1456.24 54.5236 1456.41 53.847 1456.58 53.4834L1456.54 53.5139Z" fill="#7C6063"/>
<path fill-rule="evenodd" clip-rule="evenodd" d="M386.613 28.0682L386.483 27.9014L386.686 27.8699L386.613 28.0682ZM367.637 29.6833C367.55 29.5504 367.463 29.4173 367.375 29.2855C367.544 29.2167 367.731 29.0725 367.875 29.1018C367.996 29.1266 368.066 29.3565 368.158 29.494C367.986 29.5571 367.812 29.6202 367.637 29.6833ZM459.292 23.1767C459.114 23.1147 458.834 23.0978 458.775 22.9839C458.609 22.6627 458.855 22.452 459.174 22.3933C459.336 22.364 459.646 22.4474 459.694 22.5534C459.84 22.869 459.598 23.0594 459.292 23.1767ZM396.636 24.6036C396.174 24.6205 395.59 25.2235 395.086 24.3872C395.615 24.1167 396.086 23.9859 396.636 24.6036ZM398.908 23.9825C399.014 23.3615 399.068 22.816 399.913 22.7089C400.009 22.6965 400.27 22.9794 400.244 23.0797C400.108 23.5903 399.837 24.0163 398.908 23.9825ZM389.763 24.4954C390.819 23.6793 391.826 23.5959 393.5 23.8845C391.994 24.4176 391.124 25.1694 389.763 24.4954ZM465.466 21.4522C465.341 22.6729 465.138 23.5035 463.845 23.9498C463.346 22.5162 464.224 22.0563 465.466 21.4522ZM409.07 23.6895C408.991 23.6174 408.895 23.5554 408.841 23.4708C408.802 23.4088 408.818 23.3175 408.809 23.2398C408.886 23.3964 408.963 23.5542 409.039 23.712C410.03 23.8067 410.908 24.0085 410.813 25.2212C409.19 25.5931 409.347 24.4435 409.07 23.6895ZM383.588 24.8876C383.189 24.909 382.701 25.1513 382.514 24.6069C382.474 24.4908 382.673 24.1786 382.791 24.1651C383.393 24.093 383.432 24.5573 383.551 24.9282C384.127 24.8166 384.62 24.1144 385.319 24.7118C384.913 25.228 384.997 26.2288 383.902 25.9775C383.71 25.9335 383.689 25.2674 383.588 24.8876ZM365.471 29.2032L365.356 29.1412L365.433 29.2393L365.539 29.3092L365.471 29.2032ZM430.525 26.7766C432.968 27.295 435.195 28.9451 437.925 27.9679L437.895 27.995C437.557 27.3503 437.563 26.798 438.439 26.5591C439.136 26.3697 439.505 26.7484 439.574 27.3086C439.696 28.2993 439.982 29.1119 441.267 29.2077L441.238 29.2426C441.185 28.8414 440.919 28.2745 441.113 28.0648C443.485 25.5109 447.443 24.0423 450.056 24.9676C452.985 26.0034 453.742 24.5224 455.239 23.614C456.648 24.1899 454.723 25.1254 455.957 25.8411C457.091 26.213 458 24.5596 459.393 24.9349C459.622 24.7264 459.851 24.5179 460.08 24.3094C460.464 23.6489 460.894 23.02 461.874 23.4111C462.187 23.5362 462.364 23.8901 462.13 24.1798C461.502 24.9586 460.764 24.5754 460.049 24.2812C459.821 24.4908 459.594 24.7005 459.366 24.9101C459.756 25.2674 460.226 25.9831 460.523 25.9268C462.886 25.4793 465.169 24.6464 467.627 25.778C468.088 25.9899 468.666 25.1209 468.69 24.4582C468.741 23.0099 467.053 24.3804 466.632 23.1327C469.059 22.6266 470.828 20.7095 473.875 21.3327C476.188 21.8061 478.611 20.8132 480.972 20.4604C484.437 19.9442 487.91 18.5804 491.754 20.3894C493.586 21.2516 496.692 21.9019 498.983 20.0186C499.209 19.8112 499.435 19.6027 499.66 19.3953C500.032 18.9816 500.476 18.781 501.013 19.1101C501.106 19.1676 501.14 19.5103 501.062 19.5677C500.533 19.9656 500.107 19.508 499.639 19.375C499.412 19.5813 499.184 19.7875 498.956 19.9938C500.61 21.3113 502.306 22.3156 504.368 20.6047L504.333 20.6362C505.727 19.5734 505.08 18.2062 504.994 16.9213L505.024 16.9484C503.328 16.333 501.643 15.8021 500.306 17.5491L500.322 17.5322C496.965 16.5122 493.687 17.1456 490.28 17.521C487.117 17.8703 484.052 18.8115 480.845 18.7957L480.882 18.7607C480.198 19.4539 479.512 20.3465 478.823 18.763L478.855 18.7923C473.798 19.4325 468.733 19.0312 463.585 20.2147C457.569 21.5976 451.277 22.8746 444.876 22.3595C443.793 22.2716 442.696 22.0834 441.9 23.2082C441.286 24.075 440.177 23.9544 439.187 23.7199C435.473 22.8397 435.474 22.8329 432.576 25.3474C431.762 23.0606 430.019 22.9727 427.798 23.3671C426.329 23.6286 424.721 23.2387 423.176 23.1259C421.276 22.9884 419.468 23.0775 417.587 23.6613C415.748 24.2328 413.686 24.4018 412.028 22.8757C411.654 22.5297 411.103 22.2344 410.588 22.1454C408.059 21.7103 405.644 21.0949 403.19 20.2992C400.746 19.5069 397.546 19.9701 394.655 20.3589C389.223 21.0882 383.783 21.8726 378.511 23.1834C375.49 23.9341 371.806 23.4607 369.448 26.4204C369.085 24.4537 367.712 24.1313 366.036 24.5483C365.056 24.7918 364.096 25.1299 364.787 26.4869C365.183 27.2691 364.992 27.3503 363.431 27.3615C363.187 27.5937 363.129 28.057 362.585 27.9307C362.632 27.4078 363.151 27.543 363.458 27.3886C362.501 25.8512 361.442 25.2313 359.4 26.2175C358.019 26.8859 356.105 26.4103 354.692 27.3931L354.733 27.3491C354.531 27.942 354.495 28.4627 355.371 28.5878L355.342 28.6171C355.591 28.616 355.84 28.616 356.09 28.6149L356.063 28.5901C361.508 28.0107 365.663 31.4765 370.57 32.8674C370.704 31.605 369.532 31.8879 369.257 31.0809C370.159 30.6526 371.266 30.301 370.543 28.802C370.062 27.8034 370.755 26.4294 372.26 27.3525C374.29 28.5957 376.345 27.6095 378.351 27.9262C379.309 28.0772 380.312 26.9581 381.113 28.7603C381.588 29.8287 383.141 28.3432 384.655 27.4201C383.748 29.5672 384.989 29.982 386.345 30.1184C387.079 30.1928 388.562 31.1125 388.257 29.2021C388.184 29.2674 388.121 29.3475 388.036 29.3937C387.973 29.4286 387.884 29.4207 387.806 29.4309C387.967 29.3666 388.129 29.3024 388.29 29.2381C388.372 27.4709 390.364 26.3122 392.755 26.9806C395.484 27.7447 398.212 26.9141 400.999 27.3277C403.095 27.6399 401.817 25.459 401.657 24.3184L401.517 24.155L401.698 24.2801C402.422 24.0254 403.118 23.6467 404.292 23.9521C403.016 25.8772 403.108 27.5543 405.702 28.4345C406.007 28.5382 406.545 28.8211 406.548 28.8143C408.307 25.7825 412.42 28.3827 414.473 26.0293C415.097 25.3148 415.507 25.6427 416.459 26.0733C417.993 26.7687 420.139 26.5714 421.984 26.3922C423.809 26.2142 425.393 26.5591 427.031 27.1643C428.231 27.6073 429.581 28.1967 430.561 26.736C430.413 26.6323 429.974 26.9197 430.098 26.4486C430.241 26.5579 430.384 26.6672 430.525 26.7766Z" fill="#7C6063"/>
<path fill-rule="evenodd" clip-rule="evenodd" d="M327.848 35.9863C331.673 34.1627 335.972 33.7772 340.056 33.6758C343.43 33.5912 347.039 32.9488 350.397 34.2844C351.069 34.5515 351.674 34.3272 352.19 33.8324C353.169 32.8936 353.966 33.4526 354.729 34.139L354.705 34.1176C357.186 34.1119 359.512 35.6414 362.084 34.7499L362.063 34.7848C361.54 31.5478 360.143 30.1311 356.823 30.7656C354.674 31.1759 353.848 30.3497 352.744 29.2824C352.466 29.3556 352.19 29.4357 351.907 29.492C351.882 29.4965 351.821 29.3399 351.775 29.2576C352.061 29.2147 352.346 29.1719 352.632 29.128C352.92 28.1271 353.672 27.585 354.733 27.3483L354.692 27.3934C353.21 25.59 351.976 26.8772 350.964 27.8014C350.3 28.4089 350.066 29.4097 349.529 30.4444C346.028 29.2779 342.234 29.6025 338.863 30.0927C335.711 30.5492 332.451 31.5444 329.224 31.8803C325.582 32.2613 322.409 34.2472 318.524 33.8843C316.462 33.6915 313.648 33.6983 312.991 36.6366C312.927 36.9251 312.186 37.3884 311.994 37.3072C309.565 36.2737 306.522 38.1864 304.367 35.9694L304.392 35.9908C300.861 35.7282 297.328 35.3292 293.997 36.9815C291.849 38.0466 289.651 39.0294 287.092 38.9314C286.776 38.919 286.326 38.9956 286.148 39.1917C283.902 41.651 280.767 40.6829 277.968 41.0492C276.084 41.2971 274.249 41.7761 272.851 43.1072C272.282 43.6494 271.753 44.2298 272.408 44.968C272.941 45.571 273.764 45.9238 274.489 45.4414C276.408 44.1622 279.016 44.3673 280.813 42.8829C281.333 42.4513 281.931 42.2619 282.639 42.2427C285.954 42.1548 286.635 41.9621 289.743 40.3267C290.276 42.8672 291.929 42.2721 293.646 41.4944L293.618 41.5271C294.248 40.4214 295.592 39.6245 294.76 38.0196C296.569 38.396 296.498 39.4904 296.932 40.5262C301.349 38.4783 306.015 39.3991 310.521 38.928C311.508 38.8254 312.738 39.1106 313.4 38.4524C316.42 35.4487 320.179 36.3323 323.839 36.5836L324.009 36.454L323.85 36.5949C326.06 36.9533 326.156 34.9685 327.134 33.9451C327.81 34.5763 327.133 35.4768 327.89 35.9513L327.848 35.9863Z" fill="#7C6063"/>
<path fill-rule="evenodd" clip-rule="evenodd" d="M563.257 15.0313C563.011 14.8916 562.793 14.8352 562.712 14.7068C562.545 14.4441 562.554 14.1443 562.952 14.0688C563.107 14.0395 563.455 14.1951 563.454 14.2638C563.452 14.5106 563.337 14.7563 563.257 15.0313ZM566.745 14.4836L567.399 13.2303L567.432 13.2607C565.223 12.3399 562.824 12.9609 560.541 12.554C558.812 12.2452 558.94 14.3269 557.667 14.7045C556.994 14.1928 557.822 13.5368 557.381 12.9902C557.02 12.5416 556.65 12.2091 556.029 12.3106C555.513 12.3962 555.422 12.7084 555.424 13.2055C555.434 14.8567 554.286 14.691 553.272 14.0993C550.602 12.5427 548.814 12.5777 545.923 14.4441C545.719 14.6707 546.143 15.1587 545.538 15.2151C545.675 14.966 545.813 14.7169 545.951 14.4678C545.288 13.4106 544.391 13.2032 543.258 13.8445L543.283 13.8671C542.293 13.2134 541.717 13.7205 541.23 14.4791L541.257 14.4532C536.501 13.0229 531.674 14.2728 526.884 14.2131C526.082 14.2029 525.263 15.1869 524.452 15.711L524.491 15.6659C524.489 15.8913 524.488 16.1167 524.486 16.3433L524.474 16.3151C527.161 16.1787 529.849 15.8958 532.536 16.3241C532.615 15.8846 532.387 15.3368 533.059 15.0843C533.312 15.6715 533.003 16.0243 532.516 16.3095C532.531 16.509 532.546 16.7096 532.562 16.9091C536.437 15.9375 540.243 17.8254 544.16 17.1627C544.972 17.0252 544.074 17.8085 543.951 18.1658L543.927 18.1432C544.551 18.3675 545.359 18.7327 545.832 18.354C548.126 16.5101 550.956 17.6969 553.491 17.2247C555.55 16.8426 557.933 17.6203 560.167 17.8265C562.186 18.0136 563.804 17.4861 565.576 17.1604C567.375 16.8302 566.664 15.4653 566.776 14.452C566.663 14.3269 566.232 14.5557 566.369 14.1488C566.494 14.2604 566.62 14.372 566.745 14.4836Z" fill="#7C6063"/>
<path fill-rule="evenodd" clip-rule="evenodd" d="M339.266 37.1968C338.821 37.9846 338.241 38.378 337.185 37.8888C337.738 36.8722 338.593 37.2937 339.284 37.2114L339.399 37.0987L339.266 37.1968ZM347.316 42.7251C349.078 44.2208 351.262 43.9559 353.385 43.9368L353.354 43.9627C352.962 41.961 350.871 41.3332 349.417 41.163C346.332 40.8001 343.545 39.957 340.859 38.3137C343.254 38.0184 345.641 37.6307 348.065 38.6631C350.804 39.8285 353.638 40.6491 356.727 40.2636L356.698 40.3087C356.802 39.6324 357.687 39.1613 357.233 38.148C353.953 38.5279 351.198 37.3568 348.213 35.9356C345.375 34.5864 341.691 35.4937 338.384 35.7417C337.29 35.824 336.221 36.2602 335.111 35.7969C334.447 35.5197 333.808 35.4971 333.382 36.1734C332.989 36.7944 333.2 37.3963 333.638 37.8742C334.621 38.9449 335.133 40.7674 337.441 39.833C337.968 39.6189 338.932 39.6752 339.359 39.9897C341.709 41.7186 344.623 41.9756 347.339 42.7454L347.43 42.6338L347.316 42.7251Z" fill="#7C6063"/>
<path fill-rule="evenodd" clip-rule="evenodd" d="M524.453 15.7112C524.416 15.2164 524.482 14.3677 523.984 14.3846C522.019 14.4499 519.827 13.7004 517.867 15.648C519.581 16.0369 521.345 15.6976 522.454 16.9171L522.434 16.9386L523.16 16.9386L523.141 16.9183C523.585 16.7177 524.029 16.5159 524.475 16.3153L524.487 16.3435C524.258 16.1158 524.284 15.8904 524.492 15.6661L524.453 15.7112Z" fill="#7C6063"/>
<path fill-rule="evenodd" clip-rule="evenodd" d="M509.004 17.2676C510.221 17.874 511.519 18.1625 513.079 17.8909C513.181 16.366 512.24 15.7404 510.964 15.5714C509.841 15.4226 509.035 15.9106 509.004 17.2676Z" fill="#7C6063"/>
<path fill-rule="evenodd" clip-rule="evenodd" d="M480.83 27.3952C481.104 26.5735 481.379 25.753 481.725 24.7195C480.29 24.8209 479.129 25.1636 477.822 25.7406C478.508 27.0435 480.061 26.6378 480.852 27.3704L480.83 27.3952Z" fill="#7C6063"/>
<path fill-rule="evenodd" clip-rule="evenodd" d="M515.109 21.8081C516.64 24.2967 519.257 21.9186 521.079 23.1043C519.34 21.4666 517.068 22.3243 515.079 21.8532L515.109 21.8081Z" fill="#7C6063"/>
<path fill-rule="evenodd" clip-rule="evenodd" d="M472.139 25.5217C472.889 25.7167 473.455 26.7739 474.364 26.0796C474.824 25.728 474.526 25.152 474.059 24.8365C473.037 24.1501 472.523 24.699 472.163 25.5465L472.139 25.5217Z" fill="#7C6063"/>
<path fill-rule="evenodd" clip-rule="evenodd" d="M488.367 22.8091C489.592 23.6285 490.448 23.9024 491.542 22.9647C490.564 22.3481 489.654 22.5082 488.367 22.8091Z" fill="#7C6063"/>
<path fill-rule="evenodd" clip-rule="evenodd" d="M505.736 21.4627C505.657 21.9575 505.931 22.2145 506.437 22.1807C506.987 22.1435 507.524 21.953 507.619 21.3816C507.672 21.066 507.363 20.8518 507.006 20.818C506.428 20.7605 505.935 20.8778 505.736 21.4627Z" fill="#7C6063"/>
<path fill-rule="evenodd" clip-rule="evenodd" d="M515.839 16.853C516.298 16.72 516.607 16.4213 516.676 16.0077C516.759 15.5061 516.421 15.2661 515.904 15.3799C515.423 15.4881 515.213 15.8544 515.232 16.2962C515.248 16.6276 515.404 16.8789 515.839 16.853Z" fill="#7C6063"/>
<path fill-rule="evenodd" clip-rule="evenodd" d="M519.079 20.0176C518.465 19.6535 517.843 19.3965 517.009 19.8282C517.768 20.491 518.463 19.8136 519.103 19.9928L519.079 20.0176Z" fill="#7C6063"/>
<path fill-rule="evenodd" clip-rule="evenodd" d="M510.414 21.8108C510.601 22.2368 510.669 22.7699 511.365 22.753C511.438 22.7519 511.576 22.6246 511.567 22.5727C511.459 21.9573 510.869 21.9708 510.389 21.8423L510.414 21.8108Z" fill="#7C6063"/>
<path fill-rule="evenodd" clip-rule="evenodd" d="M504.994 16.9218L505.024 16.9478L504.994 16.9218Z" fill="#7C6063"/>
<path fill-rule="evenodd" clip-rule="evenodd" d="M517.746 17.5367L517.773 17.5605L517.746 17.5367Z" fill="#7C6063"/>
<path fill-rule="evenodd" clip-rule="evenodd" d="M978.983 20.7995L979.114 20.6327L978.911 20.6012L978.983 20.7995ZM997.959 22.4147C998.047 22.2817 998.134 22.1487 998.221 22.0168C998.053 21.948 997.866 21.8038 997.722 21.8331C997.601 21.8579 997.531 22.0878 997.439 22.2253C997.611 22.2884 997.785 22.3515 997.959 22.4147ZM906.305 15.908C906.483 15.846 906.763 15.8291 906.822 15.7153C906.988 15.394 906.742 15.1833 906.423 15.1247C906.26 15.0954 905.95 15.1788 905.902 15.2847C905.757 15.6003 905.998 15.7908 906.305 15.908ZM968.961 17.3349C969.423 17.3518 970.007 17.9548 970.511 17.1185C969.981 16.848 969.511 16.7172 968.961 17.3349ZM966.689 16.7138C966.583 16.0928 966.529 15.5473 965.683 15.4402C965.587 15.4279 965.327 15.7107 965.352 15.8111C965.489 16.3216 965.76 16.7477 966.689 16.7138ZM975.834 17.2267C974.778 16.4107 973.771 16.3273 972.097 16.6158C973.602 17.1489 974.472 17.9007 975.834 17.2267ZM900.131 14.1835C900.255 15.4042 900.458 16.2348 901.752 16.6812C902.251 15.2475 901.373 14.7877 900.131 14.1835ZM956.526 16.4208C956.605 16.3487 956.701 16.2867 956.755 16.2022C956.795 16.1402 956.779 16.0489 956.787 15.9711C956.711 16.1278 956.634 16.2856 956.557 16.4434C955.566 16.538 954.689 16.7398 954.784 17.9525C956.407 18.3245 956.25 17.1748 956.526 16.4208ZM982.008 17.6189C982.407 17.6403 982.896 17.8826 983.083 17.3383C983.122 17.2222 982.924 16.91 982.806 16.8964C982.204 16.8243 982.165 17.2887 982.045 17.6595C981.469 17.5479 980.977 16.8457 980.278 17.4431C980.684 17.9593 980.599 18.9601 981.695 18.7088C981.887 18.6648 981.907 17.9987 982.008 17.6189ZM1000.13 21.9345L1000.24 21.8725L1000.16 21.9706L1000.06 22.0405L1000.13 21.9345ZM935.072 19.5079C932.629 20.0264 930.402 21.6764 927.672 20.6992L927.702 20.7263C928.04 20.0816 928.034 19.5293 927.158 19.2904C926.461 19.101 926.092 19.4797 926.023 20.0399C925.901 21.0306 925.614 21.8432 924.329 21.939L924.359 21.974C924.412 21.5727 924.678 21.0058 924.483 20.7962C922.112 18.2422 918.153 16.7736 915.54 17.6989C912.611 18.7347 911.854 17.2537 910.358 16.3453C908.948 16.9212 910.873 17.8567 909.64 18.5724C908.505 18.9443 907.597 17.2909 906.204 17.6662C905.975 17.4577 905.746 17.2492 905.517 17.0407C905.133 16.3802 904.702 15.7513 903.723 16.1424C903.41 16.2675 903.233 16.6214 903.467 16.9111C904.094 17.6899 904.833 17.3067 905.548 17.0125C905.776 17.2222 906.003 17.4318 906.231 17.6414C905.841 17.9987 905.371 18.7144 905.074 18.6581C902.711 18.2106 900.428 17.3777 897.97 18.5093C897.508 18.7212 896.931 17.8522 896.907 17.1895C896.856 15.7412 898.543 17.1117 898.964 15.864C896.537 15.358 894.769 13.4408 891.721 14.0641C889.409 14.5374 886.985 13.5445 884.625 13.1917C881.16 12.6755 877.687 11.3117 873.843 13.1207C872.01 13.9829 868.905 14.6332 866.613 12.7499C866.388 12.5425 866.162 12.334 865.937 12.1266C865.565 11.713 865.121 11.5123 864.584 11.8415C864.49 11.8989 864.457 12.2416 864.535 12.2991C865.064 12.6969 865.49 12.2393 865.957 12.1063C866.185 12.3126 866.413 12.5188 866.641 12.7251C864.986 14.0427 863.29 15.0469 861.229 13.336L861.263 13.3675C859.87 12.3047 860.516 10.9375 860.602 9.65265L860.573 9.6797C862.269 9.06431 863.954 8.53346 865.29 10.2804L865.274 10.2635C868.632 9.24353 871.909 9.87695 875.316 10.2523C878.479 10.6017 881.545 11.5428 884.751 11.527L884.714 11.4921C885.399 12.1852 886.084 13.0779 886.774 11.4943L886.742 11.5236C891.799 12.1638 896.863 11.7626 902.012 12.946C908.028 14.3289 914.32 15.6059 920.721 15.0909C921.804 15.0029 922.9 14.8147 923.697 15.9395C924.311 16.8063 925.42 16.6857 926.409 16.4512C930.124 15.571 930.123 15.5642 933.021 18.0788C933.835 15.7919 935.577 15.704 937.799 16.0985C939.267 16.3599 940.876 15.97 942.421 15.8573C944.321 15.7198 946.129 15.8088 948.009 16.3926C949.848 16.9641 951.911 17.1331 953.569 15.6071C953.943 15.261 954.493 14.9657 955.009 14.8767C957.538 14.4417 959.953 13.8263 962.407 13.0305C964.85 12.2382 968.05 12.7014 970.941 13.0903C976.374 13.8195 981.814 14.6039 987.085 15.9147C990.107 16.6654 993.791 16.192 996.149 19.1517C996.512 17.185 997.884 16.8626 999.561 17.2797C1000.54 17.5231 1001.5 17.8612 1000.81 19.2182C1000.41 20.0004 1000.6 20.0816 1002.17 20.0928C1002.41 20.325 1002.47 20.7883 1003.01 20.662C1002.96 20.1391 1002.45 20.2743 1002.14 20.1199C1003.1 18.5826 1004.16 17.9627 1006.2 18.9489C1007.58 19.6172 1009.49 19.1416 1010.9 20.1244L1010.86 20.0805C1011.07 20.6733 1011.1 21.194 1010.23 21.3191L1010.25 21.3484C1010.01 21.3473 1009.76 21.3473 1009.51 21.3462L1009.53 21.3214C1004.09 20.7421 999.933 24.2079 995.026 25.5987C994.892 24.3363 996.065 24.6192 996.34 23.8122C995.437 23.3839 994.331 23.0323 995.053 21.5333C995.535 20.5347 994.842 19.1608 993.336 20.0838C991.307 21.327 989.252 20.3408 987.245 20.6575C986.288 20.8086 985.285 19.6894 984.484 21.4916C984.008 22.5601 982.455 21.0745 980.941 20.1515C981.848 22.2986 980.608 22.7133 979.251 22.8497C978.518 22.9241 977.035 23.8438 977.34 21.9334C977.413 21.9988 977.475 22.0788 977.56 22.125C977.623 22.1599 977.713 22.152 977.791 22.1622C977.629 22.0979 977.468 22.0337 977.307 21.9695C977.224 20.2022 975.233 19.0435 972.842 19.7119C970.113 20.4761 967.384 19.6454 964.598 20.059C962.502 20.3712 963.779 18.1903 963.939 17.0497L964.08 16.8863L963.899 17.0114C963.175 16.7567 962.478 16.378 961.304 16.6834C962.581 18.6085 962.488 20.2856 959.895 21.1658C959.59 21.2695 959.052 21.5524 959.048 21.5457C957.29 18.5138 953.176 21.114 951.123 18.7606C950.499 18.0461 950.089 18.3741 949.138 18.8046C947.603 19.5 945.458 19.3028 943.613 19.1236C941.788 18.9455 940.204 19.2904 938.566 19.8956C937.366 20.3386 936.016 20.928 935.036 19.4673C935.184 19.3636 935.623 19.651 935.499 19.1799C935.356 19.2892 935.213 19.3986 935.072 19.5079Z" fill="#7C6063"/>
<path fill-rule="evenodd" clip-rule="evenodd" d="M1037.75 28.7177C1033.92 26.8941 1029.62 26.5086 1025.54 26.4072C1022.17 26.3227 1018.56 25.6802 1015.2 27.0158C1014.53 27.283 1013.92 27.0587 1013.41 26.5639C1012.43 25.625 1011.63 26.184 1010.87 26.8704L1010.89 26.849C1008.41 26.8434 1006.08 28.3728 1003.51 27.4813L1003.53 27.5163C1004.06 24.2793 1005.45 22.8625 1008.77 23.4971C1010.92 23.9073 1011.75 23.0812 1012.85 22.0138C1013.13 22.0871 1013.41 22.1671 1013.69 22.2235C1013.71 22.228 1013.78 22.0713 1013.82 21.989C1013.54 21.9462 1013.25 21.9034 1012.96 21.8594C1012.68 20.8586 1011.92 20.3164 1010.86 20.0797L1010.9 20.1248C1012.39 18.3215 1013.62 19.6086 1014.63 20.5328C1015.3 21.1403 1015.53 22.1412 1016.07 23.1759C1019.57 22.0093 1023.36 22.3339 1026.73 22.8242C1029.89 23.2807 1033.15 24.2759 1036.37 24.6117C1040.01 24.9927 1043.19 26.9786 1047.07 26.6157C1049.13 26.423 1051.95 26.4297 1052.61 29.3681C1052.67 29.6566 1053.41 30.1198 1053.6 30.0387C1056.03 29.0051 1059.07 30.9178 1061.23 28.7008L1061.2 28.7222C1064.74 28.4596 1068.27 28.0606 1071.6 29.7129C1073.75 30.778 1075.95 31.7609 1078.5 31.6628C1078.82 31.6504 1079.27 31.727 1079.45 31.9232C1081.69 34.3825 1084.83 33.4143 1087.63 33.7806C1089.51 34.0286 1091.35 34.5076 1092.75 35.8387C1093.31 36.3808 1093.84 36.9612 1093.19 37.6995C1092.66 38.3025 1091.83 38.6553 1091.11 38.1729C1089.19 36.8936 1086.58 37.0987 1084.78 35.6144C1084.26 35.1827 1083.67 34.9933 1082.96 34.9742C1079.64 34.8863 1078.96 34.6935 1075.85 33.0581C1075.32 35.5986 1073.67 35.0035 1071.95 34.2258L1071.98 34.2585C1071.35 33.1528 1070 32.356 1070.84 30.751C1069.03 31.1274 1069.1 32.2218 1068.66 33.2576C1064.25 31.2097 1059.58 32.1305 1055.08 31.6594C1054.09 31.5569 1052.86 31.842 1052.2 31.1838C1049.18 28.1801 1045.42 29.0637 1041.76 29.3151L1041.59 29.1855L1041.75 29.3264C1039.54 29.6848 1039.44 27.7 1038.46 26.6766C1037.79 27.3077 1038.46 28.2083 1037.71 28.6828L1037.75 28.7177Z" fill="#7C6063"/>
<path fill-rule="evenodd" clip-rule="evenodd" d="M802.339 7.76267C802.586 7.62291 802.803 7.56656 802.885 7.43808C803.052 7.17547 803.042 6.87565 802.645 6.80014C802.49 6.77083 802.141 6.92637 802.142 6.99513C802.145 7.24196 802.259 7.48766 802.339 7.76267ZM798.851 7.21492L798.198 5.9616L798.165 5.99202C800.374 5.07119 802.773 5.69222 805.056 5.28534C806.785 4.97652 806.657 7.05825 807.93 7.43582C808.603 6.92413 807.775 6.26815 808.215 5.72151C808.577 5.27294 808.946 4.94045 809.568 5.04189C810.083 5.12754 810.175 5.43975 810.172 5.9368C810.162 7.58798 811.311 7.4223 812.325 6.83058C814.994 5.27407 816.783 5.30901 819.674 7.17546C819.878 7.40201 819.453 7.89003 820.059 7.94638C819.921 7.69729 819.783 7.44822 819.645 7.19913C820.309 6.14192 821.206 5.93455 822.338 6.57586L822.314 6.59839C823.303 5.94468 823.879 6.45187 824.367 7.21039L824.34 7.18448C829.095 5.75421 833.922 7.00415 838.713 6.94441C839.515 6.93427 840.333 7.91821 841.145 8.4423L841.105 8.39723C841.108 8.62264 841.109 8.84806 841.11 9.0746L841.122 9.04643C838.436 8.91005 835.748 8.62715 833.061 9.05544C832.982 8.61588 833.21 8.06811 832.538 7.81564C832.284 8.40285 832.593 8.75564 833.08 9.04079C833.066 9.24028 833.051 9.4409 833.035 9.6404C829.159 8.66885 825.354 10.5567 821.436 9.894C820.625 9.75649 821.522 10.5398 821.645 10.8971L821.67 10.8746C821.046 11.0988 820.237 11.464 819.765 11.0853C817.471 9.2414 814.641 10.4282 812.106 9.95598C810.047 9.5739 807.664 10.3516 805.43 10.5578C803.41 10.7449 801.793 10.2175 800.021 9.89174C798.221 9.56151 798.933 8.19661 798.821 7.18336C798.934 7.05825 799.365 7.28704 799.228 6.88016C799.102 6.99174 798.977 7.10333 798.851 7.21492Z" fill="#7C6063"/>
<path fill-rule="evenodd" clip-rule="evenodd" d="M1026.33 29.9281C1026.78 30.7159 1027.36 31.1093 1028.41 30.6201C1027.86 29.6035 1027 30.025 1026.31 29.9427L1026.2 29.83L1026.33 29.9281ZM1018.28 35.4565C1016.52 36.9521 1014.34 36.6872 1012.21 36.6681L1012.24 36.694C1012.63 34.6923 1014.73 34.0645 1016.18 33.8943C1019.26 33.5314 1022.05 32.6883 1024.74 31.045C1022.34 30.7497 1019.96 30.362 1017.53 31.3944C1014.79 32.5598 1011.96 33.3804 1008.87 32.9949L1008.9 33.04C1008.79 32.3637 1007.91 31.8926 1008.36 30.8794C1011.64 31.2592 1014.4 30.0881 1017.38 28.6669C1020.22 27.3178 1023.91 28.2251 1027.21 28.473C1028.31 28.5553 1029.38 28.9915 1030.49 28.5282C1031.15 28.251 1031.79 28.2284 1032.21 28.9047C1032.61 29.5257 1032.4 30.1276 1031.96 30.6055C1030.98 31.6762 1030.46 33.4987 1028.16 32.5644C1027.63 32.3502 1026.67 32.4066 1026.24 32.721C1023.89 34.45 1020.97 34.707 1018.26 35.4768L1018.17 35.3652L1018.28 35.4565Z" fill="#7C6063"/>
<path fill-rule="evenodd" clip-rule="evenodd" d="M841.144 8.44247C841.181 7.94768 841.114 7.09899 841.613 7.11589C843.577 7.18126 845.769 6.43175 847.73 8.37936C846.015 8.7682 844.252 8.42894 843.143 9.64845L843.162 9.66988L842.436 9.66988L842.456 9.64958C842.012 9.44896 841.567 9.24721 841.122 9.04659L841.109 9.07477C841.338 8.8471 841.313 8.62167 841.105 8.39738L841.144 8.44247Z" fill="#7C6063"/>
<path fill-rule="evenodd" clip-rule="evenodd" d="M856.592 9.99896C855.375 10.6053 854.078 10.8939 852.517 10.6222C852.415 9.09728 853.357 8.47175 854.633 8.30269C855.755 8.15391 856.562 8.64195 856.592 9.99896Z" fill="#7C6063"/>
<path fill-rule="evenodd" clip-rule="evenodd" d="M884.767 20.1265C884.492 19.3049 884.218 18.4843 883.872 17.4508C885.307 17.5522 886.468 17.8949 887.775 18.472C887.089 19.7749 885.536 19.3691 884.745 20.1017L884.767 20.1265Z" fill="#7C6063"/>
<path fill-rule="evenodd" clip-rule="evenodd" d="M850.488 14.5394C848.957 17.0281 846.339 14.6499 844.517 15.8356C846.257 14.1979 848.529 15.0556 850.517 14.5845L850.488 14.5394Z" fill="#7C6063"/>
<path fill-rule="evenodd" clip-rule="evenodd" d="M893.458 18.253C892.707 18.448 892.141 19.5052 891.233 18.8109C890.772 18.4593 891.07 17.8834 891.538 17.5678C892.56 16.8814 893.074 17.4303 893.434 18.2778L893.458 18.253Z" fill="#7C6063"/>
<path fill-rule="evenodd" clip-rule="evenodd" d="M877.23 15.5404C876.005 16.3598 875.148 16.6337 874.054 15.696C875.033 15.0795 875.942 15.2395 877.23 15.5404Z" fill="#7C6063"/>
<path fill-rule="evenodd" clip-rule="evenodd" d="M859.861 14.194C859.94 14.6888 859.665 14.9458 859.159 14.912C858.609 14.8748 858.072 14.6843 857.978 14.1129C857.925 13.7973 858.234 13.5832 858.591 13.5493C859.169 13.4919 859.662 13.6091 859.861 14.194Z" fill="#7C6063"/>
<path fill-rule="evenodd" clip-rule="evenodd" d="M849.758 9.58443C849.299 9.45144 848.99 9.15276 848.921 8.73913C848.837 8.23758 849.176 7.99752 849.693 8.11136C850.174 8.21955 850.383 8.58586 850.365 9.02767C850.349 9.35903 850.192 9.61036 849.758 9.58443Z" fill="#7C6063"/>
<path fill-rule="evenodd" clip-rule="evenodd" d="M846.518 12.749C847.132 12.385 847.754 12.128 848.588 12.5597C847.829 13.2224 847.133 12.545 846.493 12.7242L846.518 12.749Z" fill="#7C6063"/>
<path fill-rule="evenodd" clip-rule="evenodd" d="M855.183 14.5421C854.996 14.9681 854.928 15.5013 854.231 15.4843C854.159 15.4832 854.021 15.3559 854.029 15.304C854.138 14.6886 854.727 14.7022 855.207 14.5737L855.183 14.5421Z" fill="#7C6063"/>
<path fill-rule="evenodd" clip-rule="evenodd" d="M860.603 9.65308L860.573 9.67912L860.603 9.65308Z" fill="#7C6063"/>
<path fill-rule="evenodd" clip-rule="evenodd" d="M847.85 10.2681L847.824 10.2918L847.85 10.2681Z" fill="#7C6063"/>
<path fill-rule="evenodd" clip-rule="evenodd" d="M692.159 6.05748C692.088 6.20738 692.057 6.41815 691.931 6.48915C691.824 6.55001 691.609 6.45309 691.442 6.42604C691.51 6.27388 691.539 6.06088 691.664 5.98874C691.771 5.92675 691.989 6.02705 692.159 6.05748ZM778.627 3.27132C778.762 3.13607 778.882 2.90952 779.039 2.88473C779.42 2.82387 779.683 3.00984 779.527 3.38516C779.473 3.5159 779.18 3.63764 779.006 3.62749C778.872 3.61848 778.753 3.39868 778.627 3.27132ZM706.837 5.66638C706.618 5.8918 706.387 6.10708 706.024 5.93464C705.971 5.90984 705.983 5.76896 705.966 5.68217C706.267 5.68668 706.569 5.69118 706.872 5.69569L706.837 5.66638ZM716.228 5.04762L716.158 5.16033L716.261 5.08029L716.346 4.98901L716.228 5.04762ZM646.462 16.1055C649.622 16.2069 652.347 14.6053 655.414 14.1511C657.775 13.8006 660.358 14.2717 662.56 13.0387L662.585 13.0725C662.356 12.8459 662.38 12.6216 662.59 12.3985L662.537 12.4503C662.693 12.2903 662.875 12.2565 663.083 12.35C663.177 12.4176 663.26 12.4932 663.333 12.5811L663.353 12.8403L663.227 13.077L663.251 13.042C663.91 14.1297 664.811 14.647 665.983 14.2446C667.093 13.2427 663.978 12.7636 665.935 11.8361L665.908 11.8113C666.409 12.5202 667.209 12.3973 667.952 12.4244L667.923 12.4447L669.286 11.1801L669.247 11.2184C669.716 10.7698 670.185 10.7 670.654 11.215L670.617 11.1936C671.491 11.2263 672.398 10.8724 673.235 11.2827C678.176 13.7059 683.685 14.6087 688.885 16.3095C691.571 17.1875 694.469 18.0891 696.81 19.8181L696.776 19.7888C698.434 19.3086 699.876 19.9308 701.216 20.6578C702.483 21.3442 703.643 20.9948 703.993 20.021C704.313 19.1261 705.339 17.831 703.47 16.9305C701.106 15.791 698.811 14.5704 696.104 14.257C696.101 14.4768 696.097 14.6977 696.095 14.9186C696.586 14.9446 697.205 14.6966 697.369 15.41C697.384 15.4754 697.282 15.6152 697.204 15.64C696.452 15.8721 696.294 15.3762 696.136 14.8893C696.136 14.6865 696.137 14.4847 696.138 14.283C695.083 13.9899 694.153 14.8972 692.77 13.6315C691.284 12.2734 688.294 12.3658 685.976 11.7808C684.16 11.3232 682.451 10.6492 680.65 10.2829C680.457 9.13444 681.654 9.26518 682.051 8.7377L682.027 8.76025C684.989 10.1116 688.187 10.6966 691.413 11.1959L691.392 11.2162C691.47 11.1699 691.554 11.0809 691.625 11.0877C691.794 11.1046 691.956 11.1677 692.122 11.2128L692.102 11.1925C693.241 9.94029 694.357 10.5444 695.471 11.2263C695.659 10.7417 695.193 9.94143 696.41 9.84112C696.521 10.5963 695.971 10.8949 695.439 11.2015C695.795 12.1618 696.44 12.1223 697.222 11.6422C698.229 11.0257 699.206 10.3607 700.258 9.81632C702.093 8.86844 703.833 8.22261 706.085 9.28996C707.902 10.1499 710.133 10.097 712.237 9.95495L712.206 9.98201C712.891 8.67233 713.237 9.65064 713.7 10.1511C714.431 10.9423 714.672 12.3263 716.202 12.2091C719.69 11.9375 722.114 14.15 724.975 15.3086C726.522 15.9364 727.968 16.5777 729.693 16.1055L729.528 15.9894L729.66 16.1359C729.728 14.9333 729.362 14.0113 728.425 13.8479C725.364 13.3137 722.632 12.5506 720.798 9.84788C720.138 8.8752 717.84 9.44663 716.455 7.84729C720.499 8.38378 724.096 8.19331 727.694 8.1054L727.645 8.13696C728.147 6.79009 728.857 5.90871 730.496 7.04368C731.261 7.57229 732.167 7.46521 733.039 7.49564L733.005 7.52834C732.457 6.90168 732.147 5.82419 733.369 6.2243C737.198 7.47649 740.732 6.46098 744.302 5.5503C745.818 5.1637 746.54 6.03156 747.47 6.7326C748.115 7.21838 748.183 7.20036 749.157 6.25586C749.647 5.78023 750.147 5.83996 750.639 6.08792C751.913 6.73374 753.202 6.64132 754.519 6.26712L754.477 6.30432C754.586 5.55932 754.713 4.8639 755.875 5.184C758.372 5.87264 760.835 5.73175 763.439 5.46463C765.414 5.26288 767.446 6.01352 769.585 5.24823C770.743 4.83346 771.353 5.78134 770.594 6.9197L770.623 6.89153C774.202 5.30346 777.771 7.58806 781.346 6.91519C781.713 6.51959 782.108 6.26599 782.611 6.73936C782.669 6.79346 782.7 6.95915 782.658 7.00086C782.152 7.50016 781.75 7.03355 781.314 6.86561C781.185 7.63767 781.618 7.98931 782.398 8.08398C783.247 8.18768 783.837 8.572 784.043 9.36773L784.018 9.3452C784.876 9.11189 785.842 8.8876 786.009 7.96565C786.151 7.18457 785.265 7.11019 784.681 6.88252L784.718 6.91633C784.935 6.50043 785.153 6.08453 785.369 5.66863L785.355 5.67992C785.595 5.68217 785.835 5.68441 786.075 5.68779L786.05 5.66301C787.454 6.37871 788.9 6.60411 790.54 6.42378C792.391 6.21978 794.287 6.06649 796.098 6.90505C798.359 7.95098 800.174 6.80474 801.875 5.63596C803.06 4.82107 802.708 3.7323 801.428 3.74808C798.017 3.78979 794.55 3.36599 791.198 4.29584C790.973 4.35783 790.873 4.80078 790.716 5.06677L790.744 5.04086C789.305 4.56072 790.301 2.95799 789.019 2.21186C788.156 2.33133 787.089 2.47786 786.023 2.6255L786.061 2.59056C785.919 2.74722 785.687 3.05605 785.649 3.03801C780.943 0.690294 775.804 1.6934 770.842 1.50067C768.733 1.41952 766.623 1.53223 764.538 1.11521C764.002 1.00814 763.193 0.801874 762.919 1.03856C760.845 2.83401 758.673 1.77456 756.514 1.36317C756.34 1.38008 756.281 1.80723 756.013 1.47813C756.19 1.45108 756.367 1.42515 756.545 1.3981C756.449 1.34738 756.332 1.23356 756.258 1.25385C752.393 2.30316 748.377 0.338647 744.545 1.73398C743.011 2.29189 741.287 1.9842 739.986 1.72272C737.432 1.20764 735.33 0.520102 732.873 2.26258C731.774 3.04365 729.765 2.03604 728.019 2.16228C724.781 2.39446 721.469 2.87798 718.056 2.53647C712.792 2.01012 707.362 1.73398 702.478 4.89658C700.981 5.86588 698.345 5.86701 696.356 5.58186C692.317 5.00141 688.426 5.64046 684.558 6.27163C681.621 6.75177 678.502 5.54241 675.79 7.00311C674.118 7.90366 671.902 6.84532 670.51 8.56526C669.806 9.43424 669.082 8.15838 668.127 8.22713C665.449 8.42099 663.018 9.43762 660.517 10.0485C658.216 10.6109 655.433 9.75433 653.455 12.0186C652.607 12.9902 651.68 11.4517 651.144 10.5805L651.176 10.6087C650.488 10.7991 649.8 10.9885 649.112 11.1778C649.152 11.4551 649.193 11.7324 649.233 12.0107C649.136 12.0062 648.982 12.0355 648.955 11.9938C648.746 11.6783 648.95 11.4371 649.162 11.2049C647.313 10.3246 646.438 12.2181 644.965 12.4379C640.262 13.1378 635.568 13.8772 630.866 14.5816C630.126 14.6921 629.169 14.4577 629.203 15.5735C629.232 16.4605 629.91 16.9282 630.758 16.8347C632.368 16.6555 633.831 17.3069 635.382 17.3464C637.174 17.3903 638.929 17.5132 640.752 18.8296C639.657 16.9733 641.427 16.3027 641.651 14.6188C642.794 16.3805 644.139 16.8369 645.803 16.11L645.785 16.1302C645.93 15.6749 645.763 14.8071 646.417 14.9153C647.3 15.0618 646.531 15.7087 646.483 16.1393L646.462 16.1055Z" fill="#7C6063"/>
<path fill-rule="evenodd" clip-rule="evenodd" d="M596.266 16.5682C596.222 16.6538 596.2 16.7744 596.124 16.8139C596.068 16.8443 595.946 16.7744 595.852 16.7496C595.897 16.664 595.919 16.5422 595.992 16.5039C596.051 16.4735 596.172 16.5434 596.266 16.5682ZM602.751 19.307C602.672 19.2833 602.592 19.2585 602.513 19.2337C602.573 19.1041 602.624 18.9711 602.701 18.8505C602.709 18.837 602.854 18.8956 602.936 18.9204C602.874 19.05 602.813 19.1785 602.751 19.307ZM604.174 17.9793C604.315 18.0852 604.717 17.817 604.629 18.2475C604.488 18.1472 604.345 18.0469 604.203 17.9477C604.053 17.8474 603.584 18.1269 603.761 17.6366C603.899 17.7505 604.036 17.8654 604.174 17.9793ZM609.537 17.3628L609.701 17.4552L609.577 17.3256L609.537 17.3628ZM595.448 19.1774C597.15 19.8807 598.579 21.5228 600.788 20.4713C598.949 20.3991 598.863 19.1965 598.848 17.9488L598.71 17.8553L598.813 17.9804C599.04 17.977 599.269 17.9748 599.497 17.9714C599.99 17.6998 600.431 17.1982 601.13 17.6524C600.651 18.2171 600.005 17.8192 599.466 17.9353C599.348 19.0331 600.062 19.7263 600.878 20.371C601.641 21.0044 602.517 21.2467 603.531 21.0179L603.508 21.0404C605.947 20.7373 608.386 20.7034 610.344 18.8066C611.04 18.1314 611.664 18.9508 610.928 19.8142L610.895 19.7849C611.497 20.0306 612.328 20.5152 612.729 19.9663C614.217 17.9331 616.211 18.5766 618.304 18.6251C620.566 18.6781 623.102 19.1368 625.014 17.3413L624.989 17.365C625.983 16.9367 627.114 16.6842 627.755 15.4456C625.167 13.8474 622.352 14.9948 619.866 15.2326C612.354 15.9539 604.954 15.3633 597.515 14.6454C594.788 14.3828 592.101 15.5583 589.326 15.1548C588.902 15.0917 588.489 14.9733 588.07 14.8809L588.1 14.9091C587.867 14.4909 587.633 14.0717 587.401 13.6535L587.427 13.6772C585.419 14.4583 583.237 14.2734 581.259 14.0198C576.817 13.4506 572.373 14.2791 567.963 13.6738L567.994 13.6456C567.795 13.8068 567.595 13.9669 567.395 14.128C567.317 14.2475 567.244 14.3704 567.175 14.4955C568.373 15.9832 570.547 15.7116 571.999 16.7395L571.946 16.7079C572.859 16.2887 573.892 15.8243 574.83 16.1906C578.112 17.471 581.718 16.496 585.008 17.5352C585.814 17.7899 586.78 17.2241 587.23 17.4304C589.852 18.6341 593.078 17.3684 595.487 19.2134L595.448 19.1774Z" fill="#7C6063"/>
</svg>
