<svg width="1599" height="171" viewBox="0 0 1599 171" fill="none" xmlns="http://www.w3.org/2000/svg">
<path d="M171.811 72.9983C128.999 73.3049 58.3954 78.491 28.4448 81.0457L0.696534 256L1606.13 249.659L1606.13 77.2137L1447.57 71.4656L1361.02 71.4656C1309.71 74.2758 1195.19 78.2101 1147.63 71.4656C1088.17 63.0349 1053.81 74.5313 1028.7 67.6335C1008.62 62.1152 928.723 54.3488 891.284 51.1554L856.929 53.4546C805.397 46.1735 701.01 47.7065 671.941 46.1736C648.685 44.9474 590.017 50.5166 563.59 53.4546C488.274 48.4728 451.276 54.221 428.813 56.5202C406.35 58.8195 413.617 54.9874 378.602 56.5202C343.586 58.0531 225.326 72.6151 171.811 72.9983Z" fill="#E7F8FF"/>
<path fill-rule="evenodd" clip-rule="evenodd" d="M-60.1748 61.5831C-60.3418 61.5797 -60.5854 61.6079 -60.6666 61.565C-61.0146 61.3802 -60.9056 61.2359 -60.3929 61.2044C-60.2722 61.1965 -60.0425 61.2844 -60.0124 61.3464C-59.9776 61.4151 -60.1122 61.503 -60.1748 61.5831ZM242.765 50.1566C243.067 50.0699 243.368 49.9132 243.672 49.9109C244.215 49.9064 244.315 50.0778 243.932 50.275C243.807 50.3404 243.566 50.4328 243.466 50.4114C243.206 50.3573 242.995 50.2468 242.765 50.1566ZM270.51 48.9946C271.408 47.6601 272.913 47.5767 275.011 47.5609C274.134 48.5381 273.287 49.1332 270.51 48.9946ZM207.779 50.94C207.642 50.8712 207.478 50.8104 207.38 50.7315C207.308 50.674 207.322 50.5906 207.297 50.5185L207.721 50.9625C209.503 51.0155 210.61 49.4308 213.42 50.5759C211.547 51.6906 209.842 51.7661 207.779 50.94ZM96.4065 52.1516C95.5782 52.5641 94.7524 52.9766 93.9241 53.3891C94.3254 53.7194 94.8382 54.0688 93.9124 54.3686C93.6943 54.4396 93.2326 54.3325 92.8822 54.3066C93.2581 53.9933 93.6339 53.6799 94.0121 53.3666C93.221 53.2651 91.9171 53.1637 92.2883 52.714C93.0748 51.7616 94.7592 51.7763 96.4784 52.1865L96.6317 52.0772L96.4065 52.1516ZM50.8872 54.6458C54.7526 56.4695 63.6017 56.5416 67.249 54.6571C69.8453 53.317 72.3325 52.2722 76.2513 53.4139L76.1653 53.3722C78.8173 53.8862 81.6851 52.1403 84.3 53.574C83.713 54.4137 80.2094 53.6946 80.7268 55.1474C82.9147 56.1877 85.3649 54.2333 87.5528 55.2578C87.9983 55.259 88.4414 55.2601 88.8869 55.2612L88.815 55.2263C88.6897 55.2759 88.5458 55.3751 88.4414 55.366C88.156 55.3424 87.8869 55.2736 87.6131 55.2218C85.2581 55.9465 82.0539 56.1234 80.685 57.5199C81.9959 58.2378 83.3393 57.9392 84.4785 57.8591C90.0516 57.4703 95.6525 56.6351 100.908 58.4114C109.325 56.3455 119.033 58.2367 127.687 56.1899C132.743 54.9941 138.764 54.4024 144.425 54.2626C151.244 54.0936 158.603 54.4137 164.868 53.7678C173.077 52.9225 182.095 54.239 189.582 51.694C191.35 51.0933 193.276 51.6872 195.109 51.5587C195.424 51.5249 195.471 51.0673 196.028 51.4235L195.062 51.5294C194.601 53.4691 189.014 52.4897 188.278 54.5342C191 55.117 194.942 55.2353 196.253 54.4024C197.96 53.3159 199.176 52.0693 202.19 51.1936C202.972 52.0772 200.492 53.1457 202.761 53.84C204.833 54.4734 206.431 53.7937 208.088 53.4736C216.949 51.7582 226.45 52.5731 235.61 51.6331C232.178 52.4232 229.269 53.4635 225.747 54.2164C227.529 54.8352 229.338 54.9975 230.821 54.8352C239.215 53.9155 248.336 54.4971 255.972 52.0028C257.289 51.5711 258.8 51.526 260.227 51.7594C264.125 52.3962 267.215 51.8743 270.869 50.9321C274.422 50.0157 279.15 50.2817 283.308 49.9819C290.575 49.459 297.568 47.9194 305.12 48.3263C305.514 48.3465 305.964 48.2744 306.343 48.1944C309.28 47.5655 311.449 46.0123 315.489 46.6345C316.289 46.7585 317.742 45.8433 318.66 44.6508C314.317 45.8478 310.24 44.5482 306.412 45.4285L306.47 45.3981C305.869 46.4823 304.12 46.1983 302.528 46.2333C299.496 46.2998 296.591 46.6976 293.77 47.2364C293.463 47.2916 293.438 47.7774 292.834 47.3795C293.169 47.3457 293.503 47.3107 293.835 47.2758C293.804 47.0605 293.774 46.8453 293.746 46.6288L293.79 46.6503C290.769 46.0777 288.189 47.1011 285.361 47.1958C283.032 47.2735 279.893 49.4578 278.612 46.3437C278.257 45.4804 273.8 46.4801 271.122 46.2659C269.101 46.1036 265.698 45.9774 266.726 48.0986C267.134 48.9405 265.394 49.3136 263.925 49.4454C262.512 49.575 261.795 49.2674 261.528 48.466C260.723 46.0529 255.693 48.2293 253.375 46.8092C252.554 46.3054 251.735 47.9036 250.751 48.4795C251.396 48.7872 252.559 48.9247 252.264 49.5379C252.236 49.5953 251.904 49.6765 251.786 49.6551C250.561 49.4342 251.122 48.8593 250.812 48.4547C248.201 48.5201 246.401 48.3871 243.761 47.4516C240.83 46.4147 234.979 46.719 230.123 47.7999C231.378 48.5821 233.262 49.4826 230.42 50.3302C228.594 50.8757 227.278 50.8058 226.686 49.6912L226.731 49.7171C225.55 49.3 224.366 48.883 223.132 48.448C220.898 48.6249 221.587 50.39 219.021 50.3809C216.865 49.6247 219.789 48.8515 218.691 48.049C218.267 47.9712 217.645 47.7368 217.141 47.7864C212.687 48.2226 207.946 47.7424 203.675 48.9191C202.276 49.3046 200.007 49.7734 198.879 48.4728L198.921 48.4919C191.297 48.6903 183.691 49.6799 176.035 48.6204C175.652 48.5674 175.102 48.5472 174.805 48.6418C168.517 50.6334 161.283 48.5055 155.545 49.3553C146.603 50.6807 137.262 48.0422 128.933 50.6683C127.868 51.0042 126.476 50.7495 125.397 50.3426C124.311 49.9335 122.831 49.7509 121.822 50.0721C117.154 51.5565 111.485 51.2037 106.553 52.1516C105.731 52.7839 104.228 53.1975 103.994 54.0203L104.063 53.9865C103.093 53.7656 101.998 53.4015 102.355 52.9045C103.058 51.9273 105.054 52.2643 106.599 52.1809C106.406 51.6782 106.2 50.9141 105.133 50.9603C96.1932 51.3446 86.8938 48.7376 78.2442 51.6895C77.8382 51.8281 76.873 51.8439 76.5088 51.7064C71.7176 49.8884 68.4509 50.9963 65.4486 52.9518C63.908 53.9538 61.8081 53.9267 59.8453 53.264C58.0471 52.6565 56.4069 52.2463 54.0473 52.6171C42.9545 54.3675 31.3792 54.1882 19.9407 54.5929C17.1194 54.692 14.1867 55.0347 11.6926 55.8473C11.3909 55.9183 11.3305 56.3748 10.7412 55.9882C11.066 55.9454 11.391 55.9014 11.7158 55.8586C10.0128 54.8859 8.30965 54.0924 6.60897 55.8586L6.65315 55.8372C0.0638662 56.1009 -6.40021 57.1739 -13.4999 56.6566C-16.2586 57.3317 -11.2609 59.2511 -15.6901 60.004C-16.5486 57.8535 -19.168 56.891 -23.7318 57.7126L-23.6831 57.689C-26.5462 59.3638 -27.7619 56.9113 -30.0287 57.0916L-29.9916 57.0724C-30.1378 57.113 -30.2909 57.1942 -30.4278 57.1886C-30.7433 57.1716 -31.052 57.113 -31.3629 57.0713L-31.3258 57.0905C-35.0403 56.7648 -34.1331 58.8453 -36.1726 59.3762C-41.6134 57.2708 -44.0728 57.237 -50.2955 59.3086C-51.4231 59.6839 -51.9242 60.084 -53.2235 59.374C-54.6736 58.5816 -56.3187 59.3627 -57.8616 59.5498L-57.8245 59.5295C-57.9683 59.5768 -58.1238 59.6704 -58.2537 59.6625C-58.5739 59.6422 -58.8825 59.5757 -59.1957 59.5272L-59.1584 59.5464C-62.9334 58.7383 -66.6132 59.6929 -70.3464 59.7279C-79.5064 59.8102 -88.6734 60.004 -97.7244 60.8054C-101.627 61.1514 -105.634 61.0116 -109.541 61.1108C-113.309 61.2066 -116.102 61.7116 -119.402 62.4351C-121.613 62.9209 -125.334 62.2909 -128.374 62.4802C-133.87 62.8217 -139.861 61.9121 -144.708 63.9804C-145.079 64.1393 -145.896 64.2013 -146.383 64.1235C-155.538 62.6639 -164.167 64.5473 -173 65.0894L-172.937 65.0579C-165.218 67.9139 -157.023 68.5214 -147.364 67.427C-138.954 66.4735 -129.961 66.6403 -121.286 66.5614C-115.089 66.505 -108.959 66.114 -103.434 65.2968C-94.5736 63.9871 -85.5991 64.2339 -76.7245 63.6941C-68.9426 63.2218 -61.1933 62.5569 -53.2653 62.4858C-49.966 62.4565 -46.7595 61.7972 -43.6342 62.8026C-43.4649 62.8567 -43.1609 62.9356 -43.0611 62.9018C-38.3373 61.3295 -32.2306 63.5758 -27.5485 61.4873C-24.6274 60.1821 -20.8687 61.2686 -17.5138 61.2224C-8.48832 61.0973 0.314364 60.2813 9.15189 59.5272C9.15189 59.5272 9.10086 59.5543 9.10318 59.5543C9.55561 59.3368 10.0081 59.1192 10.4583 58.9017L10.4165 58.9265C16.6253 59.2207 22.3421 58.3156 27.9639 57.2099C29.9894 56.811 31.9639 56.7963 34.1263 56.9891C39.7272 57.4884 44.6993 55.8969 50.1215 55.685C50.4556 55.6715 50.6807 54.9862 50.9545 54.6132L50.8872 54.6458Z" fill="#7C6063"/>
<path fill-rule="evenodd" clip-rule="evenodd" d="M534.494 27.1388L534.249 26.972L534.631 26.9404L534.494 27.1388ZM498.722 28.7539C498.557 28.6209 498.393 28.4879 498.228 28.356C498.546 28.2873 498.898 28.143 499.17 28.1723C499.397 28.1971 499.53 28.427 499.704 28.5645C499.379 28.6277 499.052 28.6908 498.722 28.7539ZM671.503 22.2472C671.166 22.1852 670.64 22.1683 670.528 22.0545C670.215 21.7333 670.679 21.5225 671.28 21.4639C671.586 21.4346 672.171 21.518 672.262 21.624C672.535 21.9395 672.081 22.13 671.503 22.2472ZM553.388 23.6741C552.518 23.691 551.415 24.294 550.467 23.4577C551.464 23.1872 552.351 23.0565 553.388 23.6741ZM557.671 23.0531C557.87 22.4321 557.972 21.8866 559.566 21.7795C559.747 21.7671 560.239 22.05 560.19 22.1503C559.933 22.6609 559.422 23.0869 557.671 23.0531ZM540.432 23.5659C542.423 22.7499 544.32 22.6665 547.476 22.955C544.638 23.4882 542.998 24.2399 540.432 23.5659ZM683.141 20.5228C682.906 21.7434 682.524 22.5741 680.085 23.0204C679.146 21.5868 680.8 21.1269 683.141 20.5228ZM576.828 22.7601C576.68 22.6879 576.499 22.6259 576.397 22.5414C576.323 22.4794 576.353 22.3881 576.336 22.3103C576.48 22.467 576.626 22.6248 576.77 22.7826C578.638 22.8773 580.292 23.079 580.114 24.2918C577.053 24.6637 577.35 23.5141 576.828 22.7601ZM528.792 23.9582C528.04 23.9796 527.119 24.2219 526.766 23.6775C526.692 23.5614 527.065 23.2492 527.288 23.2357C528.423 23.1635 528.497 23.6279 528.722 23.9987C529.808 23.8871 530.736 23.185 532.054 23.7823C531.288 24.2985 531.448 25.2994 529.383 25.048C529.021 25.0041 528.982 24.338 528.792 23.9582ZM494.639 28.2738L494.421 28.2118L494.567 28.3098L494.766 28.3797L494.639 28.2738ZM617.274 25.8471C621.879 26.3656 626.076 28.0157 631.222 27.0385L631.167 27.0655C630.529 26.4208 630.54 25.8686 632.192 25.6296C633.505 25.4403 634.201 25.819 634.331 26.3791C634.561 27.3698 635.102 28.1825 637.524 28.2783L637.468 28.3132C637.369 27.912 636.867 27.345 637.234 27.1354C641.705 24.5814 649.167 23.1128 654.092 24.0382C659.614 25.074 661.041 23.593 663.863 22.6845C666.519 23.2605 662.89 24.196 665.215 24.9117C667.354 25.2836 669.067 23.6302 671.693 24.0055C672.125 23.797 672.556 23.5885 672.988 23.38C673.712 22.7195 674.524 22.0906 676.371 22.4817C676.96 22.6068 677.294 22.9607 676.853 23.2503C675.67 24.0291 674.278 23.6459 672.93 23.3518C672.5 23.5614 672.071 23.7711 671.642 23.9807C672.378 24.338 673.264 25.0537 673.823 24.9973C678.278 24.5499 682.582 23.7169 687.215 24.8485C688.085 25.0604 689.173 24.1915 689.22 23.5287C689.315 22.0804 686.134 23.451 685.34 22.2033C689.916 21.6972 693.25 19.78 698.995 20.4033C703.354 20.8767 707.923 19.8837 712.373 19.5309C718.904 19.0147 725.451 17.651 732.697 19.4599C736.152 20.3222 742.006 20.9725 746.326 19.0891C746.751 18.8817 747.178 18.6732 747.602 18.4659C748.303 18.0522 749.14 17.8516 750.152 18.1807C750.328 18.2382 750.391 18.5808 750.245 18.6383C749.247 19.0362 748.444 18.5786 747.563 18.4456C747.134 18.6518 746.704 18.8581 746.275 19.0643C749.393 20.3819 752.591 21.3861 756.477 19.6752L756.412 19.7068C759.038 18.6439 757.82 17.2768 757.658 15.9919L757.713 16.0189C754.516 15.4035 751.34 14.8727 748.82 16.6197L748.85 16.6028C742.521 15.5828 736.342 16.2162 729.92 16.5915C723.957 16.9409 718.178 17.882 712.134 17.8662L712.203 17.8313C710.913 18.5245 709.621 19.4171 708.322 17.8335L708.382 17.8629C698.848 18.503 689.301 18.1018 679.596 19.2852C668.255 20.6682 656.394 21.9452 644.327 21.4301C642.285 21.3422 640.218 21.154 638.717 22.2788C637.559 23.1455 635.468 23.0249 633.603 22.7905C626.601 21.9102 626.603 21.9035 621.139 24.418C619.605 22.1311 616.32 22.0432 612.132 22.4377C609.364 22.6992 606.332 22.3092 603.42 22.1965C599.837 22.059 596.429 22.1481 592.884 22.7319C589.418 23.3033 585.529 23.4724 582.404 21.9463C581.698 21.6003 580.661 21.305 579.689 21.2159C574.921 20.7809 570.369 20.1655 565.743 19.3698C561.137 18.5774 555.105 19.0407 549.654 19.4295C539.413 20.1587 529.158 20.9432 519.221 22.254C513.525 23.0046 506.581 22.5313 502.135 25.491C501.451 23.5242 498.864 23.2019 495.704 23.6189C493.857 23.8624 492.047 24.2005 493.349 25.5575C494.096 26.3397 493.736 26.4208 490.792 26.4321C490.332 26.6643 490.223 27.1275 489.198 27.0013C489.286 26.4783 490.265 26.6136 490.843 26.4592C489.04 24.9218 487.042 24.3019 483.193 25.2881C480.59 25.9565 476.982 25.4808 474.319 26.4637L474.395 26.4197C474.015 27.0125 473.947 27.5333 475.599 27.6584L475.544 27.6877C476.012 27.6865 476.483 27.6865 476.954 27.6854L476.903 27.6606C487.168 27.0813 495.001 30.5471 504.251 31.9379C504.504 30.6756 502.293 30.9585 501.775 30.1515C503.476 29.7232 505.562 29.3715 504.2 27.8725C503.293 26.8739 504.599 25.5 507.437 26.4231C511.263 27.6663 515.137 26.6801 518.919 26.9968C520.724 27.1478 522.615 26.0286 524.126 27.8308C525.021 28.8993 527.949 27.4138 530.803 26.4907C529.093 28.6378 531.432 29.0526 533.989 29.189C535.372 29.2633 538.167 30.1831 537.592 28.2726C537.455 28.338 537.337 28.418 537.177 28.4642C537.058 28.4992 536.889 28.4913 536.743 28.5014C537.047 28.4372 537.351 28.373 537.655 28.3087C537.81 26.5414 541.564 25.3828 546.072 26.0511C551.216 26.8153 556.36 25.9846 561.613 26.3983C565.564 26.7105 563.156 24.5296 562.854 23.389L562.589 23.2255L562.931 23.3506C564.295 23.0959 565.608 22.7172 567.821 23.0227C565.415 24.9477 565.589 26.6248 570.478 27.5051C571.053 27.6088 572.067 27.8917 572.074 27.8849C575.39 24.8531 583.144 27.4533 587.014 25.0999C588.19 24.3853 588.963 24.7133 590.756 25.1438C593.65 25.8393 597.694 25.642 601.172 25.4628C604.612 25.2847 607.598 25.6296 610.687 26.2349C612.949 26.6778 615.494 27.2673 617.341 25.8066C617.062 25.7029 616.234 25.9903 616.468 25.5192C616.738 25.6285 617.007 25.7378 617.274 25.8471Z" fill="#7C6063"/>
<path fill-rule="evenodd" clip-rule="evenodd" d="M423.714 35.0569C430.925 33.2332 439.029 32.8478 446.728 32.7463C453.087 32.6618 459.892 32.0194 466.222 33.355C467.489 33.6221 468.63 33.3978 469.602 32.903C471.447 31.9642 472.95 32.5232 474.389 33.2096L474.342 33.1882C479.02 33.1825 483.405 34.712 488.254 33.8205L488.215 33.8554C487.229 30.6184 484.595 29.2017 478.335 29.8362C474.284 30.2465 472.728 29.4203 470.646 28.353C470.122 28.4262 469.602 28.5063 469.069 28.5626C469.022 28.5671 468.906 28.4104 468.82 28.3282C469.359 28.2853 469.897 28.2425 470.435 28.1986C470.978 27.1977 472.396 26.6556 474.396 26.4189L474.319 26.464C471.526 24.6606 469.198 25.9478 467.291 26.872C466.038 27.4795 465.598 28.4803 464.586 29.515C457.985 28.3485 450.834 28.673 444.479 29.1633C438.537 29.6198 432.391 30.615 426.308 30.9509C419.442 31.3318 413.461 33.3178 406.136 32.9549C402.25 32.7621 396.946 32.7689 395.707 35.7072C395.586 35.9957 394.19 36.459 393.828 36.3778C389.248 35.3443 383.512 37.257 379.45 35.04L379.496 35.0614C372.84 34.7988 366.181 34.3998 359.9 36.0521C355.851 37.1172 351.707 38.1 346.884 38.002C346.287 37.9896 345.441 38.0662 345.104 38.2623C340.87 40.7216 334.96 39.7535 329.684 40.1198C326.132 40.3677 322.673 40.8467 320.037 42.1778C318.965 42.72 317.967 43.3004 319.202 44.0386C320.206 44.6416 321.759 44.9944 323.125 44.512C326.742 43.2328 331.659 43.4379 335.046 41.9535C336.028 41.5219 337.155 41.3325 338.489 41.3133C344.738 41.2254 346.023 41.0327 351.881 39.3973C352.886 41.9377 356.002 41.3427 359.239 40.565L359.185 40.5976C360.373 39.492 362.907 38.6951 361.338 37.0901C364.749 37.4666 364.614 38.561 365.434 39.5968C373.761 37.5489 382.556 38.4697 391.051 37.9986C392.911 37.896 395.229 38.1812 396.477 37.5229C402.171 34.5193 409.257 35.4029 416.157 35.6542L416.477 35.5246L416.178 35.6655C420.343 36.0239 420.524 34.0391 422.368 33.0157C423.642 33.6469 422.366 34.5474 423.793 35.0219L423.714 35.0569Z" fill="#7C6063"/>
<path fill-rule="evenodd" clip-rule="evenodd" d="M867.491 14.1019C867.027 13.9621 866.616 13.9057 866.463 13.7773C866.147 13.5146 866.166 13.2148 866.915 13.1393C867.208 13.11 867.864 13.2656 867.862 13.3343C867.857 13.5811 867.642 13.8268 867.491 14.1019ZM874.066 13.5541L875.298 12.3008L875.361 12.3312C871.196 11.4104 866.674 12.0314 862.37 11.6245C859.11 11.3157 859.352 13.3974 856.953 13.775C855.683 13.2633 857.245 12.6073 856.414 12.0607C855.732 11.6121 855.036 11.2796 853.864 11.3811C852.892 11.4667 852.721 11.7789 852.725 12.276C852.744 13.9272 850.579 13.7615 848.667 13.1698C843.635 11.6132 840.263 11.6482 834.813 13.5146C834.428 13.7412 835.229 14.2292 834.087 14.2856C834.347 14.0365 834.607 13.7874 834.867 13.5383C833.616 12.4811 831.925 12.2737 829.79 12.915L829.837 12.9376C827.971 12.2839 826.885 12.791 825.967 13.5496L826.018 13.5237C817.053 12.0934 807.953 13.3433 798.923 13.2836C797.41 13.2734 795.867 14.2574 794.338 14.7815L794.412 14.7364C794.408 14.9618 794.405 15.1872 794.403 15.4138L794.38 15.3856C799.445 15.2492 804.512 14.9663 809.577 15.3946C809.726 14.9551 809.296 14.4073 810.563 14.1548C811.041 14.742 810.459 15.0948 809.54 15.38C809.568 15.5795 809.596 15.7801 809.626 15.9796C816.932 15.008 824.106 16.8959 831.491 16.2332C833.02 16.0957 831.329 16.879 831.097 17.2363L831.05 17.2137C832.227 17.438 833.751 17.8032 834.642 17.4245C838.967 15.5806 844.301 16.7674 849.08 16.2952C852.962 15.9131 857.454 16.6908 861.665 16.897C865.472 17.0841 868.521 16.5567 871.862 16.2309C875.254 15.9007 873.913 14.5358 874.124 13.5225C873.911 13.3974 873.099 13.6262 873.356 13.2193C873.593 13.3309 873.829 13.4425 874.066 13.5541Z" fill="#7C6063"/>
<path fill-rule="evenodd" clip-rule="evenodd" d="M445.239 36.2673C444.399 37.0552 443.306 37.4485 441.316 36.9594C442.357 35.9427 443.97 36.3643 445.272 36.282L445.49 36.1693L445.239 36.2673ZM460.413 41.7957C463.735 43.2913 467.851 43.0265 471.854 43.0073L471.796 43.0332C471.058 41.0315 467.116 40.4037 464.374 40.2335C458.559 39.8706 453.304 39.0276 448.241 37.3843C452.756 37.089 457.255 36.7013 461.826 37.7337C466.988 38.8991 472.332 39.7196 478.155 39.3341L478.1 39.3792C478.297 38.703 479.965 38.2318 479.109 37.2186C472.926 37.5984 467.731 36.4274 462.104 35.0061C456.754 33.657 449.81 34.5643 443.576 34.8123C441.513 34.8945 439.499 35.3307 437.406 34.8675C436.153 34.5902 434.949 34.5677 434.146 35.2439C433.406 35.865 433.803 36.4668 434.629 36.9447C436.483 38.0154 437.448 39.8379 441.798 38.9036C442.791 38.6894 444.608 38.7458 445.413 39.0602C449.845 40.7892 455.337 41.0462 460.457 41.816L460.629 41.7044L460.413 41.7957Z" fill="#7C6063"/>
<path fill-rule="evenodd" clip-rule="evenodd" d="M794.339 14.7817C794.269 14.287 794.395 13.4383 793.455 13.4552C789.752 13.5205 785.62 12.771 781.924 14.7186C785.156 15.1075 788.481 14.7682 790.571 15.9877L790.534 16.0092L791.903 16.0092L791.866 15.9889C792.703 15.7882 793.541 15.5865 794.381 15.3859L794.404 15.4141C793.973 15.1864 794.021 14.9609 794.413 14.7367L794.339 14.7817Z" fill="#7C6063"/>
<path fill-rule="evenodd" clip-rule="evenodd" d="M765.217 16.3382C767.512 16.9446 769.957 17.2331 772.899 16.9615C773.092 15.4365 771.317 14.811 768.911 14.642C766.795 14.4932 765.275 14.9812 765.217 16.3382Z" fill="#7C6063"/>
<path fill-rule="evenodd" clip-rule="evenodd" d="M712.105 26.4658C712.622 25.6441 713.14 24.8236 713.792 23.79C711.086 23.8915 708.898 24.2341 706.434 24.8112C707.727 26.1141 710.655 25.7084 712.147 26.441L712.105 26.4658Z" fill="#7C6063"/>
<path fill-rule="evenodd" clip-rule="evenodd" d="M776.724 20.8787C779.611 23.3673 784.546 20.9892 787.98 22.1749C784.701 20.5372 780.418 21.3949 776.669 20.9238L776.724 20.8787Z" fill="#7C6063"/>
<path fill-rule="evenodd" clip-rule="evenodd" d="M695.72 24.5923C697.136 24.7873 698.203 25.8445 699.915 25.1502C700.783 24.7985 700.222 24.2226 699.34 23.907C697.414 23.2206 696.444 23.7695 695.767 24.6171L695.72 24.5923Z" fill="#7C6063"/>
<path fill-rule="evenodd" clip-rule="evenodd" d="M726.313 21.8797C728.622 22.699 730.236 22.9729 732.299 22.0352C730.455 21.4187 728.74 21.5787 726.313 21.8797Z" fill="#7C6063"/>
<path fill-rule="evenodd" clip-rule="evenodd" d="M759.055 20.5333C758.907 21.0281 759.424 21.285 760.378 21.2512C761.415 21.214 762.427 21.0236 762.605 20.4521C762.705 20.1365 762.123 19.9224 761.45 19.8886C760.359 19.8311 759.431 19.9483 759.055 20.5333Z" fill="#7C6063"/>
<path fill-rule="evenodd" clip-rule="evenodd" d="M778.101 15.9236C778.966 15.7906 779.548 15.4919 779.678 15.0783C779.836 14.5768 779.198 14.3367 778.224 14.4505C777.316 14.5587 776.922 14.925 776.957 15.3668C776.987 15.6982 777.282 15.9495 778.101 15.9236Z" fill="#7C6063"/>
<path fill-rule="evenodd" clip-rule="evenodd" d="M784.209 19.0882C783.051 18.7242 781.879 18.4672 780.306 18.8989C781.738 19.5616 783.048 18.8842 784.255 19.0634L784.209 19.0882Z" fill="#7C6063"/>
<path fill-rule="evenodd" clip-rule="evenodd" d="M767.875 20.8814C768.227 21.3074 768.355 21.8405 769.668 21.8236C769.805 21.8225 770.065 21.6951 770.048 21.6433C769.844 21.0279 768.733 21.0414 767.828 20.9129L767.875 20.8814Z" fill="#7C6063"/>
<path fill-rule="evenodd" clip-rule="evenodd" d="M757.657 15.9923L757.712 16.0182L757.657 15.9923Z" fill="#7C6063"/>
<path fill-rule="evenodd" clip-rule="evenodd" d="M781.697 16.6073L781.746 16.631L781.697 16.6073Z" fill="#7C6063"/>
<path fill-rule="evenodd" clip-rule="evenodd" d="M1651.19 19.8701L1651.43 19.7033L1651.05 19.6717L1651.19 19.8701ZM1686.96 21.4852C1687.13 21.3522 1687.29 21.2192 1687.45 21.0874C1687.14 21.0186 1686.78 20.8743 1686.51 20.9036C1686.29 20.9284 1686.15 21.1584 1685.98 21.2959C1686.3 21.359 1686.63 21.4221 1686.96 21.4852ZM1514.18 14.9785C1514.52 14.9166 1515.04 14.8997 1515.15 14.7858C1515.47 14.4646 1515 14.2538 1514.4 14.1952C1514.1 14.1659 1513.51 14.2493 1513.42 14.3553C1513.15 14.6709 1513.6 14.8613 1514.18 14.9785ZM1632.3 16.4054C1633.17 16.4224 1634.27 17.0253 1635.22 16.189C1634.22 15.9185 1633.33 15.7878 1632.3 16.4054ZM1628.01 15.7844C1627.81 15.1634 1627.71 14.6179 1626.12 14.5108C1625.94 14.4984 1625.44 14.7813 1625.49 14.8816C1625.75 15.3922 1626.26 15.8182 1628.01 15.7844ZM1645.25 16.2972C1643.26 15.4812 1641.36 15.3978 1638.21 15.6864C1641.04 16.2195 1642.68 16.9712 1645.25 16.2972ZM1502.54 13.2541C1502.78 14.4747 1503.16 15.3054 1505.6 15.7517C1506.54 14.3181 1504.88 13.8582 1502.54 13.2541ZM1608.85 15.4914C1609 15.4192 1609.18 15.3572 1609.29 15.2727C1609.36 15.2107 1609.33 15.1194 1609.35 15.0417C1609.2 15.1983 1609.06 15.3561 1608.91 15.5139C1607.04 15.6086 1605.39 15.8103 1605.57 17.0231C1608.63 17.395 1608.33 16.2454 1608.85 15.4914ZM1656.89 16.6895C1657.64 16.7109 1658.56 16.9532 1658.92 16.4088C1658.99 16.2927 1658.62 15.9805 1658.39 15.967C1657.26 15.8949 1657.19 16.3592 1656.96 16.73C1655.88 16.6185 1654.95 15.9163 1653.63 16.5136C1654.39 17.0298 1654.23 18.0307 1656.3 17.7794C1656.66 17.7354 1656.7 17.0693 1656.89 16.6895ZM1691.04 21.0051L1691.26 20.9431L1691.12 21.0411L1690.92 21.111L1691.04 21.0051ZM1568.41 18.5785C1563.8 19.0969 1559.61 20.747 1554.46 19.7698L1554.52 19.7968C1555.15 19.1522 1555.14 18.5999 1553.49 18.3609C1552.18 18.1716 1551.48 18.5503 1551.35 19.1104C1551.12 20.1012 1550.58 20.9138 1548.16 21.0096L1548.21 21.0445C1548.31 20.6433 1548.82 20.0764 1548.45 19.8667C1543.98 17.3127 1536.52 15.8441 1531.59 16.7695C1526.07 17.8053 1524.64 16.3243 1521.82 15.4159C1519.16 15.9918 1522.79 16.9273 1520.47 17.643C1518.33 18.0149 1516.62 16.3615 1513.99 16.7368C1513.56 16.5283 1513.13 16.3198 1512.69 16.1113C1511.97 15.4508 1511.16 14.8219 1509.31 15.213C1508.72 15.3381 1508.39 15.692 1508.83 15.9816C1510.01 16.7605 1511.4 16.3773 1512.75 16.0831C1513.18 16.2927 1513.61 16.5024 1514.04 16.712C1513.31 17.0693 1512.42 17.785 1511.86 17.7286C1507.4 17.2812 1503.1 16.4483 1498.47 17.5799C1497.6 17.7917 1496.51 16.9228 1496.46 16.26C1496.37 14.8117 1499.55 16.1823 1500.34 14.9346C1495.77 14.4285 1492.43 12.5113 1486.69 13.1346C1482.33 13.608 1477.76 12.615 1473.31 12.2623C1466.78 11.7461 1460.23 10.3823 1452.99 12.1913C1449.53 13.0535 1443.68 13.7038 1439.36 11.8204C1438.93 11.6131 1438.51 11.4046 1438.08 11.1972C1437.38 10.7835 1436.54 10.5829 1435.53 10.912C1435.35 10.9695 1435.29 11.3121 1435.44 11.3696C1436.44 11.7675 1437.24 11.3099 1438.12 11.1769C1438.55 11.3831 1438.98 11.5894 1439.41 11.7957C1436.29 13.1132 1433.09 14.1174 1429.21 12.4065L1429.27 12.4381C1426.64 11.3752 1427.86 10.0081 1428.02 8.7232L1427.97 8.75026C1431.17 8.13487 1434.34 7.60401 1436.86 9.351L1436.83 9.33409C1443.16 8.31408 1449.34 8.94751 1455.76 9.32283C1461.73 9.67223 1467.5 10.6133 1473.55 10.5976L1473.48 10.5626C1474.77 11.2558 1476.06 12.1484 1477.36 10.5649L1477.3 10.5942C1486.83 11.2344 1496.38 10.8331 1506.09 12.0166C1517.43 13.3995 1529.29 14.6765 1541.36 14.1614C1543.4 14.0735 1545.47 13.8853 1546.97 15.0101C1548.12 15.8768 1550.21 15.7562 1552.08 15.5218C1559.08 14.6416 1559.08 14.6348 1564.54 17.1493C1566.08 14.8625 1569.36 14.7745 1573.55 15.169C1576.32 15.4305 1579.35 15.0405 1582.26 14.9278C1585.85 14.7903 1589.25 14.8794 1592.8 15.4632C1596.27 16.0346 1600.15 16.2037 1603.28 14.6776C1603.98 14.3316 1605.02 14.0363 1605.99 13.9473C1610.76 13.5122 1615.31 12.8968 1619.94 12.1011C1624.55 11.3088 1630.58 11.772 1636.03 12.1608C1646.27 12.8901 1656.52 13.6745 1666.46 14.9853C1672.16 15.7359 1679.1 15.2626 1683.55 18.2223C1684.23 16.2555 1686.82 15.9332 1689.98 16.3502C1691.83 16.5937 1693.64 16.9318 1692.33 18.2888C1691.59 19.071 1691.95 19.1521 1694.89 19.1634C1695.35 19.3956 1695.46 19.8588 1696.48 19.7326C1696.4 19.2096 1695.42 19.3449 1694.84 19.1905C1696.64 17.6531 1698.64 17.0332 1702.49 18.0194C1705.09 18.6878 1708.7 18.2122 1711.36 19.195L1711.29 19.151C1711.67 19.7439 1711.74 20.2646 1710.08 20.3897L1710.14 20.419C1709.67 20.4179 1709.2 20.4179 1708.73 20.4167L1708.78 20.392C1698.52 19.8126 1690.68 23.2784 1681.43 24.6692C1681.18 23.4069 1683.39 23.6898 1683.91 22.8828C1682.21 22.4545 1680.12 22.1029 1681.48 20.6038C1682.39 19.6052 1681.08 18.2313 1678.25 19.1544C1674.42 20.3976 1670.55 19.4114 1666.76 19.7281C1664.96 19.8791 1663.07 18.7599 1661.56 20.5621C1660.66 21.6306 1657.73 20.1451 1654.88 19.222C1656.59 21.3691 1654.25 21.7839 1651.69 21.9203C1650.31 21.9947 1647.52 22.9144 1648.09 21.004C1648.23 21.0693 1648.35 21.1494 1648.51 21.1956C1648.62 21.2305 1648.79 21.2226 1648.94 21.2327C1648.64 21.1685 1648.33 21.1043 1648.03 21.04C1647.87 19.2728 1644.12 18.1141 1639.61 18.7825C1634.47 19.5466 1629.32 18.716 1624.07 19.1296C1620.12 19.4418 1622.53 17.2609 1622.83 16.1203L1623.09 15.9569L1622.75 16.082C1621.39 15.8272 1620.07 15.4485 1617.86 15.754C1620.27 17.679 1620.09 19.3562 1615.2 20.2364C1614.63 20.3401 1613.62 20.623 1613.61 20.6162C1610.29 17.5844 1602.54 20.1846 1598.67 17.8312C1597.49 17.1166 1596.72 17.4446 1594.93 17.8752C1592.03 18.5706 1587.99 18.3733 1584.51 18.1941C1581.07 18.016 1578.08 18.3609 1575 18.9662C1572.73 19.4091 1570.19 19.9986 1568.34 18.5379C1568.62 18.4342 1569.45 18.7216 1569.21 18.2505C1568.95 18.3598 1568.68 18.4691 1568.41 18.5785Z" fill="#7C6063"/>
<path fill-rule="evenodd" clip-rule="evenodd" d="M1318.19 6.83323C1318.66 6.69347 1319.07 6.63712 1319.22 6.50863C1319.54 6.24602 1319.52 5.94621 1318.77 5.87069C1318.48 5.84139 1317.82 5.99693 1317.82 6.06568C1317.83 6.31251 1318.04 6.55822 1318.19 6.83323ZM1311.62 6.28547L1310.38 5.03215L1310.32 5.06258C1314.49 4.14175 1319.01 4.76277 1323.31 4.3559C1326.57 4.04708 1326.33 6.12881 1328.73 6.50638C1330 5.99468 1328.44 5.33871 1329.27 4.79207C1329.95 4.34349 1330.65 4.011 1331.82 4.11244C1332.79 4.1981 1332.96 4.51031 1332.96 5.00736C1332.94 6.65854 1335.1 6.49285 1337.02 5.90113C1342.05 4.34463 1345.42 4.37957 1350.87 6.24602C1351.25 6.47257 1350.45 6.96058 1351.6 7.01694C1351.34 6.76785 1351.08 6.51877 1350.82 6.26969C1352.07 5.21248 1353.76 5.0051 1355.89 5.64641L1355.85 5.66894C1357.71 5.01523 1358.8 5.52242 1359.72 6.28095L1359.67 6.25503C1368.63 4.82476 1377.73 6.0747 1386.76 6.01497C1388.27 6.00482 1389.82 6.98876 1391.34 7.51286L1391.27 7.46778C1391.28 7.6932 1391.28 7.91861 1391.28 8.14516L1391.3 8.11699C1386.24 7.98061 1381.17 7.69771 1376.11 8.126C1375.96 7.68644 1376.39 7.13867 1375.12 6.8862C1374.64 7.47341 1375.22 7.82619 1376.14 8.11135C1376.12 8.31084 1376.09 8.51146 1376.06 8.71095C1368.75 7.73941 1361.58 9.62728 1354.19 8.96455C1352.66 8.82705 1354.35 9.61037 1354.59 9.96766L1354.63 9.94511C1353.46 10.1694 1351.93 10.5346 1351.04 10.1559C1346.72 8.31196 1341.38 9.49878 1336.6 9.02653C1332.72 8.64445 1328.23 9.42214 1324.02 9.62839C1320.21 9.81549 1317.16 9.28803 1313.82 8.9623C1310.43 8.63206 1311.77 7.26716 1311.56 6.25391C1311.77 6.12881 1312.58 6.35759 1312.33 5.95071C1312.09 6.0623 1311.85 6.17389 1311.62 6.28547Z" fill="#7C6063"/>
<path fill-rule="evenodd" clip-rule="evenodd" d="M1391.34 7.51312C1391.41 7.01833 1391.29 6.16963 1392.23 6.18654C1395.93 6.25191 1400.06 5.5024 1403.76 7.45001C1400.53 7.83885 1397.2 7.49959 1395.11 8.7191L1395.15 8.74052L1393.78 8.74052L1393.82 8.72023C1392.98 8.51961 1392.14 8.31786 1391.3 8.11724L1391.28 8.14542C1391.71 7.91775 1391.66 7.69232 1391.27 7.46803L1391.34 7.51312Z" fill="#7C6063"/>
<path fill-rule="evenodd" clip-rule="evenodd" d="M1420.47 9.06961C1418.17 9.67598 1415.73 9.96451 1412.78 9.69288C1412.59 8.16793 1414.37 7.5424 1416.77 7.37334C1418.89 7.22456 1420.41 7.71259 1420.47 9.06961Z" fill="#7C6063"/>
<path fill-rule="evenodd" clip-rule="evenodd" d="M1473.58 19.1971C1473.06 18.3755 1472.54 17.5549 1471.89 16.5214C1474.6 16.6228 1476.78 16.9655 1479.25 17.5425C1477.96 18.8455 1475.03 18.4397 1473.54 19.1723L1473.58 19.1971Z" fill="#7C6063"/>
<path fill-rule="evenodd" clip-rule="evenodd" d="M1408.96 13.6101C1406.07 16.0987 1401.14 13.7205 1397.7 14.9062C1400.98 13.2686 1405.26 14.1263 1409.01 13.6552L1408.96 13.6101Z" fill="#7C6063"/>
<path fill-rule="evenodd" clip-rule="evenodd" d="M1489.96 17.3236C1488.55 17.5186 1487.48 18.5758 1485.77 17.8815C1484.9 17.5299 1485.46 16.9539 1486.34 16.6384C1488.27 15.952 1489.24 16.5009 1489.92 17.3484L1489.96 17.3236Z" fill="#7C6063"/>
<path fill-rule="evenodd" clip-rule="evenodd" d="M1459.37 14.611C1457.06 15.4304 1455.45 15.7043 1453.38 14.7665C1455.23 14.15 1456.94 14.3101 1459.37 14.611Z" fill="#7C6063"/>
<path fill-rule="evenodd" clip-rule="evenodd" d="M1426.63 13.2647C1426.78 13.7595 1426.26 14.0164 1425.31 13.9826C1424.27 13.9454 1423.26 13.7549 1423.08 13.1835C1422.98 12.8679 1423.56 12.6538 1424.23 12.62C1425.32 12.5625 1426.25 12.6797 1426.63 13.2647Z" fill="#7C6063"/>
<path fill-rule="evenodd" clip-rule="evenodd" d="M1407.58 8.65499C1406.72 8.52199 1406.13 8.22331 1406 7.80967C1405.85 7.30811 1406.48 7.06805 1407.46 7.18188C1408.37 7.29008 1408.76 7.6564 1408.73 8.09822C1408.7 8.42958 1408.4 8.68091 1407.58 8.65499Z" fill="#7C6063"/>
<path fill-rule="evenodd" clip-rule="evenodd" d="M1401.47 11.8196C1402.63 11.4555 1403.8 11.1985 1405.38 11.6302C1403.95 12.2929 1402.63 11.6156 1401.43 11.7948L1401.47 11.8196Z" fill="#7C6063"/>
<path fill-rule="evenodd" clip-rule="evenodd" d="M1417.81 13.6127C1417.46 14.0388 1417.33 14.5719 1416.01 14.555C1415.88 14.5539 1415.62 14.4265 1415.63 14.3747C1415.84 13.7593 1416.95 13.7728 1417.85 13.6443L1417.81 13.6127Z" fill="#7C6063"/>
<path fill-rule="evenodd" clip-rule="evenodd" d="M1428.03 8.72366L1427.97 8.74957L1428.03 8.72366Z" fill="#7C6063"/>
<path fill-rule="evenodd" clip-rule="evenodd" d="M1403.99 9.33868L1403.94 9.36235L1403.99 9.33868Z" fill="#7C6063"/>
<path fill-rule="evenodd" clip-rule="evenodd" d="M1110.49 5.12807C1110.35 5.27798 1110.29 5.48874 1110.06 5.55974C1109.86 5.62061 1109.45 5.52368 1109.13 5.49663C1109.26 5.34447 1109.32 5.13147 1109.55 5.05933C1109.76 4.99734 1110.17 5.09764 1110.49 5.12807ZM1273.49 2.34191C1273.75 2.20666 1273.97 1.98011 1274.27 1.95532C1274.99 1.89446 1275.48 2.08043 1275.19 2.45575C1275.08 2.58649 1274.53 2.70823 1274.21 2.69808C1273.95 2.68907 1273.73 2.46927 1273.49 2.34191ZM1138.16 4.73697C1137.74 4.96239 1137.31 5.17767 1136.62 5.00523C1136.52 4.98043 1136.55 4.83955 1136.51 4.75276C1137.08 4.75727 1137.65 4.76177 1138.22 4.76628L1138.16 4.73697ZM1155.86 4.11821L1155.73 4.23092L1155.92 4.15088L1156.08 4.0596L1155.86 4.11821ZM1024.34 15.1761C1030.3 15.2775 1035.44 13.6759 1041.22 13.2217C1045.67 12.8712 1050.54 13.3423 1054.69 12.1093L1054.74 12.1431C1054.3 11.9165 1054.35 11.6922 1054.75 11.4691L1054.65 11.5209C1054.94 11.3609 1055.28 11.3271 1055.68 11.4206C1055.85 11.4882 1056.01 11.5638 1056.15 11.6517L1056.18 11.9109L1055.95 12.1476L1055.99 12.1126C1057.23 13.2003 1058.93 13.7176 1061.14 13.3152C1063.23 12.3133 1057.36 11.8342 1061.05 10.9066L1061 10.8818C1061.94 11.5908 1063.45 11.4679 1064.85 11.495L1064.8 11.5153L1067.37 10.2507L1067.3 10.289C1068.18 9.84044 1069.06 9.77055 1069.95 10.2856L1069.88 10.2642C1071.52 10.2969 1073.23 9.94299 1074.81 10.3533C1084.13 12.7765 1094.51 13.6793 1104.32 15.3801C1109.38 16.2581 1114.84 17.1597 1119.26 18.8887L1119.19 18.8594C1122.32 18.3792 1125.03 19.0014 1127.56 19.7284C1129.95 20.4148 1132.14 20.0654 1132.8 19.0916C1133.4 18.1967 1135.33 16.9016 1131.81 16.0011C1127.35 14.8616 1123.03 13.641 1117.92 13.3276C1117.92 13.5474 1117.91 13.7683 1117.91 13.9892C1118.83 14.0152 1120 13.7672 1120.31 14.4806C1120.34 14.546 1120.14 14.6858 1120 14.7106C1118.58 14.9427 1118.28 14.4468 1117.98 13.9599C1117.98 13.7571 1117.99 13.5553 1117.99 13.3536C1116 13.0605 1114.25 13.9678 1111.64 12.7021C1108.84 11.344 1103.2 11.4364 1098.83 10.8514C1095.41 10.3938 1092.19 9.71984 1088.79 9.35353C1088.43 8.20503 1090.68 8.33577 1091.43 7.80829L1091.39 7.83084C1096.97 9.18222 1103 9.76717 1109.08 10.2665L1109.04 10.2867C1109.19 10.2405 1109.35 10.1515 1109.48 10.1583C1109.8 10.1752 1110.1 10.2383 1110.42 10.2834L1110.38 10.2631C1112.53 9.01089 1114.63 9.61501 1116.73 10.2969C1117.09 9.81225 1116.21 9.01203 1118.5 8.91172C1118.71 9.66686 1117.67 9.96554 1116.67 10.2721C1117.34 11.2324 1118.56 11.1929 1120.03 10.7128C1121.93 10.0963 1123.77 9.4313 1125.75 8.88692C1129.21 7.93904 1132.49 7.2932 1136.74 8.36056C1140.16 9.22052 1144.37 9.16756 1148.34 9.02555L1148.28 9.0526C1149.57 7.74293 1150.22 8.72123 1151.09 9.22166C1152.47 10.0129 1152.93 11.3969 1155.81 11.2797C1162.39 11.0081 1166.96 13.2206 1172.35 14.3792C1175.27 15.007 1177.99 15.6483 1181.24 15.1761L1180.93 15.06L1181.18 15.2065C1181.31 14.0039 1180.62 13.0819 1178.85 12.9185C1173.08 12.3843 1167.93 11.6212 1164.48 8.91847C1163.23 7.9458 1158.9 8.51722 1156.29 6.91788C1163.91 7.45438 1170.69 7.2639 1177.48 7.17599L1177.38 7.20755C1178.33 5.86068 1179.67 4.9793 1182.76 6.11427C1184.2 6.64288 1185.91 6.53581 1187.55 6.56624L1187.49 6.59893C1186.45 5.97227 1185.87 4.89478 1188.17 5.29489C1195.39 6.54709 1202.05 5.53157 1208.78 4.62089C1211.64 4.2343 1213 5.10215 1214.76 5.8032C1215.97 6.28897 1216.1 6.27095 1217.94 5.32645C1218.86 4.85082 1219.8 4.91055 1220.73 5.15851C1223.13 5.80433 1225.56 5.71191 1228.04 5.33772L1227.96 5.37492C1228.17 4.62991 1228.41 3.93449 1230.6 4.25459C1235.31 4.94324 1239.95 4.80234 1244.86 4.53522C1248.58 4.33347 1252.41 5.08411 1256.44 4.31882C1258.63 3.90405 1259.78 4.85194 1258.35 5.99029L1258.4 5.96212C1265.15 4.37406 1271.88 6.65866 1278.62 5.98579C1279.31 5.59018 1280.05 5.33658 1281 5.80995C1281.11 5.86405 1281.17 6.02975 1281.09 6.07145C1280.14 6.57075 1279.38 6.10414 1278.56 5.9362C1278.31 6.70826 1279.13 7.0599 1280.6 7.15458C1282.2 7.25827 1283.31 7.6426 1283.7 8.43832L1283.65 8.41579C1285.27 8.18249 1287.09 7.9582 1287.41 7.03624C1287.67 6.25517 1286 6.18078 1284.9 5.95311L1284.97 5.98692C1285.38 5.57103 1285.79 5.15512 1286.2 4.73923L1286.17 4.75051C1286.63 4.75276 1287.08 4.755 1287.53 4.75838L1287.48 4.7336C1290.13 5.4493 1292.86 5.67471 1295.95 5.49437C1299.44 5.29037 1303.01 5.13709 1306.43 5.97564C1310.69 7.02158 1314.11 5.87534 1317.32 4.70655C1319.55 3.89166 1318.89 2.8029 1316.47 2.81867C1310.04 2.86038 1303.51 2.43658 1297.19 3.36643C1296.76 3.42842 1296.58 3.87137 1296.28 4.13736L1296.33 4.11145C1293.62 3.63131 1295.5 2.02858 1293.08 1.28245C1291.45 1.40192 1289.44 1.54845 1287.43 1.69609L1287.5 1.66115C1287.24 1.81781 1286.8 2.12664 1286.73 2.1086C1277.86 -0.239118 1268.17 0.763992 1258.82 0.57126C1254.84 0.49011 1250.86 0.602824 1246.93 0.185802C1245.92 0.0787286 1244.4 -0.127538 1243.88 0.109151C1239.97 1.9046 1235.87 0.845149 1231.8 0.433763C1231.48 0.450669 1231.37 0.877823 1230.86 0.548714C1231.19 0.521664 1231.53 0.495742 1231.86 0.468692C1231.68 0.417973 1231.46 0.304148 1231.32 0.324435C1224.04 1.37375 1216.47 -0.590765 1209.24 0.804569C1206.35 1.36248 1203.1 1.05479 1200.65 0.793304C1195.83 0.278225 1191.87 -0.40931 1187.24 1.33317C1185.17 2.11424 1181.38 1.10663 1178.09 1.23287C1171.98 1.46505 1165.74 1.94857 1159.31 1.60706C1149.38 1.08071 1139.15 0.80457 1129.94 3.96718C1127.12 4.93647 1122.15 4.9376 1118.4 4.65245C1110.78 4.072 1103.45 4.71105 1096.16 5.34222C1090.62 5.82236 1084.74 4.613 1079.63 6.07371C1076.48 6.97425 1072.3 5.91592 1069.68 7.63585C1068.35 8.50483 1066.98 7.22897 1065.18 7.29772C1060.13 7.49158 1055.55 8.50821 1050.84 9.11909C1046.5 9.68151 1041.25 8.82492 1037.52 11.0892C1035.93 12.0608 1034.18 10.5223 1033.17 9.65108L1033.23 9.67926C1031.93 9.86974 1030.63 10.0591 1029.34 10.2484C1029.41 10.5257 1029.49 10.803 1029.57 11.0813C1029.38 11.0768 1029.09 11.1061 1029.04 11.0644C1028.65 10.7489 1029.03 10.5077 1029.43 10.2755C1025.95 9.39523 1024.3 11.2887 1021.52 11.5085C1012.66 12.2084 1003.81 12.9478 994.943 13.6522C993.546 13.7627 991.743 13.5283 991.807 14.6441C991.862 15.5311 993.14 15.9988 994.739 15.9053C997.773 15.7261 1000.53 16.3775 1003.46 16.417C1006.83 16.4609 1010.14 16.5838 1013.58 17.9002C1011.51 16.0439 1014.85 15.3733 1015.27 13.6894C1017.43 15.4511 1019.96 15.9075 1023.1 15.1806L1023.07 15.2008C1023.34 14.7455 1023.02 13.8777 1024.26 13.9859C1025.92 14.1324 1024.47 14.7793 1024.38 15.2099L1024.34 15.1761Z" fill="#7C6063"/>
<path fill-rule="evenodd" clip-rule="evenodd" d="M929.717 15.6387C929.633 15.7244 929.591 15.845 929.45 15.8844C929.343 15.9149 929.113 15.845 928.937 15.8202C929.021 15.7345 929.062 15.6128 929.199 15.5745C929.311 15.5441 929.54 15.6139 929.717 15.6387ZM941.942 18.3775C941.793 18.3539 941.642 18.3291 941.494 18.3043C941.605 18.1747 941.703 18.0417 941.846 17.9211C941.863 17.9076 942.136 17.9662 942.29 17.991C942.174 18.1206 942.058 18.2491 941.942 18.3775ZM944.624 17.0498C944.891 17.1558 945.647 16.8875 945.482 17.3181C945.215 17.2178 944.946 17.1175 944.679 17.0183C944.396 16.918 943.512 17.1975 943.846 16.7072C944.106 16.821 944.364 16.936 944.624 17.0498ZM954.735 16.4333L955.044 16.5257L954.809 16.3961L954.735 16.4333ZM928.174 18.2479C931.382 18.9512 934.076 20.5934 938.241 19.5418C934.775 19.4697 934.612 18.2671 934.584 17.0194L934.324 16.9258L934.517 17.051C934.946 17.0476 935.378 17.0453 935.807 17.042C936.737 16.7703 937.568 16.2688 938.886 16.723C937.983 17.2877 936.765 16.8898 935.749 17.0059C935.526 18.1037 936.872 18.7968 938.41 19.4415C939.849 20.0749 941.501 20.3172 943.413 20.0884L943.369 20.111C947.967 19.8078 952.563 19.774 956.255 17.8771C957.568 17.202 958.744 18.0214 957.357 18.8847L957.294 18.8554C958.429 19.1011 959.995 19.5858 960.751 19.0369C963.556 17.0036 967.315 17.6472 971.262 17.6956C975.526 17.7486 980.306 18.2074 983.911 16.4119L983.862 16.4356C985.737 16.0073 987.869 15.7548 989.078 14.5161C984.199 12.9179 978.893 14.0653 974.206 14.3031C960.044 15.0245 946.095 14.4339 932.072 13.7159C926.93 13.4533 921.865 14.6289 916.633 14.2254C915.835 14.1622 915.055 14.0439 914.267 13.9515L914.322 13.9797C913.884 13.5615 913.443 13.1422 913.004 12.7241L913.053 12.7477C909.269 13.5288 905.155 13.344 901.427 13.0904C893.053 12.5212 884.675 13.3496 876.362 12.7444L876.42 12.7162C876.044 12.8774 875.668 13.0374 875.29 13.1986C875.144 13.3181 875.007 13.4409 874.877 13.566C877.135 15.0538 881.232 14.7821 883.97 15.81L883.87 15.7785C885.592 15.3592 887.538 14.8949 889.306 15.2612C895.494 16.5415 902.292 15.5666 908.494 16.6058C910.014 16.8605 911.835 16.2947 912.682 16.5009C917.626 17.7047 923.707 16.439 928.248 18.284L928.174 18.2479Z" fill="#7C6063"/>
</svg>
