<svg width="1755" height="334" viewBox="0 0 1755 334" fill="none" xmlns="http://www.w3.org/2000/svg">
<path d="M1433.83 46.2125C1476.62 46.6838 1725.06 69.8447 1755 73.7717L1672.29 334L1.43067e-06 317.767L2.19271e-07 52.6923L158.507 43.8565L245.025 43.8565C296.32 48.1762 410.797 54.2238 458.349 43.8565C517.789 30.8972 552.132 48.5689 577.229 37.9659C597.307 29.4835 677.177 17.5453 714.602 12.6365L748.945 16.1707C800.46 4.97855 904.81 7.33503 933.87 4.97881C957.118 3.09383 1015.77 11.6547 1042.18 16.1707C1117.47 8.51302 1154.46 17.3488 1176.91 20.8831C1199.37 24.4175 1192.1 18.5269 1227.11 20.8831C1262.11 23.2394 1380.33 45.6235 1433.83 46.2125Z" fill="#FFF0BB"/>
<path fill-rule="evenodd" clip-rule="evenodd" d="M1516.17 53.1629C1516.25 53.16 1516.36 53.1843 1516.4 53.1473C1516.57 52.9877 1516.51 52.8632 1516.27 52.836C1516.22 52.8291 1516.11 52.905 1516.09 52.9586C1516.08 53.0179 1516.14 53.0938 1516.17 53.1629ZM1373.73 43.2988C1373.59 43.2239 1373.45 43.0886 1373.31 43.0867C1373.05 43.0828 1373 43.2307 1373.18 43.401C1373.24 43.4574 1373.36 43.5372 1373.4 43.5187C1373.53 43.472 1373.63 43.3766 1373.73 43.2988ZM1360.69 42.2956C1360.27 41.1436 1359.56 41.0716 1358.57 41.058C1358.98 41.9016 1359.38 42.4153 1360.69 42.2956ZM1390.18 43.975C1390.25 43.9157 1390.33 43.8631 1390.37 43.795C1390.4 43.7454 1390.4 43.6734 1390.41 43.6111L1390.21 43.9945C1389.37 44.0402 1388.85 42.6722 1387.53 43.6607C1388.41 44.623 1389.21 44.6882 1390.18 43.975ZM1442.55 45.021C1442.94 45.3771 1443.33 45.7332 1443.72 46.0893C1443.53 46.3744 1443.29 46.676 1443.72 46.9348C1443.82 46.9961 1444.04 46.9037 1444.21 46.8813C1444.03 46.6108 1443.85 46.3403 1443.67 46.0698C1444.05 45.9823 1444.66 45.8947 1444.49 45.5065C1444.12 44.6843 1443.32 44.697 1442.51 45.0511L1442.44 44.9568L1442.55 45.021ZM1463.95 47.1742C1462.13 48.7485 1457.97 48.8107 1456.26 47.1839C1455.04 46.027 1453.87 45.1251 1452.03 46.1107L1452.07 46.0747C1450.82 46.5184 1449.47 45.0112 1448.24 46.2489C1448.52 46.9737 1450.16 46.353 1449.92 47.6072C1448.89 48.5052 1447.74 46.8181 1446.71 47.7025C1446.5 47.7035 1446.29 47.7044 1446.08 47.7054L1446.12 47.6752C1446.18 47.7181 1446.24 47.8037 1446.29 47.7959C1446.43 47.7755 1446.55 47.7161 1446.68 47.6714C1447.79 48.297 1449.3 48.4497 1449.94 49.6553C1449.32 50.2751 1448.69 50.0172 1448.16 49.9481C1445.54 49.6124 1442.9 48.8915 1440.43 50.4249C1436.47 48.6414 1431.91 50.2741 1427.84 48.5072C1425.46 47.4748 1422.63 46.964 1419.97 46.8434C1416.77 46.6974 1413.31 46.9737 1410.36 46.4162C1406.5 45.6865 1402.26 46.8229 1398.74 44.6259C1397.91 44.1073 1397 44.6201 1396.14 44.5092C1395.99 44.48 1395.97 44.0849 1395.71 44.3924L1396.16 44.4839C1396.38 46.1584 1399.01 45.3129 1399.35 47.0778C1398.07 47.5809 1396.22 47.683 1395.6 46.964C1394.8 46.026 1394.23 44.9499 1392.81 44.1939C1392.44 44.9568 1393.61 45.8791 1392.54 46.4785C1391.57 47.0253 1390.82 46.4386 1390.04 46.1623C1385.87 44.6814 1381.4 45.3849 1377.1 44.5734C1378.71 45.2554 1380.08 46.1535 1381.74 46.8035C1380.9 47.3376 1380.05 47.4777 1379.35 47.3376C1375.4 46.5437 1371.11 47.0457 1367.52 44.8925C1366.9 44.5199 1366.19 44.481 1365.52 44.6824C1363.69 45.2321 1362.24 44.7816 1360.52 43.9682C1358.85 43.1771 1356.63 43.4068 1354.67 43.148C1351.25 42.6965 1347.97 41.3674 1344.42 41.7187C1344.23 41.7362 1344.02 41.6739 1343.84 41.6048C1342.46 41.0619 1341.44 39.7211 1339.54 40.2582C1339.16 40.3652 1338.48 39.5752 1338.05 38.5458C1340.09 39.5791 1342.01 38.4572 1343.81 39.2171L1343.78 39.1908C1344.06 40.1268 1344.89 39.8817 1345.63 39.9118C1347.06 39.9693 1348.43 40.3127 1349.75 40.7778C1349.9 40.8255 1349.91 41.2448 1350.19 40.9014C1350.03 40.8722 1349.88 40.842 1349.72 40.8118C1349.74 40.626 1349.75 40.4402 1349.76 40.2533L1349.74 40.2718C1351.16 39.7776 1352.38 40.661 1353.71 40.7427C1354.8 40.8099 1356.28 42.6955 1356.88 40.0072C1357.05 39.2619 1359.14 40.1249 1360.4 39.9401C1361.35 39.7999 1362.95 39.691 1362.47 41.5221C1362.28 42.2489 1363.09 42.571 1363.78 42.6848C1364.45 42.7967 1364.79 42.5311 1364.91 41.8393C1365.29 39.7562 1367.66 41.635 1368.74 40.409C1369.13 39.9741 1369.52 41.3538 1369.98 41.851C1369.68 42.1166 1369.13 42.2353 1369.27 42.7646C1369.28 42.8142 1369.44 42.8843 1369.49 42.8658C1370.07 42.6751 1369.8 42.1789 1369.95 41.8296C1371.18 41.886 1372.02 41.7712 1373.27 40.9636C1374.64 40.0685 1377.39 40.3312 1379.68 41.2643C1379.09 41.9395 1378.2 42.7169 1379.54 43.4486C1380.4 43.9195 1381.02 43.8592 1381.29 42.8969L1381.27 42.9193C1381.83 42.5593 1382.38 42.1993 1382.96 41.8238C1384.02 41.9765 1383.69 43.5002 1384.9 43.4924C1385.91 42.8395 1384.54 42.1721 1385.05 41.4793C1385.25 41.4122 1385.54 41.2098 1385.78 41.2526C1387.88 41.6292 1390.1 41.2147 1392.11 42.2305C1392.77 42.5632 1393.84 42.968 1394.37 41.8452L1394.35 41.8617C1397.93 42.0329 1401.51 42.8872 1405.11 41.9726C1405.29 41.9269 1405.55 41.9094 1405.69 41.9911C1408.64 43.7104 1412.05 41.8734 1414.74 42.607C1418.95 43.7512 1423.34 41.4735 1427.26 43.7405C1427.76 44.0305 1428.41 43.8106 1428.92 43.4593C1429.43 43.1061 1430.12 42.9485 1430.6 43.2258C1432.79 44.5072 1435.46 44.2027 1437.78 45.021C1438.16 45.5668 1438.87 45.9239 1438.98 46.6342L1438.95 46.605C1439.4 46.4143 1439.92 46.1 1439.75 45.6709C1439.42 44.8273 1438.48 45.1183 1437.76 45.0463C1437.85 44.6123 1437.94 43.9526 1438.45 43.9925C1442.65 44.3243 1447.02 42.0738 1451.09 44.622C1451.28 44.7417 1451.73 44.7553 1451.9 44.6366C1454.16 43.0672 1455.69 44.0237 1457.1 45.7118C1457.83 46.5768 1458.82 46.5534 1459.74 45.9813C1460.58 45.4568 1461.36 45.1027 1462.47 45.4228C1467.68 46.9339 1473.12 46.7791 1478.5 47.1284C1479.83 47.2141 1481.21 47.5099 1482.38 48.2114C1482.52 48.2727 1482.55 48.6667 1482.83 48.333C1482.67 48.296 1482.52 48.2581 1482.37 48.2211C1483.17 47.3814 1483.97 46.6964 1484.77 48.2211L1484.75 48.2026C1487.85 48.4303 1490.89 49.3566 1494.22 48.91C1495.52 49.4928 1493.17 51.1498 1495.25 51.7997C1495.66 49.9433 1496.89 49.1124 1499.04 49.8217L1499.01 49.8012C1500.36 51.2471 1500.93 49.1299 1502 49.2855L1501.98 49.269C1502.05 49.304 1502.12 49.3741 1502.18 49.3692C1502.33 49.3546 1502.48 49.304 1502.62 49.268L1502.61 49.2846C1504.35 49.0034 1503.93 50.7995 1504.89 51.2578C1507.44 49.4402 1508.6 49.4111 1511.53 51.1994C1512.06 51.5234 1512.29 51.8688 1512.9 51.2558C1513.58 50.5718 1514.36 51.2461 1515.08 51.4076L1515.07 51.3901C1515.13 51.431 1515.21 51.5117 1515.27 51.5049C1515.42 51.4874 1515.56 51.43 1515.71 51.3882L1515.69 51.4047C1517.47 50.7071 1519.2 51.5312 1520.95 51.5614C1525.26 51.6324 1529.57 51.7997 1533.83 52.4915C1535.66 52.7902 1537.54 52.6696 1539.38 52.7552C1541.15 52.8379 1542.47 53.2738 1544.02 53.8985C1545.06 54.3178 1546.81 53.7739 1548.24 53.9374C1550.82 54.2322 1553.64 53.447 1555.92 55.2324C1556.09 55.3696 1556.47 55.4231 1556.7 55.356C1561.01 54.096 1565.07 55.7218 1569.22 56.1898L1569.19 56.1626C1565.56 58.6281 1561.71 59.1525 1557.17 58.2078C1553.21 57.3846 1548.98 57.5286 1544.9 57.4605C1541.99 57.4119 1539.11 57.0743 1536.51 56.3689C1532.34 55.2383 1528.12 55.4513 1523.95 54.9853C1520.29 54.5776 1516.65 54.0035 1512.92 53.9422C1511.37 53.9169 1509.86 53.3477 1508.39 54.2156C1508.31 54.2623 1508.17 54.3305 1508.12 54.3013C1505.9 52.944 1503.03 54.8831 1500.83 53.0802C1499.46 51.9535 1497.69 52.8914 1496.11 52.8515C1491.87 52.7435 1487.73 52.0391 1483.57 51.3881C1483.57 51.3881 1483.6 51.4115 1483.6 51.4115C1483.38 51.2237 1483.17 51.0359 1482.96 50.8482L1482.98 50.8696C1480.06 51.1235 1477.37 50.3422 1474.73 49.3877C1473.78 49.0433 1472.85 49.0306 1471.83 49.197C1469.2 49.628 1466.86 48.2542 1464.31 48.0713C1464.15 48.0596 1464.05 47.468 1463.92 47.146L1463.95 47.1742Z" fill="#7C6063"/>
<path fill-rule="evenodd" clip-rule="evenodd" d="M436.093 44.9154C436.015 44.9125 435.9 44.9369 435.862 44.8999C435.698 44.7403 435.749 44.6158 435.991 44.5885C436.047 44.5817 436.155 44.6576 436.169 44.7111C436.186 44.7705 436.123 44.8464 436.093 44.9154ZM578.53 35.0514C578.672 34.9764 578.814 34.8412 578.956 34.8393C579.212 34.8354 579.259 34.9833 579.079 35.1535C579.02 35.21 578.906 35.2897 578.859 35.2713C578.737 35.2246 578.638 35.1292 578.53 35.0514ZM591.575 34.0482C591.997 32.8962 592.705 32.8242 593.691 32.8106C593.279 33.6541 592.881 34.1679 591.575 34.0482ZM562.08 35.7276C562.016 35.6682 561.938 35.6157 561.893 35.5476C561.859 35.498 561.865 35.426 561.853 35.3637L562.053 35.747C562.891 35.7928 563.411 34.4248 564.732 35.4133C563.852 36.3756 563.05 36.4408 562.08 35.7276ZM509.715 36.7735C509.325 37.1296 508.937 37.4858 508.548 37.8419C508.736 38.127 508.977 38.4286 508.542 38.6874C508.44 38.7487 508.222 38.6563 508.058 38.6339C508.234 38.3634 508.411 38.0929 508.589 37.8224C508.217 37.7348 507.604 37.6473 507.778 37.2591C508.148 36.4369 508.94 36.4495 509.749 36.8037L509.821 36.7093L509.715 36.7735ZM488.312 38.9267C490.13 40.501 494.291 40.5633 496.005 38.9365C497.226 37.7796 498.396 36.8776 500.238 37.8633L500.198 37.8273C501.445 38.2709 502.793 36.7638 504.022 38.0014C503.746 38.7263 502.099 38.1056 502.342 39.3597C503.371 40.2578 504.523 38.5706 505.552 39.4551C505.761 39.456 505.97 39.457 506.179 39.458L506.145 39.4278C506.086 39.4706 506.019 39.5563 505.97 39.5485C505.836 39.528 505.709 39.4687 505.58 39.4239C504.473 40.0495 502.966 40.2023 502.323 41.4078C502.939 42.0276 503.571 41.7698 504.106 41.7007C506.727 41.365 509.36 40.6441 511.831 42.1775C515.789 40.394 520.353 42.0267 524.422 40.2597C526.799 39.2274 529.63 38.7166 532.292 38.5959C535.498 38.45 538.959 38.7263 541.904 38.1688C545.764 37.4391 550.004 38.5755 553.524 36.3785C554.355 35.8599 555.261 36.3726 556.123 36.2617C556.271 36.2325 556.293 35.8375 556.555 36.145L556.101 36.2364C555.884 37.9109 553.257 37.0654 552.911 38.8304C554.191 39.3334 556.044 39.4356 556.661 38.7166C557.463 37.7786 558.035 36.7025 559.452 35.9465C559.82 36.7093 558.654 37.6317 559.721 38.2311C560.695 38.7779 561.446 38.1912 562.225 37.9148C566.391 36.434 570.859 37.1374 575.166 36.326C573.552 37.008 572.184 37.9061 570.528 38.556C571.366 39.0902 572.217 39.2303 572.914 39.0902C576.861 38.2962 581.149 38.7983 584.739 36.6451C585.359 36.2724 586.069 36.2335 586.74 36.4349C588.573 36.9847 590.026 36.5342 591.744 35.7208C593.414 34.9297 595.637 35.1594 597.592 34.9005C601.009 34.4491 604.297 33.12 607.848 33.4712C608.033 33.4888 608.245 33.4265 608.423 33.3574C609.804 32.8145 610.824 31.4737 612.723 32.0108C613.099 32.1178 613.782 31.3277 614.214 30.2983C612.172 31.3316 610.255 30.2098 608.455 30.9697L608.483 30.9434C608.2 31.8794 607.378 31.6343 606.629 31.6644C605.204 31.7218 603.838 32.0653 602.511 32.5304C602.367 32.578 602.355 32.9974 602.072 32.6539C602.229 32.6247 602.386 32.5946 602.542 32.5644C602.528 32.3786 602.513 32.1927 602.5 32.0059L602.521 32.0244C601.101 31.5301 599.888 32.4136 598.558 32.4953C597.462 32.5625 595.986 34.4481 595.384 31.7598C595.217 31.0145 593.122 31.8775 591.863 31.6926C590.913 31.5525 589.312 31.4436 589.796 33.2747C589.988 34.0015 589.169 34.3236 588.479 34.4374C587.815 34.5493 587.477 34.2837 587.352 33.5919C586.973 31.5087 584.608 33.3876 583.519 32.1616C583.132 31.7267 582.747 33.1064 582.285 33.6036C582.588 33.8692 583.135 33.9879 582.996 34.5172C582.983 34.5668 582.827 34.6369 582.771 34.6184C582.195 34.4277 582.459 33.9314 582.313 33.5821C581.086 33.6386 580.239 33.5238 578.998 32.7162C577.62 31.8211 574.869 32.0838 572.586 33.0168C573.176 33.6921 574.062 34.4695 572.725 35.2012C571.867 35.6721 571.248 35.6118 570.97 34.6495L570.991 34.6719C570.435 34.3119 569.879 33.9519 569.299 33.5763C568.248 33.7291 568.572 35.2528 567.366 35.245C566.352 34.5921 567.727 33.9246 567.211 33.2319C567.011 33.1647 566.719 32.9624 566.482 33.0052C564.387 33.3817 562.159 32.9672 560.15 33.983C559.493 34.3158 558.426 34.7206 557.895 33.5977L557.915 33.6143C554.33 33.7855 550.754 34.6398 547.154 33.7252C546.974 33.6794 546.716 33.6619 546.576 33.7437C543.62 35.4629 540.219 33.6259 537.521 34.3596C533.316 35.5038 528.924 33.2261 525.008 35.4931C524.507 35.783 523.853 35.5632 523.346 35.2119C522.835 34.8587 522.139 34.7011 521.665 34.9784C519.47 36.2598 516.805 35.9552 514.485 36.7735C514.099 37.3194 513.392 37.6765 513.282 38.3867L513.315 38.3576C512.859 38.1668 512.344 37.8526 512.512 37.4235C512.842 36.5799 513.781 36.8708 514.507 36.7988C514.417 36.3649 514.319 35.7052 513.818 35.7451C509.614 36.0769 505.242 33.8264 501.175 36.3746C500.984 36.4943 500.53 36.5079 500.359 36.3892C498.106 34.8198 496.571 35.7762 495.159 37.4644C494.435 38.3293 493.447 38.306 492.524 37.7339C491.679 37.2094 490.908 36.8553 489.798 37.1754C484.583 38.6864 479.14 38.5317 473.762 38.881C472.435 38.9666 471.057 39.2624 469.884 39.9639C469.742 40.0252 469.714 40.4193 469.437 40.0856C469.589 40.0486 469.742 40.0106 469.895 39.9737C469.094 39.134 468.293 38.449 467.494 39.9737L467.514 39.9552C464.416 40.1829 461.377 41.1091 458.039 40.6625C456.742 41.2454 459.092 42.9023 457.009 43.5523C456.605 41.6958 455.374 40.8649 453.228 41.5742L453.251 41.5538C451.905 42.9997 451.333 40.8824 450.267 41.0381L450.285 41.0216C450.216 41.0566 450.144 41.1267 450.08 41.1218C449.931 41.1072 449.786 41.0566 449.64 41.0206L449.657 41.0371C447.911 40.756 448.337 42.5521 447.379 43.0103C444.82 41.1928 443.664 41.1636 440.738 42.952C440.208 43.276 439.972 43.6214 439.361 43.0084C438.68 42.3244 437.906 42.9987 437.181 43.1602L437.198 43.1427C437.131 43.1835 437.057 43.2643 436.996 43.2575C436.846 43.24 436.701 43.1826 436.553 43.1407L436.571 43.1573C434.796 42.4596 433.066 43.2838 431.311 43.3139C427.004 43.3849 422.694 43.5523 418.438 44.2441C416.603 44.5428 414.719 44.4221 412.882 44.5078C411.11 44.5905 409.797 45.0264 408.246 45.651C407.206 46.0704 405.456 45.5265 404.027 45.6899C401.443 45.9847 398.626 45.1995 396.347 46.985C396.173 47.1221 395.789 47.1757 395.56 47.1085C391.255 45.8485 387.198 47.4744 383.045 47.9424L383.074 47.9151C386.704 50.3807 390.557 50.9051 395.098 49.9603C399.053 49.1372 403.281 49.2812 407.36 49.2131C410.274 49.1644 413.156 48.8268 415.753 48.1214C419.919 46.9908 424.139 47.2039 428.312 46.7378C431.971 46.3301 435.614 45.7561 439.342 45.6948C440.893 45.6695 442.401 45.1003 443.87 45.9682C443.95 46.0149 444.093 46.083 444.14 46.0538C446.361 44.6965 449.232 46.6357 451.433 44.8327C452.807 43.706 454.574 44.644 456.152 44.6041C460.395 44.4961 464.534 43.7916 468.689 43.1407C468.689 43.1407 468.665 43.1641 468.666 43.1641C468.879 42.9763 469.092 42.7885 469.303 42.6007L469.284 42.6221C472.203 42.8761 474.891 42.0948 477.534 41.1403C478.487 40.7958 479.415 40.7832 480.432 40.9496C483.065 41.3806 485.403 40.0067 487.952 39.8238C488.109 39.8122 488.215 39.2206 488.344 38.8985L488.312 38.9267Z" fill="#7C6063"/>
<path fill-rule="evenodd" clip-rule="evenodd" d="M340.778 48.3123C340.857 48.3048 340.973 48.3224 341.008 48.2832C341.16 48.1144 341.099 47.9932 340.857 47.9801C340.8 47.9766 340.697 48.0587 340.687 48.1129C340.675 48.1731 340.744 48.2451 340.778 48.3123ZM197.923 46.8113C197.776 46.7448 197.624 46.6182 197.482 46.6246C197.227 46.6357 197.191 46.786 197.383 46.9454C197.446 46.9982 197.565 47.0712 197.61 47.05C197.729 46.9962 197.821 46.8953 197.923 46.8113ZM184.832 46.5743C184.326 45.4495 183.614 45.4191 182.629 45.4632C183.103 46.2808 183.538 46.7702 184.832 46.5743ZM214.387 46.5227C214.447 46.4597 214.52 46.4027 214.561 46.3321C214.591 46.2806 214.579 46.2091 214.586 46.1463L214.415 46.5405C213.583 46.6352 212.963 45.3006 211.717 46.3644C212.667 47.273 213.472 47.2911 214.387 46.5227ZM266.716 44.4996C267.131 44.8321 267.545 45.1647 267.96 45.4973C267.792 45.7928 267.574 46.1079 268.027 46.3406C268.134 46.3958 268.344 46.2909 268.507 46.2589C268.31 45.9993 268.114 45.7398 267.917 45.4803C268.282 45.3711 268.887 45.2478 268.684 44.8707C268.255 44.0719 267.465 44.1309 266.685 44.5317L266.606 44.4417L266.716 44.4996ZM288.231 45.3947C286.533 47.0721 282.386 47.3779 280.555 45.855C279.252 44.7721 278.019 43.9406 276.253 45.032L276.29 44.9937C275.079 45.5094 273.622 44.0845 272.487 45.3915C272.815 46.0986 274.413 45.3827 274.263 46.6485C273.303 47.6048 272.029 45.9888 271.068 46.9316C270.859 46.9448 270.651 46.958 270.442 46.9712L270.473 46.9391C270.535 46.9784 270.609 47.0599 270.657 47.0492C270.79 47.021 270.912 46.9543 271.037 46.9021C272.188 47.4616 273.702 47.5258 274.433 48.691C273.864 49.3455 273.215 49.1252 272.675 49.0877C270.036 48.9062 267.355 48.341 265.002 50.0158C260.922 48.468 256.487 50.3644 252.297 48.8396C249.849 47.9487 246.987 47.6048 244.322 47.6403C241.112 47.6824 237.679 48.1608 234.699 47.777C230.794 47.2749 226.647 48.6572 222.972 46.6711C222.105 46.2023 221.239 46.767 220.371 46.7068C220.22 46.6863 220.17 46.2934 219.931 46.6156L220.391 46.6802C220.73 48.3384 223.289 47.3409 223.764 49.0818C222.525 49.6587 220.683 49.8692 220.015 49.1878C219.145 48.2989 218.495 47.2586 217.025 46.5872C216.715 47.3699 217.946 48.222 216.926 48.8826C215.994 49.4852 215.201 48.9438 214.403 48.7137C210.137 47.48 205.731 48.4436 201.374 47.8861C203.034 48.4722 204.465 49.2882 206.165 49.8398C205.369 50.4218 204.53 50.6115 203.824 50.5125C199.827 49.9514 195.585 50.7035 191.844 48.7652C191.198 48.4297 190.487 48.4324 189.832 48.6727C188.044 49.3286 186.561 48.9641 184.787 48.2531C183.062 47.5616 180.86 47.9209 178.89 47.7772C175.448 47.5268 172.069 46.3931 168.552 46.9516C168.368 46.9799 168.152 46.9302 167.97 46.8716C166.552 46.4108 165.435 45.1326 163.58 45.7798C163.212 45.9086 162.472 45.1603 161.965 44.1584C164.079 45.0698 165.909 43.8382 167.761 44.491L167.732 44.4664C168.083 45.3838 168.886 45.091 169.635 45.0773C171.062 45.0511 172.45 45.3138 173.808 45.7002C173.955 45.7393 173.998 46.1571 174.255 45.7977C174.097 45.7778 173.938 45.7569 173.78 45.7359C173.78 45.5497 173.781 45.3634 173.78 45.1762L173.761 45.1959C175.142 44.6195 176.417 45.43 177.75 45.4337C178.848 45.4365 180.459 47.2317 180.862 44.5139C180.974 43.7604 183.129 44.4988 184.371 44.2406C185.309 44.0452 186.898 43.8427 186.551 45.6982C186.413 46.4347 187.253 46.7081 187.95 46.7813C188.621 46.854 188.938 46.5693 189.012 45.8716C189.237 43.7708 191.735 45.5071 192.732 44.2199C193.085 43.7633 193.571 45.1175 194.069 45.5865C193.786 45.8693 193.25 46.0198 193.427 46.5398C193.444 46.5886 193.605 46.6493 193.659 46.6276C194.219 46.4036 193.919 45.9239 194.04 45.5668C195.268 45.5512 196.105 45.3871 197.284 44.5086C198.593 43.5347 201.357 43.6357 203.705 44.433C203.165 45.1414 202.339 45.969 203.726 46.6208C204.617 47.0405 205.23 46.9441 205.437 45.9676L205.418 45.9911C205.945 45.5993 206.474 45.2076 207.026 44.7988C208.085 44.8897 207.874 46.4291 209.077 46.3507C210.04 45.6398 208.62 45.0543 209.084 44.3328C209.278 44.2541 209.555 44.0351 209.794 44.0639C211.912 44.317 214.105 43.7729 216.184 44.6689C216.865 44.9624 217.959 45.3038 218.406 44.1523L218.387 44.17C221.977 44.1309 225.608 44.7739 229.133 43.6505C229.309 43.5943 229.566 43.5617 229.711 43.6351C232.788 45.1775 236.047 43.1452 238.793 43.7193C243.072 44.6148 247.287 42.0848 251.362 44.1176C251.883 44.3776 252.52 44.1198 253 43.7396C253.483 43.3573 254.166 43.1592 254.66 43.4081C256.945 44.5583 259.581 44.0983 261.956 44.779C262.381 45.301 263.113 45.616 263.275 46.3182L263.241 46.291C263.682 46.074 264.172 45.7303 263.973 45.3119C263.581 44.4896 262.666 44.8348 261.936 44.8055C261.994 44.3672 262.043 43.7033 262.546 43.7137C266.765 43.7986 270.962 41.2968 275.208 43.6014C275.407 43.7096 275.861 43.6967 276.023 43.5682C278.156 41.8702 279.759 42.7347 281.292 44.3365C282.078 45.1572 283.061 45.076 283.94 44.4511C284.745 43.8783 285.489 43.4797 286.619 43.7342C291.935 44.9365 297.354 44.4634 302.747 44.497C304.077 44.5047 305.474 44.7191 306.696 45.3504C306.842 45.4033 306.899 45.7948 307.151 45.4456C306.996 45.4177 306.841 45.3887 306.686 45.3608C307.423 44.476 308.172 43.7456 309.082 45.2202L309.06 45.2029C312.168 45.2487 315.269 45.995 318.567 45.3538C319.904 45.8594 317.681 47.6504 319.807 48.177C320.073 46.301 321.241 45.3997 323.435 45.9818L323.41 45.9628C324.86 47.3267 325.274 45.1805 326.349 45.2734L326.331 45.258C326.402 45.2889 326.479 45.3546 326.543 45.346C326.69 45.3227 326.831 45.2637 326.974 45.2192L326.958 45.2368C328.68 44.8539 328.387 46.6711 329.377 47.0722C331.796 45.1088 332.948 45.012 335.999 46.6251C336.552 46.9174 336.812 47.2482 337.377 46.6008C338.007 45.8783 338.828 46.5058 339.564 46.6245L339.545 46.6081C339.616 46.6449 339.695 46.7212 339.755 46.7108C339.904 46.6845 340.044 46.6187 340.188 46.5684L340.172 46.5859C341.892 45.7858 343.679 46.5069 345.433 46.4342C349.735 46.2528 354.049 46.1674 358.346 46.6084C360.199 46.799 362.07 46.5683 363.909 46.5462C365.683 46.5249 367.026 46.883 368.62 47.4154C369.688 47.773 371.394 47.1278 372.832 47.2072C375.433 47.35 378.185 46.4015 380.591 48.0497C380.775 48.1763 381.162 48.2072 381.386 48.1268C385.588 46.6174 389.757 48.0022 393.935 48.226L393.904 48.2005C390.464 50.8733 386.657 51.6222 382.056 50.9455C378.05 50.3557 373.841 50.747 369.766 50.9179C366.855 51.04 363.954 50.872 361.31 50.3202C357.07 49.436 352.875 49.8957 348.677 49.675C344.996 49.4825 341.318 49.1231 337.594 49.2802C336.044 49.3458 334.498 48.8662 333.096 49.8183C333.02 49.8695 332.882 49.9459 332.833 49.9195C330.517 48.6952 327.795 50.7983 325.465 49.1282C324.012 48.0843 322.317 49.1238 320.74 49.1763C316.498 49.3171 312.316 48.8566 308.122 48.4504C308.122 48.4504 308.148 48.4723 308.147 48.4724C307.92 48.2975 307.694 48.1225 307.469 47.9475L307.49 47.9677C304.596 48.3921 301.857 47.7699 299.149 46.9723C298.173 46.6844 297.246 46.7261 296.243 46.9517C293.647 47.536 291.214 46.302 288.656 46.2688C288.499 46.2664 288.349 45.6823 288.197 45.3684L288.231 45.3947Z" fill="#7C6063"/>
<path fill-rule="evenodd" clip-rule="evenodd" d="M1236.57 23.4281L1236.68 23.2841L1236.5 23.2568L1236.57 23.4281ZM1253.39 24.8223C1253.47 24.7075 1253.54 24.5927 1253.62 24.4789C1253.47 24.4195 1253.3 24.295 1253.18 24.3203C1253.07 24.3417 1253.01 24.5402 1252.93 24.6589C1253.08 24.7134 1253.23 24.7679 1253.39 24.8223ZM1172.15 19.2053C1172.31 19.1518 1172.56 19.1372 1172.61 19.0389C1172.75 18.7616 1172.54 18.5797 1172.25 18.5291C1172.11 18.5038 1171.84 18.5758 1171.79 18.6673C1171.66 18.9397 1171.88 19.1041 1172.15 19.2053ZM1227.68 20.4371C1228.09 20.4517 1228.61 20.9723 1229.06 20.2503C1228.59 20.0168 1228.17 19.9039 1227.68 20.4371ZM1225.67 19.901C1225.58 19.3649 1225.53 18.894 1224.78 18.8015C1224.69 18.7908 1224.46 19.035 1224.49 19.1216C1224.61 19.5624 1224.85 19.9302 1225.67 19.901ZM1233.78 20.3437C1232.84 19.6393 1231.95 19.5673 1230.46 19.8164C1231.8 20.2766 1232.57 20.9255 1233.78 20.3437ZM1166.68 17.7167C1166.79 18.7704 1166.97 19.4875 1168.11 19.8728C1168.56 18.6352 1167.78 18.2382 1166.68 17.7167ZM1216.66 19.648C1216.73 19.5858 1216.82 19.5322 1216.87 19.4593C1216.9 19.4058 1216.89 19.3269 1216.89 19.2598C1216.83 19.395 1216.76 19.5313 1216.69 19.6675C1215.81 19.7492 1215.03 19.9234 1215.12 20.9703C1216.56 21.2914 1216.42 20.299 1216.66 19.648ZM1239.25 20.6823C1239.6 20.7008 1240.04 20.91 1240.2 20.44C1240.24 20.3398 1240.06 20.0703 1239.96 20.0586C1239.42 19.9964 1239.39 20.3972 1239.28 20.7173C1238.77 20.621 1238.34 20.0148 1237.72 20.5305C1238.08 20.9761 1238 21.8402 1238.97 21.6232C1239.14 21.5852 1239.16 21.0102 1239.25 20.6823ZM1255.31 24.4078L1255.41 24.3543L1255.34 24.439L1255.25 24.4993L1255.31 24.4078ZM1197.65 22.313C1195.48 22.7606 1193.51 24.185 1191.09 23.3415L1191.11 23.3648C1191.41 22.8083 1191.41 22.3315 1190.63 22.1252C1190.01 21.9618 1189.69 22.2887 1189.63 22.7723C1189.52 23.6275 1189.26 24.329 1188.13 24.4117L1188.15 24.4419C1188.2 24.0955 1188.43 23.6061 1188.26 23.4251C1186.16 21.2204 1182.65 19.9526 1180.34 20.7514C1177.74 21.6456 1177.07 20.3671 1175.74 19.5828C1174.49 20.08 1176.2 20.8876 1175.11 21.5054C1174.1 21.8265 1173.29 20.3992 1172.06 20.7232C1171.86 20.5432 1171.65 20.3632 1171.45 20.1832C1171.11 19.613 1170.73 19.0701 1169.86 19.4077C1169.58 19.5157 1169.43 19.8212 1169.63 20.0713C1170.19 20.7436 1170.84 20.4128 1171.48 20.1588C1171.68 20.3398 1171.88 20.5208 1172.08 20.7018C1171.74 21.0102 1171.32 21.628 1171.06 21.5794C1168.96 21.1931 1166.94 20.4741 1164.76 21.451C1164.35 21.6339 1163.84 20.8837 1163.82 20.3116C1163.77 19.0613 1165.27 20.2445 1165.64 19.1674C1163.49 18.7305 1161.92 17.0755 1159.22 17.6135C1157.17 18.0222 1155.03 17.165 1152.93 16.8604C1149.86 16.4148 1146.78 15.2375 1143.38 16.7991C1141.75 17.5435 1139 18.1049 1136.97 16.479C1136.77 16.3 1136.57 16.12 1136.37 15.941C1136.04 15.5839 1135.65 15.4107 1135.17 15.6948C1135.09 15.7444 1135.06 16.0402 1135.13 16.0898C1135.6 16.4333 1135.97 16.0383 1136.39 15.9235C1136.59 16.1015 1136.79 16.2796 1136.99 16.4576C1135.53 17.595 1134.02 18.462 1132.2 16.985L1132.23 17.0122C1130.99 16.0947 1131.56 14.9145 1131.64 13.8053L1131.61 13.8286C1133.12 13.2974 1134.61 12.8391 1135.8 14.3472L1135.78 14.3326C1138.76 13.4521 1141.66 13.9989 1144.68 14.3229C1147.49 14.6245 1150.2 15.437 1153.05 15.4233L1153.01 15.3932C1153.62 15.9916 1154.23 16.7622 1154.84 15.3951L1154.81 15.4204C1159.29 15.9731 1163.78 15.6267 1168.34 16.6483C1173.68 17.8422 1179.25 18.9446 1184.93 18.4999C1185.89 18.424 1186.86 18.2615 1187.56 19.2326C1188.11 19.9808 1189.09 19.8767 1189.97 19.6743C1193.26 18.9144 1193.26 18.9086 1195.83 21.0793C1196.55 19.1051 1198.1 19.0292 1200.06 19.3698C1201.37 19.5955 1202.79 19.2588 1204.16 19.1615C1205.85 19.0428 1207.45 19.1197 1209.11 19.6237C1210.74 20.117 1212.57 20.2629 1214.04 18.9455C1214.37 18.6468 1214.86 18.3919 1215.32 18.315C1217.56 17.9395 1219.7 17.4082 1221.88 16.7213C1224.04 16.0373 1226.88 16.4372 1229.44 16.7729C1234.26 17.4024 1239.08 18.0796 1243.75 19.2112C1246.43 19.8592 1249.69 19.4505 1251.78 22.0056C1252.1 20.3077 1253.32 20.0294 1254.81 20.3894C1255.68 20.5996 1256.53 20.8915 1255.91 22.063C1255.56 22.7382 1255.73 22.8083 1257.12 22.818C1257.33 23.0184 1257.38 23.4183 1257.87 23.3094C1257.82 22.8579 1257.36 22.9746 1257.09 22.8413C1257.94 21.5142 1258.88 20.9791 1260.69 21.8304C1261.91 22.4074 1263.61 21.9968 1264.86 22.8452L1264.83 22.8073C1265 23.3191 1265.04 23.7686 1264.26 23.8766L1264.29 23.9019C1264.07 23.9009 1263.84 23.9009 1263.62 23.8999L1263.65 23.8786C1258.82 23.3784 1255.14 26.3704 1250.79 27.571C1250.67 26.4813 1251.71 26.7255 1251.95 26.0288C1251.15 25.6591 1250.17 25.3555 1250.81 24.0615C1251.24 23.1994 1250.62 22.0133 1249.29 22.8102C1247.49 23.8834 1245.67 23.0321 1243.89 23.3055C1243.04 23.4358 1242.15 22.4697 1241.44 24.0255C1241.02 24.9479 1239.65 23.6655 1238.3 22.8686C1239.11 24.7221 1238.01 25.0802 1236.81 25.1979C1236.16 25.2621 1234.84 26.0561 1235.11 24.4069C1235.18 24.4633 1235.23 24.5324 1235.31 24.5723C1235.36 24.6025 1235.44 24.5956 1235.51 24.6044C1235.37 24.5489 1235.23 24.4935 1235.08 24.438C1235.01 22.9124 1233.24 21.9122 1231.12 22.4891C1228.71 23.1488 1226.29 22.4317 1223.82 22.7888C1221.96 23.0583 1223.09 21.1756 1223.23 20.1909L1223.36 20.0499L1223.2 20.1579C1222.56 19.938 1221.94 19.6111 1220.9 19.8747C1222.03 21.5366 1221.95 22.9844 1219.65 23.7443C1219.38 23.8338 1218.9 24.078 1218.9 24.0722C1217.34 21.4548 1213.69 23.6995 1211.87 21.6679C1211.32 21.0511 1210.96 21.3342 1210.11 21.7059C1208.75 22.3062 1206.85 22.1359 1205.22 21.9812C1203.6 21.8275 1202.2 22.1252 1200.74 22.6477C1199.68 23.0301 1198.48 23.539 1197.62 22.278C1197.75 22.1885 1198.14 22.4366 1198.03 22.0299C1197.9 22.1243 1197.77 22.2186 1197.65 22.313Z" fill="#7C6063"/>
<path fill-rule="evenodd" clip-rule="evenodd" d="M1288.65 30.2638C1285.26 28.6896 1281.45 28.3568 1277.83 28.2692C1274.84 28.1963 1271.64 27.6417 1268.67 28.7947C1268.07 29.0252 1267.54 28.8316 1267.08 28.4045C1266.21 27.594 1265.5 28.0766 1264.83 28.6691L1264.85 28.6506C1262.65 28.6458 1260.59 29.9661 1258.31 29.1965L1258.33 29.2267C1258.79 26.4323 1260.03 25.2092 1262.97 25.757C1264.88 26.1112 1265.61 25.398 1266.59 24.4766C1266.83 24.5398 1267.08 24.6089 1267.33 24.6575C1267.35 24.6614 1267.41 24.5262 1267.45 24.4552C1267.19 24.4182 1266.94 24.3812 1266.69 24.3433C1266.43 23.4793 1265.77 23.0112 1264.83 22.8069L1264.86 22.8458C1266.17 21.2891 1267.27 22.4002 1268.17 23.1981C1268.75 23.7225 1268.96 24.5865 1269.44 25.4797C1272.54 24.4727 1275.9 24.7529 1278.89 25.1761C1281.69 25.5702 1284.57 26.4293 1287.44 26.7193C1290.66 27.0481 1293.48 28.7625 1296.92 28.4492C1298.75 28.2829 1301.24 28.2887 1301.82 30.8253C1301.88 31.0743 1302.54 31.4742 1302.71 31.4042C1304.86 30.512 1307.56 32.1631 1309.47 30.2493L1309.45 30.2677C1312.58 30.041 1315.71 29.6966 1318.66 31.123C1320.56 32.0425 1322.51 32.8909 1324.78 32.8063C1325.06 32.7956 1325.46 32.8617 1325.62 33.031C1327.61 35.154 1330.39 34.3183 1332.87 34.6345C1334.54 34.8485 1336.16 35.2621 1337.4 36.4112C1337.91 36.8792 1338.37 37.3802 1337.79 38.0175C1337.32 38.5381 1336.59 38.8426 1335.95 38.4262C1334.25 37.3219 1331.94 37.4989 1330.34 36.2175C1329.88 35.8449 1329.35 35.6814 1328.73 35.6649C1325.79 35.589 1325.18 35.4226 1322.43 34.0108C1321.96 36.2039 1320.49 35.6902 1318.97 35.0188L1319 35.047C1318.44 34.0925 1317.25 33.4046 1317.98 32.0191C1316.38 32.3441 1316.44 33.2888 1316.06 34.183C1312.14 32.4151 1308.01 33.21 1304.01 32.8033C1303.14 32.7148 1302.05 32.961 1301.46 32.3927C1298.78 29.7997 1295.45 30.5626 1292.21 30.7795L1292.06 30.6676L1292.2 30.7893C1290.24 31.0987 1290.15 29.3852 1289.29 28.5018C1288.69 29.0466 1289.29 29.8241 1288.62 30.2337L1288.65 30.2638Z" fill="#7C6063"/>
<path fill-rule="evenodd" clip-rule="evenodd" d="M1080 12.1737C1080.22 12.053 1080.41 12.0044 1080.48 11.8935C1080.63 11.6668 1080.62 11.4079 1080.27 11.3428C1080.13 11.3175 1079.82 11.4517 1079.82 11.5111C1079.83 11.7242 1079.93 11.9363 1080 12.1737ZM1076.91 11.7008L1076.33 10.6189L1076.3 10.6451C1078.26 9.8502 1080.38 10.3863 1082.41 10.0351C1083.94 9.76847 1083.83 11.5656 1084.95 11.8915C1085.55 11.4498 1084.82 10.8835 1085.21 10.4116C1085.53 10.0244 1085.86 9.73733 1086.41 9.8249C1086.86 9.89885 1086.94 10.1684 1086.94 10.5975C1086.93 12.0229 1087.95 11.8798 1088.85 11.369C1091.22 10.0253 1092.8 10.0555 1095.36 11.6668C1095.54 11.8623 1095.17 12.2836 1095.7 12.3323C1095.58 12.1172 1095.46 11.9022 1095.34 11.6872C1095.93 10.7745 1096.72 10.5955 1097.73 11.1491L1097.7 11.1686C1098.58 10.6043 1099.09 11.0421 1099.52 11.6969L1099.5 11.6745C1103.71 10.4398 1107.99 11.5189 1112.24 11.4673C1112.95 11.4585 1113.68 12.3079 1114.39 12.7604L1114.36 12.7215C1114.36 12.9161 1114.36 13.1107 1114.36 13.3062L1114.37 13.2819C1111.99 13.1642 1109.61 12.92 1107.23 13.2897C1107.16 12.9102 1107.36 12.4374 1106.77 12.2194C1106.54 12.7263 1106.81 13.0309 1107.25 13.277C1107.23 13.4493 1107.22 13.6224 1107.21 13.7947C1103.77 12.956 1100.4 14.5857 1096.93 14.0136C1096.21 13.8949 1097 14.5711 1097.11 14.8795L1097.13 14.8601C1096.58 15.0537 1095.86 15.3689 1095.44 15.042C1093.41 13.4502 1090.9 14.4748 1088.66 14.0671C1086.83 13.7373 1084.72 14.4086 1082.74 14.5867C1080.95 14.7482 1079.51 14.2928 1077.94 14.0116C1076.35 13.7266 1076.98 12.5483 1076.88 11.6736C1076.98 11.5656 1077.36 11.7631 1077.24 11.4118C1077.13 11.5082 1077.02 11.6045 1076.91 11.7008Z" fill="#7C6063"/>
<path fill-rule="evenodd" clip-rule="evenodd" d="M1278.53 31.3086C1278.93 31.9887 1279.44 32.3283 1280.38 31.906C1279.89 31.0284 1279.13 31.3923 1278.52 31.3212L1278.42 31.2239L1278.53 31.3086ZM1271.4 36.0811C1269.84 37.3722 1267.9 37.1436 1266.02 37.127L1266.05 37.1494C1266.39 35.4214 1268.25 34.8794 1269.54 34.7325C1272.27 34.4192 1274.74 33.6914 1277.12 32.2728C1275 32.0179 1272.88 31.6832 1270.74 32.5744C1268.31 33.5805 1265.8 34.2888 1263.06 33.9561L1263.08 33.995C1262.99 33.4112 1262.21 33.0045 1262.61 32.1298C1265.52 32.4577 1267.96 31.4468 1270.6 30.2198C1273.12 29.0552 1276.39 29.8384 1279.32 30.0525C1280.29 30.1235 1281.23 30.5 1282.22 30.1001C1282.81 29.8608 1283.37 29.8413 1283.75 30.4251C1284.1 30.9612 1283.91 31.4808 1283.52 31.8934C1282.65 32.8177 1282.2 34.391 1280.15 33.5844C1279.69 33.3995 1278.83 33.4482 1278.45 33.7196C1276.37 35.2122 1273.79 35.434 1271.38 36.0986L1271.3 36.0023L1271.4 36.0811Z" fill="#7C6063"/>
<path fill-rule="evenodd" clip-rule="evenodd" d="M1114.39 12.7607C1114.43 12.3335 1114.37 11.6009 1114.81 11.6155C1116.55 11.6719 1118.49 11.0249 1120.23 12.7062C1118.71 13.0419 1117.15 12.749 1116.17 13.8018L1116.18 13.8203L1115.54 13.8203L1115.56 13.8027C1115.16 13.6296 1114.77 13.4554 1114.37 13.2822L1114.36 13.3065C1114.57 13.11 1114.54 12.9154 1114.36 12.7218L1114.39 12.7607Z" fill="#7C6063"/>
<path fill-rule="evenodd" clip-rule="evenodd" d="M1128.09 14.1045C1127.01 14.6279 1125.86 14.877 1124.47 14.6425C1124.38 13.3261 1125.22 12.7861 1126.35 12.6401C1127.34 12.5117 1128.06 12.933 1128.09 14.1045Z" fill="#7C6063"/>
<path fill-rule="evenodd" clip-rule="evenodd" d="M1153.06 22.8473C1152.82 22.138 1152.57 21.4297 1152.27 20.5375C1153.54 20.625 1154.57 20.9208 1155.73 21.419C1155.12 22.5438 1153.74 22.1935 1153.04 22.8259L1153.06 22.8473Z" fill="#7C6063"/>
<path fill-rule="evenodd" clip-rule="evenodd" d="M1122.68 18.024C1121.32 20.1724 1119 18.1194 1117.38 19.143C1118.93 17.7292 1120.94 18.4697 1122.7 18.063L1122.68 18.024Z" fill="#7C6063"/>
<path fill-rule="evenodd" clip-rule="evenodd" d="M1160.76 21.23C1160.1 21.3983 1159.6 22.3109 1158.79 21.7116C1158.38 21.408 1158.65 20.9108 1159.06 20.6384C1159.97 20.0459 1160.42 20.5197 1160.74 21.2514L1160.76 21.23Z" fill="#7C6063"/>
<path fill-rule="evenodd" clip-rule="evenodd" d="M1146.38 18.8882C1145.29 19.5956 1144.53 19.832 1143.56 19.0225C1144.43 18.4902 1145.24 18.6284 1146.38 18.8882Z" fill="#7C6063"/>
<path fill-rule="evenodd" clip-rule="evenodd" d="M1130.98 17.7258C1131.05 18.153 1130.81 18.3748 1130.36 18.3456C1129.87 18.3135 1129.4 18.1491 1129.31 17.6558C1129.27 17.3833 1129.54 17.1985 1129.86 17.1693C1130.37 17.1196 1130.81 17.2208 1130.98 17.7258Z" fill="#7C6063"/>
<path fill-rule="evenodd" clip-rule="evenodd" d="M1122.03 13.7465C1121.62 13.6317 1121.35 13.3739 1121.29 13.0168C1121.21 12.5838 1121.51 12.3766 1121.97 12.4749C1122.4 12.5683 1122.58 12.8845 1122.57 13.2659C1122.55 13.5519 1122.41 13.7689 1122.03 13.7465Z" fill="#7C6063"/>
<path fill-rule="evenodd" clip-rule="evenodd" d="M1119.16 16.4784C1119.7 16.1641 1120.25 15.9423 1120.99 16.3149C1120.32 16.887 1119.7 16.3023 1119.14 16.457L1119.16 16.4784Z" fill="#7C6063"/>
<path fill-rule="evenodd" clip-rule="evenodd" d="M1126.84 18.0264C1126.67 18.3942 1126.61 18.8544 1125.99 18.8398C1125.93 18.8388 1125.81 18.7289 1125.81 18.6841C1125.91 18.1529 1126.43 18.1645 1126.86 18.0536L1126.84 18.0264Z" fill="#7C6063"/>
<path fill-rule="evenodd" clip-rule="evenodd" d="M1131.64 13.8058L1131.62 13.8274L1131.64 13.8058Z" fill="#7C6063"/>
<path fill-rule="evenodd" clip-rule="evenodd" d="M1120.34 14.3368L1120.32 14.3566L1120.34 14.3368Z" fill="#7C6063"/>
<path fill-rule="evenodd" clip-rule="evenodd" d="M711.519 17.1535L711.403 17.0095L711.583 16.9823L711.519 17.1535ZM694.699 18.5478C694.622 18.433 694.545 18.3182 694.467 18.2043C694.617 18.145 694.782 18.0205 694.91 18.0457C695.017 18.0672 695.079 18.2656 695.161 18.3843C695.008 18.4388 694.854 18.4933 694.699 18.5478ZM775.938 12.9308C775.78 12.8773 775.532 12.8627 775.48 12.7644C775.332 12.4871 775.55 12.3052 775.833 12.2546C775.977 12.2293 776.252 12.3013 776.294 12.3927C776.423 12.6652 776.209 12.8296 775.938 12.9308ZM720.402 14.1626C719.993 14.1772 719.475 14.6977 719.029 13.9758C719.498 13.7423 719.915 13.6294 720.402 14.1626ZM722.416 13.6265C722.51 13.0903 722.558 12.6194 723.307 12.527C723.392 12.5163 723.624 12.7605 723.601 12.8471C723.48 13.2879 723.24 13.6556 722.416 13.6265ZM714.311 14.0692C715.247 13.3647 716.139 13.2927 717.623 13.5418C716.288 14.002 715.517 14.651 714.311 14.0692ZM781.41 11.4421C781.299 12.4959 781.12 13.2129 779.973 13.5982C779.531 12.3606 780.309 11.9636 781.41 11.4421ZM731.424 13.3735C731.354 13.3112 731.269 13.2577 731.221 13.1847C731.186 13.1312 731.2 13.0524 731.192 12.9853C731.26 13.1205 731.329 13.2567 731.396 13.393C732.274 13.4747 733.052 13.6489 732.968 14.6958C731.529 15.0169 731.669 14.0244 731.424 13.3735ZM708.838 14.4078C708.484 14.4263 708.051 14.6354 707.885 14.1655C707.85 14.0653 708.026 13.7958 708.131 13.7841C708.664 13.7218 708.699 14.1227 708.805 14.4428C709.315 14.3465 709.752 13.7403 710.371 14.256C710.011 14.7016 710.087 15.5656 709.116 15.3486C708.945 15.3107 708.927 14.7357 708.838 14.4078ZM692.779 18.1333L692.677 18.0798L692.746 18.1644L692.839 18.2248L692.779 18.1333ZM750.44 16.0385C752.606 16.4861 754.579 17.9105 756.999 17.0669L756.972 17.0903C756.672 16.5337 756.678 16.057 757.455 15.8507C758.072 15.6872 758.399 16.0142 758.46 16.4977C758.568 17.353 758.823 18.0545 759.961 18.1372L759.935 18.1674C759.888 17.821 759.653 17.3316 759.825 17.1506C761.927 14.9458 765.436 13.678 767.752 14.4769C770.348 15.371 771.019 14.0925 772.345 13.3083C773.594 13.8055 771.888 14.6131 772.981 15.2309C773.987 15.552 774.792 14.1246 776.027 14.4486C776.23 14.2686 776.433 14.0886 776.636 13.9086C776.976 13.3385 777.358 12.7955 778.226 13.1332C778.504 13.2412 778.661 13.5467 778.453 13.7967C777.897 14.4691 777.242 14.1382 776.609 13.8843C776.407 14.0653 776.205 14.2463 776.003 14.4272C776.349 14.7357 776.766 15.3535 777.029 15.3049C779.123 14.9186 781.147 14.1995 783.325 15.1764C783.734 15.3593 784.246 14.6092 784.268 14.0371C784.313 12.7868 782.817 13.9699 782.444 12.8928C784.595 12.456 786.163 10.8009 788.864 11.339C790.914 11.7476 793.062 10.8904 795.154 10.5859C798.225 10.1403 801.303 8.96297 804.71 10.5246C806.335 11.2689 809.087 11.8303 811.118 10.2045C811.318 10.0255 811.519 9.84546 811.718 9.66643C812.048 9.30935 812.441 9.13615 812.917 9.42026C813 9.46988 813.029 9.76568 812.961 9.8153C812.492 10.1588 812.114 9.76373 811.7 9.64891C811.498 9.82697 811.296 10.005 811.094 10.1831C812.56 11.3205 814.064 12.1874 815.891 10.7104L815.86 10.7377C817.095 9.82016 816.522 8.63993 816.446 7.53073L816.472 7.55409C814.969 7.02284 813.476 6.56457 812.291 8.07269L812.305 8.0581C809.329 7.17755 806.424 7.72437 803.404 8.04837C800.601 8.35 797.883 9.16243 795.042 9.14881L795.074 9.11864C794.468 9.71702 793.86 10.4876 793.249 9.12059L793.278 9.14589C788.795 9.69854 784.306 9.35217 779.743 10.3738C774.41 11.5676 768.834 12.67 763.16 12.2254C762.2 12.1495 761.228 11.987 760.522 12.958C759.978 13.7062 758.995 13.6021 758.118 13.3998C754.826 12.6399 754.827 12.634 752.258 14.8048C751.536 12.8306 749.992 12.7547 748.023 13.0952C746.721 13.321 745.295 12.9843 743.926 12.887C742.242 12.7683 740.639 12.8452 738.973 13.3492C737.343 13.8425 735.514 13.9884 734.045 12.671C733.713 12.3723 733.226 12.1174 732.769 12.0405C730.527 11.6649 728.386 11.1337 726.211 10.4468C724.046 9.76276 721.209 10.1627 718.647 10.4983C713.832 11.1278 709.01 11.805 704.338 12.9366C701.659 13.5846 698.394 13.176 696.304 15.731C695.982 14.0332 694.766 13.7549 693.28 14.1149C692.412 14.3251 691.561 14.617 692.173 15.7884C692.524 16.4637 692.355 16.5337 690.971 16.5435C690.755 16.7439 690.703 17.1438 690.221 17.0348C690.263 16.5834 690.723 16.7001 690.995 16.5668C690.147 15.2397 689.208 14.7045 687.398 15.5559C686.174 16.1329 684.478 15.7223 683.225 16.5707L683.261 16.5328C683.082 17.0445 683.051 17.4941 683.827 17.6021L683.801 17.6274C684.022 17.6264 684.243 17.6264 684.465 17.6254L684.441 17.604C689.267 17.1039 692.95 20.0958 697.299 21.2965C697.418 20.2067 696.378 20.451 696.135 19.7543C696.935 19.3846 697.915 19.081 697.275 17.7869C696.849 16.9249 697.463 15.7388 698.797 16.5357C700.596 17.6089 702.418 16.7575 704.196 17.0309C705.044 17.1613 705.934 16.1951 706.644 17.7509C707.065 18.6733 708.441 17.3909 709.783 16.5941C708.979 18.4476 710.079 18.8056 711.281 18.9234C711.931 18.9876 713.246 19.7815 712.975 18.1323C712.911 18.1888 712.855 18.2579 712.78 18.2978C712.724 18.3279 712.645 18.3211 712.576 18.3298C712.719 18.2744 712.862 18.2189 713.005 18.1635C713.078 16.6378 714.843 15.6376 716.963 16.2146C719.381 16.8743 721.8 16.1572 724.269 16.5143C726.127 16.7838 724.995 14.9011 724.853 13.9164L724.729 13.7753L724.889 13.8833C725.53 13.6634 726.148 13.3365 727.189 13.6002C726.057 15.262 726.139 16.7098 728.438 17.4697C728.708 17.5593 729.185 17.8035 729.188 17.7976C730.747 15.1803 734.393 17.425 736.213 15.3934C736.766 14.7765 737.129 15.0597 737.972 15.4313C739.333 16.0317 741.234 15.8614 742.869 15.7067C744.487 15.553 745.891 15.8507 747.343 16.3732C748.407 16.7556 749.603 17.2644 750.472 16.0035C750.341 15.9139 749.951 16.1621 750.062 15.7553C750.188 15.8497 750.315 15.9441 750.44 16.0385Z" fill="#7C6063"/>
<path fill-rule="evenodd" clip-rule="evenodd" d="M659.432 23.9888C662.823 22.4145 666.633 22.0818 670.253 21.9942C673.243 21.9212 676.442 21.3666 679.418 22.5196C680.014 22.7502 680.551 22.5566 681.008 22.1295C681.875 21.319 682.582 21.8016 683.258 22.3941L683.237 22.3756C685.436 22.3708 687.498 23.6911 689.778 22.9215L689.759 22.9516C689.295 20.1572 688.057 18.9342 685.114 19.482C683.209 19.8361 682.477 19.1229 681.499 18.2015C681.252 18.2648 681.008 18.3339 680.757 18.3825C680.735 18.3864 680.681 18.2512 680.64 18.1801C680.893 18.1432 681.146 18.1062 681.4 18.0682C681.655 17.2042 682.321 16.7362 683.262 16.5319L683.226 16.5708C681.912 15.0141 680.818 16.1252 679.921 16.923C679.332 17.4475 679.125 18.3115 678.649 19.2047C675.546 18.1976 672.184 18.4779 669.196 18.9011C666.402 19.2952 663.512 20.1543 660.652 20.4442C657.424 20.7731 654.611 22.4875 651.167 22.1742C649.34 22.0078 646.846 22.0137 646.264 24.5502C646.207 24.7993 645.55 25.1992 645.38 25.1292C643.227 24.2369 640.53 25.8881 638.62 23.9742L638.642 23.9927C635.512 23.766 632.381 23.4216 629.428 24.848C627.524 25.7674 625.576 26.6159 623.308 26.5312C623.028 26.5205 622.629 26.5867 622.471 26.756C620.48 28.879 617.702 28.0432 615.221 28.3595C613.551 28.5735 611.924 28.987 610.685 30.1361C610.181 30.6041 609.712 31.1052 610.292 31.7425C610.765 32.2631 611.495 32.5676 612.137 32.1512C613.838 31.0468 616.15 31.2239 617.742 29.9425C618.204 29.5698 618.734 29.4064 619.361 29.3898C622.299 29.3139 622.903 29.1476 625.658 27.7358C626.13 29.9289 627.595 29.4151 629.117 28.7438L629.092 28.772C629.65 27.8175 630.842 27.1296 630.104 25.7441C631.708 26.0691 631.645 27.0138 632.03 27.908C635.945 26.1401 640.081 26.935 644.074 26.5283C644.949 26.4398 646.039 26.6859 646.626 26.1177C649.303 23.5247 652.635 24.2875 655.879 24.5045L656.03 24.3926L655.889 24.5142C657.847 24.8236 657.932 23.1102 658.799 22.2268C659.398 22.7716 658.798 23.549 659.469 23.9587L659.432 23.9888Z" fill="#7C6063"/>
<path fill-rule="evenodd" clip-rule="evenodd" d="M868.088 5.8989C867.87 5.77825 867.676 5.72961 867.604 5.61869C867.456 5.39198 867.465 5.13316 867.817 5.06797C867.955 5.04267 868.263 5.17695 868.262 5.2363C868.26 5.44938 868.159 5.66149 868.088 5.8989ZM871.179 5.42604L871.759 4.34408L871.788 4.37035C869.83 3.57542 867.704 4.11154 865.68 3.76029C864.147 3.49369 864.261 5.29079 863.133 5.61674C862.536 5.17501 863.27 4.60872 862.88 4.13683C862.559 3.74958 862.232 3.46255 861.681 3.55012C861.224 3.62407 861.143 3.89359 861.145 4.32268C861.154 5.74809 860.136 5.60506 859.237 5.09425C856.871 3.75056 855.286 3.78072 852.723 5.39198C852.542 5.58755 852.919 6.00884 852.382 6.05749C852.504 5.84246 852.626 5.62744 852.749 5.41241C852.161 4.49975 851.365 4.32073 850.362 4.87436L850.384 4.89381C849.506 4.32948 848.996 4.76732 848.564 5.42213L848.588 5.39976C844.373 4.16505 840.094 5.24409 835.848 5.19252C835.137 5.18376 834.412 6.03317 833.693 6.48561L833.728 6.44669C833.725 6.64129 833.724 6.83588 833.723 7.03145L833.712 7.00713C836.094 6.8894 838.476 6.64518 840.858 7.01491C840.928 6.63545 840.726 6.16258 841.321 5.94463C841.546 6.45155 841.272 6.7561 840.84 7.00226C840.853 7.17448 840.867 7.34767 840.881 7.51989C844.316 6.68118 847.689 8.31093 851.161 7.73881C851.88 7.62011 851.085 8.29633 850.976 8.60476L850.954 8.5853C851.507 8.77892 852.224 9.09417 852.643 8.76725C854.676 7.17545 857.184 8.2 859.431 7.79232C861.257 7.46248 863.368 8.13383 865.348 8.31189C867.139 8.4734 868.572 8.01806 870.143 7.73687C871.738 7.45178 871.107 6.2735 871.207 5.39879C871.106 5.29079 870.724 5.4883 870.846 5.13705C870.957 5.23338 871.068 5.32971 871.179 5.42604Z" fill="#7C6063"/>
<path fill-rule="evenodd" clip-rule="evenodd" d="M669.553 25.0337C669.158 25.7138 668.644 26.0534 667.708 25.6311C668.198 24.7535 668.956 25.1174 669.568 25.0463L669.671 24.949L669.553 25.0337ZM676.687 29.8062C678.249 31.0973 680.185 30.8687 682.066 30.8521L682.039 30.8745C681.692 29.1465 679.839 28.6045 678.549 28.4576C675.816 28.1443 673.345 27.4165 670.964 25.9979C673.087 25.743 675.203 25.4083 677.352 26.2995C679.779 27.3056 682.291 28.0139 685.029 27.6812L685.003 27.7201C685.096 27.1363 685.88 26.7296 685.478 25.8549C682.57 26.1828 680.128 25.1718 677.483 23.9449C674.967 22.7803 671.702 23.5635 668.771 23.7776C667.801 23.8486 666.854 24.2251 665.87 23.8252C665.281 23.5859 664.715 23.5664 664.337 24.1502C663.989 24.6863 664.176 25.2059 664.564 25.6184C665.436 26.5428 665.889 28.1161 667.935 27.3095C668.402 27.1246 669.256 27.1733 669.635 27.4447C671.718 28.9373 674.3 29.1591 676.708 29.8237L676.789 29.7274L676.687 29.8062Z" fill="#7C6063"/>
<path fill-rule="evenodd" clip-rule="evenodd" d="M833.693 6.48591C833.66 6.05877 833.719 5.32611 833.278 5.34071C831.536 5.39714 829.594 4.75011 827.856 6.43142C829.375 6.7671 830.939 6.47422 831.921 7.52699L831.904 7.54549L832.548 7.54549L832.53 7.52797C832.924 7.35478 833.318 7.18061 833.713 7.00742L833.724 7.03175C833.521 6.83521 833.544 6.6406 833.728 6.44698L833.693 6.48591Z" fill="#7C6063"/>
<path fill-rule="evenodd" clip-rule="evenodd" d="M820 7.82943C821.079 8.35289 822.229 8.60197 823.612 8.36748C823.703 7.05104 822.868 6.51104 821.737 6.36509C820.742 6.23666 820.028 6.65796 820 7.82943Z" fill="#7C6063"/>
<path fill-rule="evenodd" clip-rule="evenodd" d="M795.028 16.5724C795.271 15.8631 795.515 15.1548 795.821 14.2626C794.549 14.3501 793.521 14.6459 792.362 15.1441C792.97 16.2689 794.346 15.9186 795.048 16.551L795.028 16.5724Z" fill="#7C6063"/>
<path fill-rule="evenodd" clip-rule="evenodd" d="M825.411 11.7491C826.768 13.8975 829.088 11.8445 830.703 12.8681C829.162 11.4543 827.148 12.1948 825.385 11.7881L825.411 11.7491Z" fill="#7C6063"/>
<path fill-rule="evenodd" clip-rule="evenodd" d="M787.324 14.9552C787.99 15.1235 788.492 16.0362 789.297 15.4368C789.705 15.1332 789.441 14.636 789.026 14.3636C788.121 13.7711 787.665 14.2449 787.346 14.9766L787.324 14.9552Z" fill="#7C6063"/>
<path fill-rule="evenodd" clip-rule="evenodd" d="M801.708 12.6134C802.794 13.3208 803.553 13.5572 804.523 12.7477C803.656 12.2155 802.85 12.3536 801.708 12.6134Z" fill="#7C6063"/>
<path fill-rule="evenodd" clip-rule="evenodd" d="M817.104 11.451C817.034 11.8782 817.277 12.1 817.725 12.0708C818.213 12.0387 818.689 11.8743 818.773 11.381C818.82 11.1085 818.546 10.9237 818.229 10.8945C817.717 10.8449 817.28 10.9461 817.104 11.451Z" fill="#7C6063"/>
<path fill-rule="evenodd" clip-rule="evenodd" d="M826.058 7.47175C826.465 7.35694 826.739 7.0991 826.8 6.74202C826.874 6.30904 826.574 6.1018 826.116 6.20008C825.689 6.29348 825.504 6.6097 825.52 6.99111C825.534 7.27717 825.673 7.49413 826.058 7.47175Z" fill="#7C6063"/>
<path fill-rule="evenodd" clip-rule="evenodd" d="M828.93 10.2036C828.386 9.88932 827.835 9.66748 827.095 10.0401C827.768 10.6122 828.385 10.0275 828.952 10.1822L828.93 10.2036Z" fill="#7C6063"/>
<path fill-rule="evenodd" clip-rule="evenodd" d="M821.25 11.7516C821.416 12.1194 821.476 12.5796 822.093 12.565C822.157 12.564 822.28 12.4541 822.272 12.4093C822.176 11.8781 821.653 11.8898 821.228 11.7788L821.25 11.7516Z" fill="#7C6063"/>
<path fill-rule="evenodd" clip-rule="evenodd" d="M816.446 7.53101L816.472 7.55265L816.446 7.53101Z" fill="#7C6063"/>
<path fill-rule="evenodd" clip-rule="evenodd" d="M827.749 8.06189L827.771 8.08166L827.749 8.06189Z" fill="#7C6063"/>
<path fill-rule="evenodd" clip-rule="evenodd" d="M965.747 4.42689C965.81 4.5563 965.837 4.73824 965.948 4.79954C966.043 4.85208 966.234 4.7684 966.383 4.74505C966.321 4.6137 966.296 4.42982 966.185 4.36755C966.09 4.31403 965.897 4.40062 965.747 4.42689ZM889.105 2.02168C888.985 1.90492 888.88 1.70935 888.74 1.68794C888.403 1.6354 888.169 1.79594 888.308 2.11995C888.356 2.23281 888.615 2.33791 888.769 2.32915C888.888 2.32137 888.994 2.13163 889.105 2.02168ZM952.736 4.08926C952.931 4.28386 953.136 4.46971 953.458 4.32084C953.504 4.29943 953.494 4.17781 953.509 4.10289C953.242 4.10678 952.974 4.11067 952.706 4.11456L952.736 4.08926ZM944.413 3.5551L944.475 3.6524L944.383 3.58331L944.308 3.5045L944.413 3.5551ZM1006.25 13.101C1003.45 13.1886 1001.03 11.806 998.315 11.4139C996.223 11.1113 993.933 11.518 991.982 10.4535L991.96 10.4827C992.163 10.2872 992.141 10.0935 991.955 9.90089L992.002 9.94563C991.864 9.80747 991.702 9.77829 991.518 9.85905C991.435 9.91743 991.361 9.98262 991.297 10.0585L991.279 10.2823L991.39 10.4866L991.37 10.4565C990.785 11.3954 989.986 11.842 988.948 11.4946C987.964 10.6296 990.725 10.2161 988.99 9.41536L989.014 9.39395C988.57 10.006 987.861 9.89991 987.202 9.92326L987.229 9.94078L986.02 8.84908L986.055 8.88218C985.639 8.49493 985.223 8.4346 984.808 8.87925L984.841 8.86077C984.066 8.88898 983.262 8.58346 982.52 8.93763C978.14 11.0295 973.257 11.8089 968.648 13.2771C966.268 14.0351 963.699 14.8135 961.624 16.306L961.655 16.2807C960.185 15.8662 958.907 16.4033 957.719 17.0309C956.596 17.6234 955.567 17.3218 955.258 16.4812C954.974 15.7086 954.064 14.5906 955.721 13.8132C957.817 12.8296 959.85 11.7758 962.25 11.5053C962.252 11.6951 962.256 11.8858 962.258 12.0765C961.823 12.0988 961.274 11.8848 961.129 12.5007C961.116 12.5571 961.206 12.6778 961.275 12.6992C961.942 12.8996 962.081 12.4715 962.222 12.0512C962.222 11.876 962.221 11.7019 962.22 11.5277C963.155 11.2747 963.979 12.058 965.205 10.9653C966.522 9.79288 969.172 9.87266 971.227 9.36769C972.836 8.97266 974.352 8.39082 975.948 8.0746C976.119 7.08313 975.057 7.196 974.706 6.74064L974.727 6.76011C972.102 7.92671 969.267 8.43168 966.408 8.86271L966.426 8.88022C966.357 8.84033 966.283 8.76346 966.22 8.7693C966.071 8.78389 965.927 8.83839 965.779 8.87731L965.797 8.85979C964.788 7.77881 963.798 8.30032 962.811 8.88898C962.644 8.47059 963.057 7.77979 961.979 7.69319C961.88 8.34509 962.368 8.60293 962.839 8.86758C962.524 9.69656 961.952 9.6625 961.259 9.24801C960.366 8.71579 959.5 8.14174 958.568 7.67179C956.942 6.85351 955.399 6.29598 953.403 7.21739C951.793 7.95978 949.815 7.91406 947.951 7.79146L947.978 7.81482C947.37 6.68421 947.064 7.52875 946.654 7.96076C946.006 8.64379 945.792 9.83861 944.436 9.73742C941.344 9.50294 939.196 11.4129 936.66 12.4131C935.289 12.9551 934.007 13.5087 932.478 13.101L932.625 13.0008L932.508 13.1273C932.447 12.0891 932.772 11.2932 933.602 11.1521C936.315 10.6909 938.737 10.0322 940.362 7.69903C940.947 6.85935 942.984 7.35264 944.212 5.97198C940.627 6.43512 937.439 6.27069 934.25 6.1948L934.294 6.22204C933.849 5.05933 933.219 4.29845 931.766 5.27825C931.089 5.73457 930.286 5.64214 929.512 5.66841L929.543 5.69664C930.028 5.15566 930.303 4.22549 929.22 4.5709C925.826 5.65188 922.694 4.77522 919.529 3.98905C918.185 3.65532 917.546 4.40451 916.722 5.0097C916.15 5.42906 916.09 5.4135 915.226 4.59814C914.792 4.18754 914.349 4.23911 913.912 4.45317C912.783 5.01068 911.641 4.9309 910.474 4.60787L910.511 4.63998C910.414 3.99684 910.302 3.39651 909.272 3.67283C907.058 4.26732 904.875 4.14569 902.567 3.9151C900.817 3.74093 899.016 4.38894 897.12 3.72828C896.094 3.37023 895.553 4.18851 896.226 5.17122L896.199 5.1469C893.027 3.77597 889.865 5.7482 886.695 5.16733C886.37 4.82581 886.02 4.60688 885.574 5.01554C885.523 5.06224 885.496 5.20528 885.533 5.24128C885.981 5.67231 886.338 5.2695 886.724 5.12452C886.838 5.79102 886.454 6.09458 885.763 6.17631C885.01 6.26582 884.488 6.5976 884.305 7.28453L884.327 7.26508C883.567 7.06367 882.71 6.87005 882.562 6.07415C882.437 5.39988 883.222 5.33566 883.739 5.13912L883.706 5.16831C883.514 4.80928 883.321 4.45024 883.129 4.09121L883.142 4.10095C882.93 4.10289 882.717 4.10483 882.504 4.10775L882.526 4.08635C881.281 4.7042 880 4.89878 878.546 4.7431C876.906 4.56699 875.225 4.43467 873.62 5.15857C871.616 6.06149 870.007 5.07198 868.499 4.063C867.449 3.35953 867.761 2.41963 868.895 2.43325C871.919 2.46925 874.992 2.1034 877.963 2.90611C878.162 2.95963 878.251 3.34202 878.39 3.57164L878.365 3.54926C879.641 3.13478 878.758 1.75119 879.895 1.10707C880.66 1.21021 881.605 1.3367 882.55 1.46416L882.516 1.43399C882.642 1.56924 882.848 1.83584 882.882 1.82027C887.052 -0.206449 891.608 0.659506 896.005 0.493126C897.875 0.423072 899.745 0.520374 901.593 0.160372C902.068 0.0679383 902.785 -0.110125 903.029 0.0942007C904.867 1.64416 906.792 0.729567 908.706 0.374429C908.859 0.389023 908.912 0.757773 909.15 0.473663C908.992 0.450311 908.835 0.427933 908.678 0.404582C908.763 0.360798 908.867 0.262536 908.932 0.280049C912.358 1.18589 915.917 -0.510016 919.315 0.694534C920.674 1.17616 922.202 0.910542 923.355 0.68481C925.619 0.240158 927.482 -0.353371 929.66 1.15086C930.634 1.82513 932.414 0.955298 933.962 1.06427C936.832 1.26471 939.768 1.68212 942.793 1.3873C947.459 0.932921 952.272 0.694535 956.6 3.42472C957.927 4.26148 960.264 4.26246 962.027 4.01629C965.607 3.51521 969.055 4.06689 972.484 4.61176C975.087 5.02625 977.851 3.98224 980.256 5.24322C981.737 6.02064 983.702 5.10701 984.936 6.59178C985.559 7.34195 986.201 6.24053 987.048 6.29988C989.421 6.46723 991.576 7.34486 993.793 7.87221C995.833 8.35773 998.299 7.61827 1000.05 9.57299C1000.8 10.4117 1001.63 9.08358 1002.1 8.33146L1002.07 8.35579C1002.68 8.52023 1003.29 8.68368 1003.9 8.84714C1003.87 9.08649 1003.83 9.32585 1003.79 9.56617C1003.88 9.56228 1004.02 9.58758 1004.04 9.55158C1004.23 9.27914 1004.04 9.07093 1003.86 8.87049C1005.5 8.1106 1006.27 9.7452 1007.58 9.93493C1011.75 10.5392 1015.91 11.1774 1020.07 11.7855C1020.73 11.8809 1021.58 11.6785 1021.55 12.6418C1021.52 13.4075 1020.92 13.8113 1020.17 13.7305C1018.74 13.5758 1017.45 14.1382 1016.07 14.1723C1014.48 14.2102 1012.93 14.3163 1011.31 15.4527C1012.28 13.8502 1010.71 13.2713 1010.51 11.8177C1009.5 13.3384 1008.31 13.7325 1006.83 13.1049L1006.85 13.1224C1006.72 12.7293 1006.87 11.9801 1006.29 12.0736C1005.51 12.2 1006.19 12.7585 1006.23 13.1302L1006.25 13.101Z" fill="#7C6063"/>
<path fill-rule="evenodd" clip-rule="evenodd" d="M1050.74 13.5005C1050.78 13.5744 1050.8 13.6785 1050.87 13.7126C1050.92 13.7389 1051.03 13.6785 1051.11 13.6571C1051.07 13.5832 1051.05 13.4781 1050.98 13.445C1050.93 13.4188 1050.82 13.4791 1050.74 13.5005ZM1044.99 15.8648C1045.06 15.8444 1045.13 15.823 1045.2 15.8016C1045.15 15.6897 1045.11 15.5749 1045.04 15.4708C1045.03 15.4591 1044.9 15.5097 1044.83 15.5311C1044.88 15.643 1044.94 15.7539 1044.99 15.8648ZM1043.73 14.7187C1043.61 14.8101 1043.25 14.5785 1043.33 14.9502C1043.45 14.8636 1043.58 14.777 1043.71 14.6914C1043.84 14.6048 1044.25 14.8461 1044.1 14.4229C1043.98 14.5211 1043.85 14.6204 1043.73 14.7187ZM1038.98 14.1864L1038.83 14.2662L1038.94 14.1543L1038.98 14.1864ZM1051.47 15.7529C1049.96 16.3601 1048.69 17.7777 1046.73 16.8699C1048.36 16.8076 1048.44 15.7695 1048.45 14.6924L1048.57 14.6116L1048.48 14.7196C1048.28 14.7167 1048.08 14.7148 1047.88 14.7119C1047.44 14.4774 1047.05 14.0444 1046.43 14.4365C1046.85 14.924 1047.43 14.5805 1047.91 14.6807C1048.01 15.6284 1047.38 16.2268 1046.65 16.7833C1045.98 17.3301 1045.2 17.5393 1044.3 17.3418L1044.32 17.3613C1042.16 17.0995 1040 17.0704 1038.26 15.4328C1037.65 14.85 1037.09 15.5574 1037.75 16.3027L1037.77 16.2774C1037.24 16.4895 1036.51 16.9079 1036.15 16.434C1034.83 14.6788 1033.06 15.2343 1031.21 15.2762C1029.2 15.3219 1026.96 15.7179 1025.26 14.1679L1025.28 14.1884C1024.4 13.8186 1023.4 13.6007 1022.83 12.5314C1025.12 11.1517 1027.62 12.1422 1029.82 12.3475C1036.48 12.9702 1043.04 12.4604 1049.63 11.8406C1052.05 11.6139 1054.43 12.6287 1056.89 12.2804C1057.27 12.2259 1057.63 12.1237 1058.01 12.0439L1057.98 12.0683C1058.19 11.7073 1058.39 11.3453 1058.6 10.9844L1058.58 11.0048C1060.36 11.6791 1062.29 11.5195 1064.04 11.3006C1067.98 10.8092 1071.92 11.5244 1075.83 11.0019L1075.8 10.9775C1075.98 11.1167 1076.15 11.2548 1076.33 11.394C1076.4 11.4971 1076.46 11.6032 1076.53 11.7112C1075.46 12.9955 1073.54 12.761 1072.25 13.6484L1072.3 13.6211C1071.49 13.2592 1070.57 12.8583 1069.74 13.1745C1066.83 14.2798 1063.64 13.4382 1060.72 14.3353C1060.01 14.5552 1059.15 14.0668 1058.75 14.2448C1056.43 15.284 1053.57 14.1913 1051.43 15.7841L1051.47 15.7529Z" fill="#7C6063"/>
</svg>
