<svg width="1037" height="289" viewBox="0 0 1037 289" fill="none" xmlns="http://www.w3.org/2000/svg">
<path d="M901.445 275.036C932.978 282.493 983.649 300.75 1005.04 308.947L975.749 536.306L-208.195 263.232L-159.121 43.6493L-40.3746 62.5026L23.5485 76.7885C60.6471 88.8367 144.108 112.749 181.16 112.013C227.476 111.092 249.579 131.402 270.084 126.763C286.489 123.051 347.71 126.35 376.27 128.463L400.989 137.062C441.123 136.296 517.784 155.479 539.691 158.325C557.216 160.602 598.962 177.378 617.645 185.481C674.69 191.57 700.38 204.996 716.317 211.632C732.253 218.267 727.976 212.188 753.402 219.92C778.828 227.651 862.029 265.714 901.445 275.036Z" fill="#DEDCFF"/>
<ellipse opacity="0.05" cx="521" cy="244" rx="163" ry="26" fill="black"/>
<path fill-rule="evenodd" clip-rule="evenodd" d="M960.996 294.39C961.055 294.4 961.135 294.439 961.17 294.415C961.32 294.31 961.306 294.198 961.133 294.136C961.092 294.121 960.998 294.166 960.978 294.208C960.955 294.254 960.987 294.328 960.996 294.39ZM857.585 262.699C857.494 262.614 857.414 262.478 857.309 262.453C857.121 262.408 857.059 262.522 857.16 262.693C857.193 262.75 857.262 262.835 857.301 262.827C857.399 262.808 857.49 262.746 857.585 262.699ZM848.132 259.714C848.034 258.69 847.524 258.514 846.798 258.34C846.946 259.106 847.145 259.598 848.132 259.714ZM869.613 265.976C869.672 265.937 869.739 265.906 869.785 265.857C869.819 265.822 869.828 265.761 869.848 265.712L869.63 265.996C869.002 265.896 868.871 264.677 867.712 265.277C868.184 266.22 868.765 266.406 869.613 265.976ZM908.109 275.489C908.331 275.848 908.552 276.207 908.774 276.566C908.581 276.771 908.348 276.981 908.621 277.268C908.686 277.335 908.863 277.295 908.989 277.303C908.908 277.05 908.828 276.797 908.747 276.543C909.038 276.532 909.507 276.561 909.45 276.211C909.329 275.468 908.741 275.348 908.079 275.508L908.043 275.418L908.109 275.489ZM923.523 280.806C921.889 281.81 918.803 281.175 917.838 279.544C917.15 278.384 916.453 277.444 914.909 277.956L914.946 277.933C913.942 278.095 913.225 276.623 912.087 277.446C912.157 278.092 913.489 277.85 913.077 278.848C912.151 279.422 911.612 277.835 910.688 278.397C910.533 278.364 910.379 278.33 910.224 278.296L910.255 278.277C910.291 278.322 910.325 278.404 910.362 278.406C910.465 278.411 910.57 278.383 910.673 278.367C911.375 279.068 912.46 279.443 912.713 280.548C912.142 280.96 911.724 280.642 911.341 280.496C909.467 279.785 907.654 278.753 905.545 279.616C902.951 277.485 899.276 278.084 896.597 275.948C895.032 274.7 893.035 273.81 891.091 273.27C888.749 272.62 886.141 272.278 884.068 271.329C881.352 270.088 878.008 270.329 875.814 267.928C875.296 267.361 874.532 267.636 873.916 267.402C873.812 267.353 873.869 267.022 873.618 267.234L873.937 267.384C873.787 268.807 875.884 268.541 875.813 270.06C874.775 270.265 873.386 270.044 873.064 269.346C872.644 268.437 872.421 267.451 871.514 266.591C871.101 267.162 871.792 268.119 870.893 268.439C870.072 268.731 869.625 268.121 869.101 267.763C866.297 265.849 862.866 265.694 859.834 264.311C860.9 265.142 861.745 266.112 862.848 266.924C862.13 267.228 861.475 267.203 860.986 266.972C858.217 265.663 854.956 265.371 852.702 262.994C852.313 262.583 851.796 262.434 851.263 262.49C849.807 262.642 848.817 262.029 847.698 261.072C846.61 260.141 844.925 259.964 843.529 259.427C841.088 258.489 838.904 256.845 836.216 256.549C836.076 256.533 835.931 256.447 835.812 256.36C834.892 255.682 834.387 254.403 832.884 254.534C832.586 254.561 832.228 253.794 832.1 252.87C833.417 254.063 835.041 253.45 836.23 254.377L836.215 254.35C836.25 255.172 836.903 255.105 837.451 255.254C838.494 255.537 839.439 256.047 840.333 256.651C840.431 256.714 840.362 257.064 840.635 256.826C840.524 256.776 840.414 256.725 840.304 256.674C840.349 256.523 840.394 256.371 840.438 256.218L840.42 256.23C841.56 256.055 842.293 256.988 843.261 257.275C844.057 257.511 844.799 259.317 845.741 257.19C846.003 256.6 847.391 257.661 848.356 257.715C849.083 257.756 850.286 257.93 849.59 259.367C849.314 259.938 849.858 260.34 850.348 260.548C850.818 260.75 851.116 260.586 851.337 260.034C852.002 258.37 853.402 260.317 854.434 259.482C854.8 259.185 854.829 260.392 855.078 260.88C854.805 261.05 854.379 261.058 854.384 261.519C854.384 261.563 854.487 261.646 854.531 261.64C854.992 261.577 854.889 261.123 855.061 260.857C855.958 261.107 856.604 261.152 857.671 260.688C858.855 260.174 860.839 260.845 862.353 261.995C861.792 262.457 860.994 262.955 861.846 263.782C862.393 264.314 862.861 264.366 863.245 263.615L863.225 263.63C863.702 263.423 864.18 263.217 864.678 263.002C865.426 263.302 864.905 264.51 865.797 264.703C866.667 264.33 865.775 263.55 866.285 263.061C866.444 263.038 866.698 262.919 866.865 262.994C868.343 263.651 870.066 263.676 871.362 264.849C871.786 265.233 872.5 265.745 873.099 264.902L873.082 264.913C875.698 265.646 878.182 266.945 881.012 266.781C881.153 266.773 881.347 266.801 881.435 266.892C883.301 268.804 886.154 267.844 888.012 268.898C890.906 270.54 894.573 269.378 897.047 271.903C897.363 272.226 897.887 272.151 898.327 271.944C898.77 271.736 899.313 271.72 899.612 272.028C900.997 273.452 903.022 273.64 904.584 274.701C904.769 275.217 905.225 275.629 905.175 276.236L905.156 276.206C905.528 276.124 905.967 275.948 905.922 275.565C905.834 274.812 905.087 274.898 904.564 274.718C904.711 274.374 904.905 273.843 905.268 273.959C908.312 274.928 911.959 273.786 914.492 276.568C914.611 276.699 914.944 276.785 915.092 276.715C917.047 275.787 918.005 276.833 918.736 278.464C919.111 279.3 919.844 279.444 920.632 279.123C921.354 278.828 921.989 278.662 922.75 279.11C926.324 281.223 930.373 281.994 934.282 283.171C935.246 283.461 936.21 283.934 936.947 284.708C937.041 284.783 936.989 285.114 937.255 284.883C937.149 284.827 937.043 284.77 936.937 284.715C937.684 284.151 938.403 283.716 938.711 285.111L938.699 285.092C940.946 285.793 943.02 287.062 945.569 287.243C946.42 287.94 944.377 288.925 945.795 289.807C946.437 288.336 947.501 287.851 948.955 288.793L948.942 288.772C949.669 290.192 950.483 288.532 951.242 288.837L951.232 288.821C951.276 288.861 951.316 288.931 951.365 288.938C951.477 288.95 951.594 288.932 951.708 288.926L951.692 288.937C953.035 288.993 952.387 290.41 953.011 290.948C955.237 289.865 956.097 290.032 957.928 291.996C958.26 292.352 958.37 292.677 958.935 292.27C959.565 291.816 960.012 292.502 960.518 292.756L960.508 292.739C960.55 292.784 960.589 292.863 960.636 292.867C960.75 292.877 960.868 292.854 960.985 292.843L960.969 292.854C962.409 292.569 963.535 293.538 964.826 293.853C967.995 294.623 971.149 295.473 974.165 296.749C975.465 297.299 976.88 297.51 978.221 297.885C979.515 298.246 980.404 298.824 981.435 299.597C982.125 300.116 983.519 299.955 984.544 300.326C986.399 300.997 988.626 300.812 989.979 302.667C990.082 302.809 990.356 302.917 990.538 302.899C993.952 302.566 996.648 304.583 999.63 305.656L999.613 305.629C996.475 307.072 993.531 306.87 990.351 305.338C987.582 304.003 984.431 303.424 981.43 302.694C979.286 302.173 977.219 301.417 975.431 300.404C972.562 298.779 969.405 298.259 966.408 297.184C963.78 296.242 961.194 295.165 958.452 294.499C957.31 294.222 956.302 293.501 955.055 293.978C954.988 294.003 954.87 294.036 954.84 294.004C953.451 292.513 950.97 293.645 949.678 291.788C948.871 290.628 947.392 291.113 946.234 290.82C943.119 290.029 940.191 288.763 937.242 287.537C937.242 287.537 937.255 287.561 937.254 287.56C937.132 287.37 937.009 287.179 936.888 286.988L936.898 287.009C934.694 286.738 932.853 285.647 931.077 284.42C930.437 283.977 929.753 283.813 928.971 283.783C926.946 283.705 925.473 282.181 923.623 281.609C923.509 281.573 923.541 281.066 923.505 280.778L923.523 280.806Z" fill="#7C6063"/>
<path fill-rule="evenodd" clip-rule="evenodd" d="M164.521 109.215C164.463 109.199 164.374 109.201 164.353 109.164C164.261 109.005 164.322 108.91 164.506 108.927C164.549 108.931 164.614 109.012 164.615 109.058C164.616 109.11 164.555 109.163 164.521 109.215ZM271.585 124.563C271.703 124.524 271.833 124.436 271.939 124.458C272.128 124.497 272.136 124.627 271.971 124.738C271.917 124.775 271.819 124.822 271.787 124.799C271.706 124.741 271.65 124.645 271.585 124.563ZM281.409 125.886C281.934 125.001 282.47 125.059 283.201 125.21C282.74 125.841 282.351 126.201 281.409 125.886ZM259.306 122.407C259.269 122.347 259.222 122.291 259.2 122.227C259.185 122.18 259.203 122.122 259.206 122.068L259.282 122.418C259.893 122.595 260.53 121.547 261.323 122.584C260.495 123.236 259.89 123.158 259.306 122.407ZM220.423 114.627C220.069 114.857 219.716 115.088 219.362 115.319C219.449 115.586 219.571 115.876 219.202 116.018C219.115 116.052 218.971 115.94 218.854 115.894C219.035 115.699 219.215 115.504 219.397 115.31C219.138 115.176 218.701 115.002 218.902 114.709C219.328 114.089 219.91 114.23 220.442 114.657L220.513 114.591L220.423 114.627ZM204.211 112.876C205.262 114.481 208.325 115.219 209.893 114.155C211.009 113.398 212.04 112.844 213.219 113.965L213.196 113.928C214.035 114.502 215.31 113.476 215.99 114.704C215.651 115.259 214.549 114.473 214.497 115.552C215.091 116.466 216.254 115.258 216.85 116.161C217.005 116.196 217.159 116.231 217.313 116.267L217.294 116.236C217.243 116.262 217.177 116.322 217.142 116.307C217.046 116.268 216.964 116.198 216.877 116.14C215.943 116.475 214.802 116.353 214.103 117.245C214.444 117.86 214.958 117.751 215.367 117.782C217.365 117.937 219.444 117.774 220.986 119.453C224.24 118.629 227.31 120.735 230.644 119.943C232.591 119.48 234.777 119.525 236.766 119.864C239.162 120.273 241.667 121.073 243.947 121.098C246.934 121.13 249.856 122.772 252.864 121.533C253.574 121.241 254.148 121.815 254.805 121.866C254.92 121.866 255.01 121.542 255.146 121.84L254.794 121.841C254.324 123.192 252.539 122.058 251.957 123.463C252.809 124.091 254.16 124.482 254.748 123.988C255.515 123.344 256.137 122.547 257.324 122.154C257.454 122.847 256.422 123.418 257.099 124.091C257.718 124.705 258.381 124.343 259.008 124.243C262.36 123.704 265.531 125.024 268.863 125.063C267.545 125.362 266.368 125.88 265.024 126.145C265.544 126.726 266.147 126.982 266.688 126.981C269.751 126.975 272.826 128.099 275.877 126.908C276.404 126.702 276.936 126.787 277.394 127.065C278.647 127.823 279.804 127.689 281.224 127.299C282.604 126.92 284.204 127.477 285.697 127.586C288.305 127.776 290.98 127.218 293.538 128.095C293.672 128.14 293.84 128.123 293.984 128.096C295.105 127.874 296.107 126.932 297.411 127.69C297.669 127.841 298.32 127.299 298.83 126.518C297.13 127.037 295.921 125.791 294.45 126.123L294.476 126.106C294.093 126.834 293.531 126.496 292.973 126.397C291.909 126.209 290.836 126.268 289.77 126.434C289.654 126.45 289.568 126.795 289.422 126.464C289.543 126.466 289.665 126.467 289.786 126.468C289.81 126.311 289.834 126.155 289.859 125.998L289.871 126.017C288.913 125.373 287.853 125.904 286.855 125.752C286.034 125.627 284.594 126.946 284.647 124.619C284.661 123.974 282.953 124.343 282.057 123.982C281.381 123.709 280.219 123.355 280.237 124.951C280.244 125.585 279.58 125.717 279.049 125.697C278.537 125.68 278.338 125.404 278.373 124.811C278.479 123.022 276.384 124.188 275.806 122.993C275.601 122.569 275.061 123.648 274.627 123.984C274.802 124.254 275.184 124.442 274.983 124.858C274.964 124.897 274.836 124.929 274.799 124.905C274.408 124.651 274.695 124.284 274.652 123.97C273.735 123.815 273.13 123.58 272.363 122.706C271.51 121.737 269.429 121.5 267.569 121.896C267.88 122.553 268.391 123.343 267.268 123.728C266.547 123.977 266.101 123.825 266.073 122.982L266.085 123.004C265.741 122.614 265.397 122.224 265.037 121.817C264.233 121.77 264.19 123.085 263.3 122.88C262.672 122.172 263.811 121.846 263.558 121.187C263.423 121.098 263.245 120.882 263.062 120.878C261.445 120.845 259.875 120.133 258.203 120.643C257.655 120.81 256.792 120.969 256.608 119.952L256.62 119.968C253.94 119.518 251.139 119.636 248.649 118.284C248.524 118.216 248.337 118.159 248.218 118.203C245.716 119.139 243.543 117.056 241.414 117.218C238.095 117.472 235.272 114.86 231.959 116.091C231.535 116.249 231.092 115.959 230.783 115.584C230.471 115.207 229.986 114.961 229.584 115.113C227.725 115.812 225.812 115.12 223.947 115.414C223.561 115.803 222.972 115.982 222.76 116.552L222.789 116.533C222.488 116.3 222.165 115.955 222.369 115.627C222.769 114.983 223.409 115.379 223.959 115.439C223.972 115.065 224.023 114.502 223.644 114.452C220.477 114.033 217.664 111.447 214.187 112.886C214.024 112.954 213.686 112.89 213.581 112.764C212.208 111.091 210.896 111.63 209.54 112.795C208.845 113.392 208.12 113.21 207.544 112.584C207.016 112.01 206.512 111.589 205.633 111.671C201.5 112.061 197.507 111.035 193.469 110.436C192.473 110.288 191.4 110.305 190.403 110.693C190.287 110.72 190.193 111.042 190.05 110.72C190.17 110.714 190.29 110.708 190.41 110.703C189.973 109.875 189.509 109.175 188.636 110.306L188.654 110.294C186.323 109.971 183.906 110.237 181.522 109.316C180.456 109.584 181.886 111.345 180.227 111.539C180.272 109.935 179.516 109.043 177.799 109.276L177.82 109.263C176.558 110.239 176.527 108.39 175.711 108.343L175.727 108.333C175.67 108.35 175.603 108.396 175.557 108.382C175.45 108.345 175.352 108.279 175.251 108.225L175.261 108.242C174.022 107.721 174.005 109.279 173.212 109.5C171.658 107.572 170.809 107.357 168.316 108.355C167.865 108.536 167.626 108.783 167.289 108.175C166.911 107.496 166.215 107.926 165.649 107.94L165.665 107.929C165.608 107.952 165.539 108.006 165.495 107.991C165.387 107.951 165.291 107.88 165.189 107.821L165.199 107.837C164.017 106.966 162.586 107.363 161.284 107.099C158.089 106.446 154.873 105.873 151.601 105.744C150.19 105.688 148.82 105.277 147.447 105.045C146.123 104.821 145.072 104.965 143.81 105.226C142.964 105.402 141.772 104.662 140.686 104.562C138.722 104.379 136.786 103.264 134.772 104.366C134.617 104.451 134.324 104.432 134.167 104.339C131.22 102.584 127.921 103.261 124.766 102.963L124.793 102.945C127.018 105.587 129.768 106.658 133.298 106.625C136.372 106.596 139.47 107.413 142.496 108.031C144.658 108.471 146.85 108.668 148.899 108.512C152.187 108.263 155.265 109.137 158.434 109.44C161.213 109.706 164.011 109.832 166.777 110.397C167.928 110.632 169.147 110.41 170.072 111.371C170.122 111.423 170.215 111.503 170.255 111.487C172.147 110.729 173.91 112.809 175.87 111.679C177.093 110.973 178.225 112.042 179.398 112.269C182.554 112.88 185.742 112.98 188.933 113.127C188.933 113.127 188.911 113.142 188.911 113.143C189.103 113.022 189.295 112.902 189.486 112.781L189.468 112.796C191.578 113.488 193.708 113.285 195.838 112.93C196.605 112.802 197.294 112.945 198.014 113.251C199.88 114.043 201.862 113.291 203.779 113.56C203.897 113.576 204.085 113.104 204.24 112.858L204.211 112.876Z" fill="#7C6063"/>
<path fill-rule="evenodd" clip-rule="evenodd" d="M93.4697 96.2904C93.5288 96.2971 93.6113 96.3308 93.6447 96.3043C93.7879 96.1894 93.7658 96.079 93.589 96.0281C93.5475 96.0158 93.4568 96.0669 93.4392 96.1102C93.4192 96.1581 93.4567 96.2291 93.4697 96.2904ZM-11.7996 71.4586C-11.896 71.3793 -11.9844 71.2494 -12.0911 71.2312C-12.2815 71.1982 -12.3359 71.3168 -12.2234 71.4806C-12.1867 71.5347 -12.1122 71.6148 -12.0747 71.6048C-11.9772 71.5798 -11.8906 71.5114 -11.7996 71.4586ZM-21.4276 69.1008C-21.5933 68.0854 -22.1136 67.9428 -22.8495 67.8167C-22.651 68.5722 -22.4201 69.0494 -21.4276 69.1008ZM0.418048 73.9381C0.473933 73.8958 0.538721 73.8607 0.581874 73.8089C0.61364 73.7713 0.618137 73.7101 0.63523 73.6593L0.435886 73.9576C-0.19683 73.8986 -0.407795 72.6907 -1.52492 73.3662C-0.991763 74.2757 -0.400411 74.4236 0.418048 73.9381ZM39.4556 80.9029C39.7005 81.2468 39.9446 81.5907 40.1895 81.9346C40.0112 82.1518 39.7915 82.3768 40.0834 82.6445C40.1521 82.7078 40.3266 82.6555 40.4527 82.6559C40.3558 82.4085 40.2588 82.161 40.1611 81.9135C40.4508 81.8833 40.9208 81.8811 40.8408 81.5352C40.6713 80.8026 40.0772 80.7212 39.4263 80.9242L39.3847 80.8367L39.4556 80.9029ZM55.1857 85.1969C53.6209 86.3061 50.5003 85.8746 49.4294 84.3108C48.667 83.1985 47.9097 82.306 46.4029 82.9185L46.4378 82.8931C45.4472 83.1202 44.6349 81.6994 43.5538 82.5945C43.6658 83.2346 44.9791 82.9054 44.6336 83.9291C43.747 84.5627 43.1051 83.0137 42.2202 83.636C42.0634 83.6124 41.9074 83.589 41.7506 83.5655L41.7798 83.5441C41.8183 83.5869 41.8578 83.6666 41.8955 83.6657C41.9986 83.6642 42.101 83.6291 42.2031 83.6065C42.9499 84.26 44.057 84.5633 44.3814 85.6492C43.8395 86.0974 43.4006 85.8077 43.0089 85.6875C41.0924 85.1013 39.2163 84.1905 37.168 85.1894C34.4397 83.2334 30.8124 84.0722 27.9987 82.1172C26.355 80.975 24.3038 80.2174 22.3283 79.8068C19.9488 79.3117 17.3242 79.1412 15.1934 78.3312C12.4012 77.2704 9.08096 77.7307 6.7338 75.4787C6.17953 74.9471 5.43533 75.2719 4.80508 75.0787C4.6979 75.0369 4.73307 74.7031 4.49713 74.9305L4.82472 75.06C4.76887 76.4897 6.84417 76.0859 6.87282 77.6065C5.84998 77.8797 4.45018 77.7499 4.08281 77.0752C3.60442 76.1951 3.31703 75.2261 2.35547 74.4272C1.98102 75.0243 2.73317 75.9335 1.85692 76.3122C1.05688 76.6576 0.571099 76.0781 0.0244288 75.7558C-2.89919 74.0294 -6.33276 74.1001 -9.44891 72.9188C-8.33082 73.6785 -7.42451 74.5907 -6.27041 75.3284C-6.96678 75.679 -7.62161 75.6976 -8.12482 75.4991C-10.9739 74.3743 -14.2474 74.2969 -16.6525 72.0736C-17.0675 71.689 -17.5936 71.5738 -18.1218 71.6647C-19.5645 71.9127 -20.5928 71.366 -21.7721 70.484C-22.9185 69.6263 -24.6116 69.5605 -26.0403 69.1161C-28.5374 68.3403 -30.8239 66.8433 -33.526 66.7251C-33.6671 66.7182 -33.8172 66.6414 -33.9413 66.5628C-34.9037 65.9469 -35.492 64.7037 -36.9828 64.9334C-37.2783 64.9794 -37.6862 64.2374 -37.8752 63.3237C-36.4821 64.4278 -34.902 63.7097 -33.6545 64.5563L-33.6715 64.5311C-33.5821 65.349 -32.9349 65.239 -32.379 65.3513C-31.3198 65.5652 -30.3428 66.012 -29.4111 66.5563C-29.3096 66.6131 -29.3552 66.9662 -29.0983 66.7111C-29.212 66.6684 -29.3256 66.6248 -29.4384 66.5813C-29.4036 66.4271 -29.3687 66.2729 -29.3346 66.1177L-29.3525 66.1308C-28.2255 65.8814 -27.4332 66.7634 -26.449 66.9865C-25.6384 67.1702 -24.78 68.9233 -23.9791 66.7385C-23.7571 66.1328 -22.3019 67.1003 -21.3361 67.0916C-20.607 67.0845 -19.3956 67.1791 -19.9958 68.6588C-20.2341 69.2461 -19.6641 69.6113 -19.1623 69.7871C-18.6799 69.9582 -18.3931 69.7746 -18.2091 69.2089C-17.6544 67.5057 -16.13 69.3565 -15.155 68.4549C-14.8094 68.135 -14.7011 69.337 -14.4199 69.8078C-14.6814 69.9953 -15.1057 70.0314 -15.0711 70.4914C-15.0677 70.5346 -14.9601 70.6115 -14.9161 70.6024C-14.4603 70.5094 -14.5932 70.0625 -14.4383 69.7865C-13.5276 69.9765 -12.8793 69.9787 -11.8453 69.4456C-10.6979 68.855 -8.67402 69.3952 -7.08757 70.4432C-7.61708 70.941 -8.38106 71.4901 -7.47672 72.2591C-6.89584 72.7539 -6.42525 72.7752 -6.09173 72.0005L-6.11018 72.0168C-5.64787 71.7794 -5.18473 71.5421 -4.70161 71.2946C-3.93563 71.5448 -4.37663 72.7852 -3.47302 72.9189C-2.62978 72.4891 -3.57103 71.7695 -3.09473 71.2484C-2.93663 71.2153 -2.69157 71.0796 -2.52006 71.143C-1.00225 71.7023 0.719056 71.6137 2.08908 72.6992C2.53781 73.0548 3.2832 73.5183 3.82616 72.6382L3.80931 72.6498C6.46866 73.2101 9.03246 74.3423 11.8448 73.9937C11.9854 73.9763 12.181 73.9916 12.2748 74.0764C14.2624 75.8621 17.0464 74.7168 18.9689 75.6457C21.965 77.0942 25.5474 75.6943 28.1817 78.0511C28.5185 78.3525 29.0368 78.2441 29.4621 78.0085C29.8901 77.7716 30.4312 77.7203 30.7501 78.008C32.225 79.338 34.2584 79.3924 35.8868 80.3483C36.1045 80.851 36.5868 81.2327 36.5767 81.8413L36.556 81.813C36.922 81.706 37.3481 81.5023 37.2784 81.1229C37.1411 80.3769 36.4013 80.5118 35.8672 80.367C35.9915 80.0135 36.1501 79.4715 36.5203 79.5633C39.6214 80.3302 43.1857 78.9509 45.8959 81.561C46.0231 81.6836 46.3608 81.7478 46.5044 81.6681C48.3942 80.6136 49.4186 81.5944 50.2546 83.1744C50.6837 83.9841 51.4253 84.0793 52.1903 83.7067C52.8911 83.3652 53.5142 83.1578 54.3025 83.5552C58.0072 85.4289 62.0989 85.9319 66.0767 86.8501C67.0579 87.0761 68.0508 87.4845 68.8367 88.2092C68.9348 88.2771 68.9047 88.6109 69.1555 88.3632C69.046 88.3144 68.9367 88.2648 68.8273 88.2161C69.5357 87.6049 70.2241 87.1234 70.6235 88.4952L70.6104 88.4773C72.8984 89.0284 75.0513 90.1586 77.6068 90.1721C78.5011 90.8117 76.5273 91.9284 78.0005 92.7156C78.5444 91.2054 79.5741 90.6517 81.0869 91.4961L81.0724 91.4763C81.891 92.8455 82.5946 91.1361 83.3716 91.3906L83.3607 91.3747C83.4075 91.412 83.4523 91.4792 83.501 91.4826C83.6139 91.4876 83.7291 91.462 83.8431 91.4488L83.8279 91.4607C85.1711 91.4278 84.6179 92.8847 85.2755 93.3806C87.4262 92.1535 88.295 92.2635 90.2507 94.1036C90.6051 94.437 90.7363 94.7541 91.2732 94.311C91.8724 93.8165 92.3632 94.472 92.8848 94.6918L92.874 94.6751C92.9193 94.7172 92.9635 94.7934 93.0101 94.7948C93.125 94.7976 93.241 94.7663 93.3566 94.7484L93.3414 94.7602C94.7601 94.3814 95.947 95.2738 97.2561 95.5031C100.469 96.0634 103.671 96.7048 106.765 97.7797C108.098 98.2436 109.524 98.3614 110.887 98.6468C112.201 98.9221 113.127 99.4404 114.206 100.145C114.929 100.617 116.309 100.364 117.357 100.668C119.252 101.215 121.461 100.884 122.933 102.647C123.046 102.782 123.326 102.872 123.506 102.842C126.891 102.285 129.714 104.121 132.76 104.996L132.741 104.97C129.705 106.616 126.754 106.608 123.48 105.288C120.629 104.137 117.447 103.767 114.404 103.235C112.231 102.856 110.119 102.238 108.268 101.344C105.298 99.9113 102.114 99.5995 99.0533 98.7235C96.3693 97.9562 93.7184 97.0512 90.9378 96.5664C89.7806 96.3649 88.7269 95.7122 87.5146 96.2694C87.4489 96.2993 87.3331 96.3398 87.3018 96.3099C85.8172 94.9132 83.4165 96.2059 82.0046 94.4378C81.124 93.3331 79.6797 93.9143 78.5048 93.6975C75.3443 93.1136 72.3399 92.0416 69.3163 91.0126C69.3163 91.0126 69.3312 91.035 69.3304 91.0348C69.1957 90.8526 69.061 90.6704 68.9272 90.4883L68.9391 90.5085C66.7221 90.3821 64.8131 89.4143 62.9602 88.3065C62.2926 87.9069 61.5998 87.7883 60.8175 87.8097C58.7913 87.8651 57.2215 86.441 55.3381 85.9912C55.2221 85.9631 55.2201 85.4547 55.1657 85.1696L55.1857 85.1969Z" fill="#7C6063"/>
<path fill-rule="evenodd" clip-rule="evenodd" d="M759.92 223.59L760.032 223.49L759.904 223.437L759.92 223.59ZM772.089 227.522C772.167 227.44 772.246 227.357 772.324 227.276C772.225 227.202 772.125 227.072 772.026 227.071C771.943 227.072 771.861 227.226 771.778 227.311C771.881 227.381 771.985 227.451 772.089 227.522ZM713.107 209.455C713.234 209.437 713.419 209.466 713.476 209.393C713.636 209.187 713.509 209.001 713.309 208.912C713.208 208.867 712.991 208.882 712.943 208.95C712.797 209.155 712.925 209.326 713.107 209.455ZM753.911 219.645C754.21 219.725 754.497 220.242 754.96 219.717C754.657 219.447 754.37 219.284 753.911 219.645ZM752.522 218.869C752.552 218.409 752.604 218.011 752.067 217.811C752.006 217.788 751.79 217.952 751.791 218.028C751.799 218.413 751.908 218.757 752.522 218.869ZM758.429 220.574C757.867 219.836 757.221 219.629 756.079 219.59C756.98 220.192 757.429 220.857 758.429 220.574ZM709.34 207.318C709.226 208.209 709.226 208.833 710.002 209.342C710.557 208.389 710.056 207.932 709.34 207.318ZM745.914 217.172C745.977 217.132 746.05 217.102 746.099 217.049C746.134 217.01 746.138 216.943 746.156 216.889C746.081 216.989 746.005 217.091 745.93 217.193C745.266 217.115 744.659 217.131 744.528 218.012C745.531 218.516 745.612 217.671 745.914 217.172ZM762.41 221.758C762.667 221.832 762.949 222.077 763.158 221.715C763.202 221.637 763.123 221.385 763.047 221.358C762.665 221.219 762.565 221.545 762.427 221.793C762.068 221.628 761.858 221.054 761.304 221.379C761.488 221.808 761.272 222.511 762.03 222.492C762.163 222.488 762.283 222.015 762.41 221.758ZM773.584 227.496L773.67 227.468L773.603 227.527L773.523 227.562L773.584 227.496ZM731.37 216.24C729.687 216.253 727.966 217.107 726.334 216.009L726.349 216.032C726.674 215.621 726.758 215.225 726.222 214.926C725.796 214.688 725.494 214.905 725.359 215.296C725.121 215.986 724.804 216.525 723.947 216.406L723.961 216.435C724.059 216.156 724.324 215.79 724.23 215.611C723.085 213.438 720.728 211.808 718.869 212.087C716.785 212.399 716.526 211.23 715.691 210.361C714.676 210.566 715.787 211.517 714.865 211.849C714.063 211.948 713.732 210.633 712.76 210.698C712.643 210.515 712.527 210.332 712.41 210.15C712.264 209.621 712.082 209.108 711.378 209.245C711.154 209.288 710.981 209.516 711.088 209.757C711.374 210.406 711.919 210.24 712.435 210.134C712.55 210.317 712.666 210.501 712.781 210.684C712.469 210.882 712.047 211.325 711.861 211.241C710.385 210.576 709.023 209.646 707.233 210.095C706.897 210.179 706.658 209.473 706.747 208.996C706.946 207.953 707.832 209.18 708.307 208.349C706.798 207.632 705.946 206.002 703.851 206.002C702.261 206.002 700.833 204.937 699.343 204.34C697.157 203.463 695.1 201.98 692.294 202.711C690.956 203.059 688.819 203.07 687.619 201.388C687.504 201.206 687.39 201.024 687.275 200.843C687.098 200.493 686.839 200.284 686.435 200.441C686.364 200.468 686.288 200.708 686.33 200.761C686.613 201.123 686.965 200.858 687.292 200.831C687.408 201.012 687.524 201.193 687.641 201.374C686.347 202.074 685.076 202.544 683.999 201.019L684.016 201.046C683.274 200.082 683.916 199.199 684.177 198.293L684.154 198.308C685.363 198.116 686.551 197.983 687.147 199.428L687.139 199.414C689.501 199.176 691.546 200.108 693.717 200.875C695.733 201.588 697.59 202.71 699.692 203.168L699.674 203.137C700.011 203.733 700.317 204.472 701.022 203.44L700.996 203.456C704.206 204.654 707.586 205.109 710.769 206.709C714.488 208.578 718.404 210.412 722.678 210.981C723.401 211.076 724.15 211.102 724.491 212.023C724.755 212.733 725.5 212.809 726.186 212.786C728.759 212.7 728.759 212.695 730.256 214.917C731.154 213.401 732.309 213.593 733.701 214.201C734.621 214.602 735.737 214.559 736.766 214.704C738.033 214.884 739.202 215.213 740.341 215.905C741.453 216.583 742.777 217.006 744.107 216.157C744.407 215.964 744.815 215.834 745.167 215.846C746.892 215.905 748.572 215.818 750.307 215.608C752.033 215.399 754.055 216.199 755.886 216.9C759.327 218.216 762.764 219.574 766.007 221.282C767.865 222.261 770.353 222.462 771.425 224.924C771.977 223.57 772.927 223.541 773.958 224.084C774.561 224.402 775.135 224.784 774.466 225.653C774.082 226.155 774.194 226.241 775.215 226.477C775.337 226.679 775.301 227.019 775.678 227.008C775.731 226.627 775.369 226.648 775.193 226.493C776.065 225.533 776.858 225.245 778.037 226.249C778.835 226.929 780.164 226.869 780.932 227.779L780.913 227.742C780.95 228.195 780.89 228.573 780.297 228.534L780.311 228.559C780.149 228.522 779.985 228.485 779.822 228.448L779.843 228.434C776.37 227.223 773.095 229.093 769.659 229.37C769.773 228.447 770.496 228.821 770.805 228.285C770.282 227.846 769.614 227.433 770.327 226.467C770.802 225.823 770.567 224.739 769.434 225.179C767.906 225.771 766.718 224.765 765.353 224.698C764.702 224.665 764.224 223.718 763.412 224.89C762.93 225.584 762.15 224.295 761.306 223.413C761.557 225.081 760.678 225.196 759.768 225.095C759.276 225.041 758.158 225.482 758.663 224.16C758.7 224.218 758.728 224.284 758.777 224.33C758.812 224.364 758.872 224.371 758.921 224.39C758.826 224.32 758.731 224.251 758.635 224.181C758.864 222.905 757.745 221.785 756.072 221.913C754.163 222.06 752.509 221.067 750.618 220.955C749.195 220.871 750.381 219.499 750.668 218.707L750.786 218.61L750.647 218.673C750.214 218.385 749.818 218.012 749.001 218.059C749.529 219.622 749.2 220.808 747.361 221.058C747.145 221.088 746.747 221.211 746.746 221.206C746.079 218.78 742.97 220.038 742.001 218.054C741.707 217.452 741.386 217.627 740.694 217.795C739.578 218.068 738.205 217.613 737.025 217.215C735.858 216.82 734.766 216.835 733.596 217.028C732.74 217.169 731.761 217.393 731.353 216.205C731.466 216.153 731.708 216.423 731.702 216.067C731.591 216.125 731.48 216.182 731.37 216.24Z" fill="#7C6063"/>
<path fill-rule="evenodd" clip-rule="evenodd" d="M797.139 237.853C794.925 235.989 792.172 235.084 789.513 234.414C787.318 233.86 785.056 232.872 782.644 233.336C782.161 233.428 781.801 233.179 781.542 232.75C781.051 231.935 780.44 232.218 779.83 232.598L779.85 232.586C778.226 232.219 776.458 232.972 774.916 231.958L774.924 231.986C775.784 229.748 776.925 228.939 778.998 229.879C780.34 230.487 781.013 230.017 781.907 229.415C782.077 229.508 782.245 229.606 782.421 229.688C782.437 229.694 782.502 229.591 782.545 229.539C782.365 229.467 782.185 229.394 782.005 229.321C781.976 228.563 781.57 228.065 780.913 227.741L780.933 227.779C782.191 226.706 782.794 227.808 783.309 228.617C783.647 229.148 783.64 229.898 783.826 230.717C786.306 230.395 788.738 231.182 790.867 232.026C792.858 232.814 794.834 234.003 796.894 234.715C799.218 235.521 800.979 237.405 803.581 237.714C804.962 237.878 806.803 238.295 806.764 240.492C806.76 240.708 807.171 241.148 807.31 241.118C809.066 240.734 810.753 242.547 812.518 241.277L812.499 241.289C814.853 241.618 817.23 241.85 819.148 243.519C820.384 244.595 821.667 245.619 823.358 245.924C823.567 245.961 823.849 246.082 823.935 246.248C825.013 248.336 827.22 248.102 828.995 248.774C830.189 249.227 831.314 249.838 832.017 250.994C832.303 251.465 832.556 251.958 832.01 252.39C831.564 252.743 830.969 252.875 830.571 252.424C829.519 251.228 827.778 250.993 826.839 249.669C826.567 249.284 826.205 249.061 825.745 248.944C823.588 248.396 823.173 248.158 821.399 246.534C820.644 248.272 819.657 247.605 818.657 246.797L818.67 246.825C818.434 245.942 817.681 245.176 818.482 244.15C817.237 244.154 817.109 244.947 816.659 245.624C814.094 243.513 810.891 243.489 808.016 242.492C807.386 242.275 806.535 242.299 806.206 241.731C804.709 239.141 802.106 239.223 799.669 238.867L799.578 238.749L799.66 238.873C798.155 238.806 798.41 237.373 797.933 236.498C797.389 236.85 797.689 237.593 797.117 237.822L797.139 237.853Z" fill="#7C6063"/>
<path fill-rule="evenodd" clip-rule="evenodd" d="M646.325 188.414C646.508 188.35 646.66 188.342 646.734 188.262C646.885 188.099 646.927 187.883 646.679 187.771C646.582 187.727 646.329 187.787 646.319 187.837C646.281 188.013 646.316 188.206 646.325 188.414ZM644.128 187.512L643.901 186.52L643.874 186.537C645.468 186.202 646.94 186.997 648.5 187.04C649.682 187.073 649.265 188.542 650.038 188.999C650.561 188.731 650.123 188.141 650.499 187.815C650.808 187.547 651.103 187.363 651.493 187.527C651.817 187.663 651.827 187.9 651.746 188.255C651.476 189.434 652.254 189.484 653.013 189.209C655.01 188.487 656.176 188.773 657.771 190.531C657.868 190.723 657.512 191.01 657.9 191.139C657.849 190.941 657.799 190.742 657.748 190.544C658.352 189.885 658.972 189.868 659.611 190.493L659.592 190.505C660.344 190.182 660.64 190.629 660.838 191.243L660.825 191.221C664.168 190.894 667.129 192.494 670.275 193.153C670.803 193.263 671.181 194.086 671.629 194.58L671.61 194.542C671.576 194.703 671.54 194.865 671.505 195.027L671.518 195.008C669.78 194.518 668.065 193.922 666.237 193.835C666.256 193.509 666.492 193.151 666.092 192.872C665.833 193.255 665.979 193.552 666.252 193.827C666.211 193.968 666.169 194.109 666.126 194.25C663.744 192.988 660.95 193.781 658.49 192.733C657.981 192.516 658.443 193.208 658.467 193.481L658.487 193.469C658.042 193.538 657.454 193.681 657.205 193.341C655.998 191.686 653.955 192.121 652.37 191.412C651.083 190.838 649.398 191.045 647.902 190.865C646.55 190.704 645.575 190.09 644.466 189.597C643.341 189.098 644.025 188.226 644.113 187.485C644.207 187.412 644.453 187.639 644.428 187.328C644.328 187.389 644.228 187.451 644.128 187.512Z" fill="#7C6063"/>
<path fill-rule="evenodd" clip-rule="evenodd" d="M789.468 237.047C789.634 237.676 789.95 238.042 790.72 237.847C790.521 237.039 789.893 237.215 789.454 237.055L789.396 236.958L789.468 237.047ZM783.313 239.823C781.92 240.634 780.532 240.125 779.145 239.801L779.161 239.824C779.737 238.45 781.207 238.307 782.187 238.398C784.265 238.59 786.225 238.395 788.246 237.613C786.725 237.051 785.224 236.425 783.471 236.808C781.492 237.241 779.504 237.413 777.543 236.685L777.555 236.721C777.595 236.223 777.09 235.756 777.55 235.098C779.637 235.85 781.629 235.416 783.811 234.836C785.885 234.287 788.152 235.475 790.278 236.136C790.982 236.355 791.611 236.823 792.413 236.654C792.892 236.553 793.314 236.631 793.485 237.177C793.643 237.678 793.409 238.078 793.045 238.355C792.23 238.977 791.604 240.206 790.242 239.2C789.931 238.969 789.291 238.869 788.961 239.031C787.145 239.923 785.196 239.681 783.294 239.834L783.253 239.741L783.313 239.823Z" fill="#7C6063"/>
<path fill-rule="evenodd" clip-rule="evenodd" d="M671.628 194.58C671.731 194.231 671.823 193.615 672.147 193.7C673.423 194.034 674.978 193.819 675.951 195.498C674.766 195.526 673.665 195.025 672.744 195.735L672.754 195.753L672.278 195.647L672.294 195.635C672.036 195.427 671.777 195.217 671.517 195.009L671.505 195.027C671.691 194.898 671.71 194.733 671.61 194.542L671.628 194.58Z" fill="#7C6063"/>
<path fill-rule="evenodd" clip-rule="evenodd" d="M681.496 197.954C680.602 198.209 679.707 198.226 678.728 197.803C678.905 196.698 679.621 196.388 680.484 196.454C681.243 196.512 681.693 196.979 681.496 197.954Z" fill="#7C6063"/>
<path fill-rule="evenodd" clip-rule="evenodd" d="M698.328 209.32C698.28 208.692 698.231 208.065 698.17 207.275C699.093 207.558 699.799 207.973 700.562 208.577C699.905 209.408 698.953 208.89 698.318 209.299L698.328 209.32Z" fill="#7C6063"/>
<path fill-rule="evenodd" clip-rule="evenodd" d="M676.773 200.307C675.373 201.863 674.038 199.779 672.656 200.36C674.056 199.444 675.407 200.39 676.785 200.344L676.773 200.307Z" fill="#7C6063"/>
<path fill-rule="evenodd" clip-rule="evenodd" d="M704.319 209.252C703.797 209.281 703.257 209.955 702.773 209.325C702.528 209.006 702.815 208.638 703.172 208.481C703.95 208.139 704.199 208.607 704.299 209.266L704.319 209.252Z" fill="#7C6063"/>
<path fill-rule="evenodd" clip-rule="evenodd" d="M694.125 204.937C693.192 205.344 692.588 205.414 692.021 204.583C692.76 204.286 693.33 204.533 694.125 204.937Z" fill="#7C6063"/>
<path fill-rule="evenodd" clip-rule="evenodd" d="M682.966 201.432C682.939 201.797 682.718 201.941 682.392 201.843C682.038 201.736 681.717 201.521 681.746 201.098C681.762 200.865 681.998 200.757 682.237 200.785C682.625 200.829 682.929 200.985 682.966 201.432Z" fill="#7C6063"/>
<path fill-rule="evenodd" clip-rule="evenodd" d="M677.087 196.657C676.807 196.495 676.653 196.236 676.674 195.93C676.699 195.559 676.959 195.437 677.279 195.594C677.577 195.742 677.656 196.034 677.573 196.348C677.51 196.582 677.367 196.739 677.087 196.657Z" fill="#7C6063"/>
<path fill-rule="evenodd" clip-rule="evenodd" d="M674.459 198.446C674.92 198.275 675.368 198.183 675.845 198.613C675.242 198.976 674.895 198.39 674.447 198.425L674.459 198.446Z" fill="#7C6063"/>
<path fill-rule="evenodd" clip-rule="evenodd" d="M679.847 200.996C679.656 201.274 679.527 201.645 679.073 201.531C679.026 201.519 678.956 201.408 678.97 201.372C679.139 200.948 679.523 201.044 679.858 201.023L679.847 200.996Z" fill="#7C6063"/>
<path fill-rule="evenodd" clip-rule="evenodd" d="M684.177 198.293L684.154 198.307L684.177 198.293Z" fill="#7C6063"/>
<path fill-rule="evenodd" clip-rule="evenodd" d="M675.728 196.867L675.708 196.88L675.728 196.867Z" fill="#7C6063"/>
<path fill-rule="evenodd" clip-rule="evenodd" d="M373.156 131.696L373.097 131.557L373.235 131.565L373.156 131.696ZM360.471 130.074C360.435 129.966 360.399 129.858 360.363 129.751C360.484 129.726 360.63 129.65 360.719 129.692C360.794 129.728 360.803 129.902 360.842 130.014C360.719 130.034 360.595 130.054 360.471 130.074ZM421.533 138.835C421.426 138.764 421.245 138.711 421.225 138.621C421.167 138.367 421.362 138.252 421.58 138.257C421.691 138.26 421.881 138.365 421.896 138.448C421.94 138.695 421.752 138.796 421.533 138.835ZM380.273 130.685C379.968 130.629 379.489 130.975 379.293 130.303C379.682 130.187 380.011 130.163 380.273 130.685ZM381.86 130.573C382.028 130.145 382.151 129.763 382.722 129.81C382.787 129.815 382.912 130.055 382.879 130.123C382.708 130.468 382.463 130.734 381.86 130.573ZM375.789 129.602C376.611 129.173 377.284 129.26 378.334 129.712C377.263 129.873 376.573 130.283 375.789 129.602ZM425.851 138.505C425.575 139.36 425.309 139.924 424.39 140.054C424.293 138.956 424.941 138.755 425.851 138.505ZM388.562 131.851C388.522 131.788 388.469 131.73 388.447 131.661C388.431 131.611 388.456 131.548 388.463 131.491C388.488 131.615 388.513 131.739 388.538 131.863C389.172 132.075 389.714 132.348 389.458 133.202C388.336 133.23 388.623 132.431 388.562 131.851ZM371.683 128.978C371.418 128.935 371.06 129.037 371.024 128.621C371.017 128.532 371.197 128.337 371.276 128.345C371.682 128.382 371.633 128.719 371.652 129.002C372.047 129.007 372.482 128.577 372.844 129.106C372.496 129.416 372.391 130.144 371.714 129.804C371.596 129.744 371.688 129.265 371.683 128.978ZM359.129 129.413L359.063 129.352L359.098 129.433L359.156 129.499L359.129 129.413ZM402.119 137.199C403.636 137.927 404.83 139.433 406.774 139.134L406.75 139.149C406.632 138.638 406.724 138.244 407.336 138.201C407.822 138.168 408.004 138.493 407.959 138.904C407.881 139.63 407.939 140.253 408.765 140.509L408.74 140.53C408.769 140.235 408.686 139.791 408.847 139.67C410.808 138.19 413.635 137.719 415.198 138.764C416.951 139.933 417.683 138.985 418.809 138.554C419.639 139.172 418.229 139.559 418.922 140.252C419.606 140.684 420.465 139.634 421.318 140.107C421.501 139.991 421.684 139.875 421.867 139.76C422.224 139.344 422.607 138.957 423.186 139.38C423.371 139.515 423.43 139.794 423.231 139.967C422.695 140.432 422.273 140.05 421.852 139.735C421.669 139.852 421.486 139.968 421.304 140.085C421.502 140.398 421.696 140.978 421.899 140.981C423.518 141.007 425.146 140.746 426.575 141.915C426.843 142.134 427.36 141.597 427.482 141.126C427.747 140.098 426.423 140.831 426.347 139.877C428.017 139.871 429.482 138.759 431.378 139.65C432.816 140.327 434.562 139.972 436.164 140.065C438.516 140.203 441.008 139.736 443.236 141.592C444.299 142.477 446.228 143.397 448.03 142.385C448.211 142.27 448.392 142.154 448.573 142.039C448.882 141.797 449.205 141.719 449.504 142.033C449.556 142.087 449.523 142.337 449.463 142.367C449.053 142.574 448.847 142.185 448.562 142.021C448.38 142.135 448.198 142.249 448.016 142.363C448.889 143.548 449.839 144.514 451.463 143.592L451.435 143.61C452.517 143.054 452.313 141.981 452.461 141.05L452.477 141.074C451.464 140.385 450.446 139.759 449.291 140.813L449.304 140.803C447.269 139.582 445.021 139.556 442.73 139.325C440.603 139.112 438.445 139.337 436.347 138.856L436.377 138.836C435.818 139.232 435.227 139.77 435.028 138.537L435.045 138.562C431.63 138.28 428.378 137.252 424.817 137.345C420.657 137.453 416.332 137.446 412.223 136.14C411.527 135.919 410.839 135.624 410.138 136.312C409.597 136.842 408.89 136.593 408.28 136.281C405.988 135.108 405.99 135.103 403.69 136.477C403.523 134.722 402.395 134.404 400.877 134.361C399.874 134.334 398.883 133.819 397.889 133.513C396.667 133.136 395.469 132.935 394.144 133.077C392.848 133.217 391.47 133.036 390.629 131.702C390.439 131.4 390.126 131.108 389.802 130.969C388.216 130.288 386.733 129.494 385.253 128.566C383.779 127.642 381.61 127.505 379.654 127.36C375.98 127.086 372.292 126.851 368.631 127.017C366.532 127.111 364.195 126.234 362.178 128.005C362.254 126.546 361.407 126.114 360.243 126.167C359.562 126.198 358.88 126.299 359.115 127.371C359.249 127.988 359.111 128.018 358.087 127.797C357.89 127.928 357.778 128.251 357.442 128.081C357.556 127.714 357.875 127.886 358.1 127.821C357.72 126.581 357.125 125.983 355.63 126.389C354.619 126.665 353.442 126.045 352.359 126.541L352.393 126.516C352.166 126.91 352.059 127.277 352.613 127.495L352.589 127.512C352.752 127.547 352.916 127.584 353.08 127.619L353.066 127.598C356.724 127.98 358.891 131.067 361.883 132.78C362.172 131.897 361.359 131.927 361.308 131.31C361.967 131.136 362.748 131.046 362.515 129.869C362.359 129.084 363.032 128.203 363.871 129.083C365.001 130.269 366.505 129.865 367.768 130.385C368.371 130.633 369.206 129.98 369.443 131.386C369.583 132.219 370.838 131.384 371.977 130.946C371.04 132.348 371.786 132.827 372.652 133.123C373.121 133.283 373.945 134.158 374.051 132.747C373.993 132.783 373.939 132.831 373.876 132.852C373.829 132.868 373.771 132.849 373.719 132.845C373.835 132.822 373.951 132.8 374.067 132.778C374.403 131.526 375.892 130.989 377.352 131.817C379.016 132.763 380.936 132.568 382.695 133.272C384.017 133.802 383.529 132.055 383.607 131.216L383.541 131.079L383.639 131.194C384.154 131.118 384.671 130.949 385.391 131.34C384.247 132.529 384.04 133.742 385.597 134.751C385.781 134.87 386.088 135.151 386.091 135.147C387.728 133.236 390.006 135.698 391.726 134.315C392.249 133.895 392.465 134.19 393.019 134.637C393.913 135.359 395.35 135.532 396.586 135.674C397.81 135.814 398.792 136.292 399.768 136.965C400.483 137.457 401.273 138.076 402.148 137.175C402.068 137.079 401.735 137.22 401.891 136.902C401.967 137.001 402.043 137.1 402.119 137.199Z" fill="#7C6063"/>
<path fill-rule="evenodd" clip-rule="evenodd" d="M333.406 128.757C336.203 128.013 339.08 128.367 341.77 128.892C343.993 129.325 346.46 129.394 348.445 130.841C348.843 131.13 349.275 131.058 349.692 130.78C350.483 130.252 350.916 130.768 351.306 131.371L351.293 131.352C352.919 131.711 354.198 133.145 356.025 132.884L356.005 132.906C356.18 130.515 355.492 129.297 353.216 129.265C351.743 129.244 351.334 128.532 350.782 127.607C350.588 127.619 350.394 127.636 350.2 127.635C350.183 127.634 350.168 127.513 350.151 127.448C350.345 127.459 350.539 127.47 350.733 127.48C351.082 126.807 351.661 126.529 352.393 126.515L352.359 126.541C351.677 125.035 350.663 125.775 349.853 126.288C349.321 126.625 349.007 127.306 348.491 127.968C346.384 126.621 343.848 126.298 341.562 126.155C339.425 126.02 337.131 126.255 334.964 126.023C332.518 125.762 330.123 126.718 327.636 125.89C326.317 125.45 324.473 125.043 323.573 127.048C323.485 127.245 322.926 127.468 322.813 127.382C321.387 126.287 319.089 127.21 318.032 125.309L318.045 125.328C315.775 124.623 313.525 123.821 311.079 124.515C309.503 124.962 307.906 125.343 306.246 124.899C306.041 124.844 305.734 124.833 305.586 124.947C303.722 126.377 301.824 125.226 299.933 125.078C298.659 124.979 297.381 125.053 296.252 125.801C295.793 126.105 295.354 126.443 295.665 127.067C295.917 127.576 296.4 127.949 296.952 127.71C298.413 127.076 300.088 127.604 301.502 126.806C301.912 126.573 302.334 126.525 302.801 126.615C304.985 127.037 305.463 126.999 307.759 126.285C307.702 128.179 308.88 127.996 310.128 127.691L310.104 127.71C310.694 127.012 311.701 126.638 311.413 125.369C312.538 125.903 312.316 126.675 312.435 127.479C315.655 126.661 318.563 128.003 321.589 128.325C322.252 128.396 323.012 128.78 323.551 128.406C326.009 126.701 328.329 127.883 330.686 128.598L330.818 128.53L330.691 128.608C332.081 129.187 332.461 127.782 333.265 127.193C333.607 127.744 333.02 128.289 333.439 128.739L333.406 128.757Z" fill="#7C6063"/>
<path fill-rule="evenodd" clip-rule="evenodd" d="M490.918 148.226C490.779 148.09 490.646 148.017 490.613 147.914C490.545 147.701 490.6 147.488 490.872 147.492C490.978 147.494 491.182 147.656 491.17 147.705C491.129 147.882 491.015 148.041 490.918 148.226ZM493.29 148.344L493.918 147.544L493.935 147.57C492.635 146.588 490.965 146.681 489.535 146.056C488.452 145.582 488.203 147.09 487.31 147.174C486.95 146.709 487.598 146.361 487.397 145.906C487.231 145.532 487.043 145.24 486.619 145.222C486.268 145.208 486.158 145.418 486.081 145.773C485.823 146.956 485.098 146.669 484.528 146.098C483.029 144.594 481.852 144.357 479.66 145.269C479.49 145.401 479.69 145.812 479.285 145.764C479.415 145.606 479.545 145.448 479.675 145.29C479.41 144.437 478.855 144.157 478.011 144.45L478.024 144.47C477.48 143.857 477.022 144.136 476.581 144.607L476.603 144.592C473.718 142.873 470.357 143.061 467.229 142.317C466.705 142.192 466.012 142.776 465.397 143.032L465.43 143.006C465.393 143.167 465.356 143.328 465.319 143.489L465.315 143.467C467.096 143.763 468.902 143.954 470.593 144.654C470.715 144.351 470.653 143.926 471.134 143.844C471.206 144.301 470.947 144.508 470.582 144.64C470.56 144.785 470.538 144.931 470.516 145.076C473.21 144.948 475.4 146.855 478.072 146.955C478.625 146.975 477.912 147.404 477.774 147.641L477.762 147.622C478.135 147.873 478.606 148.253 478.976 148.051C480.773 147.068 482.436 148.331 484.172 148.365C485.582 148.393 487.018 149.298 488.448 149.772C489.74 150.201 490.884 150.061 492.096 150.087C493.328 150.115 493.08 149.034 493.315 148.326C493.261 148.22 492.942 148.321 493.097 148.05C493.161 148.148 493.226 148.246 493.29 148.344Z" fill="#7C6063"/>
<path fill-rule="evenodd" clip-rule="evenodd" d="M340.691 131.294C340.273 131.792 339.83 131.989 339.217 131.485C339.741 130.838 340.234 131.265 340.7 131.307L340.793 131.244L340.691 131.294ZM345.078 136.426C345.993 137.753 347.466 137.883 348.859 138.18L348.835 138.194C348.898 136.706 347.629 135.951 346.704 135.616C344.742 134.905 343.051 133.894 341.555 132.326C343.171 132.465 344.796 132.537 346.218 133.631C347.825 134.865 349.551 135.866 351.635 136.043L351.609 136.071C351.785 135.603 352.44 135.395 352.305 134.604C350.096 134.396 348.478 133.155 346.751 131.702C345.108 130.322 342.551 130.431 340.345 130.125C339.616 130.023 338.846 130.179 338.193 129.685C337.802 129.39 337.388 129.28 337.001 129.701C336.644 130.088 336.686 130.549 336.897 130.955C337.369 131.865 337.413 133.243 339.074 132.912C339.453 132.836 340.075 133.018 340.305 133.305C341.568 134.885 343.435 135.496 345.09 136.444L345.168 136.377L345.078 136.426Z" fill="#7C6063"/>
<path fill-rule="evenodd" clip-rule="evenodd" d="M465.398 143.032C465.453 142.673 465.632 142.076 465.303 142.015C464.006 141.774 462.69 140.918 461.095 142.023C462.156 142.552 463.365 142.568 463.896 143.602L463.88 143.615L464.355 143.721L464.346 143.704C464.669 143.625 464.992 143.546 465.316 143.468L465.319 143.49C465.206 143.293 465.259 143.136 465.431 143.006L465.398 143.032Z" fill="#7C6063"/>
<path fill-rule="evenodd" clip-rule="evenodd" d="M455.032 141.885C455.732 142.496 456.536 142.893 457.601 142.927C457.912 141.851 457.395 141.266 456.586 140.958C455.875 140.688 455.269 140.919 455.032 141.885Z" fill="#7C6063"/>
<path fill-rule="evenodd" clip-rule="evenodd" d="M434.963 145.004C435.274 144.456 435.585 143.91 435.977 143.221C435.021 143.084 434.206 143.159 433.258 143.38C433.498 144.412 434.58 144.349 434.982 144.989L434.963 145.004Z" fill="#7C6063"/>
<path fill-rule="evenodd" clip-rule="evenodd" d="M458.304 146.025C458.909 148.029 461.003 146.711 462.007 147.826C461.13 146.4 459.505 146.681 458.277 146.053L458.304 146.025Z" fill="#7C6063"/>
<path fill-rule="evenodd" clip-rule="evenodd" d="M429.571 142.392C430.031 142.641 430.233 143.48 430.939 143.116C431.296 142.932 431.193 142.477 430.938 142.183C430.378 141.542 429.954 141.86 429.583 142.413L429.571 142.392Z" fill="#7C6063"/>
<path fill-rule="evenodd" clip-rule="evenodd" d="M440.632 142.827C441.303 143.592 441.82 143.913 442.686 143.403C442.144 142.819 441.523 142.8 440.632 142.827Z" fill="#7C6063"/>
<path fill-rule="evenodd" clip-rule="evenodd" d="M452.221 144.406C452.091 144.748 452.229 144.972 452.566 145.022C452.932 145.076 453.314 145.019 453.467 144.624C453.553 144.406 453.384 144.207 453.156 144.131C452.786 144.005 452.445 144.017 452.221 144.406Z" fill="#7C6063"/>
<path fill-rule="evenodd" clip-rule="evenodd" d="M459.574 142.588C459.896 142.56 460.146 142.392 460.257 142.106C460.392 141.76 460.209 141.539 459.852 141.544C459.52 141.551 459.324 141.783 459.266 142.101C459.223 142.341 459.286 142.543 459.574 142.588Z" fill="#7C6063"/>
<path fill-rule="evenodd" clip-rule="evenodd" d="M461.19 145.326C460.846 144.975 460.48 144.701 459.865 144.887C460.256 145.472 460.82 145.09 461.21 145.311L461.19 145.326Z" fill="#7C6063"/>
<path fill-rule="evenodd" clip-rule="evenodd" d="M455.229 145.34C455.284 145.672 455.243 146.063 455.702 146.153C455.749 146.163 455.86 146.092 455.863 146.053C455.89 145.597 455.502 145.521 455.208 145.359L455.229 145.34Z" fill="#7C6063"/>
<path fill-rule="evenodd" clip-rule="evenodd" d="M452.461 141.05L452.476 141.073L452.461 141.05Z" fill="#7C6063"/>
<path fill-rule="evenodd" clip-rule="evenodd" d="M460.714 143.356L460.727 143.377L460.714 143.356Z" fill="#7C6063"/>
<path fill-rule="evenodd" clip-rule="evenodd" d="M563.345 163.132C563.368 163.249 563.354 163.404 563.425 163.474C563.485 163.533 563.642 163.495 563.756 163.5C563.735 163.381 563.751 163.225 563.68 163.155C563.62 163.095 563.461 163.135 563.345 163.132ZM507.165 148.484C507.098 148.368 507.056 148.188 506.956 148.147C506.717 148.048 506.515 148.143 506.557 148.434C506.572 148.535 506.744 148.665 506.86 148.683C506.949 148.697 507.062 148.557 507.165 148.484ZM553.795 160.704C553.902 160.897 554.02 161.085 554.285 161.015C554.324 161.005 554.338 160.902 554.363 160.843C554.165 160.802 553.967 160.761 553.768 160.72L553.795 160.704ZM547.744 158.887L547.772 158.978L547.717 158.905L547.676 158.828L547.744 158.887ZM591.665 177.005C589.579 176.615 588.05 175.071 586.115 174.297C584.625 173.701 582.858 173.66 581.613 172.456L581.591 172.476C581.777 172.348 581.797 172.184 581.696 171.994L581.722 172.039C581.645 171.901 581.531 171.85 581.38 171.887C581.308 171.922 581.241 171.963 581.18 172.016L581.125 172.198L581.17 172.386L581.16 172.357C580.554 173.039 579.881 173.277 579.178 172.817C578.612 171.938 580.728 172.052 579.595 171.102L579.617 171.088C579.175 171.522 578.671 171.317 578.18 171.227L578.196 171.246L577.505 170.142L577.525 170.176C577.289 169.786 576.993 169.668 576.604 169.967L576.631 169.957C576.054 169.853 575.517 169.467 574.903 169.638C571.279 170.648 567.528 170.487 563.85 170.942C561.951 171.177 559.909 171.398 558.1 172.291L558.127 172.275C557.118 171.689 556.074 171.923 555.08 172.247C554.141 172.552 553.437 172.133 553.364 171.385C553.297 170.698 552.832 169.622 554.2 169.252C555.931 168.783 557.628 168.246 559.451 168.418C559.418 168.575 559.385 168.734 559.351 168.892C559.025 168.839 558.66 168.571 558.438 169.057C558.418 169.102 558.463 169.217 558.51 169.246C558.965 169.522 559.147 169.19 559.329 168.865C559.362 168.72 559.393 168.576 559.425 168.431C560.162 168.376 560.626 169.161 561.735 168.459C562.925 167.705 564.868 168.208 566.48 168.129C567.742 168.068 568.969 167.836 570.206 167.838C570.517 167.045 569.711 166.963 569.536 166.528L569.548 166.547C567.393 167.08 565.204 167.03 563.012 166.915L563.023 166.933C562.979 166.888 562.939 166.813 562.891 166.807C562.778 166.794 562.661 166.816 562.545 166.824L562.561 166.812C562.016 165.75 561.188 166.019 560.35 166.343C560.304 165.969 560.737 165.465 559.956 165.215C559.763 165.739 560.076 166.033 560.375 166.33C559.988 166.965 559.572 166.842 559.136 166.384C558.576 165.796 558.042 165.177 557.441 164.634C556.39 163.688 555.354 162.971 553.708 163.405C552.381 163.754 550.928 163.39 549.574 162.98L549.59 163.004C549.35 161.967 548.967 162.616 548.584 162.906C547.979 163.365 547.6 164.32 546.617 164.012C544.376 163.307 542.435 164.535 540.376 164.944C539.263 165.167 538.213 165.414 537.159 164.824L537.286 164.765L537.176 164.85C537.323 163.98 537.711 163.375 538.35 163.395C540.44 163.461 542.351 163.315 543.984 161.651C544.572 161.052 545.985 161.797 547.148 160.856C544.414 160.648 542.089 159.985 539.747 159.395L539.774 159.425C539.66 158.388 539.336 157.654 538.081 158.226C537.496 158.492 536.92 158.283 536.344 158.177L536.361 158.205C536.82 157.837 537.195 157.112 536.331 157.22C533.623 157.555 531.472 156.311 529.279 155.138C528.348 154.639 527.737 155.154 527.015 155.519C526.515 155.772 526.474 155.75 525.987 154.931C525.742 154.52 525.405 154.489 525.043 154.594C524.106 154.87 523.276 154.615 522.474 154.155L522.495 154.188C522.543 153.639 522.571 153.123 521.759 153.182C520.013 153.309 518.423 152.848 516.76 152.275C515.5 151.842 514.049 152.082 512.77 151.221C512.078 150.755 511.527 151.344 511.842 152.269L511.828 152.244C509.737 150.585 507.036 151.696 504.802 150.692C504.625 150.355 504.407 150.116 504.001 150.381C503.955 150.411 503.908 150.525 503.929 150.561C504.18 150.992 504.519 150.718 504.831 150.661C504.792 151.232 504.452 151.42 503.926 151.374C503.353 151.324 502.906 151.512 502.644 152.051L502.664 152.039C502.139 151.746 501.542 151.445 501.58 150.761C501.612 150.181 502.204 150.258 502.623 150.181L502.593 150.199C502.518 149.87 502.442 149.541 502.366 149.212L502.374 149.222C502.217 149.188 502.059 149.155 501.901 149.122L501.921 149.108C500.887 149.414 499.904 149.364 498.86 148.995C497.68 148.578 496.462 148.191 495.143 148.526C493.495 148.943 492.489 147.857 491.562 146.773C490.916 146.016 491.321 145.289 492.157 145.488C494.384 146.017 496.722 146.221 498.768 147.377C498.906 147.454 498.901 147.786 498.961 147.999L498.947 147.976C499.966 147.843 499.57 146.552 500.529 146.206C501.075 146.417 501.75 146.678 502.425 146.94L502.405 146.909C502.473 147.042 502.576 147.297 502.604 147.29C506.06 146.299 509.266 147.769 512.546 148.357C513.94 148.608 515.304 148.997 516.736 149.004C517.104 149.006 517.667 148.977 517.809 149.186C518.88 150.774 520.472 150.334 521.951 150.356C522.062 150.393 522.032 150.708 522.261 150.511C522.149 150.466 522.037 150.422 521.925 150.376C521.996 150.354 522.091 150.29 522.136 150.315C524.499 151.631 527.443 150.814 529.73 152.373C530.645 152.996 531.824 153.029 532.717 153.032C534.472 153.037 535.959 152.853 537.289 154.459C537.884 155.179 539.36 154.752 540.484 155.098C542.567 155.738 544.659 156.568 546.949 156.824C550.48 157.218 554.08 157.815 556.773 160.791C557.598 161.703 559.324 162.09 560.672 162.177C563.411 162.353 565.856 163.38 568.289 164.397C570.135 165.17 572.371 164.762 573.914 166.204C574.864 167.092 576.485 166.66 577.122 168.093C577.444 168.818 578.122 168.011 578.736 168.2C580.459 168.731 581.888 169.814 583.429 170.617C584.846 171.356 586.805 171.15 587.738 173.059C588.139 173.878 588.991 172.913 589.482 172.369L589.456 172.384C589.877 172.621 590.297 172.857 590.717 173.093C590.646 173.286 590.575 173.478 590.504 173.671C590.569 173.682 590.665 173.726 590.689 173.7C590.877 173.505 590.781 173.302 590.68 173.105C592.031 172.747 592.302 174.229 593.231 174.601C596.199 175.79 599.155 177.006 602.121 178.198C602.589 178.385 603.253 178.358 603.052 179.151C602.891 179.781 602.373 180.016 601.832 179.825C600.807 179.461 599.744 179.713 598.722 179.514C597.542 179.283 596.373 179.114 594.969 179.789C595.983 178.622 594.931 177.883 595.053 176.646C594.023 177.739 593.069 177.868 592.096 177.105L592.104 177.122C592.082 176.775 592.33 176.179 591.884 176.16C591.283 176.136 591.683 176.711 591.646 177.026L591.665 177.005Z" fill="#7C6063"/>
<path fill-rule="evenodd" clip-rule="evenodd" d="M624.463 184.682C624.478 184.75 624.473 184.84 624.516 184.879C624.548 184.909 624.639 184.877 624.705 184.873C624.689 184.805 624.694 184.715 624.653 184.677C624.619 184.646 624.528 184.678 624.463 184.682ZM619.778 185.692C619.834 185.686 619.89 185.68 619.945 185.674C619.928 185.573 619.915 185.47 619.884 185.373C619.881 185.362 619.776 185.382 619.719 185.388C619.739 185.49 619.758 185.591 619.778 185.692ZM619.059 184.534C618.949 184.589 618.729 184.339 618.718 184.659C618.826 184.608 618.936 184.557 619.044 184.507C619.159 184.457 619.421 184.726 619.383 184.349C619.275 184.411 619.167 184.473 619.059 184.534ZM615.645 183.308L615.523 183.35L615.625 183.276L615.645 183.308ZM624.582 186.668C623.355 186.922 622.156 187.887 620.878 186.812C622.093 187.029 622.342 186.182 622.551 185.292L622.656 185.245L622.569 185.32C622.421 185.284 622.271 185.249 622.123 185.213C621.843 184.946 621.635 184.523 621.104 184.746C621.327 185.22 621.814 185.03 622.149 185.192C622.051 185.994 621.472 186.385 620.835 186.727C620.234 187.068 619.621 187.113 618.994 186.801L619.006 186.821C617.456 186.247 615.865 185.866 614.886 184.223C614.538 183.638 613.998 184.133 614.342 184.858L614.369 184.842C613.935 184.929 613.314 185.154 613.139 184.703C612.489 183.031 611.081 183.2 609.702 182.928C608.212 182.635 606.478 182.592 605.513 181.028L605.526 181.048C604.943 180.597 604.243 180.251 604.021 179.271C605.971 178.507 607.631 179.739 609.221 180.273C614.026 181.889 618.966 182.549 623.952 183.124C625.78 183.336 627.352 184.57 629.234 184.687C629.521 184.704 629.811 184.68 630.1 184.675L630.076 184.691C630.295 184.426 630.515 184.16 630.734 183.895L630.713 183.909C631.903 184.761 633.362 184.948 634.698 185.056C637.697 185.299 640.475 186.542 643.46 186.755L643.444 186.73C643.549 186.875 643.654 187.018 643.76 187.163C643.792 187.26 643.82 187.358 643.845 187.458C642.823 188.346 641.443 187.834 640.327 188.356L640.367 188.342C639.836 187.908 639.234 187.425 638.561 187.55C636.207 187.985 634.001 186.76 631.681 187.022C631.112 187.086 630.57 186.54 630.243 186.621C628.333 187.098 626.422 185.721 624.55 186.688L624.582 186.668Z" fill="#7C6063"/>
</svg>
