<svg width="1600" height="309" viewBox="0 0 1600 309" fill="none" xmlns="http://www.w3.org/2000/svg">
<path d="M1409.83 42.2125C1452.62 42.6838 1701.06 65.8447 1731 69.7717L1648.29 330L-24 313.767L-24 48.6923L134.507 39.8565L221.025 39.8565C272.32 44.1762 386.797 50.2238 434.349 39.8565C493.789 26.8972 528.132 44.5689 553.229 33.9659C573.307 25.4835 653.177 13.5453 690.602 8.63654L724.945 12.1707C776.46 0.978547 880.81 3.33503 909.87 0.978809C933.118 -0.906167 991.765 7.65469 1018.18 12.1707C1093.47 4.51302 1130.46 13.3488 1152.91 16.8831C1175.37 20.4175 1168.1 14.5269 1203.11 16.8831C1238.11 19.2394 1356.33 41.6235 1409.83 42.2125Z" fill="#FFF0BB"/>
</svg>
