<svg width="63" height="43" viewBox="0 0 63 43" fill="none" xmlns="http://www.w3.org/2000/svg">
<path d="M61.6875 7.08083C61.3308 5.80831 60.6359 4.65624 59.6768 3.74708C58.6905 2.80996 57.4818 2.13962 56.1645 1.79933C51.2348 0.499955 31.4843 0.499956 31.4843 0.499956C23.2505 0.406276 15.0188 0.818301 6.83553 1.7337C5.51828 2.09914 4.31176 2.78446 3.32328 3.72871C2.35203 4.66321 1.64853 5.81558 1.28103 7.07821C0.398227 11.834 -0.0307003 16.663 3.3192e-05 21.5C-0.0314668 26.3326 0.396408 31.16 1.28103 35.9217C1.64066 37.1791 2.34153 38.3262 3.31541 39.2528C4.28928 40.1795 5.50203 40.8488 6.83553 41.2032C11.8309 42.5 31.4843 42.5 31.4843 42.5C39.7285 42.5938 47.9708 42.1817 56.1645 41.2662C57.4818 40.9259 58.6905 40.2556 59.6768 39.3185C60.648 38.3918 61.3384 37.2395 61.6849 35.9847C62.5908 31.2307 63.0312 26.3998 63 21.5603C63.0682 16.7004 62.6283 11.8467 61.6875 7.07821V7.08083ZM25.2053 30.488V12.5146L41.6378 21.5026L25.2053 30.488Z" fill="white"/>
</svg>
