<svg width="87" height="22" viewBox="0 0 87 22" fill="none" xmlns="http://www.w3.org/2000/svg">
<rect x="0.5" width="86" height="22" rx="11" fill="#FFD5D1"/>
<path d="M16.564 7.402V16H15.982C15.89 16 15.812 15.984 15.748 15.952C15.688 15.92 15.628 15.866 15.568 15.79L10.594 9.31C10.602 9.41 10.608 9.508 10.612 9.604C10.616 9.7 10.618 9.79 10.618 9.874V16H9.598V7.402H10.198C10.25 7.402 10.294 7.406 10.33 7.414C10.366 7.418 10.398 7.428 10.426 7.444C10.454 7.456 10.482 7.476 10.51 7.504C10.538 7.528 10.568 7.56 10.6 7.6L15.574 14.074C15.566 13.97 15.558 13.87 15.55 13.774C15.546 13.674 15.544 13.58 15.544 13.492V7.402H16.564ZM20.8846 9.826C21.3286 9.826 21.7286 9.9 22.0846 10.048C22.4406 10.196 22.7446 10.406 22.9966 10.678C23.2486 10.95 23.4406 11.28 23.5726 11.668C23.7086 12.052 23.7766 12.482 23.7766 12.958C23.7766 13.438 23.7086 13.87 23.5726 14.254C23.4406 14.638 23.2486 14.966 22.9966 15.238C22.7446 15.51 22.4406 15.72 22.0846 15.868C21.7286 16.012 21.3286 16.084 20.8846 16.084C20.4366 16.084 20.0326 16.012 19.6726 15.868C19.3166 15.72 19.0126 15.51 18.7606 15.238C18.5086 14.966 18.3146 14.638 18.1786 14.254C18.0466 13.87 17.9806 13.438 17.9806 12.958C17.9806 12.482 18.0466 12.052 18.1786 11.668C18.3146 11.28 18.5086 10.95 18.7606 10.678C19.0126 10.406 19.3166 10.196 19.6726 10.048C20.0326 9.9 20.4366 9.826 20.8846 9.826ZM20.8846 15.25C21.4846 15.25 21.9326 15.05 22.2286 14.65C22.5246 14.246 22.6726 13.684 22.6726 12.964C22.6726 12.24 22.5246 11.676 22.2286 11.272C21.9326 10.868 21.4846 10.666 20.8846 10.666C20.5806 10.666 20.3146 10.718 20.0866 10.822C19.8626 10.926 19.6746 11.076 19.5226 11.272C19.3746 11.468 19.2626 11.71 19.1866 11.998C19.1146 12.282 19.0786 12.604 19.0786 12.964C19.0786 13.684 19.2266 14.246 19.5226 14.65C19.8226 15.05 20.2766 15.25 20.8846 15.25ZM26.8917 16.096C26.4117 16.096 26.0417 15.962 25.7817 15.694C25.5257 15.426 25.3977 15.04 25.3977 14.536V10.816H24.6657C24.6017 10.816 24.5477 10.798 24.5037 10.762C24.4597 10.722 24.4377 10.662 24.4377 10.582V10.156L25.4337 10.03L25.6797 8.152C25.6917 8.092 25.7177 8.044 25.7577 8.008C25.8017 7.968 25.8577 7.948 25.9257 7.948H26.4657V10.042H28.2237V10.816H26.4657V14.464C26.4657 14.72 26.5277 14.91 26.6517 15.034C26.7757 15.158 26.9357 15.22 27.1317 15.22C27.2437 15.22 27.3397 15.206 27.4197 15.178C27.5037 15.146 27.5757 15.112 27.6357 15.076C27.6957 15.04 27.7457 15.008 27.7857 14.98C27.8297 14.948 27.8677 14.932 27.8997 14.932C27.9557 14.932 28.0057 14.966 28.0497 15.034L28.3617 15.544C28.1777 15.716 27.9557 15.852 27.6957 15.952C27.4357 16.048 27.1677 16.096 26.8917 16.096ZM36.8163 12.808L35.4663 9.31C35.4263 9.206 35.3843 9.086 35.3403 8.95C35.2963 8.81 35.2543 8.662 35.2143 8.506C35.1303 8.83 35.0443 9.1 34.9563 9.316L33.6063 12.808H36.8163ZM39.2403 16H38.3403C38.2363 16 38.1523 15.974 38.0883 15.922C38.0243 15.87 37.9763 15.804 37.9443 15.724L37.1403 13.648H33.2823L32.4783 15.724C32.4543 15.796 32.4083 15.86 32.3403 15.916C32.2723 15.972 32.1883 16 32.0883 16H31.1883L34.6263 7.402H35.8023L39.2403 16ZM44.847 9.922L42.369 16H41.409L38.931 9.922H39.801C39.889 9.922 39.961 9.944 40.017 9.988C40.073 10.032 40.111 10.084 40.131 10.144L41.673 14.056C41.721 14.204 41.763 14.348 41.799 14.488C41.835 14.628 41.869 14.768 41.901 14.908C41.933 14.768 41.967 14.628 42.003 14.488C42.039 14.348 42.083 14.204 42.135 14.056L43.695 10.144C43.719 10.08 43.759 10.028 43.815 9.988C43.871 9.944 43.937 9.922 44.013 9.922H44.847ZM48.9916 13.264C48.4996 13.28 48.0796 13.32 47.7316 13.384C47.3876 13.444 47.1056 13.524 46.8856 13.624C46.6696 13.724 46.5116 13.842 46.4116 13.978C46.3156 14.114 46.2676 14.266 46.2676 14.434C46.2676 14.594 46.2936 14.732 46.3456 14.848C46.3976 14.964 46.4676 15.06 46.5556 15.136C46.6476 15.208 46.7536 15.262 46.8736 15.298C46.9976 15.33 47.1296 15.346 47.2696 15.346C47.4576 15.346 47.6296 15.328 47.7856 15.292C47.9416 15.252 48.0876 15.196 48.2236 15.124C48.3636 15.052 48.4956 14.966 48.6196 14.866C48.7476 14.766 48.8716 14.652 48.9916 14.524V13.264ZM45.5416 10.78C45.8776 10.456 46.2396 10.214 46.6276 10.054C47.0156 9.894 47.4456 9.814 47.9176 9.814C48.2576 9.814 48.5596 9.87 48.8236 9.982C49.0876 10.094 49.3096 10.25 49.4896 10.45C49.6696 10.65 49.8056 10.892 49.8976 11.176C49.9896 11.46 50.0356 11.772 50.0356 12.112V16H49.5616C49.4576 16 49.3776 15.984 49.3216 15.952C49.2656 15.916 49.2216 15.848 49.1896 15.748L49.0696 15.172C48.9096 15.32 48.7536 15.452 48.6016 15.568C48.4496 15.68 48.2896 15.776 48.1216 15.856C47.9536 15.932 47.7736 15.99 47.5816 16.03C47.3936 16.074 47.1836 16.096 46.9516 16.096C46.7156 16.096 46.4936 16.064 46.2856 16C46.0776 15.932 45.8956 15.832 45.7396 15.7C45.5876 15.568 45.4656 15.402 45.3736 15.202C45.2856 14.998 45.2416 14.758 45.2416 14.482C45.2416 14.242 45.3076 14.012 45.4396 13.792C45.5716 13.568 45.7856 13.37 46.0816 13.198C46.3776 13.026 46.7636 12.886 47.2396 12.778C47.7156 12.666 48.2996 12.602 48.9916 12.586V12.112C48.9916 11.64 48.8896 11.284 48.6856 11.044C48.4816 10.8 48.1836 10.678 47.7916 10.678C47.5276 10.678 47.3056 10.712 47.1256 10.78C46.9496 10.844 46.7956 10.918 46.6636 11.002C46.5356 11.082 46.4236 11.156 46.3276 11.224C46.2356 11.288 46.1436 11.32 46.0516 11.32C45.9796 11.32 45.9176 11.302 45.8656 11.266C45.8136 11.226 45.7696 11.178 45.7336 11.122L45.5416 10.78ZM52.7904 9.922V16H51.7224V9.922H52.7904ZM53.0184 8.014C53.0184 8.118 52.9964 8.216 52.9524 8.308C52.9124 8.396 52.8564 8.476 52.7844 8.548C52.7164 8.616 52.6344 8.67 52.5384 8.71C52.4464 8.75 52.3484 8.77 52.2444 8.77C52.1404 8.77 52.0424 8.75 51.9504 8.71C51.8624 8.67 51.7844 8.616 51.7164 8.548C51.6484 8.476 51.5944 8.396 51.5544 8.308C51.5144 8.216 51.4944 8.118 51.4944 8.014C51.4944 7.91 51.5144 7.812 51.5544 7.72C51.5944 7.624 51.6484 7.542 51.7164 7.474C51.7844 7.402 51.8624 7.346 51.9504 7.306C52.0424 7.266 52.1404 7.246 52.2444 7.246C52.3484 7.246 52.4464 7.266 52.5384 7.306C52.6344 7.346 52.7164 7.402 52.7844 7.474C52.8564 7.542 52.9124 7.624 52.9524 7.72C52.9964 7.812 53.0184 7.91 53.0184 8.014ZM55.6492 7.162V16H54.5812V7.162H55.6492ZM60.6752 13.264C60.1832 13.28 59.7632 13.32 59.4152 13.384C59.0712 13.444 58.7892 13.524 58.5692 13.624C58.3532 13.724 58.1952 13.842 58.0952 13.978C57.9992 14.114 57.9512 14.266 57.9512 14.434C57.9512 14.594 57.9772 14.732 58.0292 14.848C58.0812 14.964 58.1512 15.06 58.2392 15.136C58.3312 15.208 58.4372 15.262 58.5572 15.298C58.6812 15.33 58.8132 15.346 58.9532 15.346C59.1412 15.346 59.3132 15.328 59.4692 15.292C59.6252 15.252 59.7712 15.196 59.9072 15.124C60.0472 15.052 60.1792 14.966 60.3032 14.866C60.4312 14.766 60.5552 14.652 60.6752 14.524V13.264ZM57.2252 10.78C57.5612 10.456 57.9232 10.214 58.3112 10.054C58.6992 9.894 59.1292 9.814 59.6012 9.814C59.9412 9.814 60.2432 9.87 60.5072 9.982C60.7712 10.094 60.9932 10.25 61.1732 10.45C61.3532 10.65 61.4892 10.892 61.5812 11.176C61.6732 11.46 61.7192 11.772 61.7192 12.112V16H61.2452C61.1412 16 61.0612 15.984 61.0052 15.952C60.9492 15.916 60.9052 15.848 60.8732 15.748L60.7532 15.172C60.5932 15.32 60.4372 15.452 60.2852 15.568C60.1332 15.68 59.9732 15.776 59.8052 15.856C59.6372 15.932 59.4572 15.99 59.2652 16.03C59.0772 16.074 58.8672 16.096 58.6352 16.096C58.3992 16.096 58.1772 16.064 57.9692 16C57.7612 15.932 57.5792 15.832 57.4232 15.7C57.2712 15.568 57.1492 15.402 57.0572 15.202C56.9692 14.998 56.9252 14.758 56.9252 14.482C56.9252 14.242 56.9912 14.012 57.1232 13.792C57.2552 13.568 57.4692 13.37 57.7652 13.198C58.0612 13.026 58.4472 12.886 58.9232 12.778C59.3992 12.666 59.9832 12.602 60.6752 12.586V12.112C60.6752 11.64 60.5732 11.284 60.3692 11.044C60.1652 10.8 59.8672 10.678 59.4752 10.678C59.2112 10.678 58.9892 10.712 58.8092 10.78C58.6332 10.844 58.4792 10.918 58.3472 11.002C58.2192 11.082 58.1072 11.156 58.0112 11.224C57.9192 11.288 57.8272 11.32 57.7352 11.32C57.6632 11.32 57.6012 11.302 57.5492 11.266C57.4972 11.226 57.4532 11.178 57.4172 11.122L57.2252 10.78ZM64.42 14.536C64.616 14.8 64.83 14.986 65.062 15.094C65.298 15.202 65.556 15.256 65.836 15.256C66.408 15.256 66.846 15.054 67.15 14.65C67.454 14.246 67.606 13.644 67.606 12.844C67.606 12.1 67.47 11.554 67.198 11.206C66.93 10.854 66.546 10.678 66.046 10.678C65.698 10.678 65.394 10.758 65.134 10.918C64.878 11.078 64.64 11.304 64.42 11.596V14.536ZM64.42 10.798C64.676 10.502 64.964 10.266 65.284 10.09C65.608 9.914 65.98 9.826 66.4 9.826C66.756 9.826 67.076 9.894 67.36 10.03C67.648 10.166 67.892 10.364 68.092 10.624C68.292 10.88 68.444 11.192 68.548 11.56C68.656 11.928 68.71 12.342 68.71 12.802C68.71 13.294 68.65 13.742 68.53 14.146C68.41 14.55 68.236 14.896 68.008 15.184C67.784 15.468 67.51 15.69 67.186 15.85C66.862 16.006 66.498 16.084 66.094 16.084C65.694 16.084 65.356 16.01 65.08 15.862C64.808 15.71 64.57 15.496 64.366 15.22L64.312 15.772C64.28 15.924 64.188 16 64.036 16H63.346V7.162H64.42V10.798ZM71.1648 7.162V16H70.0968V7.162H71.1648ZM76.9648 12.298C76.9648 12.05 76.9288 11.824 76.8568 11.62C76.7888 11.412 76.6868 11.234 76.5508 11.086C76.4188 10.934 76.2568 10.818 76.0648 10.738C75.8728 10.654 75.6548 10.612 75.4108 10.612C74.8988 10.612 74.4928 10.762 74.1928 11.062C73.8968 11.358 73.7128 11.77 73.6408 12.298H76.9648ZM77.8288 15.148C77.6968 15.308 77.5388 15.448 77.3548 15.568C77.1708 15.684 76.9728 15.78 76.7608 15.856C76.5528 15.932 76.3368 15.988 76.1128 16.024C75.8888 16.064 75.6668 16.084 75.4468 16.084C75.0268 16.084 74.6388 16.014 74.2828 15.874C73.9308 15.73 73.6248 15.522 73.3648 15.25C73.1088 14.974 72.9088 14.634 72.7648 14.23C72.6208 13.826 72.5488 13.362 72.5488 12.838C72.5488 12.414 72.6128 12.018 72.7408 11.65C72.8728 11.282 73.0608 10.964 73.3048 10.696C73.5488 10.424 73.8468 10.212 74.1988 10.06C74.5508 9.904 74.9468 9.826 75.3868 9.826C75.7508 9.826 76.0868 9.888 76.3948 10.012C76.7068 10.132 76.9748 10.308 77.1988 10.54C77.4268 10.768 77.6048 11.052 77.7328 11.392C77.8608 11.728 77.9248 12.112 77.9248 12.544C77.9248 12.712 77.9068 12.824 77.8708 12.88C77.8348 12.936 77.7668 12.964 77.6668 12.964H73.6048C73.6168 13.348 73.6688 13.682 73.7608 13.966C73.8568 14.25 73.9888 14.488 74.1568 14.68C74.3248 14.868 74.5248 15.01 74.7568 15.106C74.9888 15.198 75.2488 15.244 75.5368 15.244C75.8048 15.244 76.0348 15.214 76.2268 15.154C76.4228 15.09 76.5908 15.022 76.7308 14.95C76.8708 14.878 76.9868 14.812 77.0788 14.752C77.1748 14.688 77.2568 14.656 77.3248 14.656C77.4128 14.656 77.4808 14.69 77.5288 14.758L77.8288 15.148Z" fill="#A8071A"/>
</svg>
