<svg width="48" height="49" viewBox="0 0 48 49" fill="none" xmlns="http://www.w3.org/2000/svg">
<path d="M29.7325 21.4269L29.8153 21.428C30.1229 21.4535 30.3587 21.7088 30.375 22.0163L30.3671 22.1877L30.105 25.397L29.8301 28.529C29.7719 29.1543 29.7198 29.6816 29.6749 30.0968C29.5187 31.5435 28.5796 32.4382 27.1638 32.4646C24.9578 32.5054 22.8373 32.505 20.7781 32.4604C19.4033 32.4316 18.4781 31.5273 18.3246 30.1026L18.2186 29.053L18.0333 27.0171L17.8435 24.7829L17.6264 22.1011C17.5995 21.757 17.8496 21.4557 18.1851 21.428C18.4927 21.4027 18.7653 21.6161 18.8293 21.9169L18.8543 22.1627L19.058 24.6768L19.2806 27.2828C19.3804 28.4109 19.4669 29.3239 19.5362 29.9652C19.6237 30.7771 20.0511 31.1949 20.8034 31.2107C22.8465 31.2549 24.9512 31.2553 27.1417 31.2148C27.9398 31.1999 28.374 30.7862 28.4633 29.959L28.5689 28.915C28.5998 28.5933 28.6328 28.2381 28.6678 27.8523L28.8905 25.2894L29.1588 22.0008C29.1836 21.6854 29.4327 21.4436 29.7325 21.4269ZM17.1095 19.9855C16.7729 19.9855 16.5 19.7057 16.5 19.3605C16.5 19.0441 16.7293 18.7826 17.0268 18.7412L17.1095 18.7355H19.7648C20.0803 18.7355 20.3565 18.5273 20.4553 18.2273L20.4795 18.1347L20.6859 17.0823C20.8676 16.3854 21.4577 15.8891 22.1492 15.8332L22.2799 15.8279H25.7199C26.4229 15.8279 27.0436 16.2831 27.2826 16.9865L27.3228 17.1213L27.5203 18.1344C27.5822 18.4518 27.8354 18.6889 28.1417 18.7294L28.2351 18.7355H30.8905C31.2271 18.7355 31.5 19.0153 31.5 19.3605C31.5 19.6769 31.2707 19.9384 30.9732 19.9798L30.8905 19.9855H17.1095ZM25.7199 17.0779H22.2799C22.1089 17.0779 21.9569 17.1806 21.8938 17.3096L21.8724 17.3662L21.6748 18.3799C21.6507 18.5036 21.6157 18.6227 21.5709 18.7363L26.429 18.7365C26.4011 18.6656 26.377 18.5926 26.3569 18.5176L26.325 18.3796L26.1364 17.4052C26.0923 17.2361 25.9561 17.1124 25.7918 17.0841L25.7199 17.0779Z" fill="#EA7C69"/>
<rect x="0.5" y="0.661194" width="47" height="47" rx="7.5" stroke="#EA7C69"/>
</svg>
