<svg width="20" height="20" viewBox="0 0 20 20" fill="none" xmlns="http://www.w3.org/2000/svg">
<path d="M14.932 11.9334C14.7162 12.1426 14.617 12.4451 14.6662 12.7417L15.407 16.8417C15.4695 17.1892 15.3228 17.5409 15.032 17.7417C14.747 17.9501 14.3678 17.9751 14.057 17.8084L10.3662 15.8834C10.2378 15.8151 10.0953 15.7784 9.94949 15.7742H9.72366C9.64532 15.7859 9.56866 15.8109 9.49866 15.8492L5.80699 17.7834C5.62449 17.8751 5.41782 17.9076 5.21532 17.8751C4.72199 17.7817 4.39282 17.3117 4.47366 16.8159L5.21532 12.7159C5.26449 12.4167 5.16532 12.1126 4.94949 11.9001L1.94032 8.9834C1.68866 8.73924 1.60116 8.37257 1.71616 8.04174C1.82782 7.71174 2.11282 7.4709 2.45699 7.41674L6.59866 6.8159C6.91366 6.7834 7.19032 6.59174 7.33199 6.3084L9.15699 2.56674C9.20032 2.4834 9.25616 2.40674 9.32366 2.34174L9.39866 2.2834C9.43782 2.24007 9.48282 2.20424 9.53282 2.17507L9.62366 2.14174L9.76532 2.0834H10.1162C10.4295 2.1159 10.7053 2.3034 10.8495 2.5834L12.6987 6.3084C12.832 6.5809 13.0912 6.77007 13.3903 6.8159L17.532 7.41674C17.882 7.46674 18.1745 7.7084 18.2903 8.04174C18.3995 8.3759 18.3053 8.74257 18.0487 8.9834L14.932 11.9334Z" fill="#F4D041"/>
</svg>
